<svg width="317" height="259" viewBox="0 0 317 259" fill="none" xmlns="http://www.w3.org/2000/svg">
<path d="M159.266 141.273V259H79.7592C79.7592 259 79.7616 208.51 71.0455 168.291L159.266 141.273Z" fill="#602B4D"/>
<path d="M158.655 141.273V259H238.162C238.162 259 238.159 208.51 246.875 168.291L158.655 141.273Z" fill="#602B4D"/>
<path d="M177.418 194.683H141.113V236.809H177.418V194.683Z" fill="#FFD9B4"/>
<path d="M141.113 199.644C141.113 199.644 156.385 209.719 177.418 207.385V194.682H141.113V199.644Z" fill="#FCBC85"/>
<path d="M88.7606 150.3C98.5443 150.3 106.476 140.925 106.476 129.361C106.476 117.797 98.5443 108.422 88.7606 108.422C78.9768 108.422 71.0455 117.797 71.0455 129.361C71.0455 140.925 78.9768 150.3 88.7606 150.3Z" fill="#FCBC85"/>
<path d="M229.769 150.3C239.553 150.3 247.484 140.925 247.484 129.361C247.484 117.797 239.553 108.422 229.769 108.422C219.986 108.422 212.054 117.797 212.054 129.361C212.054 140.925 219.986 150.3 229.769 150.3Z" fill="#FCBC85"/>
<path d="M229.698 89.3672C229.698 58.526 207.914 35.957 159.265 35.957C110.616 35.957 88.8334 58.5247 88.8334 89.3672C88.8334 120.21 83.751 201.453 159.265 201.453C234.78 201.453 229.698 120.21 229.698 89.3672Z" fill="#FFD9B4"/>
<path d="M124.959 132.998C129.17 132.998 132.583 129.124 132.583 124.347C132.583 119.569 129.17 115.695 124.959 115.695C120.748 115.695 117.335 119.569 117.335 124.347C117.335 129.124 120.748 132.998 124.959 132.998Z" fill="#3B2519"/>
<path d="M121.635 122.889C122.894 122.889 123.915 121.832 123.915 120.527C123.915 119.223 122.894 118.165 121.635 118.165C120.376 118.165 119.355 119.223 119.355 120.527C119.355 121.832 120.376 122.889 121.635 122.889Z" fill="white"/>
<path d="M112.762 105.694C116.367 107.125 122.155 100.835 135.408 106.306C137.824 107.304 139.265 97.7739 125.06 97.7739C112.762 97.7739 110.585 104.831 112.762 105.694Z" fill="#36221E"/>
<path d="M194.513 132.998C198.724 132.998 202.138 129.124 202.138 124.347C202.138 119.569 198.724 115.695 194.513 115.695C190.303 115.695 186.889 119.569 186.889 124.347C186.889 129.124 190.303 132.998 194.513 132.998Z" fill="#3B2519"/>
<path d="M191.189 122.889C192.448 122.889 193.469 121.832 193.469 120.527C193.469 119.223 192.448 118.165 191.189 118.165C189.929 118.165 188.909 119.223 188.909 120.527C188.909 121.832 189.929 122.889 191.189 122.889Z" fill="white"/>
<path d="M205.768 105.694C202.162 107.125 196.373 100.835 183.122 106.306C180.706 107.304 179.265 97.7739 193.469 97.7739C205.768 97.7739 207.946 104.831 205.768 105.694Z" fill="#36221E"/>
<path d="M159.265 154.776C151.732 154.776 147.194 148.946 147.194 151.766C147.194 154.588 149.373 159.948 159.265 159.948C169.159 159.948 171.337 154.588 171.337 151.766C171.337 148.945 166.798 154.776 159.265 154.776Z" fill="#FCBC85"/>
<path d="M159.265 180.713C156.66 180.713 155.09 178.696 155.09 179.672C155.09 180.649 155.842 182.501 159.265 182.501C162.687 182.501 163.441 180.649 163.441 179.672C163.441 178.696 161.87 180.713 159.265 180.713Z" fill="#FCBC85"/>
<path d="M159.265 173.525C147.324 173.525 140.131 168.489 140.131 169.765C140.131 171.04 143.583 176.065 159.265 176.065C174.947 176.065 178.4 171.042 178.4 169.765C178.4 168.488 171.206 173.525 159.265 173.525Z" fill="#F7945E"/>
<path d="M115.155 162.71C120.869 162.71 125.501 157.911 125.501 151.992C125.501 146.072 120.869 141.273 115.155 141.273C109.44 141.273 104.808 146.072 104.808 151.992C104.808 157.911 109.44 162.71 115.155 162.71Z" fill="#EC888E"/>
<path d="M204.646 162.71C210.36 162.71 214.993 157.911 214.993 151.992C214.993 146.072 210.36 141.273 204.646 141.273C198.932 141.273 194.3 146.072 194.3 151.992C194.3 157.911 198.932 162.71 204.646 162.71Z" fill="#EC888E"/>
<path d="M159.265 211.608V259H79.7592C79.7592 239.817 117.514 211.608 159.265 211.608Z" fill="#FF759B"/>
<path d="M159.265 211.608V259H238.772C238.772 239.817 201.016 211.608 159.265 211.608Z" fill="#C05371"/>
<path d="M159.265 211.608V259H238.772C238.772 239.817 201.016 211.608 159.265 211.608Z" fill="#FF759B"/>
<path d="M159.265 211.608C141.226 211.608 123.949 216.886 110.124 224.415C120.574 240.858 136.133 254.332 159.265 254.332C182.398 254.332 197.957 240.857 208.406 224.415C194.581 216.886 177.304 211.608 159.265 211.608Z" fill="#98375E"/>
<path d="M159.265 211.608C145.137 211.608 131.509 214.883 119.603 219.9C127.109 233.475 139.371 245.986 159.265 245.986C179.159 245.986 191.421 233.475 198.928 219.9C187.021 214.883 173.394 211.608 159.265 211.608Z" fill="#C05371"/>
<path d="M141.113 213.427C141.113 213.427 146.424 228.495 159.265 228.495C172.107 228.495 177.417 213.426 177.417 213.426C177.417 213.426 158.584 206.323 141.113 213.427Z" fill="#FDCC9B"/>
<path d="M159.265 211.608C148.438 211.608 137.901 213.531 128.201 216.675C133.344 227.505 142.645 238.912 159.265 238.912C175.886 238.912 185.186 227.504 190.33 216.675C180.63 213.531 170.091 211.608 159.265 211.608Z" fill="#98375E"/>
<path d="M136.071 214.464C139.102 222.829 145.631 233.935 159.265 233.935C172.9 233.935 179.429 222.829 182.46 214.464C175.026 212.666 167.226 211.608 159.265 211.608C151.303 211.608 143.505 212.666 136.071 214.464Z" fill="#C05371"/>
<path d="M177.417 213.426C177.417 213.426 175.058 228.495 159.265 228.495C143.473 228.495 141.113 213.427 141.113 213.427C141.113 213.427 148.192 209.219 159.265 209.219C170.339 209.219 177.417 213.426 177.417 213.426Z" fill="#FDCC9B"/>
<path d="M159.265 0.0153547V0C159.175 0 159.091 0.00639781 159.001 0.00767737C158.909 0.00639781 158.825 0 158.734 0V0.0153547C76.9864 0.340364 63.4287 74.0687 68.3197 146.689C73.2218 219.469 115.155 244.857 115.155 244.857C92.2843 220.034 97.9052 162.712 97.9052 162.712C107.884 178.17 121.635 179.406 121.635 179.406C95.4425 161.911 96.638 101.554 115.155 97.7739C132.621 94.209 156.358 76.1544 159.001 74.1148C161.643 76.1557 185.377 94.209 202.844 97.7739C221.361 101.554 222.558 161.911 196.365 179.406C196.365 179.406 210.116 178.17 220.096 162.712C220.096 162.712 225.717 220.032 202.844 244.857C202.844 244.857 244.778 219.469 249.68 146.689C254.57 74.0687 241.014 0.340364 159.265 0.0153547Z" fill="#843A69"/>
<path fill-rule="evenodd" clip-rule="evenodd" d="M95.934 62.065C96.931 60.919 98.161 59.952 98.687 58.444C99.178 57.037 99.134 55.47 100.072 54C101.078 59.642 103.662 63.759 109.853 64.688C107.212 65.827 104.28 65.776 102.266 67.889C100.694 66.7 100.189 65.192 100.975 63.31C99.863 63.053 99.477 63.783 99.099 64.494C98.176 66.234 97.45 65.566 96.837 64.29C96.491 63.57 96.187 62.826 95.934 62.065Z" fill="#FFDB59"/>
<path fill-rule="evenodd" clip-rule="evenodd" d="M95.934 62.0649C97.563 62.4479 96.911 64.2989 98.056 65.2729C98.577 63.5979 99.341 62.1859 101.354 62.3079C102.185 63.9189 102.185 63.9189 101.125 64.3719C100.76 65.7869 102.128 66.6379 102.266 67.8889C101.675 68.2089 101.362 68.7149 101.285 69.3749C100.325 69.9619 99.926 69.3449 99.593 68.6049C99.594 68.6209 99.709 68.4099 99.709 68.4099C99.709 68.4099 99.492 68.3059 99.491 68.3149C99.3 68.5589 99.081 68.6229 98.821 68.4339C97.312 65.6359 94.543 65.4019 91.853 65.0209C91.023 64.9039 90.13 65.1989 89 64.5549C90.603 63.7689 92.039 63.6399 93.476 63.5149C94.332 63.0939 95.716 63.5679 95.934 62.0649Z" fill="#FCBE75"/>
<path fill-rule="evenodd" clip-rule="evenodd" d="M98.82 68.434C99.159 68.262 99.499 68.09 99.838 67.918L99.836 67.916C99.888 68.83 100.353 69.333 101.284 69.374C100.389 71.251 101.201 73.437 100.157 75.905C99.643 73.031 99.232 70.733 98.82 68.434Z" fill="#FFDB59"/>
<path fill-rule="evenodd" clip-rule="evenodd" d="M102.47 69.5849C104.139 69.0849 105.697 68.904 106.462 70.983C104.345 71.959 104.345 71.9589 102.47 69.5849Z" fill="#837D85"/>
<path fill-rule="evenodd" clip-rule="evenodd" d="M95.934 62.0649C96.49 62.9339 96.268 63.5059 95.289 63.8229C94.622 64.0379 94.105 63.4649 93.476 63.5149C94.146 62.7799 95.074 62.4789 95.934 62.0649Z" fill="#FFDB59"/>
<path fill-rule="evenodd" clip-rule="evenodd" d="M94.51 70.8879C94.364 70.5239 94.218 70.1589 94.072 69.7949C94.44 69.5159 95.011 69.398 94.9 68.742C95.68 68.154 96.239 68.7409 96.704 69.1929C97.102 69.5799 96.871 70.048 96.417 70.35C95.594 69.861 95.291 71.2239 94.51 70.8879Z" fill="#D1D1D2"/>
<path fill-rule="evenodd" clip-rule="evenodd" d="M105.193 58.6511C104.848 58.7671 104.631 59.2851 103.974 58.8721C104.404 57.5711 105.511 56.8881 106.629 56.3751C107.216 56.1051 107.032 56.8191 107.021 57.1741C106.719 58.0471 105.858 58.2281 105.193 58.6511Z" fill="#645A69"/>
<path fill-rule="evenodd" clip-rule="evenodd" d="M93.016 56.707C93.13 56.349 93.492 56.07 93.722 56.283C94.36 56.876 95.367 57.017 95.764 57.892C95.37 58.452 94.877 58.1591 94.429 58.1431C94.33 58.1211 94.231 58.096 94.132 58.076C93.584 57.763 93.123 57.38 93.016 56.707Z" fill="#7D6D85"/>
<path fill-rule="evenodd" clip-rule="evenodd" d="M105.193 58.651C105.577 57.88 106.153 57.345 107.022 57.173C107.243 57.194 107.465 57.215 107.686 57.237C107.859 57.884 107.357 58.118 106.961 58.416C106.614 58.656 106.255 58.837 105.821 58.646C105.612 58.647 105.402 58.649 105.193 58.651Z" fill="#D2CFD3"/>
<path fill-rule="evenodd" clip-rule="evenodd" d="M92.902 58.2509C92.487 57.8829 92.06 57.5259 91.661 57.1419C91.465 56.9519 91.466 56.6549 91.675 56.5129C91.98 56.3039 92.257 56.5549 92.521 56.7119C92.97 57.1549 93.836 57.3229 93.54 58.2579C93.327 58.3799 93.114 58.3709 92.902 58.2509Z" fill="#594F5E"/>
<path fill-rule="evenodd" clip-rule="evenodd" d="M94.51 70.888C95.249 70.62 95.434 69.67 96.229 69.476C96.505 69.731 96.403 70.053 96.418 70.351C95.786 70.545 95.496 71.954 94.51 70.888Z" fill="#565357"/>
<path fill-rule="evenodd" clip-rule="evenodd" d="M105.821 58.6461C106.117 58.4991 106.413 58.3531 106.708 58.2061C106.899 58.3471 107.181 58.3991 107.201 58.7081C106.935 59.2241 106.528 59.6101 105.94 59.4531C105.613 59.3661 105.728 58.9421 105.821 58.6461Z" fill="#A298A6"/>
<path fill-rule="evenodd" clip-rule="evenodd" d="M92.902 58.2511C93.14 58.2201 93.378 58.189 93.616 58.158C93.905 57.87 94.194 57.899 94.481 58.16L94.43 58.1431C94.724 58.8721 94.753 59.4221 93.722 58.9881C93.402 58.8541 93.174 58.5031 92.902 58.2511Z" fill="#85768B"/>
<path fill-rule="evenodd" clip-rule="evenodd" d="M94.481 58.16C94.192 58.16 93.903 58.16 93.615 58.158C93.251 57.677 92.886 57.194 92.522 56.712C92.687 56.71 92.852 56.709 93.017 56.707C93.598 57.097 94.201 57.468 94.481 58.16Z" fill="#B4ABB9"/>
<path fill-rule="evenodd" clip-rule="evenodd" d="M107.201 58.709C107.037 58.542 106.872 58.3741 106.708 58.2071C107.034 57.8841 107.36 57.5611 107.686 57.2371C108.538 58.0621 107.518 58.269 107.201 58.709Z" fill="#625B65"/>
<path fill-rule="evenodd" clip-rule="evenodd" d="M94.9 68.743C95.32 69.506 95.197 69.662 94.071 69.796C94.174 69.308 94.529 69.019 94.9 68.743Z" fill="#9B9A9C"/>
<path fill-rule="evenodd" clip-rule="evenodd" d="M99.838 67.919C100.055 67.499 100.264 67.069 101.048 67.11C100.829 67.773 100.378 67.901 99.836 67.917L99.838 67.919Z" fill="#FFDB59"/>
<path fill-rule="evenodd" clip-rule="evenodd" d="M231.626 32.25C234.016 29.3725 236.966 26.9445 238.227 23.1582C239.404 19.6254 239.299 15.6909 241.548 12C243.96 26.1662 250.156 36.5033 265 38.8359C258.668 41.6957 251.637 41.5677 246.808 46.8731C243.039 43.8877 241.828 40.1013 243.713 35.3759C241.047 34.7306 240.121 36.5635 239.215 38.3487C237.002 42.7176 235.261 41.0404 233.791 37.8366C232.961 36.0288 232.233 34.1607 231.626 32.25Z" fill="#FFDB59"/>
<path fill-rule="evenodd" clip-rule="evenodd" d="M231.626 32.2498C235.532 33.2114 233.968 37.859 236.714 40.3046C237.963 36.0989 239.795 32.5535 244.622 32.8598C246.614 36.9048 246.614 36.9049 244.073 38.0423C243.197 41.5951 246.478 43.7319 246.808 46.8729C245.391 47.6764 244.641 48.9469 244.456 50.604C242.154 52.0779 241.198 50.5287 240.399 48.6707C240.402 48.7109 240.677 48.1811 240.677 48.1811C240.677 48.1811 240.157 47.9199 240.155 47.9425C239.697 48.5552 239.172 48.7158 238.548 48.2413C234.93 41.2159 228.291 40.6284 221.841 39.6718C219.851 39.378 217.709 40.1187 215 38.5017C218.844 36.5282 222.287 36.2043 225.732 35.8904C227.785 34.8334 231.103 36.0236 231.626 32.2498Z" fill="#FFDB59"/>
<path fill-rule="evenodd" clip-rule="evenodd" d="M238.546 48.2415C239.359 47.8097 240.174 47.3778 240.987 46.946L240.982 46.9409C241.107 49.2358 242.221 50.4988 244.454 50.6017C242.308 55.3146 244.255 60.8033 241.752 67.0001C240.519 59.7839 239.534 54.014 238.546 48.2415Z" fill="#FFDB59"/>
<path fill-rule="evenodd" clip-rule="evenodd" d="M247.298 51.1313C251.299 49.8759 255.035 49.4214 256.869 54.6415C251.793 57.0921 251.793 57.092 247.298 51.1313Z" fill="#837D85"/>
<path fill-rule="evenodd" clip-rule="evenodd" d="M231.626 32.2498C232.959 34.4317 232.427 35.8679 230.079 36.6638C228.48 37.2036 227.24 35.7649 225.732 35.8904C227.339 34.045 229.564 33.2892 231.626 32.2498Z" fill="#FFDB59"/>
<path fill-rule="evenodd" clip-rule="evenodd" d="M228.212 54.4029C227.861 53.489 227.511 52.5725 227.161 51.6585C228.044 50.958 229.413 50.6618 229.147 49.0147C231.017 47.5383 232.357 49.0121 233.472 50.147C234.426 51.1187 233.873 52.2938 232.784 53.0521C230.811 51.8243 230.084 55.2466 228.212 54.4029Z" fill="#D1D1D2"/>
<path fill-rule="evenodd" clip-rule="evenodd" d="M253.827 23.6781C252.999 23.9694 252.479 25.27 250.904 24.2331C251.935 20.9664 254.589 19.2515 257.27 17.9635C258.677 17.2855 258.236 19.0783 258.21 19.9696C257.485 22.1616 255.421 22.6161 253.827 23.6781Z" fill="#645A69"/>
<path fill-rule="evenodd" clip-rule="evenodd" d="M224.629 18.7969C224.903 17.8981 225.771 17.1975 226.322 17.7323C227.852 19.2212 230.266 19.5753 231.218 21.7723C230.274 23.1784 229.092 22.4427 228.017 22.4025C227.78 22.3473 227.543 22.2845 227.305 22.2343C225.991 21.4484 224.886 20.4867 224.629 18.7969Z" fill="#7D6D85"/>
<path fill-rule="evenodd" clip-rule="evenodd" d="M253.827 23.6778C254.747 21.742 256.128 20.3987 258.212 19.9668C258.742 20.0195 259.274 20.0722 259.804 20.1275C260.219 21.752 259.015 22.3395 258.066 23.0877C257.234 23.6903 256.373 24.1448 255.332 23.6652C254.831 23.6678 254.328 23.6728 253.827 23.6778Z" fill="#D2CFD3"/>
<path fill-rule="evenodd" clip-rule="evenodd" d="M224.356 22.6734C223.361 21.7495 222.337 20.8531 221.38 19.8889C220.91 19.4118 220.913 18.6661 221.414 18.3096C222.145 17.7848 222.809 18.4151 223.442 18.8093C224.519 19.9216 226.595 20.3434 225.886 22.691C225.375 22.9973 224.864 22.9748 224.356 22.6734Z" fill="#594F5E"/>
<path fill-rule="evenodd" clip-rule="evenodd" d="M228.212 54.403C229.983 53.7301 230.427 51.3448 232.333 50.8577C232.995 51.4979 232.75 52.3064 232.786 53.0547C231.271 53.5418 230.576 57.0796 228.212 54.403Z" fill="#565357"/>
<path fill-rule="evenodd" clip-rule="evenodd" d="M255.332 23.6656C256.042 23.2965 256.752 22.9299 257.459 22.5608C257.917 22.9148 258.593 23.0454 258.641 23.8213C258.003 25.1169 257.028 26.086 255.618 25.6918C254.834 25.4734 255.109 24.4088 255.332 23.6656Z" fill="#A298A6"/>
<path fill-rule="evenodd" clip-rule="evenodd" d="M224.356 22.6738C224.927 22.5959 225.497 22.5181 226.068 22.4402C226.761 21.7171 227.454 21.7899 228.142 22.4453L228.02 22.4026C228.725 24.233 228.794 25.614 226.322 24.5243C225.555 24.1878 225.008 23.3065 224.356 22.6738Z" fill="#85768B"/>
<path fill-rule="evenodd" clip-rule="evenodd" d="M228.142 22.4451C227.449 22.4451 226.756 22.4451 226.066 22.4401C225.193 21.2324 224.318 20.0197 223.445 18.8094C223.84 18.8044 224.236 18.8019 224.632 18.7969C226.025 19.7761 227.471 20.7076 228.142 22.4451Z" fill="#B4ABB9"/>
<path fill-rule="evenodd" clip-rule="evenodd" d="M258.641 23.8237C258.248 23.4044 257.852 22.9826 257.459 22.5633C258.241 21.7523 259.022 20.9413 259.804 20.1278C261.847 22.1993 259.401 22.719 258.641 23.8237Z" fill="#625B65"/>
<path fill-rule="evenodd" clip-rule="evenodd" d="M229.147 49.0175C230.154 50.9332 229.859 51.3249 227.159 51.6613C227.406 50.436 228.257 49.7104 229.147 49.0175Z" fill="#9B9A9C"/>
<path fill-rule="evenodd" clip-rule="evenodd" d="M240.987 46.9485C241.507 45.894 242.008 44.8143 243.888 44.9172C243.363 46.5819 242.281 46.9033 240.982 46.9435L240.987 46.9485Z" fill="#FFDB59"/>
<path fill-rule="evenodd" clip-rule="evenodd" d="M50.6259 27.25C53.0165 24.3725 55.9657 21.9445 57.2269 18.1582C58.4042 14.6254 58.2987 10.6909 60.5478 7C62.9599 21.1662 69.1556 31.5033 84 33.8359C77.6676 36.6957 70.6374 36.5677 65.8084 41.8731C62.0391 38.8877 60.8283 35.1013 62.7129 30.3759C60.0466 29.7306 59.1211 31.5635 58.2147 33.3487C56.0016 37.7176 54.2609 36.0404 52.7911 32.8366C51.9615 31.0288 51.2325 29.1607 50.6259 27.25Z" fill="#FFDB59"/>
<path fill-rule="evenodd" clip-rule="evenodd" d="M50.6259 27.2498C54.5318 28.2114 52.9685 32.859 55.7139 35.3046C56.9631 31.0989 58.795 27.5535 63.6217 27.8598C65.6142 31.9048 65.6142 31.9049 63.0726 33.0423C62.1974 36.5951 65.4775 38.7319 65.8084 41.8729C64.3913 42.6764 63.6408 43.9469 63.4562 45.604C61.1544 47.0779 60.1977 45.5287 59.3992 43.6707C59.4016 43.7109 59.6774 43.1811 59.6774 43.1811C59.6774 43.1811 59.1571 42.9199 59.1547 42.9425C58.6967 43.5552 58.1716 43.7158 57.5482 43.2413C53.93 36.2159 47.2906 35.6284 40.8407 34.6718C38.8506 34.378 36.7094 35.1187 34 33.5017C37.8436 31.5282 41.2867 31.2043 44.7323 30.8904C46.7847 29.8334 50.1032 31.0236 50.6259 27.2498Z" fill="#FFB865"/>
<path fill-rule="evenodd" clip-rule="evenodd" d="M57.5458 43.2415C58.3586 42.8097 59.1738 42.3778 59.9867 41.946L59.9819 41.9409C60.1066 44.2358 61.2215 45.4988 63.4538 45.6017C61.3078 50.3146 63.2548 55.8033 60.7515 62.0001C59.5191 54.7839 58.5337 49.014 57.5458 43.2415Z" fill="#FFDB59"/>
<path fill-rule="evenodd" clip-rule="evenodd" d="M66.2975 46.1313C70.2993 44.8759 74.035 44.4214 75.8693 49.6415C70.7933 52.0921 70.7933 52.092 66.2975 46.1313Z" fill="#837D85"/>
<path fill-rule="evenodd" clip-rule="evenodd" d="M50.6259 27.2498C51.9591 29.4317 51.4268 30.8679 49.0794 31.6638C47.4801 32.2036 46.2404 30.7649 44.7323 30.8904C46.3388 29.045 48.5639 28.2892 50.6259 27.2498Z" fill="#FFDB59"/>
<path fill-rule="evenodd" clip-rule="evenodd" d="M47.2115 49.4029C46.8614 48.489 46.5114 47.5725 46.1613 46.6585C47.0437 45.958 48.4128 45.6618 48.1466 44.0147C50.0169 42.5383 51.3572 44.0121 52.4721 45.147C53.4264 46.1187 52.8726 47.2938 51.784 48.0521C49.8107 46.8243 49.0841 50.2466 47.2115 49.4029Z" fill="#D1D1D2"/>
<path fill-rule="evenodd" clip-rule="evenodd" d="M72.8265 18.6781C71.9993 18.9694 71.479 20.27 69.9037 19.2331C70.9347 15.9664 73.589 14.2515 76.2697 12.9635C77.6772 12.2855 77.236 14.0783 77.2096 14.9696C76.4855 17.1616 74.421 17.6161 72.8265 18.6781Z" fill="#645A69"/>
<path fill-rule="evenodd" clip-rule="evenodd" d="M43.6293 13.7969C43.9027 12.8981 44.7706 12.1975 45.3221 12.7323C46.8519 14.2212 49.2664 14.5753 50.2183 16.7723C49.2736 18.1784 48.0915 17.4427 47.0173 17.4025C46.7799 17.3473 46.5426 17.2845 46.3052 17.2343C44.9912 16.4484 43.8859 15.4867 43.6293 13.7969Z" fill="#7D6D85"/>
<path fill-rule="evenodd" clip-rule="evenodd" d="M72.8265 18.6778C73.7473 16.742 75.1284 15.3987 77.212 14.9668C77.7419 15.0195 78.2742 15.0722 78.8041 15.1275C79.2189 16.752 78.0153 17.3395 77.0657 18.0877C76.2337 18.6903 75.3729 19.1448 74.3323 18.6652C73.8312 18.6678 73.3277 18.6728 72.8265 18.6778Z" fill="#D2CFD3"/>
<path fill-rule="evenodd" clip-rule="evenodd" d="M43.356 17.6734C42.3609 16.7495 41.3371 15.8531 40.3804 14.8889C39.9104 14.4118 39.9128 13.6661 40.4139 13.3096C41.1453 12.7848 41.8094 13.4151 42.4424 13.8093C43.519 14.9216 45.5954 15.3434 44.8857 17.691C44.375 17.9973 43.8643 17.9748 43.356 17.6734Z" fill="#594F5E"/>
<path fill-rule="evenodd" clip-rule="evenodd" d="M47.2115 49.403C48.9834 48.7301 49.427 46.3448 51.3332 45.8577C51.995 46.4979 51.7504 47.3064 51.7864 48.0547C50.271 48.5418 49.5757 52.0796 47.2115 49.403Z" fill="#565357"/>
<path fill-rule="evenodd" clip-rule="evenodd" d="M74.3323 18.6656C75.042 18.2965 75.7518 17.9299 76.4591 17.5608C76.9171 17.9148 77.5933 18.0454 77.6412 18.8213C77.0034 20.1169 76.0275 21.086 74.6177 20.6918C73.8336 20.4734 74.1093 19.4088 74.3323 18.6656Z" fill="#A298A6"/>
<path fill-rule="evenodd" clip-rule="evenodd" d="M43.356 17.6738C43.9266 17.5959 44.4973 17.5181 45.0679 17.4402C45.7609 16.7171 46.4539 16.7899 47.142 17.4453L47.0197 17.4026C47.7247 19.233 47.7942 20.614 45.3221 19.5243C44.5548 19.1878 44.0082 18.3065 43.356 17.6738Z" fill="#85768B"/>
<path fill-rule="evenodd" clip-rule="evenodd" d="M47.142 17.4451C46.4491 17.4451 45.7561 17.4451 45.0656 17.4401C44.1928 16.2324 43.3176 15.0197 42.4448 13.8094C42.8405 13.8044 43.2361 13.8019 43.6317 13.7969C45.0248 14.7761 46.4706 15.7076 47.142 17.4451Z" fill="#B4ABB9"/>
<path fill-rule="evenodd" clip-rule="evenodd" d="M77.6412 18.8237C77.248 18.4044 76.8524 17.9826 76.4591 17.5633C77.2408 16.7523 78.0225 15.9413 78.8041 15.1278C80.847 17.1993 78.4013 17.719 77.6412 18.8237Z" fill="#625B65"/>
<path fill-rule="evenodd" clip-rule="evenodd" d="M48.1466 44.0175C49.1537 45.9332 48.8588 46.3249 46.1589 46.6613C46.4059 45.436 47.2571 44.7104 48.1466 44.0175Z" fill="#9B9A9C"/>
<path fill-rule="evenodd" clip-rule="evenodd" d="M59.9867 41.9485C60.507 40.894 61.0081 39.8143 62.8879 39.9172C62.3628 41.5819 61.2814 41.9033 59.9819 41.9435L59.9867 41.9485Z" fill="#FFDB59"/>
<path fill-rule="evenodd" clip-rule="evenodd" d="M25.6261 200.412C24.7846 198.103 24.3823 195.623 22.6528 193.662C21.0394 191.833 18.7747 190.604 17.4254 188.111C26.2505 191.371 34.1548 191.215 40.3781 183.496C39.9081 188.051 37.5143 192.027 38.9267 196.524C35.9902 197.7 33.4445 197.152 31.3886 194.528C30.1425 195.84 30.8757 196.969 31.5882 198.072C33.3336 200.767 31.8083 201.213 29.5072 201.004C28.2087 200.886 26.9093 200.691 25.6261 200.412Z" fill="#FFDB59"/>
<path fill-rule="evenodd" clip-rule="evenodd" d="M25.626 200.411C27.4606 198.494 29.5785 200.91 31.871 200.141C29.8999 198.05 28.4954 195.843 30.2627 193.185C33.2131 193.37 33.2131 193.37 33.0185 195.195C34.7431 196.859 37.0371 195.684 38.9266 196.524C38.9141 197.596 39.3863 198.441 40.2645 199.089C40.3398 200.888 39.146 200.927 37.8293 200.775C37.8529 200.787 37.6436 200.456 37.6436 200.456C37.6436 200.456 37.3238 200.667 37.3358 200.676C37.5319 201.139 37.4495 201.491 36.9747 201.692C31.7985 201.459 29.2733 205.061 26.6015 208.434C25.7779 209.475 25.4907 210.941 23.6797 211.96C23.8303 209.117 24.7836 207.043 25.7433 204.972C25.8219 203.453 27.5922 201.946 25.626 200.411Z" fill="#FCBE75"/>
<path fill-rule="evenodd" clip-rule="evenodd" d="M36.9741 201.693C36.9977 201.088 37.0221 200.48 37.0458 199.874L37.0413 199.875C38.3831 200.556 39.467 200.332 40.2625 199.09C42.2249 201.86 45.9785 202.544 48.664 206.004C44.1673 204.345 40.5718 203.019 36.9741 201.693Z" fill="#FFDB59"/>
<path fill-rule="evenodd" clip-rule="evenodd" d="M41.5015 197.638C42.1113 194.94 43.0872 192.657 46.6513 193.318C46.3642 197.021 46.3642 197.021 41.5015 197.638Z" fill="#837D85"/>
<path fill-rule="evenodd" clip-rule="evenodd" d="M25.626 200.411C27.3027 200.364 27.9409 201.139 27.617 202.741C27.3949 203.831 26.1701 204.069 25.7433 204.972C25.2278 203.449 25.5342 201.93 25.626 200.411Z" fill="#FFDB59"/>
<path fill-rule="evenodd" clip-rule="evenodd" d="M37.0539 209.617C36.4203 209.518 35.7853 209.418 35.1517 209.318C35.046 208.585 35.3302 207.705 34.3088 207.318C34.0896 205.766 35.3675 205.482 36.3788 205.217C37.2446 204.99 37.7277 205.691 37.798 206.561C36.4506 207.287 38.1503 208.823 37.0539 209.617Z" fill="#D1D1D2"/>
<path fill-rule="evenodd" clip-rule="evenodd" d="M28.0982 184.918C27.9902 185.486 28.5555 186.209 27.4477 186.77C25.9368 185.111 25.8412 183.032 25.9963 181.079C26.0768 180.052 26.9472 180.892 27.4437 181.198C28.4469 182.33 28.0228 183.659 28.0982 184.918Z" fill="#645A69"/>
<path fill-rule="evenodd" clip-rule="evenodd" d="M15.6914 200.005C15.2723 199.554 15.1618 198.829 15.647 198.689C16.9959 198.302 17.9938 197.038 19.5533 197.213C20.0382 198.214 19.231 198.648 18.8536 199.249C18.7439 199.367 18.6299 199.482 18.5231 199.601C17.6438 200.095 16.7338 200.411 15.6914 200.005Z" fill="#7D6D85"/>
<path fill-rule="evenodd" clip-rule="evenodd" d="M28.0981 184.918C27.3049 183.758 26.9996 182.528 27.4429 181.196C27.6477 180.911 27.8533 180.624 28.0596 180.339C29.1173 180.634 29.0528 181.514 29.1633 182.302C29.2301 182.975 29.2035 183.615 28.5881 184.053C28.4241 184.34 28.2607 184.63 28.0981 184.918Z" fill="#D2CFD3"/>
<path fill-rule="evenodd" clip-rule="evenodd" d="M17.7982 201.43C16.946 201.696 16.0999 201.988 15.2376 202.219C14.812 202.331 14.3902 202.086 14.3536 201.683C14.2976 201.093 14.8741 200.92 15.3065 200.687C16.2924 200.436 17.217 199.388 18.3132 200.562C18.3182 200.954 18.1368 201.238 17.7982 201.43Z" fill="#594F5E"/>
<path fill-rule="evenodd" clip-rule="evenodd" d="M37.0539 209.617C37.2576 208.384 36.0522 207.349 36.4055 206.1C36.9869 205.932 37.3643 206.336 37.8003 206.561C37.576 207.586 39.3515 209.142 37.0539 209.617Z" fill="#565357"/>
<path fill-rule="evenodd" clip-rule="evenodd" d="M28.5883 184.053C28.6135 183.527 28.64 183.001 28.6644 182.476C29.0163 182.33 29.3135 181.986 29.7691 182.213C30.2928 183.002 30.5198 183.877 29.8309 184.553C29.4482 184.93 28.9359 184.424 28.5883 184.053Z" fill="#A298A6"/>
<path fill-rule="evenodd" clip-rule="evenodd" d="M17.7984 201.43C17.9427 201.079 18.087 200.727 18.2313 200.376C18.0502 199.743 18.3203 199.371 18.919 199.192L18.8544 199.248C20.1245 199.444 20.9301 199.857 19.4963 200.913C19.0523 201.241 18.3723 201.265 17.7984 201.43Z" fill="#85768B"/>
<path fill-rule="evenodd" clip-rule="evenodd" d="M18.9189 199.192C18.6901 199.588 18.4612 199.984 18.2304 200.377C17.2577 200.48 16.2815 200.583 15.3074 200.686C15.4352 200.458 15.5644 200.231 15.6922 200.003C16.7071 199.528 17.7125 199.007 18.9189 199.192Z" fill="#B4ABB9"/>
<path fill-rule="evenodd" clip-rule="evenodd" d="M29.7705 182.214C29.403 182.301 29.0333 182.389 28.6658 182.477C28.4643 181.764 28.2627 181.052 28.0598 180.339C29.9083 179.85 29.3953 181.418 29.7705 182.214Z" fill="#625B65"/>
<path fill-rule="evenodd" clip-rule="evenodd" d="M34.3104 207.319C35.7287 207.371 35.8533 207.668 35.1525 209.321C34.5396 208.778 34.4095 208.054 34.3104 207.319Z" fill="#9B9A9C"/>
<path fill-rule="evenodd" clip-rule="evenodd" d="M37.0472 199.875C36.6213 199.233 36.1749 198.593 36.8539 197.552C37.624 198.397 37.4491 199.12 37.0428 199.876L37.0472 199.875Z" fill="#FFDB59"/>
<path fill-rule="evenodd" clip-rule="evenodd" d="M7.98044 105.309C9.1279 103.844 10.5435 102.608 11.1489 100.681C11.714 98.882 11.6634 96.879 12.7429 95C13.9007 102.212 16.8747 107.474 24 108.662C20.9604 110.118 17.586 110.053 15.268 112.754C13.4588 111.234 12.8776 109.306 13.7822 106.9C12.5024 106.572 12.0581 107.505 11.6231 108.414C10.5608 110.638 9.72522 109.784 9.01971 108.153C8.6215 107.233 8.27162 106.282 7.98044 105.309Z" fill="#FFDB59"/>
<path fill-rule="evenodd" clip-rule="evenodd" d="M7.98044 105.309C9.85528 105.799 9.10488 108.165 10.4227 109.41C11.0223 107.269 11.9016 105.464 14.2184 105.62C15.1748 107.679 15.1748 107.679 13.9548 108.258C13.5347 110.067 15.1092 111.154 15.268 112.753C14.5878 113.163 14.2276 113.809 14.139 114.653C13.0341 115.403 12.5749 114.615 12.1916 113.669C12.1928 113.689 12.3251 113.419 12.3251 113.419C12.3251 113.419 12.0754 113.286 12.0742 113.298C11.8544 113.61 11.6024 113.692 11.3031 113.45C9.56639 109.874 6.37951 109.574 3.28355 109.087C2.32829 108.938 1.30053 109.315 0 108.492C1.84491 107.487 3.49762 107.322 5.15149 107.162C6.13667 106.624 7.72954 107.23 7.98044 105.309Z" fill="#FCBE75"/>
<path fill-rule="evenodd" clip-rule="evenodd" d="M11.302 113.45C11.6921 113.23 12.0834 113.011 12.4736 112.791L12.4713 112.788C12.5311 113.956 13.0663 114.599 14.1378 114.652C13.1077 117.051 14.0423 119.845 12.8407 123C12.2492 119.326 11.7761 116.389 11.302 113.45Z" fill="#FFDB59"/>
<path fill-rule="evenodd" clip-rule="evenodd" d="M15.5028 114.921C17.4237 114.282 19.2168 114.051 20.0972 116.708C17.6608 117.956 17.6608 117.956 15.5028 114.921Z" fill="#837D85"/>
<path fill-rule="evenodd" clip-rule="evenodd" d="M7.98044 105.309C8.62035 106.42 8.36484 107.151 7.2381 107.556C6.47044 107.831 5.87541 107.098 5.15149 107.162C5.9226 106.223 6.99066 105.838 7.98044 105.309Z" fill="#FFDB59"/>
<path fill-rule="evenodd" clip-rule="evenodd" d="M6.34152 116.587C6.17349 116.122 6.00547 115.655 5.83743 115.19C6.26097 114.833 6.91813 114.682 6.79038 113.844C7.68809 113.092 8.33145 113.843 8.86662 114.42C9.32469 114.915 9.05884 115.513 8.53633 115.899C7.58912 115.274 7.24038 117.016 6.34152 116.587Z" fill="#D1D1D2"/>
<path fill-rule="evenodd" clip-rule="evenodd" d="M18.6367 100.945C18.2397 101.094 17.9899 101.756 17.2338 101.228C17.7287 99.5647 19.0027 98.6917 20.2895 98.0359C20.965 97.6908 20.7533 98.6035 20.7406 99.0573C20.393 100.173 19.4021 100.405 18.6367 100.945Z" fill="#645A69"/>
<path fill-rule="evenodd" clip-rule="evenodd" d="M4.62207 98.4603C4.75327 98.0026 5.1699 97.646 5.43461 97.9183C6.16889 98.6763 7.32787 98.8565 7.78478 99.975C7.33132 100.691 6.76391 100.316 6.2483 100.296C6.13436 100.268 6.02043 100.236 5.90649 100.21C5.27579 99.8101 4.74522 99.3205 4.62207 98.4603Z" fill="#7D6D85"/>
<path fill-rule="evenodd" clip-rule="evenodd" d="M18.6367 100.945C19.0787 99.9595 19.7416 99.2756 20.7418 99.0558C20.9961 99.0826 21.2516 99.1095 21.506 99.1376C21.7051 99.9646 21.1273 100.264 20.6716 100.645C20.2722 100.951 19.859 101.183 19.3595 100.939C19.119 100.94 18.8773 100.942 18.6367 100.945Z" fill="#D2CFD3"/>
<path fill-rule="evenodd" clip-rule="evenodd" d="M4.49088 100.434C4.01325 99.9634 3.52179 99.5071 3.06258 99.0162C2.837 98.7734 2.83816 98.3937 3.0787 98.2122C3.42973 97.9451 3.74852 98.2659 4.05236 98.4666C4.56912 99.0329 5.56581 99.2476 5.22514 100.443C4.98 100.599 4.73487 100.587 4.49088 100.434Z" fill="#594F5E"/>
<path fill-rule="evenodd" clip-rule="evenodd" d="M6.34152 116.587C7.19205 116.244 7.40498 115.03 8.31995 114.782C8.63761 115.108 8.52021 115.52 8.53747 115.901C7.81009 116.149 7.47632 117.95 6.34152 116.587Z" fill="#565357"/>
<path fill-rule="evenodd" clip-rule="evenodd" d="M19.3595 100.939C19.7002 100.751 20.0409 100.564 20.3804 100.376C20.6002 100.557 20.9248 100.623 20.9478 101.018C20.6417 101.678 20.1732 102.171 19.4965 101.97C19.1201 101.859 19.2525 101.317 19.3595 100.939Z" fill="#A298A6"/>
<path fill-rule="evenodd" clip-rule="evenodd" d="M4.49088 100.434C4.76479 100.394 5.0387 100.355 5.31262 100.315C5.64523 99.9468 5.97785 99.9839 6.30816 100.318L6.24947 100.296C6.58784 101.228 6.62121 101.931 5.43462 101.376C5.06632 101.205 4.80392 100.756 4.49088 100.434Z" fill="#85768B"/>
<path fill-rule="evenodd" clip-rule="evenodd" d="M6.30814 100.318C5.97552 100.318 5.64291 100.317 5.31145 100.315C4.89252 99.7001 4.47243 99.0827 4.0535 98.4666C4.2434 98.464 4.43329 98.4628 4.62319 98.4602C5.29187 98.9587 5.98588 99.433 6.30814 100.318Z" fill="#B4ABB9"/>
<path fill-rule="evenodd" clip-rule="evenodd" d="M20.9478 101.019C20.759 100.806 20.5692 100.591 20.3804 100.378C20.7556 99.9648 21.1308 99.552 21.506 99.1378C22.4866 100.192 21.3126 100.457 20.9478 101.019Z" fill="#625B65"/>
<path fill-rule="evenodd" clip-rule="evenodd" d="M6.79041 113.845C7.27379 114.821 7.13223 115.02 5.8363 115.191C5.95485 114.567 6.36342 114.198 6.79041 113.845Z" fill="#9B9A9C"/>
<path fill-rule="evenodd" clip-rule="evenodd" d="M12.4736 112.792C12.7234 112.255 12.9639 111.705 13.8662 111.758C13.6142 112.605 13.0951 112.769 12.4713 112.789L12.4736 112.792Z" fill="#FFDB59"/>
<path fill-rule="evenodd" clip-rule="evenodd" d="M299.731 118.116C300.059 120.551 299.921 123.06 301.19 125.345C302.375 127.477 304.324 129.162 305.109 131.887C297.186 126.813 289.431 125.273 281.7 131.482C283.134 127.133 286.323 123.762 285.906 119.067C289.026 118.546 291.396 119.626 292.842 122.63C294.341 121.614 293.866 120.354 293.406 119.125C292.278 116.119 293.863 116.01 296.066 116.707C297.309 117.1 298.537 117.568 299.731 118.116Z" fill="#FFDB59"/>
<path fill-rule="evenodd" clip-rule="evenodd" d="M299.731 118.116C297.528 119.596 295.977 116.783 293.573 117.043C295.051 119.507 295.95 121.965 293.655 124.183C290.813 123.37 290.813 123.37 291.393 121.629C290.065 119.635 287.572 120.291 285.906 119.067C286.148 118.021 285.868 117.095 285.149 116.274C285.46 114.501 286.635 114.718 287.888 115.149C287.868 115.132 288.001 115.5 288.001 115.5C288.001 115.5 288.359 115.362 288.349 115.351C288.256 114.857 288.412 114.53 288.919 114.436C293.926 115.771 297.163 112.793 300.495 110.07C301.522 109.23 302.117 107.859 304.104 107.251C303.348 109.996 301.973 111.818 300.592 113.636C300.19 115.103 298.139 116.196 299.731 118.116Z" fill="#FDC787"/>
<path fill-rule="evenodd" clip-rule="evenodd" d="M288.92 114.435C288.767 115.021 288.613 115.609 288.461 116.196L288.465 116.196C287.3 115.244 286.194 115.231 285.151 116.274C283.827 113.148 280.306 111.676 278.424 107.722C282.461 110.304 285.69 112.37 288.92 114.435Z" fill="#FFDB59"/>
<path fill-rule="evenodd" clip-rule="evenodd" d="M283.63 117.427C282.456 119.932 281.014 121.953 277.674 120.545C278.748 116.989 278.748 116.989 283.63 117.427Z" fill="#837D85"/>
<path fill-rule="evenodd" clip-rule="evenodd" d="M299.731 118.116C298.083 117.803 297.625 116.91 298.285 115.414C298.735 114.396 299.982 114.427 300.592 113.636C300.77 115.233 300.146 116.652 299.731 118.116Z" fill="#FFDB59"/>
<path fill-rule="evenodd" clip-rule="evenodd" d="M290.538 106.678C291.136 106.91 291.735 107.144 292.332 107.376C292.278 108.116 291.813 108.914 292.727 109.511C292.609 111.074 291.3 111.077 290.256 111.12C289.361 111.157 289.04 110.368 289.157 109.503C290.629 109.083 289.297 107.219 290.538 106.678Z" fill="#D1D1D2"/>
<path fill-rule="evenodd" clip-rule="evenodd" d="M294 132.721C294.227 132.189 293.829 131.362 295.032 131.051C296.152 132.995 295.801 135.046 295.231 136.921C294.933 137.906 294.262 136.9 293.843 136.494C293.105 135.174 293.804 133.967 294 132.721Z" fill="#645A69"/>
<path fill-rule="evenodd" clip-rule="evenodd" d="M309.348 120.639C309.661 121.169 309.614 121.901 309.11 121.934C307.709 122.023 306.464 123.044 304.978 122.539C304.719 121.458 305.6 121.207 306.098 120.701C306.23 120.609 306.366 120.521 306.496 120.428C307.46 120.134 308.417 120.019 309.348 120.639Z" fill="#7D6D85"/>
<path fill-rule="evenodd" clip-rule="evenodd" d="M294 132.721C294.526 134.024 294.561 135.29 293.843 136.497C293.582 136.732 293.32 136.968 293.057 137.202C292.087 136.688 292.339 135.842 292.399 135.049C292.478 134.377 292.641 133.757 293.336 133.461C293.558 133.216 293.779 132.968 294 132.721Z" fill="#D2CFD3"/>
<path fill-rule="evenodd" clip-rule="evenodd" d="M307.595 118.796C308.485 118.718 309.374 118.615 310.265 118.574C310.705 118.555 311.065 118.885 311.014 119.287C310.942 119.875 310.342 119.921 309.87 120.055C308.853 120.089 307.726 120.916 306.906 119.534C306.985 119.15 307.223 118.911 307.595 118.796Z" fill="#594F5E"/>
<path fill-rule="evenodd" clip-rule="evenodd" d="M290.538 106.678C290.075 107.838 291.031 109.107 290.419 110.251C289.815 110.291 289.533 109.816 289.155 109.503C289.593 108.549 288.192 106.649 290.538 106.678Z" fill="#565357"/>
<path fill-rule="evenodd" clip-rule="evenodd" d="M293.336 133.461C293.199 133.97 293.06 134.478 292.924 134.985C292.549 135.052 292.185 135.325 291.789 135.006C291.446 134.123 291.411 133.22 292.229 132.706C292.684 132.42 293.076 133.024 293.336 133.461Z" fill="#A298A6"/>
<path fill-rule="evenodd" clip-rule="evenodd" d="M307.595 118.796C307.379 119.108 307.163 119.421 306.946 119.734C306.988 120.39 306.644 120.696 306.021 120.743L306.096 120.702C304.898 120.238 304.199 119.663 305.826 118.938C306.33 118.712 306.999 118.835 307.595 118.796Z" fill="#85768B"/>
<path fill-rule="evenodd" clip-rule="evenodd" d="M306.021 120.743C306.33 120.405 306.638 120.067 306.948 119.732C307.92 119.84 308.896 119.948 309.869 120.056C309.695 120.251 309.521 120.445 309.347 120.641C308.254 120.888 307.16 121.182 306.021 120.743Z" fill="#B4ABB9"/>
<path fill-rule="evenodd" clip-rule="evenodd" d="M291.787 135.005C292.165 134.998 292.545 134.991 292.923 134.984C292.967 135.723 293.012 136.462 293.057 137.202C291.147 137.284 291.984 135.862 291.787 135.005Z" fill="#625B65"/>
<path fill-rule="evenodd" clip-rule="evenodd" d="M292.726 109.51C291.352 109.155 291.294 108.839 292.332 107.374C292.815 108.035 292.787 108.77 292.726 109.51Z" fill="#9B9A9C"/>
<path fill-rule="evenodd" clip-rule="evenodd" d="M288.459 116.195C288.738 116.914 289.037 117.635 288.151 118.506C287.58 117.515 287.905 116.846 288.464 116.195L288.459 116.195Z" fill="#FFDB59"/>
</svg>
