<svg width="58" height="87" viewBox="0 0 58 87" fill="none" xmlns="http://www.w3.org/2000/svg">
<path fill-rule="evenodd" clip-rule="evenodd" d="M22.6319 26.7102C21.8839 25.3292 22.2249 23.7942 22.0629 22.3362C21.9129 21.0032 21.4259 20.3402 20.0409 20.0652C17.0849 19.4772 16.3009 18.5982 16.4919 16.5722C16.6699 14.6972 17.6609 13.9372 20.3409 13.6082C20.6739 13.5682 21.0019 13.4822 21.5859 13.3682C21.3349 10.7392 20.4179 8.33916 19.5269 5.92316C18.3039 2.61316 18.8749 1.36216 22.1929 0.825157C26.7029 0.0971569 31.2649 -0.167844 35.8399 0.105156C36.4049 0.138156 36.9699 0.267159 37.5179 0.418159C40.2689 1.17616 40.4949 1.67716 39.7739 4.44016C39.0299 7.29316 37.8759 10.0612 37.7729 12.9222C38.4509 14.0772 39.5299 13.5852 40.3339 13.9062C41.9259 14.5412 42.6579 15.7782 42.4839 17.4052C42.3289 18.8572 41.5979 20.1832 39.9379 20.1272C37.6129 20.0462 36.7739 21.3492 36.3769 23.2922C35.6099 24.4732 34.9999 24.2372 34.5119 23.0752C34.1209 22.1492 34.6839 21.0172 33.8859 20.1822C33.2659 19.8192 32.4379 19.7492 32.1439 18.9382C33.3569 16.7012 35.7489 18.2032 37.3389 17.2842C32.1699 15.8042 26.9839 16.6822 20.9599 16.6962C25.4659 18.8212 25.0129 22.2302 24.9259 25.5142C24.4949 26.5522 24.5669 28.5692 22.6319 26.7102Z" fill="#48454A"/>
<path fill-rule="evenodd" clip-rule="evenodd" d="M22.6319 26.7101C24.3669 27.4741 23.9669 26.0721 24.1269 25.2361C26.4649 27.5931 26.0519 31.0501 23.2209 32.8011C21.9159 33.6091 20.4509 33.8912 18.9709 33.7932C14.0359 33.4682 10.1239 35.3262 7.08093 39.1512C6.41293 39.8002 5.73992 40.4431 4.79192 40.6721C3.72692 40.5222 3.08594 40.0362 3.34594 38.8392C6.95694 33.3202 11.6869 30.0182 18.6609 30.6022C22.0099 30.8832 22.4289 30.2581 22.6319 26.7101Z" fill="#524B56"/>
<path fill-rule="evenodd" clip-rule="evenodd" d="M50.2619 70.6462C48.2399 74.2122 44.345 75.3072 41.251 77.4552C39.087 78.9572 36.034 78.6562 34.211 80.8812C33.755 81.2532 33.349 81.6752 32.983 82.1362C31.713 83.3532 30.4419 84.5712 29.1719 85.7882C28.4119 85.9822 27.6499 86.2562 26.9469 85.6322L26.8729 85.5602C25.4059 83.4592 27.89 83.7672 28.475 82.9092C30.873 80.0412 33.1129 76.9612 37.1929 76.3402C38.3849 76.9142 38.867 75.8462 39.573 75.2882C42.497 73.2182 45.158 70.7292 48.677 69.6162C49.351 69.7352 49.9269 70.0072 50.2619 70.6462Z" fill="#3A363C"/>
<path fill-rule="evenodd" clip-rule="evenodd" d="M50.2619 70.6461C49.6099 70.5911 49.0159 70.4341 48.6989 69.7761C48.5539 69.4791 48.5489 69.1761 48.6619 68.8681C49.8259 67.1951 50.8679 65.4431 51.8729 63.6681C53.9199 60.9571 53.4799 57.3461 55.1719 54.5091C56.9259 51.9321 55.9429 49.0751 55.9099 46.3381C55.9059 45.9631 55.7509 46.9131 55.3399 46.7481C54.3219 46.3691 54.3409 45.5791 54.5259 44.7211C54.9899 43.8341 55.4539 42.9461 56.3429 42.3901C58.6549 49.5361 58.4429 56.7081 55.5729 63.5471C54.4769 66.1631 52.8879 68.9251 50.2619 70.6461Z" fill="#3D393F"/>
<path fill-rule="evenodd" clip-rule="evenodd" d="M4.19191 67.1541C-0.104088 61.0111 -0.71708 54.2201 0.64992 47.0791C0.93792 46.9981 1.18193 48.1171 1.51393 47.0991C1.74993 46.3741 1.90392 45.4771 3.05492 45.9831C3.98392 47.4271 3.75493 49.0171 3.55193 50.5641C3.15193 53.6121 3.36592 56.6061 4.11992 59.5711C4.30092 60.1871 4.44592 60.8161 4.69292 61.4121C5.09192 62.5741 5.81391 63.6161 6.01091 64.8561C6.02391 65.1611 5.96892 65.4581 5.86592 65.7451C5.45892 66.3931 4.92491 66.8911 4.19191 67.1541Z" fill="#65556D"/>
<path fill-rule="evenodd" clip-rule="evenodd" d="M28.8289 83.5032C28.7839 83.9852 28.8969 84.8482 28.0929 84.4172C26.2959 83.4572 27.0269 84.9262 26.8719 85.5612C25.8379 84.5192 24.7689 83.5102 23.7779 82.4302C22.0579 80.5572 20.1209 79.0492 17.6709 78.2282C15.9359 77.6462 14.3949 76.7022 13.1199 75.3602C12.3539 74.2602 13.0719 73.8452 13.9709 73.5122C14.3039 73.4692 14.6389 73.4782 14.9689 73.5372C15.9099 73.8022 16.7409 74.3192 17.6359 74.6932C18.9079 75.2942 20.2969 75.6202 21.5169 76.3462C24.4549 78.2172 26.9379 80.5592 28.8289 83.5032Z" fill="#423D45"/>
<path fill-rule="evenodd" clip-rule="evenodd" d="M56.3429 42.3901C56.2749 43.3511 56.4029 44.4371 54.9849 44.5481C54.4529 44.4911 54.0569 44.2081 53.7359 43.8001C52.3569 40.9241 50.391 38.5111 47.983 36.4321C47.148 35.7131 46.1559 35.0511 46.2539 33.7151C46.5529 32.6301 47.217 32.3461 48.225 32.8171C52.274 34.8691 54.7909 38.2191 56.3429 42.3901Z" fill="#39363B"/>
<path fill-rule="evenodd" clip-rule="evenodd" d="M48.2249 32.8171C47.3289 32.9181 46.7029 33.2961 46.6859 34.3051C41.8109 35.2221 35.6349 33.5701 33.6989 30.8321C33.3609 28.8961 33.3359 27.0711 35.3829 25.9031C36.3919 26.7961 36.1639 27.7161 35.7249 28.6601C36.4329 30.7171 38.1429 30.7821 39.8979 30.7631C42.3989 30.7351 44.8809 30.8271 47.1649 32.0291C47.5479 32.2321 47.8719 32.5521 48.2249 32.8171Z" fill="#4C474F"/>
<path fill-rule="evenodd" clip-rule="evenodd" d="M35.7239 28.6601C35.5819 28.0261 35.9329 27.3171 35.3729 26.6441C33.9639 27.8341 34.527 29.4681 34.333 30.9031C32.821 31.3841 30.783 31.3491 30.377 30.0761C29.792 28.2521 30.9489 26.3511 32.6059 24.6571C30.1999 24.2731 30.7689 21.7451 29.3729 20.5231C29.0289 20.2231 29.732 19.5741 30.273 19.3181C31.776 18.8831 33.283 20.0721 34.786 19.3041C36.433 20.1301 34.863 21.2642 35.01 22.2552C35.164 23.2812 35.2759 23.7761 36.3779 23.2911C36.4439 25.1161 36.7159 26.9651 35.7239 28.6601Z" fill="#58525A"/>
<path fill-rule="evenodd" clip-rule="evenodd" d="M14.6419 73.9311C13.7849 74.0331 13.1689 74.3961 13.1209 75.3601C11.0659 73.7821 8.36395 73.0701 6.88995 70.7141C6.67895 70.4301 6.62793 70.1201 6.73293 69.7821C7.14993 69.1901 7.70295 68.8741 8.44595 68.9601C10.6949 70.3851 13.8279 70.7141 14.6419 73.9311Z" fill="#574F5B"/>
<path fill-rule="evenodd" clip-rule="evenodd" d="M2.75394 45.9151C1.39294 47.1241 2.81094 49.0581 1.49194 50.4741C0.306944 49.5231 1.01693 48.1421 0.648927 47.0801C0.641927 45.7241 0.490948 44.3421 1.34595 43.1391C2.05595 42.6281 2.10594 41.7701 2.42194 41.0571C2.95394 39.8641 3.58894 40.3261 4.25494 40.8891C4.70494 41.6461 4.42195 42.4221 4.32395 43.1951C4.25095 43.6591 4.12895 44.1111 3.95795 44.5491C3.69495 45.1231 3.37994 45.6581 2.75394 45.9151Z" fill="#564E5A"/>
<path fill-rule="evenodd" clip-rule="evenodd" d="M6.93295 69.9202C6.91895 70.1852 6.90495 70.4482 6.88895 70.7132C5.68395 69.7592 4.88593 68.4952 4.19193 67.1542C4.23893 66.1822 4.80493 65.7652 5.72293 65.7222C7.15793 65.7582 7.47895 66.7652 7.63895 67.9162C7.63695 68.6652 7.35695 69.3192 6.93295 69.9202Z" fill="#514B54"/>
<path fill-rule="evenodd" clip-rule="evenodd" d="M4.16095 41.1172C3.57395 40.9142 2.94593 40.5362 2.76993 41.5972C2.63593 42.4012 2.11795 42.9001 1.34595 43.1391C1.57795 41.5041 2.09094 40.0001 3.34494 38.8401C3.65894 39.4711 4.03695 40.0471 4.68695 40.3851C5.13495 41.0771 4.80495 41.2102 4.16095 41.1172Z" fill="#73607B"/>
<path fill-rule="evenodd" clip-rule="evenodd" d="M32.9829 82.1361C33.0239 81.3571 33.4229 80.9291 34.2109 80.8811C34.0839 81.5761 33.6779 81.9971 32.9829 82.1361Z" fill="#423D45"/>
<path fill-rule="evenodd" clip-rule="evenodd" d="M26.9469 85.6332C27.6879 85.6852 28.4289 85.7372 29.1719 85.7892C28.3869 86.3522 27.6299 86.4982 26.9469 85.6332Z" fill="#423D45"/>
<path fill-rule="evenodd" clip-rule="evenodd" d="M3.32294 44.4972C3.41494 44.0782 3.50895 43.6582 3.59995 43.2382C4.03895 42.8652 4.61094 42.9132 5.11194 42.7442C5.84494 42.2212 6.02195 41.4742 5.96695 40.6322C5.94895 40.0542 5.91093 39.4792 6.10193 38.9212C9.07193 34.8982 12.8819 32.5572 18.0589 32.9542C18.1709 32.9632 18.2859 32.9552 18.4009 32.9532C23.3699 32.8462 26.074 31.5832 24.127 25.2352C24.127 24.2162 24.2109 23.1892 24.1129 22.1802C23.7919 18.9172 23.451 18.5532 20.101 17.7882C19.475 17.6452 19.0689 17.3842 18.9259 16.7542C19.1699 16.3522 19.5169 16.0712 19.9969 16.0402C26.1139 15.6382 32.2319 15.2802 38.3429 16.1642C39.3259 16.3062 40.204 16.4232 39.834 17.7662C36.762 18.5952 33.5529 17.7172 30.5029 18.5262C30.3739 18.6532 29.9699 18.2342 30.0269 18.7772C30.2429 18.8962 30.3869 19.0552 30.4869 19.2712C30.5399 19.5342 30.4669 19.7422 30.2629 19.9002C29.7669 20.5042 29.8949 20.9122 30.6659 21.0422C31.8689 21.2462 33.1519 20.7552 34.3299 21.4262C33.2519 22.3362 33.2519 22.3362 30.7099 22.9952C31.2749 23.8232 32.1239 23.4712 32.8719 23.4942C33.6089 23.5172 34.2239 23.6352 34.2999 24.5402C34.3799 25.4792 34.0669 26.0472 33.0249 26.1092C32.3729 26.1472 31.6509 26.0992 31.0999 26.8932C31.6019 27.9852 33.3459 26.7102 33.7069 28.1582C33.2189 29.8952 31.1149 28.1182 30.3889 29.6282C31.5809 30.5282 33.4499 29.3172 34.3309 30.9022C35.6339 32.8332 37.653 33.1262 39.713 33.0932C42.13 33.0542 44.4289 33.5102 46.6839 34.3032C50.2049 36.7832 53.2699 39.6252 54.4529 43.9812C54.6919 45.8052 53.311 45.9452 52.1049 46.1432C50.4329 46.4172 48.7379 46.2282 47.0529 46.1972C45.2609 46.1732 43.4679 46.1772 41.6729 46.1792C41.0829 46.1842 40.4919 46.1802 39.9019 46.1782C39.5069 46.1892 39.1119 46.1862 38.7169 46.1832C37.1209 46.2282 35.5269 46.1572 33.9309 46.1952C28.7729 46.1832 23.617 46.2442 18.463 46.2042C17.864 46.2122 17.2649 46.2382 16.6679 46.2052C15.1419 46.0932 13.576 46.3502 12.101 45.7412C11.594 45.4792 11.32 45.0442 11.2 44.5022C11.062 43.4742 11.4879 42.6002 11.9869 41.7472C11.7669 41.6232 12.9399 41.1932 11.8849 41.2732C11.6879 41.2882 11.4889 41.4362 11.2639 41.4722C10.8109 41.4862 10.4119 41.3262 10.0229 41.1582C8.75295 41.2232 8.77394 42.3352 8.49194 43.1272C8.05794 44.3452 7.62994 45.5092 6.20294 45.8862C5.00594 45.9152 3.62994 46.3072 3.32294 44.4972Z" fill="#FFFEFF"/>
<path fill-rule="evenodd" clip-rule="evenodd" d="M28.8599 5.48719C30.9639 5.51819 33.0659 5.62119 35.1659 5.55919C37.1019 5.50119 37.4019 6.47818 37.0059 8.05318C36.8029 8.65218 36.5169 9.15718 35.7739 9.13918C34.9329 8.86518 34.4879 7.95719 33.5859 7.77619C32.5269 7.82119 31.2899 7.11119 30.5909 8.53919C30.5109 8.78819 30.3789 9.00318 30.2169 9.18018C31.9269 9.68318 33.7379 8.08519 35.3839 9.45919C35.9129 10.8882 37.3219 12.5202 34.5349 13.1922C33.7899 12.8542 33.0479 12.4992 32.2019 12.8812C28.9689 13.6402 28.2929 13.5712 26.8419 12.3422C27.3819 12.0102 27.3239 11.6292 26.8289 11.3702C25.9949 10.9332 25.0999 11.8912 24.3209 11.3762C25.2369 9.27518 20.8939 10.0252 22.5029 7.63819C23.1049 6.57219 24.3869 7.06318 25.3989 6.73418C25.9149 6.20818 26.5899 5.95118 27.2319 5.63118C27.7579 5.41218 28.2759 5.05319 28.8599 5.48719Z" fill="#F3F2F3"/>
<path fill-rule="evenodd" clip-rule="evenodd" d="M34.3369 12.2902C34.7159 12.6022 35.1709 13.2582 35.5249 12.3932C35.9099 11.4512 35.798 10.4842 34.937 9.75217C35.34 9.12617 35.8229 9.20317 36.3369 9.59817C36.3559 10.9322 36.5459 12.2962 35.6949 13.5762C32.0439 13.5762 28.3859 13.5762 24.1199 13.5762C25.2299 12.6942 25.8929 12.2462 26.8409 12.3422C28.8529 13.5252 30.6849 13.1592 32.3889 11.6982C32.9319 12.2472 33.7959 11.7362 34.3369 12.2902Z" fill="#AEACAF"/>
<path fill-rule="evenodd" clip-rule="evenodd" d="M23.2279 6.02617C22.5999 5.96617 21.8589 6.21716 21.4019 5.15216C22.2409 4.28016 23.4519 4.27017 24.5829 4.09917C25.4709 3.96517 26.4049 3.94817 26.6339 2.79617C26.7719 2.38017 27.1939 2.34117 27.4969 2.14517C28.4029 2.13917 29.3109 2.13317 30.2169 2.12817C30.5699 3.44417 29.1939 2.79917 28.8539 3.33017L28.9539 3.50616C28.3389 4.34116 28.2129 5.57117 27.0029 5.92717C25.7499 6.31917 24.4689 5.36417 23.2279 6.02617Z" fill="#DCDBDC"/>
<path fill-rule="evenodd" clip-rule="evenodd" d="M36.3369 9.59916C35.8709 9.65016 35.4039 9.70117 34.9369 9.75317C32.4779 9.56517 30.0909 10.7502 27.6079 10.1402C27.3349 10.0732 27.2109 9.93017 27.2929 9.38417C27.9659 8.51217 29.2389 9.13317 30.1979 8.75317C32.0589 7.50517 33.9069 7.88616 35.7499 8.79916C36.3969 8.93616 36.5999 8.32116 37.0059 8.05416C37.1579 8.73016 36.9899 9.26916 36.3369 9.59916Z" fill="#6A686C"/>
<path fill-rule="evenodd" clip-rule="evenodd" d="M28.9099 17.8722C32.5519 17.8372 36.1939 17.8032 39.8349 17.7682C38.9159 18.9572 37.605 18.3532 36.459 18.5162C35.08 18.7132 33.5849 18.0392 32.3189 19.0722C31.6769 19.7432 30.9469 19.5352 30.2109 19.2872C29.9999 19.2272 29.7869 19.1652 29.5749 19.1032C29.1659 18.7942 28.5039 18.6222 28.9099 17.8722Z" fill="#5C595D"/>
<path fill-rule="evenodd" clip-rule="evenodd" d="M27.5249 5.90012C27.9699 5.08312 27.1979 3.54113 28.9529 3.50513C30.2519 4.57113 31.7849 3.92512 33.2079 4.07312C34.4879 4.20712 35.8159 3.89012 37.3829 4.38112C34.4059 5.50112 31.4259 3.80711 28.8609 5.48611C28.4009 5.61511 27.9399 5.74312 27.4779 5.87112L27.5249 5.90012Z" fill="#69676B"/>
<path fill-rule="evenodd" clip-rule="evenodd" d="M31.045 2.58514C33.284 2.58514 35.5239 2.58514 37.7639 2.58514C35.4839 3.63214 33.1869 3.47315 30.8879 3.29315C30.6729 2.99915 30.74 2.76614 31.045 2.58514Z" fill="#A8A6A9"/>
<path fill-rule="evenodd" clip-rule="evenodd" d="M27.5249 5.90016L27.4769 5.87317C27.1569 7.05517 26.2619 6.85517 25.3989 6.73517C24.8339 6.01617 23.9409 6.29317 23.2279 6.02617C24.6439 5.44317 26.0699 5.15916 27.5249 5.90016Z" fill="#6B696D"/>
<path fill-rule="evenodd" clip-rule="evenodd" d="M30.2109 19.2881C30.9139 19.2161 31.6159 19.1451 32.3189 19.0731C33.1399 19.1501 33.9629 19.2271 34.7849 19.3041C33.3899 20.3661 31.8069 19.9811 30.2639 19.9021C30.2179 19.7001 30.2009 19.4951 30.2109 19.2881Z" fill="#D7D7D8"/>
<path fill-rule="evenodd" clip-rule="evenodd" d="M27.4959 2.14514C27.2079 2.36214 26.9209 2.58014 26.6329 2.79614C26.0299 2.71114 25.4239 2.62614 24.8189 2.54114C24.8259 2.40914 24.8329 2.27714 24.8419 2.14514C25.7259 2.14514 26.6119 2.14514 27.4959 2.14514Z" fill="#D2D1D2"/>
<path fill-rule="evenodd" clip-rule="evenodd" d="M31.045 2.58517C30.992 2.82117 30.9409 3.05717 30.8879 3.29317C30.2099 3.30517 29.5329 3.31717 28.8529 3.32917C29.3079 2.92817 29.7629 2.52717 30.2159 2.12717C30.6259 2.03817 30.874 2.24217 31.045 2.58517Z" fill="#D2D1D2"/>
<path fill-rule="evenodd" clip-rule="evenodd" d="M6.10293 38.9221C6.34693 39.4681 6.59094 40.0141 6.83594 40.5601C6.19494 41.6271 5.85093 42.8661 4.95993 43.7891C4.50793 43.6051 4.05493 43.4221 3.60193 43.2391C3.28293 42.3981 3.87892 41.7991 4.16192 41.1171C4.48292 40.9781 4.68093 40.7491 4.68793 40.3861C5.15893 39.8971 5.62993 39.4101 6.10293 38.9221Z" fill="#C6C1C8"/>
<path fill-rule="evenodd" clip-rule="evenodd" d="M46.7009 45.3071C48.4779 45.2751 50.2579 45.2161 52.0339 45.2211C53.0789 45.2231 54.0599 45.2001 54.4529 43.9791C54.6319 44.1711 54.8069 44.3591 54.9849 44.5471C54.9119 45.3421 55.0149 46.0911 55.5469 46.7311C56.3469 49.4341 56.9729 52.1361 55.5409 54.8371C55.0579 57.0141 54.6519 59.2121 54.0609 61.3601C53.7419 62.5221 53.3019 63.7151 52.2029 64.4571C50.9339 64.4301 49.4019 65.8781 48.2229 63.3671C49.3849 65.5711 49.3469 67.0311 47.0639 67.7211C47.6959 68.2511 48.6279 68.3201 48.7619 69.2511C48.7429 69.4261 48.7219 69.6021 48.7009 69.7761C45.7239 71.8021 42.747 73.8281 39.769 75.8541C39.317 76.7111 38.436 76.4311 37.734 76.6231C33.685 77.5191 31.3439 80.6231 28.8309 83.5041C27.6739 83.4351 27.079 82.5551 26.441 81.7871C24.918 79.9531 23.001 78.5511 21.256 76.9591C20.883 76.3901 21.1369 75.8501 21.4209 75.3821C22.0299 74.3811 21.7219 72.5771 23.3099 72.4721C24.9339 72.3641 24.595 74.3861 25.807 75.2341C27.47 72.8161 28.4589 76.6501 30.1669 75.8421C31.8359 76.4381 32.8609 75.2571 34.0409 74.4661C35.6069 73.4161 37.3119 72.6251 39.0519 71.8781C38.7169 71.5441 38.2289 71.8281 37.8689 71.5741C37.2739 71.2051 36.9939 70.6471 36.8499 70.0001C36.832 69.0511 37.5209 68.5821 38.1549 68.0711C38.6709 67.6841 39.2299 67.3711 39.8149 67.0991C41.4859 66.2271 43.2939 65.6201 44.9189 64.4131C43.7379 64.9171 42.7959 65.7921 41.5009 65.6351C41.0149 65.5431 40.6179 65.3221 40.4119 64.8431C40.4349 63.6551 41.3309 63.0061 42.0219 62.2291C42.5219 61.7341 43.0009 61.2181 43.3409 60.5901C43.6859 59.9551 43.9749 59.2861 44.4399 58.7201C44.6459 58.4981 44.8719 58.2991 45.1079 58.1141C45.8669 57.5081 46.4569 56.7831 45.8319 55.8181C44.1249 53.1871 45.6439 52.7231 47.8409 52.6721C48.1869 52.9341 47.7069 52.5221 48.0669 52.8061C48.0029 52.7781 47.955 52.7251 47.872 52.6761C46.4 51.8011 44.1989 53.8841 43.1509 51.4631C43.9009 51.0031 44.635 50.5231 45.221 49.7651C44.594 50.3031 44.113 50.9151 43.437 51.2961C42.257 51.3821 41.8119 53.6081 40.1849 52.4141C39.6759 51.4991 39.7099 50.5591 40.0249 49.6001C40.9009 47.8951 42.9399 47.6961 44.1469 46.4151C44.9149 45.8611 45.9359 45.8811 46.7009 45.3071Z" fill="#E391FD"/>
<path fill-rule="evenodd" clip-rule="evenodd" d="M37.7329 76.6221C38.2789 76.0161 39.0529 76.0111 39.7679 75.8531C39.3139 76.7061 38.8829 77.6171 37.7329 76.6221Z" fill="#423D45"/>
<path fill-rule="evenodd" clip-rule="evenodd" d="M48.7599 69.2502C47.7319 68.4592 46.4059 68.6812 44.8859 68.2262C46.2359 67.4562 47.2989 66.8502 48.4149 66.2132C48.6749 64.5412 46.9849 62.4032 49.5169 61.1372C50.4439 62.3842 48.5649 62.9882 49.1229 64.0332C49.8979 64.7242 50.5189 64.1612 51.2049 63.7382C52.0239 63.2312 52.1119 63.8782 52.2009 64.4572C51.1859 66.1502 50.6339 68.1742 48.7599 69.2502Z" fill="#E5A2FC"/>
<path fill-rule="evenodd" clip-rule="evenodd" d="M55.5399 54.8371C55.6769 52.1351 54.9119 49.4331 55.5459 46.7311C55.6599 46.4311 55.7749 46.1311 55.8799 45.8571C56.5989 45.6281 56.7979 46.2141 56.8139 46.5541C56.9099 48.8021 56.9259 51.0531 56.9619 53.3031C56.9779 54.2611 56.4659 54.7441 55.5399 54.8371Z" fill="#332F35"/>
<path fill-rule="evenodd" clip-rule="evenodd" d="M11.6939 43.9562C11.7179 44.3772 11.7409 44.7982 11.7669 45.2202C15.7439 45.9192 15.7709 45.9272 14.5549 49.8412C14.2969 50.6732 14.2949 51.4092 14.7539 52.0992C15.6419 53.4332 15.8509 54.8102 15.1249 56.2612C14.2839 57.9402 15.7639 57.7392 16.5719 58.0902C16.9179 58.4702 17.0169 58.9232 16.9679 59.4202C15.5269 61.0192 16.8279 64.2172 13.7919 64.8932C13.1899 65.0702 12.5899 65.1082 12.0199 64.8362C11.7699 64.8162 11.5329 64.4642 11.2369 64.7752C11.4249 64.8112 11.6079 64.8852 11.8069 65.0062C11.9959 65.2262 12.1029 65.4662 12.1499 65.7462C12.0689 67.0312 11.5639 68.0572 10.4029 68.6882C10.1169 68.7692 9.83793 68.7362 9.57293 68.6112C9.16493 67.2262 8.89995 68.8652 8.54495 68.6702C8.26795 68.7672 7.98594 68.7742 7.70394 68.7072C7.31694 68.4512 7.13193 68.0772 7.06393 67.6322C6.80493 66.8612 6.42694 66.1762 5.72094 65.7202C5.67594 65.5202 5.65694 65.3182 5.66494 65.1142C7.58794 62.8622 5.39693 62.5482 4.10693 61.8112C3.62393 61.4222 3.56793 60.8822 3.58093 60.3182C3.84193 59.6692 5.82294 60.1842 4.63394 58.4072C3.96594 57.4102 4.89593 56.5292 6.23693 56.8682C7.21693 57.1172 8.07393 57.6322 8.75292 58.4052C9.09993 59.2172 9.80693 59.7622 10.2279 60.5192C10.0299 59.8712 9.44193 59.4682 9.26293 58.8132C9.12293 58.1282 9.24193 57.4842 9.74993 56.6852C7.60993 57.7362 6.58392 56.5662 5.70492 55.0702C4.86492 53.6412 5.09392 52.5282 6.64892 51.7942C8.45992 51.9182 7.90894 49.0602 9.80294 49.2842C10.6279 50.0592 10.1999 51.2032 10.6439 52.2302C10.5529 50.4162 11.7509 48.6032 10.0979 47.0932C10.2019 45.8312 9.66993 44.2432 11.6939 43.9562Z" fill="#EBABFE"/>
<path fill-rule="evenodd" clip-rule="evenodd" d="M7.05893 51.8952C5.53493 53.8622 5.53495 53.8622 8.12595 56.6852C9.27195 56.5032 9.19293 53.6712 11.3389 55.4042C11.1609 56.6042 9.51395 57.4202 9.67795 58.9442C9.22195 59.3852 8.76193 59.3222 8.30393 58.9462C7.46993 57.9872 6.38894 57.5632 5.20594 57.2982C4.44594 59.0452 6.62896 58.9512 6.62696 60.3572C5.66096 60.7502 4.59095 60.1142 3.58295 60.3202C2.13395 57.5882 2.27294 54.5962 2.47794 51.6962C2.61494 49.7682 2.72893 47.8462 2.75293 45.9152C2.94293 45.4422 3.13193 44.9692 3.32193 44.4972C4.29293 45.6212 5.59094 45.1362 6.77594 45.1972C7.49094 45.7272 8.05495 44.8322 8.73795 44.9872C9.04695 45.1112 9.25395 45.3252 9.37095 45.6352C9.26395 47.9682 8.67993 50.1242 7.05893 51.8952Z" fill="#EFB5FB"/>
<path fill-rule="evenodd" clip-rule="evenodd" d="M4.10992 61.8131C4.59692 61.0411 5.02293 61.6391 5.49493 61.8521C6.32093 62.2251 7.80694 61.3541 7.99194 62.7951C8.18194 64.2751 6.98194 64.8721 5.66794 65.1171C4.87994 64.1411 4.36292 63.0391 4.10992 61.8131Z" fill="#EFB5FB"/>
<path fill-rule="evenodd" clip-rule="evenodd" d="M37.2549 69.9422C37.7099 70.2782 37.7899 70.7682 37.7999 71.2862C35.7709 73.5452 33.615 75.6132 30.459 76.1752C29.524 76.2142 29.1979 77.0492 28.6419 77.5762C27.4339 77.1242 27.9089 75.9072 27.5139 75.0642C26.3109 75.3962 27.2859 77.1702 25.6229 77.3742C24.8289 76.0422 23.9249 74.6132 23.3469 72.3132C22.6029 74.2862 22.6199 75.9862 21.2549 76.9582C19.8549 76.5452 18.4229 76.2112 17.2509 75.2622C17.9949 73.2922 18.3629 71.0442 20.9529 70.5182C20.6689 68.8522 18.8049 68.6942 18.3669 67.3562C18.1609 66.8272 18.2599 66.2602 18.1659 65.7202C17.9769 64.6132 16.6209 63.3072 18.0519 62.4662C19.2689 61.7522 20.1669 63.2282 21.1419 63.8742C21.3549 64.1032 21.4959 64.3732 21.5669 64.6762C21.0779 66.4142 22.6099 66.3582 23.5169 66.8552C24.9679 67.8032 26.5289 68.1072 28.2199 67.6672C29.8749 67.3262 31.108 65.4052 33.1049 66.3492C33.549 66.8832 33.6079 67.4772 33.3749 68.1102C33.2499 68.2682 33.1199 68.4282 32.9869 68.5872C33.0609 68.5412 33.1169 68.4752 33.2109 68.4132C34.0009 68.5272 34.214 69.2292 34.631 69.7122C35.443 70.4842 36.4529 69.0762 37.2549 69.9422Z" fill="#ECA7FE"/>
<path fill-rule="evenodd" clip-rule="evenodd" d="M11.7329 65.8071C11.7269 65.5731 11.7229 65.3382 11.7189 65.1042C11.5729 64.9522 11.5249 64.8022 11.5759 64.6532C11.6279 64.5052 11.6779 64.4312 11.7279 64.4312C12.4169 64.4302 13.106 64.4302 13.795 64.4292C14.938 64.2172 16.0079 62.7491 17.1589 63.7621C18.2589 64.7271 18.3239 66.4491 17.6159 67.5421C16.2859 69.5901 18.7659 69.7101 18.9859 70.9021C18.9059 73.3001 17.6939 74.3542 15.3019 74.0042C15.0809 73.9852 14.862 73.9622 14.64 73.9332C12.835 71.9132 10.2289 70.9972 8.21494 69.2632C8.05194 69.0892 8.00694 68.9292 8.08194 68.7812C8.15494 68.6382 8.22194 68.5672 8.28494 68.5672L8.42893 68.4472C8.86793 68.1862 9.28994 68.1202 9.67294 68.5512L9.66995 68.5482C11.076 68.1722 13.1499 68.3031 11.7329 65.8071Z" fill="#EAA6FD"/>
<path fill-rule="evenodd" clip-rule="evenodd" d="M15.3039 74.0022C16.5189 72.9862 18.7429 72.9482 18.5939 70.6102C17.4939 67.9302 17.4939 67.9302 18.5829 67.1652C20.0329 68.4382 22.7539 68.6192 22.3149 71.5252C21.5119 72.3932 20.6309 71.3362 19.5929 71.6822C19.4339 73.1682 18.7359 74.4912 17.2499 75.2632C16.4689 75.0472 15.7529 74.7302 15.3039 74.0022Z" fill="#E38FFD"/>
<path fill-rule="evenodd" clip-rule="evenodd" d="M8.28693 68.5641C8.26493 68.7961 8.23995 69.0282 8.21695 69.2612C7.78895 69.4812 7.35995 69.7002 6.93295 69.9202C6.97695 69.1582 7.01995 68.3962 7.06595 67.6342C7.47195 67.9442 7.87993 68.2541 8.28693 68.5641Z" fill="#6A5A71"/>
<path fill-rule="evenodd" clip-rule="evenodd" d="M16.532 58.2622C15.632 58.1702 15.2499 59.0842 14.2939 59.3962C13.7169 58.4842 13.2149 57.7652 14.0939 56.5362C15.0369 55.2162 15.3889 53.7572 13.8219 52.3592C12.7729 51.4212 12.7029 50.0002 13.8859 49.1092C15.1009 48.1952 14.5079 47.1642 14.5799 46.1672C13.6689 45.6182 12.4099 46.3412 11.7659 45.2222C13.3549 45.2452 14.9439 45.2682 16.5329 45.2922C19.1879 47.2002 21.3869 49.5672 23.4099 52.1112C23.5809 52.6032 23.4139 52.9562 22.8439 53.2562C24.1179 52.8432 23.4589 52.2622 23.1489 51.7242C22.9819 50.3292 23.9369 50.1632 24.9579 50.0642C25.7909 50.0952 26.5399 50.3742 27.2319 50.8212C27.4809 51.0032 27.6849 51.2332 27.8429 51.4982C28.0779 52.9182 29.376 53.5462 30.157 54.5652C30.505 55.0972 30.7569 55.6682 30.8909 56.2912C30.9889 56.7762 31.0059 57.2632 30.9539 57.7542C30.7699 58.7892 30.3539 59.6332 29.1919 59.8452C28.2169 59.6372 27.747 58.6772 26.881 58.3002C26.339 57.9692 25.8609 57.5842 25.7909 56.8972C25.6259 56.6212 26.2279 56.1462 25.8929 56.1872C25.3509 56.2512 24.8209 56.3882 24.2589 56.3342C22.3089 56.1502 21.0299 56.5262 22.0669 58.9122C22.3599 59.5862 22.0959 60.2232 21.7019 60.8042C18.7999 62.3512 18.197 59.2322 16.532 58.2622Z" fill="#F5BAFE"/>
<path fill-rule="evenodd" clip-rule="evenodd" d="M17.9079 45.2732C23.3969 45.2732 28.888 45.2732 34.377 45.2732C34.465 45.3822 34.5529 45.4922 34.6409 45.6022C34.6109 45.8862 34.5209 46.1482 34.3669 46.3892C33.8239 47.0562 33.712 47.9502 33.196 48.6362C32.939 48.8232 32.6579 48.8832 32.3459 48.8212C29.7889 46.9932 29.7989 46.9962 29.2329 50.0092C29.0569 50.9392 28.7269 51.7502 27.4989 51.4002L27.5109 51.4112C26.9719 50.8732 26.4719 50.3192 26.2449 49.5562C25.9429 48.5362 25.8069 49.5002 25.5939 49.6392C24.0149 50.4942 22.4079 51.3302 21.9289 48.5842C21.7369 47.4822 20.9499 48.0312 20.4109 47.8802C19.0629 47.5002 17.9889 46.8662 17.9079 45.2732Z" fill="#F5BAFE"/>
<path fill-rule="evenodd" clip-rule="evenodd" d="M7.05893 51.8952C7.55193 49.6162 8.28692 47.4141 9.16592 45.2581C8.79192 43.4081 9.32693 41.9902 11.1069 41.1602C12.1579 40.6052 12.3789 38.8961 14.3329 39.1221C13.9259 41.0501 12.0559 42.1482 11.6929 43.9552C10.9369 44.9432 10.9249 46.2062 10.4559 47.2982C10.7739 48.1992 10.3889 48.8161 9.65292 49.2921C8.96892 49.8941 9.08894 50.7161 8.99094 51.5041C8.74794 53.4381 7.93793 52.9182 7.05893 51.8952Z" fill="#6E5976"/>
<path fill-rule="evenodd" clip-rule="evenodd" d="M17.9079 45.2732C19.2159 47.0072 20.7019 48.0862 22.6209 46.4692C24.2799 47.6842 22.2119 48.5142 22.5959 49.4392C23.6659 50.4462 24.5359 49.7372 25.4259 49.3322C25.8059 49.7872 25.8719 50.2472 25.4479 50.7162C24.4509 50.7082 23.4569 50.7022 23.3879 52.0892C22.5479 51.4152 21.8099 49.9222 20.3669 52.9062C20.8849 49.3212 19.5519 47.9872 17.4419 47.2932C16.3189 46.9232 15.9369 46.3672 16.5309 45.2912C16.9909 45.2852 17.4489 45.2792 17.9079 45.2732Z" fill="#EBABFE"/>
<path fill-rule="evenodd" clip-rule="evenodd" d="M34.3539 45.9152C34.3549 45.7012 34.364 45.4872 34.377 45.2732C35.962 45.2782 37.546 45.2822 39.131 45.2872C39.376 46.0092 39.6169 45.4882 39.8589 45.2832C40.3099 45.2832 40.7619 45.2842 41.2139 45.2842C42.0139 46.6112 43.7599 45.4852 44.6419 46.6022C43.9099 48.4762 41.9999 48.5872 40.5249 49.3452C39.8499 49.7322 39.3219 49.3352 38.7709 49.0362C37.4369 47.8032 35.1489 47.9122 34.3539 45.9152Z" fill="#E99EFE"/>
<path fill-rule="evenodd" clip-rule="evenodd" d="M8.48692 45.2152C8.03892 45.6782 7.96491 46.6662 7.13591 46.5572C6.27791 46.4442 6.84191 45.6762 6.77791 45.1962C7.79291 43.7912 7.52994 41.8422 8.75594 40.5302C9.16694 40.0892 9.54393 39.1962 10.2299 40.2832C9.74194 41.9592 9.71592 43.7992 8.48692 45.2152Z" fill="#79707D"/>
<path fill-rule="evenodd" clip-rule="evenodd" d="M44.6429 46.6022C44.1079 46.6552 43.5199 46.5832 43.0489 46.7852C41.3909 47.4992 41.1939 46.5522 41.2149 45.2842C43.0419 45.2922 44.8709 45.3002 46.6999 45.3072C46.2839 46.1692 45.6009 46.6022 44.6429 46.6022Z" fill="#EBA3FD"/>
<path fill-rule="evenodd" clip-rule="evenodd" d="M48.0359 43.2821C46.2819 41.9221 45.4929 39.5471 42.9399 38.8931C44.3089 37.5711 45.1049 38.8341 46.0229 39.0521C47.3969 39.7891 48.7639 40.5311 48.5789 42.4451C48.4849 42.7791 48.3069 43.0611 48.0359 43.2821Z" fill="#4C474E"/>
<path fill-rule="evenodd" clip-rule="evenodd" d="M46.463 39.0182C46.931 38.1772 47.6249 37.8552 48.3399 38.5872C49.4109 39.6782 50.6119 40.7332 50.7619 42.4242C50.1069 42.7832 49.5979 42.4542 49.0949 42.0782C48.3619 40.9342 47.283 40.0872 46.463 39.0182Z" fill="#59525C"/>
<path fill-rule="evenodd" clip-rule="evenodd" d="M8.48694 45.2152C9.06794 43.5702 9.09194 41.7302 10.2289 40.2822C10.5219 40.5752 10.8149 40.8672 11.1079 41.1592C10.4599 42.5252 9.81192 43.8912 9.16592 45.2572C8.93992 45.2472 8.71194 45.2332 8.48694 45.2152Z" fill="#E1E0E2"/>
<path fill-rule="evenodd" clip-rule="evenodd" d="M46.463 39.0182C47.707 39.7262 48.8009 40.5842 49.3919 41.9472C49.5209 42.4962 49.1999 42.7142 48.7419 42.8302C48.4309 42.8102 48.217 42.6592 48.118 42.3582C47.875 40.9672 46.7079 40.1641 46.0239 39.0531C46.1579 38.9031 46.305 38.8912 46.463 39.0182Z" fill="#A5A1A7"/>
<path fill-rule="evenodd" clip-rule="evenodd" d="M4.95895 43.7881C5.24595 42.5161 5.33293 41.1261 6.83493 40.5591C6.79793 41.9771 7.03295 43.5521 4.95895 43.7881Z" fill="#645B68"/>
<path fill-rule="evenodd" clip-rule="evenodd" d="M28.91 17.8721C29.132 18.2831 29.353 18.6931 29.575 19.1031C29.25 19.1301 28.921 19.2011 28.601 19.1731C27.978 19.1181 27.022 19.1661 27.203 18.2891C27.352 17.5811 28.256 17.7291 28.91 17.8721Z" fill="#878588"/>
<path fill-rule="evenodd" clip-rule="evenodd" d="M48.9259 42.4592C49.0809 42.2882 49.237 42.1172 49.392 41.9462C49.849 42.1062 50.3059 42.2652 50.7619 42.4242C50.6139 43.1962 50.0689 43.5702 49.3789 43.8012C49.0239 43.4232 48.1719 43.2122 48.9259 42.4592Z" fill="#ACAAAD"/>
<path fill-rule="evenodd" clip-rule="evenodd" d="M39.8599 45.2832C39.7599 45.7482 39.7929 46.4772 39.1119 46.3052C38.5989 46.1752 39.0979 45.6412 39.1319 45.2872C39.3729 45.2852 39.6149 45.2842 39.8599 45.2832Z" fill="#F2B2FE"/>
<path fill-rule="evenodd" clip-rule="evenodd" d="M48.9259 42.4591C49.0769 42.9071 49.2299 43.3541 49.3789 43.8011C48.8129 43.9421 48.2719 44.0071 48.0359 43.2821C48.0619 42.9741 48.0889 42.6671 48.1159 42.3591C48.3869 42.3911 48.6559 42.4251 48.9259 42.4591Z" fill="#454048"/>
<path fill-rule="evenodd" clip-rule="evenodd" d="M30.1889 8.35016C29.8179 8.17316 29.266 8.24916 29.174 7.67516C29.08 7.10216 29.4719 6.86016 29.9269 6.85616C31.3539 6.84516 32.779 6.89816 34.204 6.92516C35.065 7.89716 34.475 8.36515 33.549 8.47115C32.437 8.59915 31.2979 8.67616 30.1889 8.35016Z" fill="#7A787B"/>
<path fill-rule="evenodd" clip-rule="evenodd" d="M30.1889 8.35016C31.0399 8.30416 31.892 8.24916 32.743 8.21416C33.586 8.17816 34.2039 7.90615 34.2049 6.92615C35.1849 7.16715 35.1879 8.21216 35.7499 8.79816C33.8999 8.78316 32.0479 8.76815 30.1979 8.75215C30.2019 8.61815 30.1989 8.48416 30.1889 8.35016Z" fill="#CDCCCE"/>
<path fill-rule="evenodd" clip-rule="evenodd" d="M34.3369 12.2901C33.6669 12.1591 32.7959 12.7002 32.3889 11.6992C33.0779 11.7662 33.9359 11.2751 34.3369 12.2901Z" fill="#48454A"/>
<path fill-rule="evenodd" clip-rule="evenodd" d="M40.5419 52.7652C41.6539 52.7152 41.6469 50.4172 43.2749 51.4052L43.2699 51.4012C43.6989 52.0302 44.318 52.1982 44.961 51.8942C46.287 51.2682 47.225 51.8162 48.073 52.7752V52.7732C47.2629 53.1402 46.455 53.5072 45.384 53.9922C46.364 54.9702 47.892 55.5122 47.334 57.1832C46.896 58.4932 45.8389 58.7492 44.6889 58.9212C43.9009 58.5452 43.594 57.8282 43.368 57.0572C43.273 56.6552 43.2789 56.2442 43.3219 55.7492C43.0869 56.0392 43.122 56.3672 42.959 56.6222C41.579 59.5172 39.607 61.7382 36.393 62.5942C33.926 60.9552 33.976 61.0022 35.915 58.8502C36.25 58.4782 35.535 57.6272 35.505 56.9502C35.298 55.3912 34.4849 53.7012 36.4259 52.6002C37.6539 52.3332 38.866 52.6872 40.088 52.7032C40.241 52.7212 40.3919 52.7432 40.5419 52.7652Z" fill="#EBA3FD"/>
<path fill-rule="evenodd" clip-rule="evenodd" d="M43.8949 56.7672C44.1619 57.4852 44.4259 58.2032 44.6919 58.9222L44.6209 58.9702C44.2809 59.5802 43.6099 60.0722 43.9319 60.9162C43.7739 61.5772 43.3309 62.0202 42.7969 62.3932C41.4109 62.3562 40.8669 63.5482 40.0189 64.3002C38.8599 65.7482 36.9909 66.1252 35.6309 67.2342C35.7679 67.7732 36.1379 68.2332 36.0919 68.8132C35.8009 70.0172 35.0519 70.6832 33.8079 70.7692C33.6299 69.9932 33.8189 69.0812 32.9889 68.5452L32.9909 68.5472C32.9709 67.7852 32.9509 67.0232 32.9309 66.2612C32.8509 65.3102 33.5039 64.8212 34.1429 64.3222C37.6939 62.5452 40.9229 60.3852 42.9979 56.8542C43.2829 56.6702 43.5809 56.6422 43.8949 56.7672Z" fill="#DC93F0"/>
<path fill-rule="evenodd" clip-rule="evenodd" d="M30.459 76.1752C32.91 74.5552 35.1009 72.5392 37.7999 71.2862C39.1039 71.3592 40.2609 70.0872 41.7479 70.8362C41.4889 71.1612 41.3399 71.5182 41.0769 71.6542C37.8729 73.3052 34.7139 75.0122 31.7869 77.1462C30.8989 77.7952 29.946 77.8092 30.459 76.1752Z" fill="#53425A"/>
<path fill-rule="evenodd" clip-rule="evenodd" d="M41.2929 65.1821C43.4329 64.8081 44.8649 62.9091 47.0249 62.4581C46.5099 64.6471 44.1289 66.3771 39.8009 67.7761C39.3529 67.6231 38.99 67.3851 38.924 66.8621C39.103 65.4381 40.3179 65.4791 41.2929 65.1821Z" fill="#5E4667"/>
<path fill-rule="evenodd" clip-rule="evenodd" d="M41.2929 65.1822C40.5329 65.7942 39.7719 66.4062 39.0109 67.0182C38.7599 67.8002 38.0369 68.0652 37.4299 68.4572C36.8759 68.6482 36.3279 68.9612 35.7399 68.5662C35.2779 68.1092 34.8149 67.6522 34.3539 67.1962C36.5189 66.6162 38.3119 65.2922 40.2479 64.2522C40.3459 64.3792 40.4409 64.5062 40.5389 64.6332C40.7889 64.8162 41.0419 64.9992 41.2929 65.1822Z" fill="#C380D8"/>
<path fill-rule="evenodd" clip-rule="evenodd" d="M39.174 48.6571C39.624 48.8861 40.0739 49.1161 40.5259 49.3451C40.5299 50.4851 40.5369 51.6261 40.5429 52.7661L40.5279 52.7771C39.1269 53.0351 38.1319 52.4851 37.7179 51.1491C37.3199 49.8721 37.922 49.0411 39.174 48.6571Z" fill="#EBA3FD"/>
<path fill-rule="evenodd" clip-rule="evenodd" d="M43.2759 51.4051C43.7439 50.3811 44.7979 49.7071 44.7679 48.4691C45.9779 48.5211 46.931 48.5811 48.144 49.3671C46.275 50.1471 44.7739 50.7751 43.2709 51.4011L43.2759 51.4051Z" fill="#EBA3FD"/>
<path fill-rule="evenodd" clip-rule="evenodd" d="M35.7399 68.5662C36.2189 68.3712 36.7009 68.1762 37.1799 67.9822C37.6859 68.1762 38.3879 67.9422 38.6499 68.6642C38.1839 69.0902 37.7179 69.5162 37.2539 69.9422C36.0909 70.1542 35.327 72.0382 33.808 70.7682C34.451 70.0342 35.0939 69.2992 35.7399 68.5662Z" fill="#5B4364"/>
<path fill-rule="evenodd" clip-rule="evenodd" d="M39.7599 63.6761C40.2659 63.1311 40.7289 62.5331 41.2909 62.0571C41.8629 61.5751 42.456 61.5561 42.795 62.3931C42.043 63.1391 41.2909 63.8851 40.5379 64.6321C40.5199 64.5001 40.5009 64.3671 40.4819 64.2341C40.1439 64.1761 39.9019 63.9901 39.7599 63.6761Z" fill="#895E98"/>
<path fill-rule="evenodd" clip-rule="evenodd" d="M48.0739 52.7752C48.7099 52.9402 49.7839 52.3722 49.7479 53.6592C49.7349 54.1162 49.1349 54.3672 48.7309 54.3192C47.7279 54.2002 48.22 53.3282 48.075 52.7742L48.0739 52.7752Z" fill="#EBA3FD"/>
<path fill-rule="evenodd" clip-rule="evenodd" d="M38.6499 68.6632C38.1169 68.5282 37.5269 68.5182 37.1799 67.9812C37.6639 67.4192 38.2809 67.1102 39.0119 67.0182C39.2759 67.2702 39.5389 67.5232 39.8019 67.7752C39.4189 68.0712 39.0339 68.3682 38.6499 68.6632Z" fill="#342B39"/>
<path fill-rule="evenodd" clip-rule="evenodd" d="M47.1419 47.7322C46.7429 47.8672 46.4149 47.7452 46.4739 47.5412C46.5549 47.2602 46.8389 47.0022 47.0949 46.8172C47.3119 46.6622 47.6669 46.8242 47.6179 47.0442C47.5559 47.3312 47.2639 47.5682 47.1419 47.7322Z" fill="#EBA3FD"/>
<path fill-rule="evenodd" clip-rule="evenodd" d="M43.9309 60.9161C42.7979 59.7851 43.9449 59.4611 44.6199 58.9691C44.7569 59.7491 44.3079 60.3191 43.9309 60.9161Z" fill="#B677CA"/>
<path fill-rule="evenodd" clip-rule="evenodd" d="M18.5829 67.1652C17.4339 68.1782 18.5289 68.7242 19.0629 69.3532C19.6949 70.0972 19.6459 70.5262 18.5929 70.6102C17.8969 70.2142 17.1699 69.9572 16.3709 70.1252C16.3179 68.1022 17.8479 66.2102 16.8549 64.0662C15.7799 64.1932 14.787 64.3102 13.795 64.4272C14.167 63.4832 16.8709 63.2942 14.7299 61.5362C15.331 60.9002 15.9299 60.2642 16.5299 59.6272C18.6189 60.7342 21.5359 61.0162 21.3229 64.4222C19.9709 64.5992 19.3979 63.0412 17.8889 62.7622C18.1859 64.3992 20.0689 65.6052 18.5829 67.1652Z" fill="#F5BAFE"/>
<path fill-rule="evenodd" clip-rule="evenodd" d="M21.3239 64.4242C21.0229 62.8532 19.5489 61.5452 18.5949 61.4422C17.1229 61.2812 17.3739 59.9812 16.5309 59.6292C16.5309 59.1742 16.5309 58.7182 16.5309 58.2622C17.8119 58.3802 18.7989 58.9462 19.5229 60.0422C19.9719 60.7262 20.5729 61.2662 21.3349 60.3222C21.7299 59.9282 22.158 59.9082 22.618 60.1982C23.081 62.1002 25.7309 63.9412 22.7869 65.9462C21.5979 66.1332 21.6919 65.0782 21.3399 64.4532L21.3239 64.4242Z" fill="#ECA7FE"/>
<path fill-rule="evenodd" clip-rule="evenodd" d="M9.65393 49.2912C9.66893 48.5252 9.88394 47.8392 10.4569 47.2972C11.8059 47.2732 12.9129 47.6652 12.0629 49.2272C11.2379 50.7462 10.9769 52.0712 12.8429 53.8582C9.75193 52.2852 9.75193 52.2852 9.65393 49.2912Z" fill="#F5BDFE"/>
<path fill-rule="evenodd" clip-rule="evenodd" d="M11.7329 65.8071C12.4729 65.8861 13.4349 65.6171 13.6369 66.7021C13.8089 67.6201 13.2369 68.2821 12.4039 68.4091C11.5159 68.5441 10.6289 69.7111 9.67294 68.5471C10.9099 68.0491 11.1629 66.8091 11.7329 65.8071Z" fill="#F5BAFE"/>
<path fill-rule="evenodd" clip-rule="evenodd" d="M8.30392 58.9451C8.76192 58.9451 9.22095 58.9441 9.67795 58.9431C10.8829 60.2741 10.8829 60.2741 11.5089 62.2971C10.2889 61.9771 10.2889 61.9771 8.30392 58.9451Z" fill="#F5BAFE"/>
<path fill-rule="evenodd" clip-rule="evenodd" d="M11.7289 64.4301C11.7249 64.6541 11.7199 64.8791 11.7189 65.1031C11.2999 65.2121 10.8319 65.4971 10.4729 65.3951C9.75892 65.1921 8.80892 64.8751 9.15292 63.8701C9.58792 62.6071 10.3979 63.5591 11.0209 63.7751C11.2989 63.8721 11.4939 64.2051 11.7289 64.4301Z" fill="#F5BAFE"/>
<path fill-rule="evenodd" clip-rule="evenodd" d="M9.67493 68.5491C9.25893 68.5141 8.84392 68.4811 8.42892 68.4451C8.53592 68.0321 8.74994 67.6231 9.18994 67.6381C9.72694 67.6561 9.62093 68.1811 9.67493 68.5491Z" fill="#F5BAFE"/>
<path fill-rule="evenodd" clip-rule="evenodd" d="M22.7009 65.8072C22.7519 64.8502 24.0389 64.0542 22.8299 62.8782C22.2769 62.3402 22.1239 61.2052 22.7049 60.3152C22.8249 60.2082 22.945 60.1002 23.065 59.9922C25.048 59.4532 25.899 61.1162 27.118 62.0632C27.892 63.1312 28.983 62.5612 29.954 62.6092C31.22 62.6702 32.229 63.0142 32.083 64.5962C31.349 66.5812 29.1859 67.0932 27.9729 68.5862C26.2879 68.6172 24.3549 69.4532 23.3869 67.1672C22.9949 66.7962 22.2899 66.5822 22.7009 65.8072Z" fill="#F2B2FE"/>
<path fill-rule="evenodd" clip-rule="evenodd" d="M27.9719 68.5872C28.2949 66.3972 30.5869 66.0442 31.7009 64.5902C31.9899 64.0872 32.4509 63.8852 33.0079 63.8452C33.7099 63.9642 34.4669 64.0262 34.3309 65.0602C33.8629 65.4602 33.3959 65.8612 32.9309 66.2602C31.0629 66.5812 30.0249 68.6632 27.9719 68.5872Z" fill="#624A6B"/>
<path fill-rule="evenodd" clip-rule="evenodd" d="M22.7009 65.8071C22.9279 66.2611 23.1579 66.7151 23.3859 67.1681C23.0489 67.1681 22.7109 67.2001 22.3779 67.1621C21.5479 67.0661 20.4429 67.5041 20.1159 66.2971C19.8539 65.3321 20.9879 65.1121 21.3399 64.4541C21.7939 64.9051 22.2469 65.3561 22.7009 65.8071Z" fill="#E38CFE"/>
<path fill-rule="evenodd" clip-rule="evenodd" d="M32.9879 68.5442C32.9509 69.0022 32.8689 69.4652 32.4599 69.7282C32.1109 69.9522 31.7459 70.3262 31.2419 69.9462C31.4529 68.9872 32.3779 68.9592 32.9899 68.5462L32.9879 68.5442Z" fill="#DC93F0"/>
<path fill-rule="evenodd" clip-rule="evenodd" d="M39.174 48.6571C37.716 51.1151 37.716 51.1151 40.527 52.7771C39.37 53.7791 38.2179 53.7701 37.0729 52.7581C36.0619 52.3421 34.5419 51.5061 34.2719 52.9691C34.0109 54.3861 34.1929 56.4251 36.4169 56.8991C36.1959 58.0141 36.8949 58.7601 37.5549 59.5671C36.5019 60.2531 35.731 58.7891 34.726 59.3201C33.531 61.2701 36.7669 60.7481 36.4089 62.2311C36.2909 63.0451 35.687 63.3551 35.006 63.5841C33.728 63.7051 32.7219 63.2421 31.9989 62.1771C31.8089 61.1051 31.9099 59.9431 31.1099 59.0331C30.7199 58.1191 31.446 56.8691 30.247 56.2041C30.02 55.7401 29.7939 55.2771 29.5679 54.8131C28.7809 51.6911 30.6879 50.0671 32.9899 48.6631H32.9859C33.9359 47.9921 33.4359 46.5961 34.3609 45.9121L34.3539 45.9161C35.7949 47.1181 38.114 46.7821 39.174 48.6571Z" fill="#F2B2FE"/>
<path fill-rule="evenodd" clip-rule="evenodd" d="M32.9899 48.6612C32.9409 48.8772 32.967 49.1672 32.834 49.2972C31.253 50.8482 29.9049 52.5282 29.5679 54.8122C28.7109 53.7772 26.4729 53.5772 27.4989 51.3992C28.5609 50.8652 29.191 50.1832 28.224 49.0422C27.116 47.7382 27.9149 46.7942 29.0199 46.4162C30.0019 46.0792 31.537 45.4402 31.815 47.5222C31.891 48.0912 32.4619 48.4172 32.9899 48.6612Z" fill="#E797FF"/>
<path fill-rule="evenodd" clip-rule="evenodd" d="M22.704 60.3162C22.247 60.3192 21.7909 60.3202 21.3349 60.3222C22.2729 58.7642 19.845 58.4102 20.634 56.2552C22.56 53.5662 25.749 56.5682 28.794 55.3222C28.125 57.4812 26.537 55.5322 26.131 56.8912C25.848 58.8922 24.101 59.4312 22.704 60.3182V60.3162Z" fill="#F2B2FE"/>
<path fill-rule="evenodd" clip-rule="evenodd" d="M22.7039 60.3181C23.2879 58.6171 25.119 58.1641 26.131 56.8911C26.43 57.4371 26.9409 57.5561 27.5039 57.5731C27.9509 58.7351 27.7189 59.9091 27.5679 61.0831C27.4569 61.5991 27.2459 62.0581 26.8059 62.3821C25.2649 62.0381 24.5879 59.9781 22.7039 60.3181Z" fill="#ECA7FE"/>
<path fill-rule="evenodd" clip-rule="evenodd" d="M31.614 58.9411C32.602 59.6711 32.5849 60.6491 32.2979 61.6951C31.9919 62.0711 31.5849 62.1281 31.1419 62.0661C30.4529 61.7791 29.7869 61.9581 29.1219 62.1881C28.3119 62.2691 27.5799 62.1991 27.2839 61.2651C27.5129 60.4271 28.0699 59.9101 28.8759 59.6351C29.7919 59.2491 30.241 58.5511 30.265 57.5651C31.572 57.1811 31.013 58.6301 31.614 58.9411Z" fill="#ECA7FE"/>
<path fill-rule="evenodd" clip-rule="evenodd" d="M25.4479 50.7161C25.4409 50.2551 25.4339 49.7931 25.4259 49.3321C25.4019 49.1081 25.353 48.8831 25.355 48.6591C25.36 48.0051 24.2859 47.0641 25.6969 46.7821C26.5879 46.6051 26.685 47.4211 26.807 48.1191C27.001 49.2231 27.271 50.3121 27.51 51.4091C26.823 51.1781 26.1369 50.9471 25.4479 50.7161Z" fill="#E797FF"/>
<path fill-rule="evenodd" clip-rule="evenodd" d="M28.8749 59.6342C28.8479 60.5262 28.3819 60.9792 27.4969 61.0162C27.2649 61.3372 27.0389 61.3332 26.8169 61.0062C26.7419 59.8012 26.8519 58.6332 27.5029 57.5742C28.4169 57.9572 28.8699 58.6472 28.8749 59.6342Z" fill="#F2B2FE"/>
<path fill-rule="evenodd" clip-rule="evenodd" d="M25.4969 52.9421C23.6739 53.6821 22.4449 54.3861 20.9179 54.0881C22.1669 53.4371 22.9249 51.4901 25.4969 52.9421Z" fill="#EBABFE"/>
<path fill-rule="evenodd" clip-rule="evenodd" d="M17.9039 50.0331C18.9739 51.0661 18.5559 52.4891 19.4519 54.2671C17.7339 53.4681 16.242 53.4821 17.604 51.6431C17.897 51.2481 17.8149 50.5761 17.9039 50.0311V50.0331Z" fill="#EBABFE"/>
<path fill-rule="evenodd" clip-rule="evenodd" d="M31.614 58.9412C31.164 58.4832 30.7129 58.0242 30.2619 57.5652C30.2579 57.1102 30.2509 56.6572 30.2459 56.2032C31.3609 55.7312 32.6389 54.9932 31.8069 57.3132C31.6269 57.8142 31.673 58.3962 31.614 58.9412Z" fill="#E58FFE"/>
<path fill-rule="evenodd" clip-rule="evenodd" d="M17.9039 50.0311C17.6339 49.8441 17.3279 49.6941 17.1039 49.4631C16.7939 49.1411 16.5099 48.6601 17.0429 48.3821C17.5719 48.1061 17.7909 48.5781 17.8519 49.0431C17.8959 49.3701 17.8889 49.7031 17.9049 50.0341V50.0311H17.9039Z" fill="#EBABFE"/>
<path fill-rule="evenodd" clip-rule="evenodd" d="M34.3609 45.9111C34.2359 46.9941 34.8219 48.4321 32.9859 48.6621C33.1159 47.5811 32.5269 46.1411 34.3609 45.9111Z" fill="#E99EFE"/>
<path fill-rule="evenodd" clip-rule="evenodd" d="M36.4169 56.8981C35.2729 56.7241 34.9679 58.3291 33.5509 58.0981C33.3979 57.0191 35.1489 55.8612 33.5649 54.6902C32.0009 53.5352 32.7139 52.1942 34.0399 51.4962C35.2819 50.8412 36.6849 50.8482 37.0739 52.7592C34.8479 53.8212 36.2929 55.4641 36.4169 56.8981Z" fill="#E490FE"/>
<path fill-rule="evenodd" clip-rule="evenodd" d="M34.9479 63.0411C35.4349 62.7711 35.9229 62.5011 36.4089 62.2301C39.0359 60.7791 41.102 58.7631 42.545 56.1211C42.991 56.2191 43.2629 56.4931 43.3729 56.9341C42.2109 59.5881 40.3539 61.6441 37.8979 63.1421C36.7469 63.8441 35.5219 64.4251 34.3309 65.0601C33.9739 64.4721 33.3489 64.4261 32.7709 64.2931C32.9099 62.8571 34.4279 63.8151 34.9479 63.0411Z" fill="#71517C"/>
<path fill-rule="evenodd" clip-rule="evenodd" d="M43.3719 56.9341C43.0949 56.6631 42.8199 56.3931 42.5439 56.1211C42.6479 55.2511 42.8369 54.4301 43.6839 53.9021C44.3909 54.8671 43.9079 55.8331 43.8949 56.7671C43.7239 56.8351 43.5499 56.8911 43.3719 56.9341Z" fill="#745181"/>
<path fill-rule="evenodd" clip-rule="evenodd" d="M39.7599 63.6761C40.0009 63.8631 40.2409 64.0492 40.4829 64.2352C38.6239 65.6052 37.0719 67.6051 34.3539 67.1951C35.8799 65.5981 38.1759 65.1861 39.7599 63.6761Z" fill="#694E73"/>
<path fill-rule="evenodd" clip-rule="evenodd" d="M34.9479 63.0411C34.5019 63.9431 33.3899 63.6911 32.7709 64.2941C32.4139 64.3931 32.0559 64.4921 31.7009 64.5901C31.1809 62.5421 29.7609 63.0481 28.6299 63.7191C26.7099 64.8591 26.8769 63.5491 26.8069 62.3821C26.8099 61.9231 26.8149 61.4641 26.8189 61.0061C27.0449 61.0071 27.2709 61.0101 27.4989 61.0161C28.0049 61.7941 28.808 61.6691 29.562 61.6901C30.015 61.2811 30.4689 61.2811 30.9289 61.6811C31.3839 61.6861 31.8429 61.6901 32.2979 61.6951C32.9739 62.5521 33.8909 62.9361 34.9479 63.0411Z" fill="#E698FD"/>
<path fill-rule="evenodd" clip-rule="evenodd" d="M30.9279 61.6811C30.4709 61.6841 30.0159 61.6871 29.5609 61.6901C29.6589 61.1911 29.6499 60.5201 30.3959 60.6481C30.8439 60.7241 30.8839 61.2611 30.9279 61.6811Z" fill="#F2B2FE"/>
</svg>
