<svg width="118" height="213" viewBox="0 0 118 213" fill="none" xmlns="http://www.w3.org/2000/svg">
<path fill-rule="evenodd" clip-rule="evenodd" d="M85.7272 212.256C73.4067 212.971 61.0052 214.344 49.3486 209.542C50.4822 204.482 57.2838 203.682 60.6068 200.266C61.4943 200.108 62.3833 199.949 63.2967 200.149C64.8805 200.949 65.682 202.243 66.6618 203.424C67.3176 204.542 67.8181 205.8 70.346 205.583C70.3476 204.022 71.4877 202.157 67.6853 202.461C65.2966 202.432 65.3258 200.124 63.3987 199.671C62.3687 199.661 61.3663 200.126 60.3089 199.805C57.6109 198.704 57.7631 194.757 53.266 195.452C52.7089 195.321 52.2328 195.089 51.8312 194.761C51.7648 194.541 51.7016 194.322 51.6336 194.101C51.7016 193.881 51.7729 193.662 51.8393 193.439C55.7696 191.413 54.5016 187.936 55.5818 185.118C56.9664 184.578 57.4166 183.455 58.2619 182.558C60.955 179.708 62.4157 179.858 65.4683 183.089C65.5476 183.54 65.5606 183.988 65.5363 184.442C67.4893 188.228 60.7007 189.904 62.0416 193.58C61.8764 190.583 64.9452 189.251 67.2642 187.827C69.465 186.475 73.954 189.282 72.5273 191.214C70.6456 193.768 73.9022 194.94 73.5573 196.396C72.848 191.397 78.3086 193.48 81.5086 192.769C85.2138 192.917 85.6171 189.779 88.0608 188.678C88.5871 188.537 89.1215 188.517 89.6592 188.612C90.8672 189.028 92.0121 189.608 93.4243 189.491C96.8947 194.211 97.6299 199.611 99.2525 204.753C100.836 209.782 98.072 211.676 89.4324 212.388C88.2988 210.612 86.9968 211.717 85.7272 212.256Z" fill="#423F44"/>
<path fill-rule="evenodd" clip-rule="evenodd" d="M42.1196 45.0339C42.1827 50.3273 43.901 55.2883 46.837 60.0301C47.4264 60.9843 47.9106 61.7869 49.496 61.5117C51.6644 62.0761 51.062 60.741 51.232 59.9294C51.4118 58.7395 52.0822 57.8197 53.5041 57.2999C55.9996 56.984 57.1656 58.1993 56.7089 59.7702C55.9429 62.4188 56.6441 65.163 55.5559 67.7543C54.3786 69.0168 53.6255 70.5443 51.8992 71.5419C48.4936 71.1329 49.6304 66.767 46.0159 67.4919C44.9956 66.5593 45.1041 67.9976 45.6661 67.5186C46.228 67.037 45.4539 67.4371 46.1195 67.8256C46.6005 68.1085 47.1252 68.3403 47.3908 68.8054C47.4539 69.2984 47.2644 69.7035 46.79 70.0271C44.9276 70.8654 43.041 71.5699 40.8743 70.6832C39.6613 67.9722 43.475 65.5235 41.5074 62.8023C41.9657 65.8115 42.0159 68.6639 37.3844 69.9723C36.348 70.2653 38.0694 70.5736 37.8378 71.0577C38.2573 73.8198 36.3804 77.1169 40.8403 78.9208C41.3034 80.8012 43.1252 82.1963 43.7908 84.0066C43.5625 84.6615 43.0427 85.1239 42.2929 85.4399C39.9318 85.8284 37.7455 84.3137 35.3537 85.0513C33.0249 85.2997 31.3748 85.8692 33.0006 88.0439C33.9772 90.783 30.4646 92.0162 29.6889 94.1769C28.1829 94.8114 26.8306 94.8623 25.8217 93.568C25.9205 93.3399 26.0209 93.1144 26.1213 92.8851C28.3043 93.1157 28.8306 92.243 28.7658 90.6836C28.633 87.5432 28.6881 84.3965 28.6638 81.2561C29.4849 80.6675 31.5594 81.2446 31.3181 79.8853C31.1885 79.1655 29.4735 79.6623 28.6007 79.2534C28.5569 76.3245 27.1205 73.5013 27.5416 70.538C28.4501 70.3443 29.0039 70.7227 29.4573 71.268C29.8687 70.71 29.1238 70.4412 28.9311 70.0411C28.5116 69.1837 28.3157 68.2346 27.4363 67.5454C26.5019 62.9373 25.5821 58.3293 24.625 53.7212C24.293 52.1198 24.0453 50.5312 24.6801 48.9425C27.3294 47.5691 27.1319 47.8774 30.5537 49.2151C31.9302 49.754 34.2201 49.2878 35.9091 50.1222C36.6476 50.4662 37.2629 50.921 37.8216 51.4217C38.7139 52.0854 38.8613 53.1212 39.7228 53.8372C40.4402 53.0409 39.3617 52.7734 39.033 52.2918C38.3366 51.595 37.65 50.9057 37.1804 50.1006C36.6184 48.2788 33.7035 46.6442 36.4549 44.5536C37.2419 44.2083 38.0921 44.058 38.986 44.0312C39.5722 44.0312 40.1504 44.1001 40.7156 44.23C41.2338 44.4377 41.7017 44.7077 42.1196 45.0339Z" fill="#6B5077"/>
<path fill-rule="evenodd" clip-rule="evenodd" d="M40.871 44.9919C40.5066 44.9766 40.1423 44.9664 39.7779 44.9639C37.067 43.5217 36.8759 39.7099 32.28 40.087C31.5399 44.1816 29.6598 44.9448 24.4857 43.193C24.2396 42.7484 24.2833 42.3178 24.5796 41.8986C24.2881 35.0726 23.8088 28.2465 23.7699 21.4205C23.7392 16.485 24.6153 11.6234 29.4185 7.87535C31.4962 6.25483 33.6969 4.50436 36.9682 5.52992C39.854 6.43318 40.4969 8.68817 40.6637 10.7992C41.02 15.3473 41.0686 19.9095 41.2435 24.4666C38.2913 25.7661 34.7447 22.6919 31.6095 25.5813C35.4848 24.3672 38.1504 25.2463 39.19 28.0096C41.2758 33.5527 42.4936 39.199 40.871 44.9919Z" fill="#454148"/>
<path fill-rule="evenodd" clip-rule="evenodd" d="M116.98 51.6714C118.169 53.32 117.876 55.138 117.876 56.9037C117.892 73.458 117.895 90.0123 117.842 106.568C117.835 107.914 118.689 109.545 116.496 110.465C113.633 109.122 116.02 106.917 115.097 105.254C114.718 103.773 114.553 102.288 114.995 100.799C115.086 100.18 115.097 99.5583 115.021 98.9366C114.83 98.0945 114.627 97.2549 114.677 96.3899C115.121 93.9604 115.686 91.5322 114.481 89.1409C113.963 88.0592 113.435 86.9802 112.198 86.2489C111.124 85.6998 110.028 85.7699 108.916 86.1827C106.274 87.1815 104.203 88.9676 101.286 89.5753C99.6363 89.6696 98.676 88.9345 97.9715 87.8822C97.7432 87.4694 97.6719 87.035 97.714 86.5853C98.1691 85.4272 99.6573 85.0654 100.6 84.2793C102.129 83.2741 103.85 82.5607 105.777 82.1632C111.983 79.7783 115.83 76.0659 116.02 70.9393C113.605 73.0656 109.392 71.4833 106.219 72.7114C112.826 75.4416 112.869 77.3653 106.321 81.5746C103.95 82.3416 101.674 83.2385 99.6606 84.5188C99.0808 84.6488 98.4995 84.6603 97.9116 84.5813C96.4315 84.1532 95.2801 83.4907 95.0566 82.1505C94.4364 78.9234 96.4979 75.8072 94.4623 72.3203C92.6388 69.1952 97.4711 69.1315 100.759 68.2142C97.0177 67.5123 93.9392 67.3964 91.0842 66.5466C89.3902 66.0446 88.3716 65.1146 88.4105 63.6228C88.4607 61.6557 90.0137 61.2073 92.1481 61.3678C92.425 61.787 92.7684 62.1882 92.9627 62.629C93.6461 64.1731 95.3108 64.3744 96.9383 64.2266C98.6776 64.0674 98.9432 62.7769 99.1942 61.6774C99.6557 59.6288 100.03 57.5662 100.436 55.5112C101.46 55.9597 102.461 56.6986 103.431 55.4042C104.389 54.1226 104.765 52.1696 107.636 52.8435C110.31 53.4703 109.337 55.4463 109.952 56.8324C110.153 57.2821 110.422 57.7064 110.76 58.1026C111.563 60.0352 115.647 61.8137 112.519 63.898C109.369 65.9949 106.563 63.7667 104.166 61.8494C105.105 64.177 109.236 63.968 109.618 66.6829C114.392 64.7426 114.481 62.0099 112.282 58.7599C111.33 57.3484 110.02 56.0374 109.929 54.3315C110.422 51.0166 112.634 49.4101 116.983 49.9146C117.405 50.5134 117.401 51.1134 117 51.716C116.532 51.9823 116.26 52.3645 115.996 52.7518C116.575 52.539 116.307 51.8409 116.98 51.6714Z" fill="#3F3C41"/>
<path fill-rule="evenodd" clip-rule="evenodd" d="M92.1465 61.3716C91.5505 62.4316 88.7392 62.029 89.4809 64.0751C90.0186 65.5465 91.6267 65.9045 92.7894 65.7873C94.8704 65.5784 96.5481 66.9849 98.8525 66.144C101.12 65.3172 102.234 67.3951 104.14 68.3952C102.674 69.8972 101.082 70.7138 98.8055 70.1698C97.5489 69.8692 96.4428 69.5481 95.6266 70.6909C94.9044 71.705 95.1246 72.5255 96.3586 73.1956C98.5335 74.3727 98.5497 75.7155 96.9918 77.3131C95.5991 78.7425 98.2063 80.9211 95.6509 82.2027C92.6096 80.3682 90.0817 78.4674 92.1352 74.9868C92.974 73.5714 92.1093 71.4362 90.4396 71.3266C82.2195 70.7763 84.6097 66.1988 84.5466 62.4928C84.7393 60.5576 84.7441 58.7332 83.4842 56.8744C82.0672 54.7774 81.6656 52.4486 83.3191 50.1248C80.6211 52.9034 85.3174 59.109 76.9661 59.2746C73.6236 57.0337 72.7022 49.9809 75.6074 46.936C76.6115 45.8862 77.5588 45.2594 75.6349 44.3613C73.7953 41.4846 75.3629 40.6055 78.9596 40.6132C81.1928 40.617 81.6057 39.1392 81.1766 37.8461C80.6276 36.1924 79.3321 37.4269 78.3361 37.6881C77.5005 37.9722 76.6373 38.0614 75.745 37.9595C75.1637 37.8372 74.6568 37.6104 74.2261 37.2817C73.7856 36.4052 73.9038 35.4968 73.9783 34.591C75.094 33.0737 77.4017 32.4367 78.4446 30.8582C79.0292 30.3486 79.7239 30.0034 80.6081 29.9231C82.0203 29.9384 83.4065 30.1435 84.8008 30.3015C87.685 30.7576 89.1603 32.1373 88.5417 34.4292C87.5668 38.0372 90.5546 37.3454 93.1166 37.2091C93.7449 45.2849 91.5392 53.2932 92.1465 61.3716Z" fill="#2F2C31"/>
<path fill-rule="evenodd" clip-rule="evenodd" d="M116.592 104.816C116.559 106.7 116.528 108.585 116.499 110.468C117.183 111.138 116.996 111.845 116.629 112.557C115.56 113.767 116.779 115.346 115.591 116.538C115.392 121.567 114.234 126.444 111.855 131.128C109.327 132.643 109.094 133.164 109.502 136.323C109.448 138.753 106.156 139.729 105.473 141.874C104.252 143.002 102.368 142.518 100.807 143.062C101.23 144.282 103.52 145.212 101.857 146.771L101.853 146.776C100.493 147.617 99.9294 148.796 99.6039 150.072C98.8574 151.857 97.6655 153.429 95.9376 154.738C93.2591 151.59 87.9069 154.432 85.026 151.723C84.932 149.9 85.9782 148.523 87.7368 147.427C88.9109 146.342 92.4688 147.719 92.017 145.7C91.4793 143.302 94.3603 140.077 89.5134 138.434C87.5021 137.754 84.8753 135.702 87.0956 134.403C89.5717 132.951 85.9668 127.069 93.0032 129.437C94.9141 130.141 95.8145 131.731 97.8388 132.821C99.6072 131.303 100.979 129.948 97.9376 128.328C96.9513 127.339 96.8056 126.231 97.1667 125.05C97.3675 124.61 97.6801 124.228 98.0946 123.896C99.2736 123.238 100.663 122.921 101.941 122.423C105.894 121.261 108.976 119.761 106.111 115.899C106.111 113.153 109.285 111.902 110.716 109.831C111.027 109.483 111.382 109.157 111.75 108.846C112.851 108.081 112.951 106.976 113.4 105.973C113.92 104.817 114.554 103.523 116.592 104.816Z" fill="#302D32"/>
<path fill-rule="evenodd" clip-rule="evenodd" d="M48.3738 27.4465C45.9706 21.4218 46.573 15.2111 46.8758 9.06914C47.0815 4.92356 51.0183 2.39849 55.2369 0.616173C58.7607 -0.871852 62.7008 0.427611 63.5542 3.51959C65.2773 9.77873 69.0845 15.8417 67.1493 22.5365C65.2174 23.4754 63.87 21.9161 62.1858 21.8396C60.8304 22.0218 60.2457 22.8486 59.6725 23.6844C59.4781 24.0526 59.2724 24.4131 59.1024 24.7787C58.7558 26.1024 60.4854 26.3598 61.0943 27.184C61.3923 27.5662 61.5899 27.9778 61.7032 28.416C61.6773 29.9372 62.3445 31.578 60.5146 32.7998C59.4004 33.224 58.2879 33.1858 57.1721 32.8011C55.7276 32.0647 54.6296 31.0774 53.8118 29.8951C53.2547 29.1231 53.3033 27.9828 51.7519 27.8198C50.5875 27.8771 49.3632 28.2822 48.3738 27.4465Z" fill="#454147"/>
<path fill-rule="evenodd" clip-rule="evenodd" d="M14.8065 127.237C11.7312 123.724 9.58058 119.886 8.32068 115.741C9.89475 112.52 14.8259 111.675 16.1279 108.521C19.485 108.73 19.6809 110.822 20.761 112.301C21.5659 113.404 21.6566 115.513 24.3691 113.988C24.2347 113.578 24.076 114.109 23.9125 114.027C18.936 112.516 20.0275 108.224 17.5546 105.562C17.3943 105.086 17.3166 104.606 17.2923 104.116C18.6024 99.496 21.5222 100.607 24.7497 102.808C25.0979 103.187 25.344 103.612 25.493 104.065C25.7796 104.882 24.8614 106.223 27.0266 106.232C28.0663 106.088 29.08 105.876 30.131 105.832C32.4435 106.3 33.8217 104.904 35.582 104.214C38.9892 102.877 41.1398 103.318 40.6783 106.807C40.5018 107.246 40.2038 107.633 39.8184 107.977C38.6637 108.657 37.2872 108.973 35.9852 109.414C30.735 111.041 35.1965 114.037 34.4273 116.292C34.4111 118.555 30.8273 119.819 31.7326 122.327C34.7204 125.753 30.9213 127.016 28.6298 129.039C26.4387 130.973 24.455 130.668 22.0631 129.811C19.2858 128.812 18.4275 127.377 20.4112 125.435C17.8315 124.641 18.9246 130.64 14.8065 127.237Z" fill="#4A424E"/>
<path fill-rule="evenodd" clip-rule="evenodd" d="M109.332 58.7155C108.095 58.0912 107.937 57.1179 108.2 56.1382C108.512 54.9636 108.953 53.6998 106.805 53.5737C105.152 53.4781 104.997 54.7254 105.063 55.6617C105.126 56.5115 105.358 57.2109 104.083 57.6543C101.181 58.6658 100.598 57.3396 100.435 55.5152C100.525 47.7643 100.098 39.9954 101.771 32.3018C105.014 31.568 101.542 29.4404 103.095 28.355C103.016 27.7906 103.324 27.4364 104.035 27.3077C106.595 27.309 108.754 25.1369 111.557 26.4503C112.469 27.1714 113.377 27.89 114.289 28.6085C115.469 30.9182 114.924 32.9209 112.619 34.6408C110.972 35.8715 109.75 36.3467 112.71 38.2896C115.677 40.2401 118.575 43.5448 116.946 47.4534C117.398 48.2713 117.401 49.0917 116.982 49.9173C114.141 50.976 110.933 51.7366 110.579 54.8069C111.688 56.4109 111.672 57.7931 109.332 58.7155Z" fill="#2F2C31"/>
<path fill-rule="evenodd" clip-rule="evenodd" d="M92.0445 160.5C91.6251 169.973 90.9822 179.452 93.2008 188.858C91.9441 189.24 90.6891 189.193 89.4308 188.855C85.9539 188.158 81.2106 188.128 84.8591 183.329C81.9361 184.95 76.5192 181.442 75.3532 186.557C71.3225 189.074 67.1476 188.064 64.563 183.955L64.5533 183.968C66.1225 182.799 67.4683 181.502 66.2213 179.73C65.3744 178.52 63.3161 177.532 65.533 176.045C66.8917 175.13 68.5484 175.009 70.2197 175.353C72.7168 175.867 73.35 177.226 72.7459 179.146C75.7419 178.003 78.7135 176.908 80.3556 174.455C80.6277 172.131 80.103 169.336 84.809 169.667C84.7232 169.69 84.8251 169.617 84.8251 169.617C84.8251 169.617 84.5401 169.736 84.4576 169.749C79.2868 169.204 78.422 170.824 80.7701 174.098C78.3864 176.933 76.0576 177.615 73.5119 174.152C71.7306 171.728 67.4602 170.736 66.7363 166.925C72.5727 167.279 77.4471 166.042 81.7126 163.278C83.013 162.439 84.3539 163.41 85.6187 164.01C87.6333 164.968 88.6454 164.036 89.1506 162.537C89.7693 161.555 89.8178 160.058 92.0445 160.5Z" fill="#434045"/>
<path fill-rule="evenodd" clip-rule="evenodd" d="M58.3412 24.4807C58.3558 24.1393 58.372 23.7978 58.3849 23.4551C60.3914 22.6449 61.4716 21.2944 62.0125 19.6255C63.5995 20.7339 65.0472 21.9926 67.1493 22.5353C68.048 28.732 67.0731 34.9211 67.018 41.1114C64.129 44.4187 62.2975 48.1057 60.7687 51.9034C60.338 52.5111 59.7517 52.9812 58.9242 53.25C55.4732 53.8106 51.4781 55.4502 50.6522 50.7084C51.6498 48.6394 53.4797 46.9297 54.6603 44.9627C54.9923 44.6021 55.7356 44.6608 55.9882 44.1818C54.8935 44.1945 54.7073 45.1857 53.8425 45.4507C50.5907 45.2965 49.1656 43.8378 49.1332 41.3853C52.317 40.2171 48.7008 39.1902 49.0166 38.0717C49.1462 35.5377 48.7996 33.005 49.2288 30.4825C50.1745 29.5321 51.4133 29.4722 52.7639 29.7589C55.8797 32.4941 57.7469 35.7339 58.9096 39.2437C59.0975 39.868 58.6975 39.0921 58.9453 39.7138C59.0667 40.017 59.1104 40.4782 59.4181 40.5496C59.9623 40.6795 59.9914 40.4897 59.4117 40.2451C59.3048 40.2018 59.2287 40.0158 59.057 39.8387C57.3129 37.4232 61.5477 35.9033 60.5274 33.6012C62.8043 31.9501 62.223 30.1984 60.8432 28.4186C60.8303 28.0886 60.8157 27.7587 60.8027 27.43C60.9566 27.2758 61.1104 27.1217 61.2578 26.9688C61.4505 26.4872 62.9501 26.8924 62.3882 25.9165C61.9736 25.8795 61.5963 25.8082 61.2092 25.7216C60.3412 25.533 59.5007 25.3215 58.7623 24.9189C58.6198 24.775 58.4805 24.6285 58.3412 24.4807Z" fill="#514457"/>
<path fill-rule="evenodd" clip-rule="evenodd" d="M32.3901 182.01C32.7594 177.767 33.1302 173.525 33.4994 169.281C34.7091 168.438 35.2727 166.87 37.4427 167.088C39.4524 167.533 40.9034 166.234 42.6621 166.03C46.2605 165.612 47.8086 167.619 48.7625 169.832C49.577 171.716 48.6766 172.88 45.7001 172.61C48.4628 175.051 47.3341 178.128 48.1649 180.868C48.4985 182.172 48.8629 183.472 49.041 184.797C49.0426 185.239 48.8969 185.656 48.6378 186.046C46.275 187.208 43.3957 186.582 40.931 187.422C40.0727 187.39 39.3099 187.138 38.5731 186.81C36.9569 185.581 31.412 186.675 34.5472 182.624C33.7245 182.643 32.9683 182.521 32.3901 182.01Z" fill="#54415C"/>
<path fill-rule="evenodd" clip-rule="evenodd" d="M21.0202 77.3081C22.8436 82.4754 23.7683 87.8237 26.1181 92.8827L25.7586 93.2216C22.5699 95.99 20.6186 94.6026 18.9149 92.0125C17.9174 90.4952 18.9198 88.811 18.0955 87.3013C17.8591 86.9076 17.6971 86.4987 17.5789 86.0783C15.6307 83.6169 13.9789 80.725 9.15954 82.6436C8.09396 84.1406 7.81383 86.1993 4.87135 86.328C1.9143 84.6425 3.57582 81.3046 0.93455 79.5032C-0.600657 72.5344 -0.801505 65.7262 4.71909 59.5881C9.57086 65.3275 9.02676 68.2933 1.958 74.6799C4.84218 72.4453 6.98955 74.7882 9.42191 75.322C12.0664 75.4774 13.1984 72.8224 15.9222 73.1511C16.4032 73.3931 16.787 73.7065 17.0915 74.0849C17.8947 75.5411 19.2906 76.5501 21.0202 77.3081Z" fill="#634C6D"/>
<path fill-rule="evenodd" clip-rule="evenodd" d="M18.5328 104.718C18.5328 105.038 18.5328 105.358 18.5328 105.677C18.4631 105.874 18.3935 106.071 18.3287 106.269C17.5336 107.365 15.8478 107.769 15.0623 108.876C11.9968 111.099 8.96849 112.491 6.18471 108.625C5.89969 108.363 5.83002 108.067 5.97739 107.745C5.85755 105.065 8.46806 106.694 9.94982 106.197C8.0211 106.058 5.91911 106.55 5.00252 104.738C4.89563 104.08 4.78712 103.422 4.68024 102.765C8.91016 100.524 3.37824 100.31 3.39768 98.943L3.46084 98.9647C5.90778 96.6002 3.40416 94.9249 2.19769 93.0215C1.41552 91.7845 1.61633 90.4952 2.70134 89.341C5.10294 88.2313 6.01952 85.3126 9.70855 85.7687C12.0308 87.7918 12.0664 89.9601 10.162 92.1476C12.2462 93.5146 14.5927 92.6138 16.651 93.0559C19.3311 93.8725 20.2024 96.1607 22.361 97.413C22.6072 97.8283 22.6315 98.25 22.4371 98.6832C20.4113 100.406 13.0802 100.002 18.5328 104.718Z" fill="#463E49"/>
<path fill-rule="evenodd" clip-rule="evenodd" d="M39.6629 185.959C40.0823 186.274 40.505 186.589 40.926 186.905C44.3106 187.477 46.0677 189.353 46.6621 191.816C47.1527 193.847 45.2596 194.568 43.0588 194.842C42.5455 194.986 42.0062 195.081 41.4702 195.119C40.9406 195.108 40.2556 194.688 40.003 195.43C40.4127 195.569 40.7625 195.539 41.1236 195.313C41.6321 195.224 42.1066 195.176 42.6119 195.145C45.8734 195.304 46.1114 197.045 45.5398 198.894C44.96 200.761 43.3147 201.918 40.7042 201.882C39.0427 201.858 37.5722 201.261 36.0775 200.784C34.5358 200.426 32.6994 199.958 31.6387 201.091C28.8549 204.065 27.0088 201.706 24.8955 200.57C22.8501 196.018 26.8582 193.052 29.4833 189.723C31.6808 188.999 31.8071 191.268 33.4087 191.378C33.8978 191.315 34.3383 191.18 34.7285 190.937C37.3374 189.862 35.867 186.288 39.6629 185.959Z" fill="#353038"/>
<path fill-rule="evenodd" clip-rule="evenodd" d="M84.4657 31.3257C83.099 31.2977 81.6447 31.4926 80.72 30.3791C78.8415 28.1407 81.5621 25.5902 79.933 23.3365C79.7257 20.9019 79.214 18.5017 78.618 16.1053C79.7192 12.6872 83.2042 11.5813 86.9872 10.7634C87.8698 11.1482 88.2487 11.7712 88.3442 12.5292C88.022 15.174 87.2025 18.0188 92.26 18.4673C94.1709 22.0243 93.3255 25.7112 93.0826 29.3688C91.1102 32.4838 86.9224 29.5523 84.4657 31.3257Z" fill="#322F34"/>
<path fill-rule="evenodd" clip-rule="evenodd" d="M59.5753 51.8779C59.8101 47.8291 63.1121 44.704 64.887 41.1177C65.206 40.4705 66.2878 40.9483 67.0165 41.1126C67.0036 41.7675 66.989 42.421 66.9744 43.0733C65.7501 48.5986 66.7218 54.1698 66.4125 59.7053C65.8279 62.5259 66.6279 64.1069 70.7655 62.6902C71.0586 62.4354 71.423 62.3042 71.8618 62.2991C74.0383 63.582 71.3047 65.3338 72.5549 66.7123C72.8124 67.3556 72.7525 67.9748 72.3622 68.5787C71.9509 68.915 71.4748 69.1596 70.9258 69.3329C69.1299 69.7214 67.3874 69.6705 65.7242 68.9672C63.2789 67.0116 60.7591 65.0828 61.0474 61.8851C58.6134 62.9107 56.7057 63.7732 56.2555 60.2709C55.8215 56.9076 59.6012 54.9265 59.5753 51.8779Z" fill="#3C373F"/>
<path fill-rule="evenodd" clip-rule="evenodd" d="M16.0519 74.3919C16.047 74.0594 16.0438 73.7269 16.0389 73.3957C15.3652 72.9154 14.9442 72.3242 14.7563 71.6274C14.3191 70.8795 15.1353 69.4871 13.192 69.5571C12.7191 69.5737 10.8082 68.9137 11.6908 70.5304C12.0681 72.6733 10.8017 74.4722 9.81388 76.3271C6.84064 77.8304 6.73212 73.9231 3.69086 74.6607C2.36132 75.1104 5.103 75.6978 4.06171 76.2367C1.35891 75.3793 1.35891 75.3793 1.87712 70.1712C3.4431 70.1852 3.8868 71.8057 6.0633 71.728C5.15643 69.8425 4.75643 67.9289 7.83656 67.055C5.75399 65.5963 4.54751 68.0232 3.00421 66.1734C4.67059 64.3261 6.87298 62.2355 4.71916 59.5881L4.65115 59.5563C6.66571 59.369 8.43574 57.9752 10.656 58.8122C15.6988 61.908 17.4041 66.3747 18.7449 70.9916C19.1206 72.0771 19.3376 73.1689 18.8972 74.2798C17.9887 74.9385 17.0413 75.0073 16.0519 74.3919Z" fill="#56475D"/>
<path fill-rule="evenodd" clip-rule="evenodd" d="M14.8065 127.237C15.4008 127.319 16.5085 127.488 16.5133 127.472C17.5724 123.616 21.4509 124.253 25.0056 123.837C24.8209 126.605 21.1335 125.496 20.1489 127.322C20.9829 129.599 24.6282 128.143 25.5707 129.938C27.5448 129.237 26.4015 127.338 29.1367 126.889C32.3642 126.362 32.28 124.874 29.7229 122.437C31.8233 120.807 33.7504 121.653 35.6694 122.685C37.3811 124.417 35.1544 125.804 35.0135 127.381C34.7836 128.056 34.4338 128.691 33.8994 129.254C32.1537 130.413 30.3739 131.643 31.1075 133.684C32.4063 137.289 30.497 137.906 26.3902 137.344C24.4015 137.071 22.3416 137.298 20.7174 136.088C18.0567 133.422 16.0291 130.496 14.8065 127.237Z" fill="#664E70"/>
<path fill-rule="evenodd" clip-rule="evenodd" d="M72.0026 66.5325C71.1152 66.7275 70.4107 67.4549 68.861 66.9543C69.8423 65.3898 72.5274 64.3884 71.8618 62.2991C73.1525 60.0326 73.4375 57.6452 73.4375 55.1851C73.4375 44.3128 73.4909 33.4393 73.5848 22.5658C73.5994 20.8166 73.0197 18.9871 74.3233 17.3398C76.1986 18.4164 76.0512 20.0432 76.2115 21.586C76.2649 23.4894 75.8666 25.4259 76.8771 27.2617C77.2123 27.9025 77.5054 28.5561 77.7451 29.2237C77.954 29.8938 77.954 30.5664 77.7192 31.2327C77.1653 32.5284 75.6447 33.2597 74.7524 34.3604C74.7524 35.2586 74.7557 36.1567 74.7557 37.0549C77.4892 39.1748 73.7176 41.8668 75.75 44.0491C76.9451 44.0491 78.1419 44.0491 79.8601 44.0491C79.5848 45.8238 78.3945 46.8226 77.1152 47.6889C76.3945 48.1781 75.1184 48.187 74.835 49.0814C74.6423 49.6891 74.3217 50.6153 74.6958 50.9338C77.3921 53.213 73.9557 56.5636 77.0034 58.7166C80.7912 59.5944 80.5224 61.285 78.6083 63.4113C76.9662 65.2369 74.9208 66.4306 72.0026 66.5325Z" fill="#473D4C"/>
<path fill-rule="evenodd" clip-rule="evenodd" d="M53.3518 194.723C55.9655 194.442 58.921 193.499 59.0149 197.127C59.0376 197.964 60.1971 198.785 60.8319 199.61C61.2643 199.832 61.41 200.054 61.2643 200.274C61.1234 200.497 60.9793 200.606 60.8319 200.606C59.7469 202.638 58.8967 204.561 55.3048 204.965C52.3445 205.297 52.2393 208.694 49.3486 209.543C48.032 209.515 46.7867 209.341 45.849 208.512C43.8021 205.241 46.8353 203.507 49.0943 201.591C47.5154 201.835 46.947 204.421 44.8612 203.352C42.3884 202.084 44.7316 200.538 45.1656 199.098C45.4636 198.103 45.862 197.263 47.1543 196.858C50.1 196.336 52.9566 196.196 55.4586 197.829C55.6789 196.595 52.2862 196.467 53.3518 194.723Z" fill="#2E2B31"/>
<path fill-rule="evenodd" clip-rule="evenodd" d="M47.1575 197.636C45.3049 198.931 45.5462 200.819 44.7462 202.674C47.8409 201.836 50.4109 197.532 54.3947 202.449C46.8223 200.933 47.5494 205.632 45.8507 208.512C40.8353 207.309 35.7228 206.317 30.9974 204.458C29.948 201.131 34.4337 200.702 35.8799 198.68C37.1576 199.127 37.6742 200.251 39.1462 200.651C41.8005 201.368 43.5333 200.74 44.343 198.803C45.2936 196.525 43.8345 195.572 40.973 195.713C40.641 195.375 40.6637 195.043 40.9989 194.716C41.3859 194.719 41.7729 194.724 42.1632 194.727C45.7146 193.687 47.5494 194.476 47.1575 197.636Z" fill="#3A353D"/>
<path fill-rule="evenodd" clip-rule="evenodd" d="M92.0446 160.5C90.443 161.166 90.7361 162.438 90.477 163.535C90.2778 163.568 90.0835 163.628 89.8827 163.634C87.0859 163.719 86.992 162.019 86.5709 160.531C85.2041 162.619 83.5216 162.187 81.7321 160.915C80.7831 159.831 81.1977 157.937 78.6973 157.77C77.6042 157.593 76.5241 157.4 75.6609 156.79C75.3565 153.92 76.3217 151.56 80.6002 153.066C83.4682 154.074 83.0066 149.629 85.6803 151.692C86.3572 152.395 87.277 152.845 88.3021 152.371C92.8915 150.249 92.8624 150.226 95.0453 154.104C95.1943 154.367 95.6364 154.527 95.9409 154.735C94.6405 156.658 93.3433 158.579 92.0446 160.5Z" fill="#423F44"/>
<path fill-rule="evenodd" clip-rule="evenodd" d="M20.7189 136.085C23.8898 136.427 27.1156 135.8 30.4775 136.955C28.3512 131.777 29.2225 129.762 33.4184 129.157C34.9099 127.441 36.3593 127.755 37.7876 129.207C36.3755 133.016 32.8791 136.881 33.1026 140.365C33.4087 145.137 30.3026 144.556 26.9456 144.95C25.0233 141.928 22.1359 139.325 20.7189 136.085Z" fill="#4E4453"/>
<path fill-rule="evenodd" clip-rule="evenodd" d="M26.9456 144.948C27.3472 144.89 28.1002 144.834 28.1019 144.772C28.1229 142.001 30.9213 143.202 32.5131 143.138C33.1658 140.864 30.3561 141.396 29.6014 140.274C35.7358 138.708 33.0475 135.058 32.6961 131.658C34.8078 131.562 37.9997 132.331 37.2451 129.191C41.1236 128.222 40.8839 130.481 40.5632 132.138C40.2491 133.745 39.99 135.012 42.2539 135.736C42.8628 136.309 43.007 136.964 42.8305 137.679C42.5147 138.369 41.8912 138.833 41.0815 139.157C38.471 139.589 35.9495 140.003 38.4564 142.796C39.4475 143.896 41.0895 145.142 38.6928 146.454C38.1892 146.641 37.658 146.778 37.1139 146.867C34.2103 146.676 32.3285 148.798 29.5706 148.938C27.9383 147.918 27.5269 146.398 26.9456 144.948Z" fill="#694E75"/>
<path fill-rule="evenodd" clip-rule="evenodd" d="M6.18471 108.624C9.38306 110.087 12.311 110.048 14.8178 107.661C16.0761 107.029 17.9109 107.063 18.5295 105.686L18.5343 105.676C19.893 107.35 21.4185 108.885 21.553 111.078C21.6226 112.27 22.727 113.498 24.7707 113.525L24.7464 113.505C25.0169 113.938 25.3326 114.356 25.5416 114.804C25.9837 115.755 26.2379 116.741 24.6833 117.198C23.5059 117.546 22.8015 117.004 22.3789 116.153C21.702 114.79 19.2971 114.385 19.4428 112.407C19.5271 111.269 18.4518 110.036 16.5198 108.893C16.2089 113.293 11.8543 114.175 8.31909 115.739C6.7936 113.517 5.93046 111.175 6.18471 108.624Z" fill="#654D70"/>
<path fill-rule="evenodd" clip-rule="evenodd" d="M40.8709 44.9919C41.7648 41.4094 40.4612 37.8307 40.0337 34.354C39.7811 32.3054 38.4224 29.8836 37.6256 27.5917C37.1171 26.1291 35.1301 24.8679 32.7496 26.51C31.5561 27.333 30.5909 28.5688 28.5958 28.2185C30.5909 22.8511 32.8176 21.2777 41.2434 24.4653C43.0037 28.1879 41.9721 32.0698 42.228 35.8739C42.4304 38.9175 42.1713 41.9801 42.1195 45.0326C41.7033 45.0199 41.2871 45.0071 40.8709 44.9919Z" fill="#5F4B68"/>
<path fill-rule="evenodd" clip-rule="evenodd" d="M116.943 47.4558C116.792 44.0899 113.136 41.8758 112.252 38.7073C112.077 38.0831 110.433 38.9239 109.288 38.8462C108.201 37.6652 111.395 36.739 109.766 35.5121C109.345 35.1974 108.919 34.4968 109.593 34.4445C114.425 34.0674 112.909 30.6327 114.287 28.6096C116.158 29.3587 116.661 30.8379 116.762 32.2049C117.133 37.2804 118.098 42.3662 116.943 47.4558Z" fill="#39363B"/>
<path fill-rule="evenodd" clip-rule="evenodd" d="M39.6629 185.959C37.8621 188.149 38.3463 191.403 34.5941 192.682C34.1585 192.407 33.7909 192.439 33.4945 192.825C32.1569 193.81 31.3375 193.445 31.0654 192.165C30.8581 191.197 30.7415 190.246 29.4816 189.723C30.8468 187.243 32.1424 184.749 32.3885 182.007C34.3852 182.231 36.0678 181.411 37.8087 180.456C38.2362 183.047 34.6427 182.629 34.4306 184.393C35.8395 185.606 38.5277 184.227 39.6629 185.959Z" fill="#453B4A"/>
<path fill-rule="evenodd" clip-rule="evenodd" d="M84.4657 31.3258C85.1248 30.2926 85.3029 29.2046 84.9272 27.6975C87.3062 30.1665 89.9701 30.6124 93.081 29.3677C93.5377 31.9806 93.6591 34.5923 93.1166 37.2053C92.6146 37.4792 92.0186 37.6869 91.63 38.0372C90.7215 38.8653 90.1628 39.9406 88.2373 39.18C86.2892 38.4105 86.2519 37.3837 86.8155 35.9976C87.1248 35.2421 87.1313 34.414 87.3337 33.6267C87.8244 31.7284 86.1855 31.5029 84.4657 31.3258Z" fill="#3B373E"/>
<path fill-rule="evenodd" clip-rule="evenodd" d="M3.7021 89.9588C2.79037 92.489 4.47617 95.1542 7.54658 95.8651C8.48099 96.0829 9.58382 95.8523 10.5636 96.8002C9.51095 98.4207 7.52555 97.9544 5.98548 97.6729C4.29481 97.3633 3.7669 97.8869 3.46083 98.9647C0.184746 92.6737 0.779065 86.0706 0.932909 79.5044C1.73452 78.805 2.29967 79.1159 2.64623 79.8102C3.67132 81.855 4.92312 83.8564 4.90045 86.1343C5.85105 87.6695 4.38549 88.7383 3.7021 89.9588Z" fill="#56475D"/>
<path fill-rule="evenodd" clip-rule="evenodd" d="M86.9856 10.7636C85.3402 12.0388 84.2277 13.7409 81.5038 14.0594C80.0075 14.2352 79.5395 15.4799 79.4812 16.6533C80.252 18.1935 81.1022 20.33 78.5905 20.7351C74.997 21.3161 76.4254 17.7629 74.5614 16.6571C75.1622 13.1778 77.9023 10.9776 81.5281 9.22205C84.2941 7.88308 86.0933 8.21813 86.9856 10.7636Z" fill="#49434C"/>
<path fill-rule="evenodd" clip-rule="evenodd" d="M33.5772 165.347C33.8557 161.402 32.6865 157.57 32.1197 153.69C32.4128 152.299 33.2663 151.145 34.5164 150.152C37.7877 148.672 39.9091 150.474 42.1941 151.819C36.0128 154.864 40.1957 159.161 40.0306 162.936C38.22 164.298 36.0646 165.095 33.5772 165.347Z" fill="#735580"/>
<path fill-rule="evenodd" clip-rule="evenodd" d="M37.1334 44.9932C35.8784 45.75 36.1277 46.5501 37.0524 47.3425C37.8848 48.0546 38.4241 48.8509 38.3609 49.8484C37.6776 50.3682 36.7075 50.5058 35.9756 50.9644C34.1796 49.7554 30.6671 51.474 29.6566 48.3349C29.3278 47.3144 26.5052 49.1261 24.6801 48.9426C24.6801 48.2904 24.6801 47.6393 24.6801 46.9858C25.451 46.3602 26.055 45.6009 27.0412 45.1448C29.2129 43.881 31.7262 43.2568 34.3383 42.9574C36.131 42.7498 37.5901 43.137 37.1334 44.9932Z" fill="#4B4350"/>
<path fill-rule="evenodd" clip-rule="evenodd" d="M54.5891 45.0175C54.5712 48.3095 54.5712 48.3095 50.8612 50.8817C50.6506 51.0129 50.4433 51.1441 50.2328 51.2766C50.0239 51.1467 49.8102 51.018 49.598 50.8868C48.4142 43.4237 48.2668 35.9275 48.4871 28.4186C50.7089 28.4046 50.3397 29.3703 49.7146 30.4328C49.7276 33.3133 49.7405 36.1938 49.7551 39.073C50.3802 39.7814 50.3818 40.4884 49.7567 41.198C50.3786 43.2632 51.9656 44.5716 54.6247 45.043L54.5891 45.0175Z" fill="#6F517C"/>
<path fill-rule="evenodd" clip-rule="evenodd" d="M74.563 16.6571C77.4585 16.6355 76.5467 19.1529 78.1467 20.2778C79.9119 19.1988 79.2997 17.8279 79.4827 16.6533C81.6916 18.7338 81.2398 21.1136 80.728 23.501C80.8317 24.7546 82.4042 26.5612 79.4633 26.8504C75.5459 27.2338 75.2123 24.7483 74.7103 22.5659C74.5807 20.8244 74.4528 19.0828 74.3233 17.3412C74.1484 17.0559 74.2261 16.8291 74.563 16.6571Z" fill="#3B373E"/>
<path fill-rule="evenodd" clip-rule="evenodd" d="M34.7674 150.725C34.748 152.188 33.7925 153.139 32.1213 153.689C31.2711 152.106 30.4209 150.523 29.5707 148.94C31.5447 147.045 33.6306 145.325 37.1836 145.811C38.7771 148.178 34.7204 148.828 34.7674 150.725Z" fill="#4F4156"/>
<path fill-rule="evenodd" clip-rule="evenodd" d="M92.2583 18.4674C91.0307 18.726 90.7797 20.0663 88.9498 20.1249C88.0543 18.7349 87.4162 16.9615 84.9644 16.243C86.2162 14.867 87.2802 13.6988 88.3425 12.5293C90.3797 14.2097 91.7595 16.1589 92.2583 18.4674Z" fill="#47434A"/>
<path fill-rule="evenodd" clip-rule="evenodd" d="M35.8783 198.68C35.1658 201.085 32.2298 202.325 30.9958 204.458C28.429 203.679 26.1294 202.644 24.8938 200.571C26.4986 200.429 27.4168 201.561 29.2273 201.991C29.412 198.414 33.4022 199.591 35.8783 198.68Z" fill="#58495F"/>
<path fill-rule="evenodd" clip-rule="evenodd" d="M101.858 146.771C101.861 144.014 98.7521 144.021 95.7562 143.221C99.293 141.44 102.31 141.351 105.473 141.874C105.376 144.013 103.494 145.334 101.858 146.771Z" fill="#49464B"/>
<path fill-rule="evenodd" clip-rule="evenodd" d="M65.6464 61.6522C65.6934 56.983 65.7047 52.31 65.8197 47.6421C65.8569 46.084 65.2335 44.3819 66.9743 43.0735C67.0521 49.5785 67.1282 56.0848 67.2043 62.5886C65.959 63.0217 65.478 62.6701 65.6464 61.6522Z" fill="#514457"/>
<path fill-rule="evenodd" clip-rule="evenodd" d="M28.5989 79.2509C29.9771 77.9693 31.6937 76.7908 33.4734 78.4712C35.3454 80.237 33.1463 81.4511 31.8815 82.8767C30.6475 82.255 29.6548 81.7543 28.6605 81.2536C28.6411 80.5861 28.6216 79.9185 28.5989 79.2509Z" fill="#4E4652"/>
<path fill-rule="evenodd" clip-rule="evenodd" d="M109.503 136.323C109.324 135.876 109.191 135.066 108.953 135.045C107.301 134.902 105.076 135.758 105.581 133.076C106.093 130.328 108.367 131.607 110.137 131.547C110.715 131.527 111.285 131.273 111.858 131.128C111.604 133.008 110.911 134.766 109.503 136.323Z" fill="#413E43"/>
<path fill-rule="evenodd" clip-rule="evenodd" d="M50.8611 50.8804C52.432 52.6372 54.0789 54.1061 56.9599 52.1709C57.091 52.083 57.8813 52.6015 58.3639 52.8372C57.9461 54.7698 58.9485 57.5739 54.3202 56.9267C53.8117 56.8108 53.3178 56.6554 52.8433 56.4783C51.6951 56.0273 50.5195 55.5967 49.6498 54.8081C49.6434 54.4807 49.632 54.1545 49.6223 53.8271C50.8595 53.0602 49.7081 51.6715 50.8628 50.8804H50.8611Z" fill="#3C373F"/>
<path fill-rule="evenodd" clip-rule="evenodd" d="M33.5771 165.347C35.0167 163.612 36.7479 162.426 39.6061 163.374C39.7389 163.547 39.8701 163.721 40.0045 163.894C39.9203 165.205 38.9503 166.144 37.8766 167.042C37.6515 167.14 37.4232 167.234 37.1949 167.331C35.9171 167.929 35.4102 169.427 33.4993 169.283C33.5269 167.969 33.5528 166.66 33.5771 165.347Z" fill="#61496B"/>
<path fill-rule="evenodd" clip-rule="evenodd" d="M3.39935 98.9431C5.6131 99.6897 7.35878 101.303 10.4081 100.807C9.25188 103.763 7.21791 103.784 4.68029 102.765C3.56613 101.634 3.49814 100.285 3.39935 98.9431Z" fill="#61496B"/>
<path fill-rule="evenodd" clip-rule="evenodd" d="M27.4347 67.543C30.8581 68.5125 30.5828 71.7115 33.6435 73.1422C29.5642 74.378 28.7043 72.2657 27.5399 70.5343C27.1221 69.5483 27.0978 68.5482 27.4347 67.543Z" fill="#605764"/>
<path fill-rule="evenodd" clip-rule="evenodd" d="M16.0518 74.3918C16.8712 74.3752 17.6939 74.3587 18.5149 74.3421C18.9684 74.007 19.1352 73.4452 19.8526 73.3254C20.9878 74.5179 21.1352 75.89 21.0202 77.308C17.3538 78.4571 16.6623 76.4658 16.0518 74.3918Z" fill="#7B5A89"/>
<path fill-rule="evenodd" clip-rule="evenodd" d="M53.3891 57.7051C52.9632 58.681 52.5421 59.6543 52.1162 60.6302C51.3211 61.1882 50.5065 61.271 49.6644 60.6964C49.1284 59.0657 49.0798 57.4337 49.6142 55.7967C50.8612 55.1163 52.0968 55.0972 53.3211 55.8323L53.334 55.8018C54.087 56.4222 54.1 57.0566 53.3891 57.7051Z" fill="#6F527B"/>
<path fill-rule="evenodd" clip-rule="evenodd" d="M49.7147 30.4315C49.6207 29.6416 49.4588 28.8759 48.4872 28.4173C48.4499 28.0937 48.411 27.7688 48.3738 27.4452C49.8086 27.5102 50.9244 26.8694 52.1195 26.4031C54.8952 26.3101 53.6078 28.0109 53.964 28.9868C54.0175 29.5091 53.8183 29.9639 53.3648 30.3474C52.1503 30.3754 50.9325 30.4034 49.7147 30.4315Z" fill="#6A5076"/>
<path fill-rule="evenodd" clip-rule="evenodd" d="M103.096 28.355C102.713 30.6609 106.569 28.7996 106.713 31.0622C105.583 32.1438 103.573 32.0381 101.769 32.3018C101.523 30.8444 101.659 29.4646 103.096 28.355Z" fill="#39363B"/>
<path fill-rule="evenodd" clip-rule="evenodd" d="M85.7272 212.256C86.8689 210.982 87.7676 209.529 89.4874 208.663C91.4923 210.177 89.8551 211.247 89.4308 212.392C88.1596 213.005 86.9547 212.421 85.7272 212.256Z" fill="#302D32"/>
<path fill-rule="evenodd" clip-rule="evenodd" d="M111.555 26.4503C108.964 26.2809 106.966 29.3371 104.033 27.3077C106.179 25.054 108.734 25.0387 111.555 26.4503Z" fill="#39363B"/>
<path fill-rule="evenodd" clip-rule="evenodd" d="M49.6644 60.6951C50.4822 60.6722 51.3 60.6506 52.1162 60.6289C54.338 62.81 51.7696 63.1387 50.0433 64.2751C49.8036 63.0648 49.6482 62.2876 49.4944 61.5105C49.3583 61.2137 49.4166 60.9423 49.6644 60.6951Z" fill="#473D4C"/>
<path fill-rule="evenodd" clip-rule="evenodd" d="M10.6559 58.812C8.74334 59.5063 6.91015 60.588 4.65106 59.556C6.75954 57.1367 7.52716 57.0424 10.6559 58.812Z" fill="#776280"/>
<path fill-rule="evenodd" clip-rule="evenodd" d="M5.00247 104.739C6.86966 105.72 9.11095 105.684 11.7409 105.807C9.73281 107.265 7.17733 106.144 5.97735 107.744C5.03323 106.864 4.82596 105.839 5.00247 104.739Z" fill="#6F507C"/>
<path fill-rule="evenodd" clip-rule="evenodd" d="M27.2858 46.0252C26.7028 46.8252 25.7441 46.9947 24.6801 46.9845C23.8655 45.299 23.5692 43.6071 24.5813 41.8987C24.7352 42.2376 24.8874 42.5752 25.0429 42.9141C25.3878 44.1282 28.0712 44.3015 27.2858 46.0252Z" fill="#6B5077"/>
<path fill-rule="evenodd" clip-rule="evenodd" d="M89.4308 188.855C90.6891 188.235 91.9458 188.278 93.2008 188.858C93.5457 189.012 93.6186 189.225 93.4243 189.493C91.5749 191.285 90.1871 191.287 89.4308 188.855Z" fill="#3B383D"/>
<path fill-rule="evenodd" clip-rule="evenodd" d="M99.6055 150.071C99.2817 148.519 97.6979 146.436 101.855 146.775C101.687 148.121 100.925 149.214 99.6055 150.071Z" fill="#49464B"/>
<path fill-rule="evenodd" clip-rule="evenodd" d="M65.6464 61.6521C66.1647 61.9642 66.6861 62.2763 67.2043 62.5897C68.3914 62.6203 69.5768 62.656 70.7638 62.6891C69.4084 63.9797 67.5962 63.7759 65.9201 63.4064C64.5809 63.1147 64.9064 62.3248 65.6464 61.6521Z" fill="#473D4C"/>
<path fill-rule="evenodd" clip-rule="evenodd" d="M115.591 116.537C115.576 115.152 115 113.677 116.629 112.556C116.745 113.958 116.752 115.342 115.591 116.537Z" fill="#3B383D"/>
<path fill-rule="evenodd" clip-rule="evenodd" d="M50.8611 50.8828C50.8482 51.9695 51.0765 53.1187 49.6207 53.8296C49.1348 52.8512 49.2158 51.8689 49.598 50.8854C50.0223 50.8854 50.4417 50.8841 50.8611 50.8828Z" fill="#514457"/>
<path fill-rule="evenodd" clip-rule="evenodd" d="M19.8525 73.3254C19.4072 73.6643 18.9603 74.0032 18.5165 74.3421C18.5927 73.226 18.6704 72.1087 18.7465 70.9915C19.655 71.6106 19.8882 72.4272 19.8525 73.3254Z" fill="#614E6A"/>
<path fill-rule="evenodd" clip-rule="evenodd" d="M53.321 55.8323C52.087 55.8196 50.8514 55.8094 49.6142 55.7966C49.6272 55.4679 49.6401 55.1392 49.6498 54.8105C51.0101 54.8475 52.4789 54.6424 53.321 55.8323Z" fill="#514457"/>
<path fill-rule="evenodd" clip-rule="evenodd" d="M81.9993 160.46C87.0357 162.582 85.0179 158.743 86.4009 157.041C87.1005 158.797 90.6017 159.311 88.0349 161.836C87.5151 162.35 89.6883 162.883 90.4786 163.533C90.383 165.616 88.9855 165.685 86.5499 166.052C83.2041 166.555 84.6195 164.159 82.8851 163.671C78.5937 166.068 74.8868 170.51 67.6529 167.099C69.8877 171.009 75.6318 171.65 76.1856 175.532C78.3006 175.911 78.9305 173.896 80.7362 174.185L80.7167 174.174C80.5467 176.723 78.5095 179.029 75.9994 179.391C73.1476 179.801 73.6512 181.711 72.2294 182.514C70.6553 182.177 70.9533 181.331 71.1395 180.551C72.2342 175.957 71.7889 175.654 65.0894 177.057C66.7865 178.454 69.9039 178.993 68.4869 181.759C67.5816 183.531 66.5873 184.017 64.5517 183.967C64.372 182.579 63.7776 181.015 61.7436 181.439C58.6846 182.076 57.9882 184.083 59.376 186.297C57.1315 186.719 56.9923 185.209 55.8457 184.936C55.6579 184.824 55.4716 184.712 55.2789 184.603C54.8384 184.16 54.4903 183.673 54.1081 183.199C53.402 182.416 52.5615 181.684 52.453 180.661C52.4223 179.833 52.8223 179.112 53.3211 178.421C54.1243 177.231 53.2951 176.798 51.9365 176.604C51.3972 176.49 50.9421 176.28 50.534 175.99C49.2563 174.288 48.9244 172.437 51.0247 171.189C53.0539 169.982 54.853 171.514 56.5745 172.283C58.5226 173.156 60.6651 173.873 61.6125 175.728C66.1015 170.657 65.1897 168.43 58.0416 165.507C54.5032 164.059 56.6376 162.429 58.3153 160.964C59.5121 160.008 60.3931 158.828 61.6837 157.938C66.3088 156.991 70.4917 153.21 75.8002 156.547C77.0277 156.554 78.2552 156.562 79.4811 156.571C80.9694 157.608 79.9896 159.632 81.9993 160.46Z" fill="#2E2B31"/>
<path fill-rule="evenodd" clip-rule="evenodd" d="M64.563 183.956C65.7825 186.347 69.2496 186.045 71.3953 187.416C72.665 188.229 73.8342 186.946 74.5289 185.939C75.2382 185.37 76.0868 185.277 77.0261 185.478C77.8666 185.788 78.4884 186.274 78.903 186.924C79.4682 188.292 79.1588 189.432 77.4811 190.191C78.1515 192.031 83.6398 190.077 81.9572 193.74C79.9248 195.211 77.5977 193.569 75.5881 194.029C73.3306 195.913 75.52 197.307 76.1904 199C74.733 198.088 69.8099 200.552 72.2601 196.083C72.8496 195.01 70.2261 194.772 69.329 193.928C68.4561 193.11 67.9396 192.205 69.0553 191.372C69.9233 190.726 70.7023 192.04 71.8035 191.839C71.9638 189.729 70.427 188.845 67.9152 188.045C67.3841 189.929 65.0408 190.517 63.7533 191.82C62.3218 193.274 64.7314 194.61 65.4683 196.145C62.0756 196.377 60.1874 194.986 60.2343 193.248C60.2764 191.531 59.4198 188.829 63.0877 188.26C64.7007 188.011 64.5307 187.277 64.2295 186.525C63.8505 185.589 63.146 184.714 64.563 183.956Z" fill="#2E2B31"/>
<path fill-rule="evenodd" clip-rule="evenodd" d="M76.9726 185.935C76.1548 185.935 75.3402 185.936 74.5289 185.939C74.2859 183.285 74.5289 181.4 79.1896 182.599C81.7515 183.257 84.6308 182.718 85.8761 179.769C89.0858 182.953 85.4843 184.526 84.3701 186.582C85.8632 187.813 89.6024 185.882 89.4308 188.855C88.2616 189.3 87.1376 189.956 87.115 190.976C87.0518 193.933 84.5288 193.812 81.9555 193.74C81.8972 192.783 81.4373 192.454 80.0543 192.436C77.4536 192.403 75.269 191.607 74.4301 189.046C75.7418 188.412 79.3871 189.877 78.2211 186.906C78.6049 186.789 79.1038 186.466 78.9742 186.311C78.5094 185.745 77.6705 185.99 76.9726 185.935Z" fill="#3B383D"/>
<path fill-rule="evenodd" clip-rule="evenodd" d="M47.1576 197.635C46.1892 195.926 45.1188 194.323 42.1601 194.727C43.3212 194.117 44.4856 193.506 45.888 192.771C44.9245 190.422 42.9325 188.663 40.9261 186.907C42.9002 184.146 45.8799 186.133 48.3981 185.922C49.4248 185.631 50.3398 186.232 50.0985 186.738C48.7997 189.478 51.0523 191.495 52.1179 193.755L52.1276 193.746C52.0159 194.075 50.4191 194.428 52.1535 194.729C52.5535 194.729 52.9535 194.728 53.3535 194.727C55.5543 196.276 58.3883 197.601 56.4952 200.838C54.8887 196.73 50.7252 197.79 47.1576 197.635Z" fill="#433A48"/>
<path fill-rule="evenodd" clip-rule="evenodd" d="M78.835 209.23C76.9192 206.864 78.0107 205.175 76.5095 204.105C79.0828 201.963 77.3289 198.769 79.7484 195.863C80.6601 198.013 82.5774 199.037 82.4042 201.238C82.1532 204.395 84.7767 204.089 87.9232 202.938C86.6131 207.613 79.4779 204.382 78.835 209.23Z" fill="#343136"/>
<path fill-rule="evenodd" clip-rule="evenodd" d="M52.1162 193.752C51.6336 193.194 50.9373 192.936 50.1292 192.723C47.0102 191.901 46.4159 190.409 48.4321 188.348C49.2596 187.502 49.7778 186.719 48.3964 185.92C48.3835 185.595 48.3738 185.269 48.3592 184.944C51.6483 183.867 51.917 184.09 52.6458 188.482C52.6684 189.134 54.045 188.432 53.2434 188.599C53.0717 188.635 52.9794 188.543 52.9713 188.323C52.8499 185.437 52.8498 185.437 55.8636 184.948L55.849 184.935C55.862 185.581 55.7276 186.251 55.9106 186.865C57.1996 191.237 57.2206 191.234 52.1162 193.752Z" fill="#2E2B31"/>
<path fill-rule="evenodd" clip-rule="evenodd" d="M67.0456 201.58C69.2934 202.01 71.2335 200.304 73.5687 200.95C74.9079 202.935 71.0051 202.19 71.3873 203.613C71.6189 204.734 73.6367 204.309 73.9784 205.766C72.5824 206.737 70.6375 207.234 68.7023 207.322C65.0586 207.488 66.0173 205.17 65.7647 203.552C65.8084 202.74 66.1971 202.068 67.0456 201.58Z" fill="#312E33"/>
<path fill-rule="evenodd" clip-rule="evenodd" d="M67.0456 201.58C67.018 202.398 66.7735 203.128 65.7663 203.552C64.4043 202.855 64.0432 201.637 63.3015 200.619C62.5647 199.952 62.6003 199.285 63.2999 198.619C65.1363 197.25 66.1322 197.939 66.278 199.547C66.3476 200.325 65.9428 201.084 67.0456 201.58Z" fill="#2E2B31"/>
<path fill-rule="evenodd" clip-rule="evenodd" d="M63.1007 207.334C61.4764 208.988 60.0513 209.384 58.4173 207.947C57.8538 207.45 57.4732 206.798 58.1841 206.313C60.1015 205 61.3857 206.24 63.1007 207.334Z" fill="#2E2B31"/>
<path fill-rule="evenodd" clip-rule="evenodd" d="M86.9515 197.664C86.6567 196.937 85.8826 196.304 86.3377 195.211C88.3134 194.918 89.9117 195.569 91.5344 196.425C90.3765 198.359 88.7814 198.344 86.9385 197.66L86.9515 197.664Z" fill="#343136"/>
<path fill-rule="evenodd" clip-rule="evenodd" d="M52.1518 194.726C50.6506 196.992 49.1915 196.191 47.5494 194.861C48.798 193.211 50.6312 193.96 52.1275 193.742C52.134 194.071 52.1437 194.4 52.1518 194.726Z" fill="#2E2B31"/>
<path fill-rule="evenodd" clip-rule="evenodd" d="M86.9385 197.66C86.7766 198.362 86.8203 199.202 85.4486 199.132C85.3061 199.123 85.0729 198.939 85.0632 198.828C84.9855 197.749 86.0608 197.795 86.9515 197.663L86.9385 197.66Z" fill="#343136"/>
<path fill-rule="evenodd" clip-rule="evenodd" d="M63.2983 198.619C63.2983 199.285 63.2999 199.953 63.2999 200.619C62.4773 200.615 61.653 200.609 60.8303 200.605C60.8303 200.273 60.8303 199.942 60.8303 199.61C61.653 199.279 62.4756 198.949 63.2983 198.619Z" fill="#312E33"/>
<path fill-rule="evenodd" clip-rule="evenodd" d="M40.96 70.44C43.0863 70.375 44.9259 69.1558 47.1526 69.4857L47.1397 69.4896C45.1332 67.9722 43.5721 66.3746 45.4668 64.084C48.2085 64.498 45.3778 66.0357 46.5599 66.781C47.4101 66.6294 48.3235 66.4677 49.2595 66.3008C49.917 67.7366 50.5405 69.1035 51.3064 70.7788C52.5388 69.6271 52.6409 67.9264 54.568 67.5136C56.7623 68.5404 60.6942 68.25 59.7064 71.6987C58.8141 73.1421 56.9631 73.5561 55.0651 74.2951C57.4748 76.9233 58.9064 79.4471 53.3275 80.758C50.934 81.3211 51.2547 82.8716 51.687 84.3736C52.2133 86.2006 52.2311 87.9867 49.9057 89.1065C47.4863 90.271 46.3267 88.0682 44.4531 87.7179C43.0895 87.2962 41.8896 86.7624 42.0337 85.3763C42.411 84.9851 42.7851 84.5966 43.1624 84.2055C44.9114 83.3391 43.8734 82.2588 43.5138 81.2358C43.0442 80.4472 43.1754 79.3108 41.5657 79.1974C41.3292 79.2152 41.096 79.2267 40.8628 79.2407C38.3997 79.2152 37.0604 77.6915 35.3018 76.7297C35.9447 74.9295 36.5698 73.1867 37.1932 71.4439C38.1374 71.1126 38.7657 71.5075 39.3406 72.0184C40.1082 72.6694 40.2151 74.0543 41.7373 73.8211C42.56 73.6937 41.5932 73.1306 41.4329 72.7548C40.8612 72.0286 40.3058 71.3063 40.96 70.44Z" fill="#5D4766"/>
<path fill-rule="evenodd" clip-rule="evenodd" d="M39.9171 107.785C39.5155 106.712 40.0564 105.504 39.1706 104.504C35.582 104.054 33.6694 108.095 29.731 106.663C29.2759 104.62 31.2759 104.847 32.4484 104.439C27.148 101.574 27.1399 101.015 32.5893 95.1388C32.8549 94.8777 33.501 94.8955 33.6322 94.6025C33.7633 94.3069 33.3925 94.2241 32.9909 94.5031C32.0419 94.8382 31.1415 94.735 30.2508 94.4012C30.0743 94.2572 29.8994 94.112 29.7245 93.9668C30.0484 92.6316 28.91 90.9105 31.6759 90.2289C32.5844 90.0059 32.118 88.8555 32.1795 88.1153C32.4986 87.8261 32.8646 87.7815 33.2176 87.9382C33.1949 87.7216 32.9731 87.6427 32.897 87.4681C32.7642 85.7674 34.2443 85.2667 35.8832 84.8743C39.2176 85.3023 41.2936 87.3089 43.8102 88.7663C45.5397 90.4544 44.8855 93.4839 48.6199 94.0572C49.7632 96.7173 48.0304 98.4984 45.666 100.092C44.3203 100.501 42.939 100.85 41.441 101.48C41.9576 102.318 43.6175 102.027 43.9414 102.95C44.3786 105.48 43.577 107.37 39.9171 107.785Z" fill="#5D4965"/>
<path fill-rule="evenodd" clip-rule="evenodd" d="M59.5412 71.4172C58.5695 70.8222 59.3922 68.5507 56.4902 69.6043C55.6999 69.8922 55.2141 68.2539 54.5696 67.5124C54.4254 64.9644 53.857 62.4393 55.4959 59.9563C56.3363 58.6836 55.1007 57.8823 53.3906 57.7039C53.3728 57.0695 53.355 56.435 53.3372 55.8006C54.4044 55.7827 56.4287 57.937 56.2181 54.9737C56.1404 53.8947 57.9039 53.7188 58.3638 52.8372C58.7687 52.5175 59.1735 52.199 59.5768 51.8779C61.5427 52.5837 61.9427 53.4335 60.2893 54.7775C57.9331 56.6975 56.3978 58.8964 57.4197 61.6749C59.2917 62.3489 60.2877 60.8787 62.4529 60.3513C60.2391 64.2535 65.6917 65.5224 65.7954 68.5048C69.2901 70.0489 72.1516 71.9217 71.7062 75.5233C71.4957 75.9475 71.1491 76.2902 70.6892 76.5654C67.8536 76.6482 66.3022 74.8277 64.1792 73.8518C62.9646 72.9931 61.4132 72.574 60.0448 71.9153C59.8715 71.7535 59.708 71.5854 59.5412 71.4172Z" fill="#473D4C"/>
<path fill-rule="evenodd" clip-rule="evenodd" d="M22.3124 97.8436C19.9708 97.0729 17.1449 96.6881 17.2841 93.9401C16.5392 92.9871 15.8056 92.0317 14.949 91.1335C13.885 90.02 12.0356 88.8658 13.519 87.3943C14.7822 86.142 16.7821 86.4248 18.5424 87.0911C19.5157 87.1561 20.489 87.2223 22.9181 87.3841C18.3853 89.183 19.6744 91.3513 20.8922 93.0929C22.0145 94.6956 24.0954 93.6305 25.765 93.2215C26.9164 94.0229 28.3334 93.9643 29.7294 93.9681L29.7148 93.9528C31.195 99.8947 25.378 97.2512 22.3124 97.8436Z" fill="#4C4251"/>
<path fill-rule="evenodd" clip-rule="evenodd" d="M27.2857 46.0252C26.5019 45.0047 24.4517 44.5499 25.0379 42.914C28.2703 43.3523 28.2703 43.3523 31.318 41.5432C30.5391 40.6642 29.0978 40.0476 29.4929 38.571C29.9739 38.492 30.5504 38.2665 31.0492 38.343C32.037 38.4959 33.0071 39.073 33.9415 39.0195C37.4103 38.8169 38.5244 40.3457 38.8775 42.686C38.9973 43.4619 39.4669 44.2046 39.7779 44.9639C38.8969 44.9741 38.0159 44.9843 37.1317 44.9932C36.8273 44.3677 36.0856 43.4644 35.5609 43.709C32.9714 44.9155 29.5399 44.1881 27.2857 46.0252Z" fill="#5F4B68"/>
<path fill-rule="evenodd" clip-rule="evenodd" d="M40.9601 70.4399C41.352 71.0858 41.7471 71.7305 42.1406 72.3764C40.9261 73.2975 39.6889 73.1051 38.4403 72.4235C38.0257 72.0974 37.6112 71.7712 37.1966 71.4451C36.1569 70.0462 32.6557 69.2946 35.0217 66.9402C37.4168 66.7542 35.5108 68.7391 37.1836 68.9213C39.0767 69.041 41.569 66.1185 40.4905 64.3056C39.4767 62.6112 38.497 61.1843 40.3544 59.5498C45.7957 63.0062 42.165 66.7644 40.9601 70.4399Z" fill="#524558"/>
<path fill-rule="evenodd" clip-rule="evenodd" d="M43.407 89.0149C39.8848 88.9244 38.0565 86.8733 36.0177 85.0655C35.6954 84.9165 35.5561 84.7368 35.6031 84.5304C35.6516 84.3113 35.7213 84.2017 35.8103 84.2017C38.7139 81.8729 39.9431 85.0451 42.0354 85.3764C42.8823 85.9841 43.7342 86.5905 44.5811 87.1956C45.122 88.1766 44.4726 88.6773 43.407 89.0149Z" fill="#DDD0E2"/>
<path fill-rule="evenodd" clip-rule="evenodd" d="M28.991 58.9841C34.1245 58.2745 33.9399 61.5818 35.6516 63.1743C35.7763 63.289 35.2419 64.0597 34.8096 64.2763C34.0565 64.6572 33.1059 64.4751 32.6509 63.9221C31.4557 62.4622 30.4128 60.9244 28.991 58.9841Z" fill="#4D4351"/>
<path fill-rule="evenodd" clip-rule="evenodd" d="M44.5778 81.3327C44.8094 81.5964 45.041 81.8576 45.2693 82.1251C45.9057 82.8717 47.3988 83.5685 46.4499 84.5393C45.4458 85.5674 44.2588 84.454 43.1641 84.2055C42.3689 82.5583 37.603 82.0499 40.8645 79.2408L40.9131 79.2472C43.4118 78.549 43.6013 80.3708 44.5778 81.3327Z" fill="#D9CBDF"/>
<path fill-rule="evenodd" clip-rule="evenodd" d="M39.7034 51.8308C41.8459 51.9697 42.3268 53.0538 42.0791 54.4934C41.9349 55.3152 41.454 56.1216 40.3074 56.142C39.0864 56.1649 37.765 55.8413 38.105 54.5291C38.3852 53.4475 37.5236 52.734 37.1301 51.8665C37.9738 51.2422 38.8338 51.3454 39.7034 51.8308Z" fill="#4B4350"/>
<path fill-rule="evenodd" clip-rule="evenodd" d="M35.8103 84.2018C35.9965 84.4731 36.0678 84.7611 36.0176 85.0655C35.2274 86.0975 33.2873 86.5255 33.4751 88.0683L33.4492 88.0874C33.0266 88.0976 32.6039 88.1078 32.1796 88.1167C30.6719 87.4453 29.4217 86.6083 30.2104 85.0833C30.7869 83.9699 32.2071 84.2221 33.378 84.1801C34.1877 84.1521 35.0006 84.1928 35.8103 84.2018Z" fill="#4D4451"/>
<path fill-rule="evenodd" clip-rule="evenodd" d="M39.7035 51.8308C38.8452 51.8423 37.9885 51.855 37.1318 51.8664C36.7448 51.5632 36.3594 51.2626 35.9756 50.9619C35.8735 50.409 34.9764 49.7771 35.7375 49.3389C36.6638 48.8063 37.4605 49.7198 38.3642 49.8485C38.8079 50.5084 39.2565 51.1709 39.7035 51.8308Z" fill="#5F4B68"/>
<path fill-rule="evenodd" clip-rule="evenodd" d="M33.7245 37.7978C33.9674 36.1684 34.5828 35.5097 36.1649 35.604C36.5082 36.878 35.3148 37.1876 33.7245 37.7978Z" fill="#604B69"/>
<path fill-rule="evenodd" clip-rule="evenodd" d="M33.9447 32.5833C34.1002 32.3106 34.1779 31.8902 34.4289 31.8125C34.675 31.7348 35.0977 32.0087 35.4426 32.1285C35.2888 32.3998 35.2127 32.8228 34.9617 32.9005C34.7139 32.9757 34.2913 32.703 33.9447 32.5833Z" fill="#5F4B68"/>
<path fill-rule="evenodd" clip-rule="evenodd" d="M85.6883 62.6471C86.9288 64.0128 86.3555 65.2677 85.7077 66.7302C84.6989 69.0158 85.7839 69.9968 88.8057 69.3916C90.5158 69.0464 92.2259 69.1546 92.4542 70.1101C92.885 71.909 95.7433 73.9372 94.0202 75.2431C91.1069 77.4509 92.8591 78.5262 94.5935 79.9734C95.34 80.5977 95.5764 81.3773 95.6509 82.2003C96.5028 82.915 97.3578 83.631 98.208 84.347C98.8946 85.2783 96.9611 86.1841 98.1611 87.1243L98.2841 87.3447C97.3157 89.9207 99.612 91.1412 101.711 92.4433C104.132 93.9466 106.192 95.5136 103.369 97.9902C102.221 98.3928 101.23 97.9635 100.227 97.6399C96.8364 98.1202 97.5586 99.9063 98.3732 101.529C99.0906 102.955 101.002 104.15 99.3513 105.889C95.808 106.044 94.2615 103.891 92.8235 102.034C89.0308 97.1367 83.6187 92.9885 81.6074 87.2581C83.3304 85.4503 88.4041 87.6632 88.3409 83.7801C82.9078 86.402 84.7426 81.9392 83.2333 80.2155C81.3418 83.6425 78.273 82.1698 75.4163 81.6895C72.1548 80.9556 70.3735 79.3237 70.4269 76.5871C70.6067 76.4814 70.7816 76.368 70.9451 76.2482C77.0131 73.2352 70.2796 72.6518 69.3176 71.0733C69.4828 69.6452 71.1735 69.3636 72.0221 68.5113V68.5164C78.0172 67.4449 78.8463 70.6223 79.4892 74.1946C80.1451 71.1625 79.9653 68.194 80.5629 65.3034C81.0212 63.1095 81.7952 60.9106 85.6883 62.6471Z" fill="#413E43"/>
<path fill-rule="evenodd" clip-rule="evenodd" d="M116.592 104.816C114.705 104.843 114.077 105.674 114.592 106.984C115.401 109.057 113.818 109.441 111.813 109.605C111.298 108.204 110.543 107.195 108.03 108.65C109.231 109.368 110.88 108.899 111.821 109.6C111.737 112.461 107.78 113.317 106.736 115.681C102.509 113.528 101.296 110.062 100.274 106.511C101.688 104.564 104.373 104.7 106.608 104.101C109.397 102.971 109.431 101.027 107.526 99.7724C104.971 98.0869 105.193 95.7963 104.208 93.7783C103.329 91.9692 103.432 90.4289 106.669 90.7003C108.188 90.8277 108.42 90.2569 108.503 89.3639C108.705 87.0821 110.916 86.1419 113.048 85.1482C114.459 85.8221 114.817 87.0515 115.55 88.0809C115.66 92.3029 112.603 96.697 116.666 100.701C115.709 102.062 115.783 103.435 116.592 104.816Z" fill="#3B383D"/>
<path fill-rule="evenodd" clip-rule="evenodd" d="M105.646 81.134C106.65 79.4994 108.661 78.5923 110.239 77.6152C109 74.006 106.461 73.4594 102.623 75.4367C102.083 73.1524 103.646 72.3472 104.963 71.1089C106.618 69.5521 108.133 72.774 109.55 70.677C111.204 68.2271 112.786 71.7982 114.844 70.886C115.937 70.0706 113.958 68.3698 115.918 67.5774C116.158 67.701 116.661 67.8258 116.674 67.98C117.557 77.3706 115.798 79.7262 105.243 83.1099C104.765 82.3749 104.887 81.7149 105.646 81.134Z" fill="#302C32"/>
<path fill-rule="evenodd" clip-rule="evenodd" d="M113.048 85.1481C110.744 87.5139 108.823 89.9702 110.443 92.9539C108.725 93.8113 108.273 92.9246 107.641 92.3564C107.094 91.8685 106.556 91.3691 105.607 91.4289C104.987 91.6442 104.571 92.0723 104.857 92.5322C106.266 94.7897 106.274 97.3721 109.29 99.315C111.986 101.053 110.576 103.775 108.088 105.689C107.17 105.011 106.961 104.143 106.998 103.207C107.304 101.718 106.342 101.013 104.639 100.538C103.117 100.111 101.687 99.4309 103.115 97.8601C103.656 96.1045 104.174 94.4636 101.17 93.5756C99.9214 93.2062 99.0858 92.0455 97.8793 91.4875C94.2696 89.8211 95.9522 88.5867 98.2858 87.342C99.1813 87.9369 100.075 88.5306 100.971 89.123C104.678 89.2848 106.279 86.5661 109.063 85.4615C110.182 83.7174 111.648 84.6831 113.048 85.1481Z" fill="#322F34"/>
<path fill-rule="evenodd" clip-rule="evenodd" d="M109.332 58.7154C110.188 57.5013 110.765 56.2311 110.576 54.8093C115.49 59.7626 116.143 62.6113 113.39 66.0269C112.302 67.376 110.828 68.0856 108.974 68.3863C107.57 68.6156 107.272 68.1124 107.727 66.4906C107.959 65.6689 106.794 64.1948 105.191 64.2866C101.717 64.4853 101.078 62.9438 100.694 60.9551C101.743 59.6276 104.626 62.3807 104.775 58.918C106.951 61.215 107.248 65.1644 112.574 62.9769C111.499 61.5615 110.415 60.1385 109.332 58.7154Z" fill="#322F34"/>
<path fill-rule="evenodd" clip-rule="evenodd" d="M116.664 100.701C114.392 100.041 112.966 99.0578 112.993 96.8589C113.022 94.3517 114.36 91.9158 113.375 89.3334C113.053 88.4824 114.524 88.2059 115.549 88.0811C117.29 91.0151 117.296 93.9504 115.542 96.8805C114.616 97.9966 116.06 98.3023 116.656 98.8973C116.66 99.4986 116.663 100.1 116.664 100.701Z" fill="#322F34"/>
<path fill-rule="evenodd" clip-rule="evenodd" d="M109.061 85.4629C108.062 87.5038 106.066 88.8326 103.759 89.8683C102.655 90.3639 101.374 90.5792 100.969 89.1243C103.672 87.9127 105.426 85.3992 109.061 85.4629Z" fill="#D4D3D5"/>
<path fill-rule="evenodd" clip-rule="evenodd" d="M105.646 81.1339C105.512 81.7938 105.379 82.4525 105.243 83.1111C103.782 83.8411 102.32 84.5724 100.859 85.3037C99.4517 85.5916 99.0631 85.0807 99.2995 84.0756C101.027 82.5773 102.244 80.3988 105.646 81.1339Z" fill="#D4D3D5"/>
<path fill-rule="evenodd" clip-rule="evenodd" d="M116.98 51.6716C116.325 53.1418 117.369 54.8681 115.929 56.3357C114.804 53.6858 114.864 53.4489 116.993 51.7213L116.98 51.6716Z" fill="#2F2C31"/>
<path fill-rule="evenodd" clip-rule="evenodd" d="M99.2996 84.0754C99.5522 84.6921 100.109 85.0742 100.859 85.3036C99.9602 85.9113 99.0599 86.5177 98.1611 87.1254C97.2186 87.0298 95.2607 87.6019 96.8073 85.8616C97.2623 85.3507 97.74 84.8526 98.208 84.3481C98.5724 84.2538 98.9352 84.1646 99.2996 84.0754Z" fill="#AEACAF"/>
<path fill-rule="evenodd" clip-rule="evenodd" d="M116.658 98.8971C115.173 98.6066 113.635 98.3327 115.544 96.8804C115.915 97.553 116.286 98.2244 116.658 98.8971Z" fill="#3B383D"/>
<path fill-rule="evenodd" clip-rule="evenodd" d="M85.6883 62.6471C83.1377 62.5082 81.8648 63.3261 81.9523 65.4537C82.0818 68.5023 81.4519 71.5446 81.915 74.6073C82.0834 75.7081 82.0236 77.061 79.9653 77.0993C78.2762 77.1311 77.2608 76.21 77.1604 74.9666C77.0438 73.541 77.2819 72.095 77.3693 70.5866C76.0916 69.1801 73.6479 69.4821 72.0252 68.5138C72.0172 67.8526 72.0107 67.1927 72.0026 66.5302C73.0552 64.3759 76.3669 64.2854 77.9491 62.1642C79.4745 60.1207 77.7871 59.7538 77.0033 58.7168C81.975 56.1344 82.077 55.8822 80.1385 51.6703C79.9458 51.2474 79.8891 50.7276 80.0009 50.2893C80.1142 49.8307 80.5077 49.4154 80.9644 48.6803C82.8154 48.5503 84.2438 50.3059 86.9773 49.3644C82.4138 52.6067 81.9361 53.7049 85.3029 56.774C87.7044 58.9652 85.9037 60.6966 85.6883 62.6471Z" fill="#363338"/>
<path fill-rule="evenodd" clip-rule="evenodd" d="M75.7499 44.0518C73.303 41.9076 75.0017 39.3979 74.7524 37.0588C75.0762 37.1493 75.4082 37.2015 75.7499 37.213C76.3038 37.5761 76.9904 37.8334 77.2754 38.3723C77.2576 38.3456 77.8196 38.3303 77.8196 38.3303C77.8196 38.3303 77.6657 37.9035 77.6624 37.9009C77.6041 37.5378 77.7969 37.3034 78.239 37.1964C78.3961 36.0473 78.6439 34.7465 80.5305 34.9071C82.3199 35.0599 83.2057 36.0817 83.2268 37.6194C83.2511 39.4705 81.9215 40.9165 81.5312 42.4835C79.507 43.3027 75.5086 38.9137 75.7499 44.0518Z" fill="#403B43"/>
<path fill-rule="evenodd" clip-rule="evenodd" d="M74.7103 22.5659C76.1889 23.887 76.3557 26.3943 79.6366 26.0261C81.771 25.5955 77.0909 23.5227 80.7265 23.501C82.1273 24.0336 83.2641 24.7801 82.124 26.0376C80.903 27.3842 81.7078 29.0442 80.72 30.3793C80.3038 30.6953 79.8892 31.01 79.4747 31.3246C78.6439 31.8661 77.818 31.9514 76.9889 31.3208C76.9889 30.6736 76.9889 30.0264 76.9889 29.3805C77.1022 28.6594 76.3719 28.5817 75.7824 28.397C74.3508 26.5752 74.3962 24.5865 74.7103 22.5659Z" fill="#403B43"/>
<path fill-rule="evenodd" clip-rule="evenodd" d="M76.9889 31.322C77.8164 31.3233 78.6455 31.3246 79.4747 31.3259C78.571 32.9846 77.5314 34.5147 74.7492 34.3631C74.4496 32.8712 75.3225 31.9144 76.9889 31.322Z" fill="#3B373E"/>
<path fill-rule="evenodd" clip-rule="evenodd" d="M78.239 37.1963C78.239 37.5199 78.239 37.8448 78.239 38.1683C78.9775 38.8232 78.9726 39.4755 78.2406 40.1328C76.8382 39.4614 76.4917 38.232 75.7484 37.2129C76.5791 37.2078 77.4099 37.2014 78.239 37.1963Z" fill="#3B373E"/>
<path fill-rule="evenodd" clip-rule="evenodd" d="M100.558 106.691C103.834 109.169 104.427 112.79 106.734 115.681C110.637 120.522 110.072 121.416 101.86 123.434C100.645 124.029 99.1408 123.572 97.91 124.099L97.944 124.067C91.7546 127.115 84.5611 126.612 77.7904 127.617C69.5492 127.831 61.3096 127.889 53.0732 127.576C47.2806 126.428 40.8013 127.01 35.969 123.414C33.8961 123.042 31.9512 122.172 29.7196 122.437C29.1577 119.738 32.9098 118.798 33.5625 116.595C34.0078 114.191 35.7843 112.249 37.1398 110.157C37.7616 109.153 38.6539 108.341 39.8944 107.782L39.9154 107.786C41.8134 106.434 42.866 104.707 43.5089 102.796C43.3907 101.713 43.3146 100.645 44.9356 100.144C46.4336 98.2295 48.1874 96.409 48.5777 94.0827C48.5728 93.8635 48.5696 93.6444 48.5615 93.424C48.8725 92.336 49.5963 91.3907 50.2311 90.4136C52.8368 86.7547 56.3396 83.5799 59.227 80.0751C59.8019 79.3782 60.4286 78.7068 61.0164 78.0176C61.7128 77.1768 62.095 76.2188 62.5873 75.3015C63.0682 74.5715 63.6286 73.8975 64.6666 73.5854C67.6253 73.351 68.2277 75.9181 70.4269 76.5857C72.1564 78.2062 73.886 79.8267 75.6139 81.4472C78.9839 82.4613 81.1426 84.3124 81.9361 87.1063C87.8356 93.2724 91.4793 100.741 99.3351 105.78C99.9197 105.94 100.325 106.242 100.558 106.691Z" fill="#F6F5F6"/>
<path fill-rule="evenodd" clip-rule="evenodd" d="M75.8001 156.547C72.9516 155.845 69.8002 156.018 67.6982 157.278C65.7857 158.422 63.7079 157.571 62.0837 158.531C60.8464 157.464 60.9679 156.436 62.2181 155.436C65.7403 154.674 69.3436 154.039 71.9524 151.796C72.4788 150.144 70.4334 149.639 69.6351 148.593C67.7517 146.136 68.5614 144.061 71.5055 142.801C74.7168 141.427 76.5176 142.445 76.7054 145.4C76.7961 146.863 78.2325 147.608 80.3442 147.68C76.5353 147.064 77.1815 144.701 76.6455 142.686C76.0382 140.403 73.7581 138.274 76.0204 135.838C77.1038 135.447 78.2471 135.633 79.3677 135.611C84.0948 135.476 84.2325 138.009 84.1385 140.671C84.8219 140.836 84.5191 140.185 84.911 140.102C87.2332 138.762 89.2138 139.029 90.6065 140.992C92.6178 143.831 91.102 145.97 88.1919 147.765C87.3547 149.073 86.5207 150.383 85.6834 151.691C84.9126 151.764 83.9183 151.781 84.1806 152.655C84.4657 153.591 86.3749 154.558 84.2632 155.369C82.9288 155.88 81.5086 155.529 80.6454 154.386C80.2373 153.844 79.737 153.363 78.7556 153.235C76.8965 153.8 76.7038 155.377 75.8001 156.547Z" fill="#353237"/>
<path fill-rule="evenodd" clip-rule="evenodd" d="M84.4559 141.892C83.0616 141.049 82.4948 140.042 82.7701 138.576C83.2139 136.183 81.3564 136.383 79.3564 136.956C78.5483 136.187 78.3572 135.322 78.6795 134.373C82.1418 131.536 77.0665 128.976 78.2439 126.213C84.8106 125.497 91.3773 124.782 97.9473 124.066C98.0072 125.445 98.0704 126.821 98.1336 128.198C97.9117 128.332 97.6914 128.468 97.4728 128.604C96.2518 129.135 94.2242 127.775 93.5781 129.645C93.4469 129.817 93.3109 129.981 93.1717 130.144C92.1611 130.041 91.1506 129.937 90.1482 129.834C88.0122 131.979 91.1701 133.266 91.5037 134.969C90.0316 135.97 89.1458 133.515 87.3903 135.058C87.847 136.698 89.3887 137.69 91.7773 137.962C93.672 138.179 95.5068 139.253 94.5158 140.392C92.0494 143.233 93.4761 145.52 95.5748 147.817C92.7166 149.499 90.5239 147.157 88.1903 147.764C88.0769 146.362 89.7563 145.55 90.0737 144.377C90.5028 142.812 89.9927 141.073 88.1709 140.268C86.4235 139.499 85.264 140.712 84.4559 141.892Z" fill="#403C43"/>
<path fill-rule="evenodd" clip-rule="evenodd" d="M98.1319 128.198C99.6315 128.391 101.406 127.698 102.75 129.242C101.894 131.256 98.2955 132.534 100.315 135.833C95.7141 134.775 95.2915 131.82 93.1701 130.144L93.1571 130.156C94.3215 128.716 97.0032 129.66 98.1433 128.189L98.1319 128.198Z" fill="#403C43"/>
<path fill-rule="evenodd" clip-rule="evenodd" d="M97.91 124.098C99.0242 123.135 100.436 123.265 101.86 123.433C100.767 124.48 99.3562 124.35 97.91 124.098Z" fill="#403C43"/>
<path fill-rule="evenodd" clip-rule="evenodd" d="M53.3647 30.3486C53.3712 30.011 53.3777 29.6746 53.3842 29.337C53.8198 28.9153 54.2198 28.9357 54.5858 29.3943C55.4182 30.3702 57.2805 30.7741 57.1704 32.2736C57.9817 33.0698 59.1687 32.7029 60.1841 32.8762C60.393 33.0112 60.6068 33.145 60.8173 33.2788C61.321 34.6101 63.5072 35.2866 63.0894 37.1721C58.6797 35.6993 59.7339 38.3365 59.5461 40.0959C59.185 40.4463 58.785 40.4908 58.3477 40.1825C58.2117 38.5149 57.0619 37.3008 55.7421 36.0522C54.0417 34.447 53.3874 32.4481 53.3647 30.3486Z" fill="#694D75"/>
<path fill-rule="evenodd" clip-rule="evenodd" d="M54.0158 15.1282C54.6409 16.5398 52.9 17.071 53.0668 18.0813C54.2036 19.2279 56.2991 17.9679 57.5688 19.3209C56.5696 20.8777 54.7429 21.8485 53.0538 23.1518C52.2474 20.3719 52.2474 20.372 48.6312 18.717C50.4693 17.4902 50.8789 15.16 54.0158 15.1282Z" fill="#5B4963"/>
<path fill-rule="evenodd" clip-rule="evenodd" d="M60.8433 28.4185C61.3599 28.6758 61.9623 28.8644 62.3737 29.1994C65.6109 31.8213 65.5267 32.0149 60.8158 33.2775L60.8417 33.294C60.4012 33.0864 60.2441 32.8673 60.3737 32.6379C60.5048 32.4023 60.6392 32.2863 60.7801 32.2863C60.8643 30.9996 59.4474 29.695 60.8433 28.4185Z" fill="#6A4D75"/>
<path fill-rule="evenodd" clip-rule="evenodd" d="M60.8027 27.4299C59.512 26.4273 57.5736 27.6388 56.2829 26.6706C56.1404 25.403 57.2271 24.9342 58.3396 24.4806L58.3331 24.4768C59.2886 25.389 60.9388 24.6106 61.9476 25.3966L62.0691 25.4565C62.8075 26.5076 61.6432 26.8477 60.9258 27.3535L60.8027 27.4299Z" fill="#514457"/>
<path fill-rule="evenodd" clip-rule="evenodd" d="M62.0125 19.6267C62.134 21.6829 62.4336 23.8436 58.385 23.4564C58.5356 21.5594 60.6684 20.823 62.0125 19.6267Z" fill="#6D4F79"/>
<path fill-rule="evenodd" clip-rule="evenodd" d="M54.5858 29.3944C54.1842 29.3842 53.7842 29.3677 53.3842 29.3384C53.3194 28.2632 53.5688 27.1076 52.1194 26.4044C53.4134 25.4158 54.2409 25.7355 54.5081 27.0185C54.6717 27.793 54.568 28.602 54.5858 29.3944Z" fill="#514457"/>
<path fill-rule="evenodd" clip-rule="evenodd" d="M56.3121 3.87758C56.5631 3.70432 56.8189 3.38583 57.0651 3.39093C57.7307 3.40367 58.027 3.79223 57.7517 4.25724C57.6432 4.43942 57.0878 4.59868 56.8222 4.5388C56.5906 4.48529 56.4756 4.10945 56.3121 3.87758Z" fill="#664E70"/>
<path fill-rule="evenodd" clip-rule="evenodd" d="M60.7801 32.2865C60.8011 32.6228 60.8206 32.9579 60.8416 33.2942C59.4926 33.2292 57.9898 33.507 57.1672 32.2725C58.3736 32.2776 59.5752 32.2839 60.7801 32.2865Z" fill="#514457"/>
<path fill-rule="evenodd" clip-rule="evenodd" d="M22.3124 97.8437C23.7618 96.3811 26.0694 96.6996 27.9382 96.4333C30.301 96.0932 29.522 94.9351 29.7115 93.9529C30.952 93.9567 32.1892 93.9618 33.4281 93.9669C33.7196 94.1657 33.8264 94.372 33.7471 94.5874C33.6661 94.8052 33.5787 94.9148 33.4863 94.9148C33.4507 95.9187 32.9455 96.7939 32.2799 97.6233C29.2062 101.444 29.2062 101.444 33.8928 103.977C33.0912 105.437 30.6475 105.325 29.7309 106.664C28.9261 106.982 28.1245 107.301 27.3228 107.619C25.9447 106.902 25.3164 105.805 24.8484 104.625C24.8387 104.324 24.8079 104.028 24.7528 103.731C25.6921 101.318 23.0249 99.8324 22.3059 97.8449L22.3124 97.8437Z" fill="#6E507A"/>
<path fill-rule="evenodd" clip-rule="evenodd" d="M22.3043 97.8449C22.8533 98.3086 23.3018 98.91 23.9674 99.2144C27.7455 100.942 27.7634 100.919 24.7512 103.731C24.0873 103.384 23.4524 102.999 22.7593 102.698C19.6339 101.338 19.4881 101.413 18.5311 104.717C16.9813 104.569 15.2161 105.114 13.736 103.603C14.9392 100.283 17.114 97.7761 22.3043 97.8449Z" fill="#4C4251"/>
<path fill-rule="evenodd" clip-rule="evenodd" d="M38.1325 110.555C37.1933 112.841 35.4459 114.748 33.5658 116.594C33.901 114.995 30.1537 114.111 32.5002 111.958C33.3229 111.201 30.369 110.729 30.097 109.267C32.1229 109.057 34.0354 108.862 35.9479 108.664C37.1123 108.982 37.6014 109.785 38.1325 110.555Z" fill="#664F70"/>
<path fill-rule="evenodd" clip-rule="evenodd" d="M24.8485 104.626C26.4031 105.25 27.2193 106.252 27.3213 107.62C26.9213 107.625 26.5149 107.665 26.1197 107.63C24.9942 107.536 23.4509 107.977 22.9942 106.829C22.5618 105.738 24.4436 105.489 24.8485 104.626Z" fill="#4C4251"/>
<path fill-rule="evenodd" clip-rule="evenodd" d="M38.1325 110.555C36.6443 110.469 35.9916 109.785 35.9463 108.665C36.9293 107.448 38.4127 107.619 39.8977 107.782C39.7487 108.879 39.2046 109.822 38.1325 110.555Z" fill="#5D4965"/>
<path fill-rule="evenodd" clip-rule="evenodd" d="M24.7691 113.527C25.1756 111.292 26.795 111.398 28.9779 111.982C28.0144 113.786 26.2687 113.426 24.7464 113.506L24.7691 113.527Z" fill="#654D70"/>
<path fill-rule="evenodd" clip-rule="evenodd" d="M18.0889 117.906C16.1651 119.454 14.8679 118.439 12.7675 117.898C14.7918 117.263 16.1408 117.224 18.0889 117.906Z" fill="#6E507B"/>
<path fill-rule="evenodd" clip-rule="evenodd" d="M85.6932 169.283C82.158 170.924 82.158 170.924 80.7167 174.175L80.7362 174.186C77.635 173.018 76.5872 171.219 77.9897 168.633C80.7281 167.688 83.0617 169.682 85.7078 169.293L85.6932 169.283Z" fill="#2E2B31"/>
<path fill-rule="evenodd" clip-rule="evenodd" d="M85.7061 169.29C86.6 167.867 87.8243 167.081 90.2858 167.807C89.3029 169.965 87.1685 168.979 85.6932 169.281L85.7061 169.29Z" fill="#2E2B31"/>
<path fill-rule="evenodd" clip-rule="evenodd" d="M54.6262 45.0417C54.3671 44.2862 53.2562 43.532 53.9704 42.7893C54.9372 41.779 56.0221 42.216 57.0521 42.9944C57.8926 43.6301 58.9355 44.1002 60.0432 44.7347C58.3428 46.8431 56.3347 44.7385 54.5873 45.0162L54.6262 45.0417Z" fill="#6C4F78"/>
<path fill-rule="evenodd" clip-rule="evenodd" d="M49.7583 41.1981C49.7567 40.491 49.7567 39.7839 49.7535 39.0743C51.5024 38.9253 53.2514 38.7762 54.9987 38.6284C54.8465 40.9458 54.8465 40.9458 49.7583 41.1981Z" fill="#664D70"/>
<path fill-rule="evenodd" clip-rule="evenodd" d="M58.3461 40.1826C58.7461 40.166 59.1477 40.1367 59.5444 40.096C60.2958 39.8883 61.0456 39.6794 62.2796 39.3367C62.5727 40.8846 62.4562 42.4197 60.5873 42.7624C58.1161 43.2134 58.5809 41.347 58.3461 40.1826Z" fill="#312B33"/>
<path fill-rule="evenodd" clip-rule="evenodd" d="M60.9274 27.3535C61.3063 26.7216 61.6885 26.0884 62.0707 25.4565C62.9856 25.1635 63.2949 24.0194 64.4156 24.1901C65.2075 24.3112 65.567 25.0552 65.6156 25.7037C65.6852 26.6069 65.1297 27.235 63.9346 27.3229C62.9387 27.3955 61.9298 27.3471 60.9274 27.3535Z" fill="#71507E"/>
<path fill-rule="evenodd" clip-rule="evenodd" d="M61.9494 25.3966C60.5988 25.4425 59.2044 25.6005 58.3348 24.4768C59.6368 24.5431 61.0797 24.2742 61.9494 25.3966Z" fill="#454147"/>
<path fill-rule="evenodd" clip-rule="evenodd" d="M59.5931 161.474C59.0425 162.476 56.9113 162.625 57.3307 164.299C58.8902 165.573 60.3218 162.622 62.0092 164.036C63.3307 165.145 64.2456 166.412 64.4594 167.87C64.6748 169.349 65.3226 170.364 67.9428 170.423C65.0732 173.603 63.8181 177.003 59.9752 179.626C61.9865 176.123 60.2991 174.5 56.2992 173.734C54.7656 173.441 54.0854 171.813 51.802 171.594C50.5292 173.103 50.3348 174.594 52.1081 176.133C55.1591 180.73 51.0247 180.823 47.1171 181.058C46.1907 180.542 45.807 179.835 46.0855 178.977C47.0264 176.068 45.7843 173.744 42.8483 171.97C44.5098 170.501 46.0823 172.433 47.9511 171.494C47.7211 169.45 46.4029 167.871 44.0693 166.728C41.9625 166.756 41.258 168.517 39.4297 168.869C37.5674 169.227 37.4022 168.323 37.1917 167.332L37.2305 167.346C37.7957 166.679 38.4856 166.098 39.1722 165.504C43.3552 161.895 43.7519 161.909 47.5446 166.003C47.8037 166.623 48.2879 165.397 47.6612 165.824C47.3859 166.011 47.3616 165.861 47.1511 165.554C45.5722 163.235 47.5025 162.204 49.7421 161.652C51.7518 161.155 53.504 160.57 54.7056 159.171C57.334 158.635 58.8449 159.556 59.5931 161.474Z" fill="#37323A"/>
<path fill-rule="evenodd" clip-rule="evenodd" d="M47.1187 181.057C47.8101 180.313 48.7559 179.896 49.9866 180.179C51.0846 180.432 51.5964 179.961 51.7373 179.42C52.0158 178.349 52.0028 177.23 52.1097 176.132L52.1194 176.127C55.0878 175.989 54.7251 177.583 54.5842 179.062C53.598 179.489 53.3777 180.218 53.334 181.019C52.3915 183.055 55.2757 182.128 55.8246 183.01C55.8376 183.656 55.8506 184.303 55.8619 184.949C51.7227 185.336 54.4222 188.431 52.7882 189.835C51.1364 188.268 53.4085 184.555 48.3607 184.945C46.6085 183.913 47.3081 182.397 47.1187 181.057Z" fill="#433A48"/>
<path fill-rule="evenodd" clip-rule="evenodd" d="M18.5409 87.0898C17.2421 87.8873 15.6389 87.7701 14.0179 87.9268C14.2008 89.6378 15.8721 90.2684 17.2648 91.0519C18.9959 92.0265 17.6988 92.9782 17.2842 93.9413C14.3174 93.9159 11.3216 94.4216 8.39689 93.6713C7.10298 93.3387 6.02605 91.8584 6.92159 91.7004C11.6908 90.8697 9.61631 88.1753 9.84141 86.1025C8.98474 84.9049 9.79769 84.0004 10.6932 83.1137C11.1726 82.8856 11.6956 82.8219 12.2446 82.892C13.3555 83.3774 14.06 84.3367 15.3944 84.566C16.6802 84.7915 17.7587 85.2757 18.5393 86.1241C18.5409 86.4465 18.5409 86.7675 18.5409 87.0898Z" fill="#5F4968"/>
<path fill-rule="evenodd" clip-rule="evenodd" d="M12.3206 83.1863C11.9222 83.1698 11.5222 83.1596 11.1239 83.1519C10.0405 83.2092 9.18866 82.92 8.65911 82.1416C7.6324 80.8715 7.96112 79.7733 9.43155 78.6445C12.0939 80.1708 14.1424 82.306 17.7181 82.7914C20.6962 83.194 19.2047 84.8527 18.5408 86.1254C17.1254 86.2057 16.0161 85.5725 14.8259 85.1342C13.5368 84.8451 13.072 83.9036 12.3206 83.1863Z" fill="#4C4251"/>
<path fill-rule="evenodd" clip-rule="evenodd" d="M15.9789 71.4833C15.9984 72.1216 16.0211 72.7586 16.0405 73.3956C14.2964 74.0198 13.1887 75.2327 11.8332 76.2175C11.1968 76.6799 10.5604 77.0991 9.81542 76.327C7.20492 73.9663 11.3409 72.514 11.0883 70.4692C12.0551 69.6029 13.2162 72.4362 14.2704 70.3711C14.3709 70.1774 15.553 70.924 15.9789 71.4833Z" fill="#725280"/>
<path fill-rule="evenodd" clip-rule="evenodd" d="M8.6592 82.1416C9.66 82.2091 10.5669 82.413 11.1223 83.1532C10.6948 84.1354 10.2673 85.1202 9.83976 86.1025C6.73372 86.3445 6.49727 89.4148 3.70215 89.9576C3.37341 88.5409 3.99039 87.3089 4.90051 86.1317C6.7596 85.1546 6.72885 83.078 8.6592 82.1416Z" fill="#6F507C"/>
<path fill-rule="evenodd" clip-rule="evenodd" d="M18.5278 105.688C18.4371 107.679 16.6201 107.662 14.8161 107.662C15.6631 106.55 17.2323 106.276 18.5278 105.688Z" fill="#4A424E"/>
<path fill-rule="evenodd" clip-rule="evenodd" d="M40.9956 194.714C40.9859 195.047 40.9778 195.381 40.9698 195.712C40.9244 196.03 40.9066 196.349 40.9195 196.669C40.0904 197.258 39.271 197.258 38.4694 196.638C38.5228 195.209 37.9738 193.726 39.1042 192.334C41.4637 192.28 40.6685 193.783 40.9956 194.714Z" fill="#57425F"/>
<path fill-rule="evenodd" clip-rule="evenodd" d="M33.4945 192.826C32.5909 192.306 32.0338 191.653 32.5472 190.77C32.8176 190.306 33.4994 190.096 34.0273 190.423C34.9763 191.012 34.599 191.897 34.5941 192.685C34.2281 192.733 33.8621 192.78 33.4945 192.826Z" fill="#604A6A"/>
<path fill-rule="evenodd" clip-rule="evenodd" d="M38.4694 196.638C39.2839 196.648 40.1034 196.66 40.9195 196.668C40.8467 197.276 40.7754 198.058 39.9528 198.162C38.5682 198.335 38.6216 197.363 38.4694 196.638Z" fill="#3A353D"/>
<path fill-rule="evenodd" clip-rule="evenodd" d="M72.0253 68.5112C71.967 69.3597 71.5508 70.0757 70.244 70.9089C71.9185 71.8516 74.5727 71.2681 75.3451 73.0084C75.9168 74.2951 75.8974 75.5271 75.2496 76.6979C73.5686 77.3017 72.3525 76.2876 70.9452 76.2469C71.2286 72.8428 67.1687 71.2274 65.7955 68.5061C67.8732 68.5087 69.9509 68.5086 72.0253 68.5112Z" fill="#363338"/>
<path fill-rule="evenodd" clip-rule="evenodd" d="M15.9789 71.4835C14.5684 70.491 12.1571 72.4861 11.0883 70.4694C9.31986 69.7101 8.09396 68.7788 9.20326 67.0806C11.2729 66.6729 10.7061 68.394 11.7458 68.7941C13.2842 68.868 13.7425 67.1672 15.4914 67.3545C16.6558 68.6386 15.7926 70.1063 15.9789 71.4835Z" fill="#614E6A"/>
<path fill-rule="evenodd" clip-rule="evenodd" d="M10.2283 64.5172C9.56761 64.4331 8.98299 64.2102 9.05424 63.6216C9.10282 63.228 9.56436 63.1337 10.0324 63.3133C10.5765 63.5171 11.2745 63.6318 11.2842 64.2191C11.2874 64.3147 10.5976 64.4178 10.2283 64.5172Z" fill="#6C4E77"/>
<path fill-rule="evenodd" clip-rule="evenodd" d="M76.9321 136.025C74.9127 137.963 76.7848 140.036 77.6835 141.356C78.8625 143.092 77.9038 144.316 77.656 145.972C79.7969 146.644 83.0293 144.004 83.9912 146.725C84.9839 149.527 80.2908 148.51 79.4503 151.49C78.2779 148.473 75.7808 147.459 75.7484 145.318C75.7257 143.851 75.2383 142.617 72.8593 143.174C70.5565 143.714 69.1023 145.927 70.0675 147.38C70.7428 148.397 71.7759 149.197 73.2318 149.58C76.9192 150.551 74.1613 151.609 73.2933 152.639C69.7273 151.268 67.0586 153.448 64.0043 154.089C62.7266 153.414 62.6602 152.126 61.7274 151.265C62.1549 149.491 64.4076 148.885 65.8132 147.401C64.8108 145.352 61.7776 144.249 61.2351 141.965C61.1542 139.868 62.5258 139.507 63.5963 139.824C59.3356 139.943 54.2133 136.555 48.5486 139.265C47.5381 138.906 46.9422 138.293 46.7252 137.435C44.4807 128.58 44.4807 128.58 33.4703 127.212C33.2225 125.505 35.1852 124.697 35.9722 123.413C41.3471 124.334 46.7219 125.252 52.0968 126.173C53.002 126.813 53.7891 127.403 54.1308 128.474C55.3324 132.266 59.0198 133.622 63.1719 131.975C69.3694 129.516 69.3695 129.516 71.6593 134.828C72.5711 134.406 72.014 133.508 72.6617 133.04C73.4925 132.243 74.456 131.736 75.8423 132.118C77.3969 133.213 78.4528 134.398 76.9321 136.025Z" fill="#403C43"/>
<path fill-rule="evenodd" clip-rule="evenodd" d="M33.4686 127.212C36.722 126.652 40.0969 125.047 42.6961 128.402C43.224 129.084 44.6345 127.226 45.9673 127.968C46.8417 131.616 48.6879 135.132 48.364 138.941C48.5794 140.479 47.4928 141.847 47.4555 143.356C47.3341 144.482 47.2482 145.613 46.5778 146.65C46.241 147.045 45.8264 147.379 45.3308 147.654C43.9997 148.292 42.5957 148.678 41.0086 148.436C40.0969 148.202 39.4637 147.768 39.3325 146.978C39.6742 146.346 40.2767 145.86 40.8062 145.335C43.9948 143.546 43.3438 141.581 41.2159 139.55C41.1139 139.354 41.0199 139.154 40.9276 138.955C41.3454 138.628 41.76 138.302 42.1778 137.974C42.8029 137.4 43.807 136.948 43.7616 136.139C43.747 135.882 42.6685 136.108 42.079 136.063C40.6621 136.123 39.2467 136.182 37.739 136.244C36.5714 134.742 38.39 133.952 39.0184 132.859C39.9479 131.245 40.3884 129.645 37.2451 129.191C35.9803 128.562 34.7042 128.58 33.42 129.156C33.4346 128.507 33.4508 127.86 33.4686 127.212Z" fill="#524359"/>
<path fill-rule="evenodd" clip-rule="evenodd" d="M75.7823 28.3969C76.8091 28.2364 78.035 27.0248 78.7977 28.1969C79.392 29.1104 77.907 29.2441 76.9888 29.3817C76.5872 29.0517 76.1856 28.7256 75.7823 28.3969Z" fill="#3B373E"/>
<path fill-rule="evenodd" clip-rule="evenodd" d="M81.9993 160.46C76.9435 160.854 79.3548 158.254 79.4811 156.57C83.4033 156.632 82.422 158.659 81.9993 160.46Z" fill="#353237"/>
<path fill-rule="evenodd" clip-rule="evenodd" d="M40.9762 145.742C40.5406 146.091 40.105 146.441 39.6726 146.789C38.5827 146.99 37.9738 146.825 38.4645 145.815C39.8669 144.278 37.6613 143.952 36.939 143.222C35.6824 141.952 33.8524 140.821 35.4799 139.071C37.1058 137.321 39.0799 138.248 40.9293 138.955C43.0734 141.21 43.1786 143.47 40.9762 145.742Z" fill="#4F4156"/>
<path fill-rule="evenodd" clip-rule="evenodd" d="M38.4645 145.816C38.8661 146.141 39.2693 146.466 39.6726 146.79C40.0871 147.114 40.5049 147.44 40.9211 147.766C42.1762 148.698 43.3 149.672 42.6847 151.2C42.5001 151.367 42.3122 151.531 42.1276 151.698C39.4102 152.604 37.4766 149.838 34.7641 150.726C32.3188 148.097 35.7471 147.258 37.1819 145.813C37.6111 145.813 38.037 145.815 38.4645 145.816Z" fill="#61496B"/>
<path fill-rule="evenodd" clip-rule="evenodd" d="M42.079 136.065C43.0815 135.339 44.0823 134.612 45.1657 133.828C45.4814 136.685 45.4814 136.685 42.1778 137.976C42.1438 137.339 42.1114 136.702 42.079 136.065Z" fill="#3D3641"/>
<path fill-rule="evenodd" clip-rule="evenodd" d="M39.6062 163.374C38.0823 161.505 38.2799 159.205 36.6734 157.231C34.6346 154.724 35.9414 153.337 40.1098 152.616C40.9454 152.471 41.5997 152.199 42.1292 151.695L42.2021 151.651C42.3997 151.522 42.5972 151.393 42.7964 151.265C43.3227 151.332 43.7584 151.522 44.1147 151.834C44.7284 152.509 45.1673 153.239 45.2207 154.088C45.1494 155.144 44.5001 156.032 43.9122 156.939C43.8313 159.634 43.7001 162.315 39.6985 163.427L39.6062 163.374Z" fill="#61496B"/>
<path fill-rule="evenodd" clip-rule="evenodd" d="M39.7002 163.427C41.3698 162.676 39.7002 160.502 42.4856 159.879C43.8766 159.57 41.6257 158.566 41.3018 157.785C40.4645 155.757 41.9188 156.118 43.42 156.548C44.8871 156.442 46.0369 156.989 47.1268 157.654C47.5219 157.903 47.8863 158.182 48.228 158.454C50.4369 158.934 51.4037 154.179 54.296 157.536C54.6409 158.166 54.7089 158.827 54.6101 159.502C55.4344 160.927 56.2603 162.32 53.0345 162.439C51.0733 162.51 48.8207 162.071 47.7179 163.988C47.8345 164.295 47.875 164.616 48.0645 164.87C48.7462 165.793 51.2401 164.69 51.1009 166.527C51.0782 166.819 50.8531 167.237 50.5632 167.353C48.9535 168.004 47.8685 167.13 46.8288 166.393C45.6629 165.57 45.4766 163.969 43.0896 163.725C41.0394 164.554 39.9091 166.783 37.2354 167.342C36.9957 165.626 38.9471 164.76 39.7002 163.427Z" fill="#493D4E"/>
<path fill-rule="evenodd" clip-rule="evenodd" d="M54.6084 159.504C54.1939 159.175 53.7793 158.848 53.3647 158.523C53.0101 157.525 57.8278 157.645 53.8392 155.365C50.2878 153.333 53.6449 152.07 56.7995 152.043C58.576 152.19 60.1307 150.302 62.0448 151.667C64.2424 151.625 63.9395 152.578 63.3258 153.655C64.0675 154.305 63.9606 154.943 63.2772 155.57C61.8553 156.302 62.1193 157.454 62.0837 158.532C61.3161 159.545 60.9549 160.771 59.593 161.475C57.8732 160.91 56.772 159.375 54.6084 159.504Z" fill="#423D45"/>
<path fill-rule="evenodd" clip-rule="evenodd" d="M68.5889 164.871C69.8876 162.504 75.5426 161.725 70.9694 158.34C73.1896 158.37 76.0252 158.436 75.8908 159.115C75.4811 161.176 78.4268 161.129 78.5628 162.425C78.7782 164.466 74.8366 165.501 68.5889 164.871Z" fill="#353237"/>
<path fill-rule="evenodd" clip-rule="evenodd" d="M54.5826 179.061C53.8701 178.025 53.5057 176.811 52.1179 176.125C52.9891 175.272 54.1777 174.841 55.1445 175.747C56.3348 176.858 56.1146 178.096 54.5826 179.061Z" fill="#37323A"/>
<path fill-rule="evenodd" clip-rule="evenodd" d="M55.823 183.01C54.5469 182.69 51.6579 183.62 53.3324 181.019C54.1631 181.681 54.9939 182.346 55.823 183.01Z" fill="#37323A"/>
<path fill-rule="evenodd" clip-rule="evenodd" d="M76.9727 185.935C77.6075 185.249 78.4626 184.959 79.5395 184.994C80.6293 185.026 81.533 185.303 81.75 186.209C81.9508 187.037 81.5605 188.019 80.5678 188.098C79.8471 188.156 79.0099 187.334 78.2245 186.905C77.8051 186.582 77.3872 186.259 76.9727 185.935Z" fill="#434045"/>
<path fill-rule="evenodd" clip-rule="evenodd" d="M60.644 80.2088C58.291 84.3021 53.8069 87.2145 50.9486 91.0263C50.4676 92.1881 47.5073 92.1576 48.581 94.0686V94.0826C44.309 94.117 44.309 94.117 43.4086 89.0146C43.8005 88.4082 44.1908 87.8031 44.5827 87.1954C48.262 83.7518 46.819 88.8694 49.185 88.5955C51.0813 87.682 51.1202 86.1966 50.2636 84.3021C48.6506 80.7413 48.9794 80.4279 54.0805 79.6317C56.1858 79.303 56.8141 77.8519 55.3712 76.5015C54.7186 75.8899 53.9121 75.3727 53.1478 74.8389C52.5583 74.4261 51.6935 74.2312 51.4069 73.0617C54.4206 73.37 57.0927 72.6566 59.5412 71.4182L59.6222 71.4743C61.5655 74.2682 60.2797 77.2977 60.644 80.2088Z" fill="#473D4C"/>
<path fill-rule="evenodd" clip-rule="evenodd" d="M38.4386 72.4224C39.6742 72.4071 40.9066 72.3918 42.1422 72.3752C43.1592 72.8721 44.4855 73.197 45.1203 73.9066C45.9916 74.8774 44.9114 76.1794 43.8248 75.6176C41.9673 74.6583 40.5649 75.3399 38.9471 75.6354C38.6847 74.5156 39.3552 73.3868 38.4386 72.4224Z" fill="#6B5077"/>
<path fill-rule="evenodd" clip-rule="evenodd" d="M44.5778 81.3327C43.3568 80.6371 42.1341 79.9428 40.9114 79.2485C41.1268 78.2369 41.5609 77.3209 43.1722 77.5706C44.3738 77.7566 44.5552 78.6063 44.5875 79.4268C44.6118 80.0587 44.5843 80.6957 44.5778 81.3327Z" fill="#735380"/>
<path fill-rule="evenodd" clip-rule="evenodd" d="M47.1397 69.4894C48.0871 69.6206 49.2596 69.6232 49.028 70.743C48.9227 71.2501 48.1422 71.4284 47.5689 71.3036C45.956 70.9494 47.0248 70.1353 47.1543 69.4856L47.1397 69.4894Z" fill="#6B5077"/>
<path fill-rule="evenodd" clip-rule="evenodd" d="M49.219 77.1692C49.1429 76.8036 49.3923 76.5577 49.849 76.6851C50.1276 76.7654 50.3154 77.103 50.4709 77.354C50.5065 77.4113 50.1648 77.6954 50.1389 77.6826C49.8199 77.531 49.5203 77.3476 49.219 77.1692Z" fill="#473D4C"/>
<path fill-rule="evenodd" clip-rule="evenodd" d="M44.9374 100.143C44.7608 101.127 44.56 102.101 43.5106 102.794C41.8281 102.579 40.0418 103.091 37.5836 102.075C40.5908 101.597 41.3471 98.2781 44.9374 100.143Z" fill="#4A464D"/>
<path fill-rule="evenodd" clip-rule="evenodd" d="M42.9584 95.9492C41.7179 98.2092 39.935 99.9202 35.4605 99.6921C37.9155 97.9595 39.9252 96.5403 41.9382 95.1223C42.2783 95.3975 42.62 95.6727 42.9584 95.9492Z" fill="#463E4A"/>
<path fill-rule="evenodd" clip-rule="evenodd" d="M37.1706 94.028C38.3463 91.7922 39.556 91.3093 41.3568 91.4355C41.7147 93.6255 39.624 93.2534 37.1706 94.028Z" fill="#4A404F"/>
<path fill-rule="evenodd" clip-rule="evenodd" d="M33.4768 88.0684C35.0767 88.1907 36.531 88.5499 37.6306 89.5755C35.1739 90.1309 35.1739 90.1309 33.4508 88.0874L33.4768 88.0684Z" fill="#4D4451"/>
<path fill-rule="evenodd" clip-rule="evenodd" d="M33.4864 94.9147C33.4735 94.5974 33.4557 94.2828 33.4282 93.9668C33.7666 93.3948 34.1941 92.6469 35.0055 92.7323C36.4565 92.889 36.016 93.9503 35.8168 94.5873C35.433 95.8294 34.3366 95.0739 33.4864 94.9147Z" fill="#4A404F"/>
<path fill-rule="evenodd" clip-rule="evenodd" d="M60.644 80.2091C58.3493 77.4394 58.9793 74.457 59.6222 71.4758C61.7663 71.4962 64.278 70.9713 64.6699 73.5856C64.231 74.1805 63.7906 74.7755 63.3501 75.3679C61.8246 76.0903 62.7687 77.4305 62.1339 78.3745C61.6367 78.986 61.1396 79.5963 60.644 80.2091Z" fill="#322D35"/>
<path fill-rule="evenodd" clip-rule="evenodd" d="M81.9379 87.1076C79.831 85.2195 77.7225 83.334 75.6157 81.4485C78.2812 79.2394 78.2812 79.2394 79.6642 82.0422C82.184 81.1912 80.8399 77.731 84.7443 77.7246C86.8803 79.3872 84.8836 81.7683 85.635 83.7251C88.3459 83.7787 87.839 80.9618 90.205 80.8408C91.3613 81.1478 91.8309 81.8396 91.4325 82.697C91.1669 83.2703 90.6196 83.9111 89.9686 84.2003C87.6803 85.2119 90.5661 88.1561 87.4163 88.5574C85.4925 88.802 84.252 86.533 81.9379 87.1076Z" fill="#363338"/>
<path fill-rule="evenodd" clip-rule="evenodd" d="M100.558 106.691C99.8872 106.607 99.4759 106.307 99.3366 105.782C99.4322 104.538 98.5043 103.703 97.6039 102.787C95.9181 101.069 95.6654 97.1874 97.4468 95.7389C99.1423 94.3605 100.302 95.2178 100.644 96.8791C101.639 98.7544 102.326 100.771 105.818 100.718C107.042 100.697 107.858 101.704 108.086 102.76C108.086 103.738 108.086 104.713 108.086 105.69C105.502 105.674 102.883 105.5 100.558 106.691Z" fill="#302D32"/>
<path fill-rule="evenodd" clip-rule="evenodd" d="M108.088 102.759C105.876 101.057 103.235 100.879 100.444 101.717C99.1975 99.8603 101.188 98.413 100.644 96.8792C101.47 97.2053 102.292 97.5327 103.113 97.8614C103.241 99.1991 103.988 99.7864 105.852 99.6883C109.003 99.5202 109.657 100.691 108.088 102.759Z" fill="#3B383D"/>
<path fill-rule="evenodd" clip-rule="evenodd" d="M111.819 109.6C110.875 109.897 109.959 110.345 108.977 110.461C107.037 110.689 104.932 110.468 104.895 108.571C104.861 106.973 106.763 106.367 108.459 106.917C110.914 107.714 110.25 104.849 112.21 105.238C113.975 106.781 112.54 108.178 111.811 109.606L111.819 109.6Z" fill="#302D32"/>
<path fill-rule="evenodd" clip-rule="evenodd" d="M78.2422 40.1329C78.2422 39.4768 78.2407 38.8233 78.2407 38.1685C79.1411 38.3213 80.3799 38.2997 80.1354 39.3736C79.9896 40.0132 79.0066 40.068 78.2422 40.1329Z" fill="#2F2C31"/>
<path fill-rule="evenodd" clip-rule="evenodd" d="M52.3543 94.9693C54.1713 91.6646 56.6005 88.6758 59.6045 85.952C62.3089 83.4983 64.7364 80.8815 66.6133 77.3296C71.9379 81.8408 77.2642 85.8297 80.9743 90.9307C76.095 92.0888 76.095 92.0888 69.8165 88.1929C64.0271 93.8151 64.0271 93.8151 67.6157 96.1044C67.9849 90.4059 69.3744 89.6657 75.6626 92.5551C78.3686 93.7973 79.8553 91.7793 81.9897 91.9614C84.1937 93.4418 85.9556 95.2611 87.107 97.2893C89.507 101.51 93.4195 104.736 97.5668 107.83C100.015 109.66 101.811 111.701 102.09 114.419C100.308 117.225 98.3506 113.553 96.5142 114.514C92.0479 109.378 86.1515 105.489 79.4358 102.306C73.3921 100.575 67.0732 101.111 60.8498 100.867C59.6044 101.186 58.3607 101.506 57.117 101.827C56.5713 99.0907 53.5608 97.4167 52.3543 94.9693Z" fill="#433F46"/>
<path fill-rule="evenodd" clip-rule="evenodd" d="M60.8481 100.865C67.6302 99.1405 74.3476 98.3927 80.8091 101.66C79.0893 103.514 80.9791 104.718 82.1062 106.061C84.4997 110.707 84.111 115.175 80.7362 119.459C79.507 120.811 77.7322 121.472 75.7678 121.899C72.5824 123.597 69.4294 122.628 66.2683 121.832C59.0182 119.029 60.555 113.786 60.487 108.982C61.0133 106.804 61.4813 104.592 64.6813 103.738C65.925 103.096 67.3857 102.37 64.7169 101.793C63.4149 101.508 61.8473 101.955 60.8481 100.865Z" fill="#FDFDFD"/>
<path fill-rule="evenodd" clip-rule="evenodd" d="M70.6406 135.033C68.8932 131.741 68.8933 131.741 65.3127 130.895C64.1873 132.152 66.8836 132.676 66.1953 133.895C65.2285 135.081 64.1305 134.317 63.0957 133.902C62.4269 133.634 61.7824 132.936 61.2027 132.983C56.2796 133.393 56.2845 133.433 51.6416 130.727C52.4772 129.376 53.7695 127.78 52.0967 126.174C60.8107 126.188 69.5281 126.199 78.2421 126.212C80.2518 128.213 82.6939 130.083 81.5862 133.03C81.3142 133.768 80.5563 133.949 79.7239 134.044C78.7166 134.065 78.1401 133.523 77.5345 133.025C77.2543 132.796 76.9401 132.588 76.5903 132.421C76.5903 132.426 75.996 132.337 75.996 132.337C74.9223 132.659 73.8503 132.982 72.7766 133.304C72.158 133.953 71.805 134.801 70.6406 135.033Z" fill="#322F35"/>
<path fill-rule="evenodd" clip-rule="evenodd" d="M44.7802 113.521C47.1899 117.044 51.9283 118.557 55.4311 121.136C56.2716 121.755 57.3777 122.151 59.4699 123.211C54.2522 123.72 50.3267 123.436 46.3689 122.906C42.5713 122.397 39.2013 120.747 34.9568 120.728C36.024 117.351 38.3819 114.92 40.4531 112.377C42.3867 111.606 43.794 112.077 44.7802 113.521Z" fill="#463E4A"/>
<path fill-rule="evenodd" clip-rule="evenodd" d="M64.6813 103.737C62.8886 105.076 62.853 107.048 61.815 108.658C61.3891 109.418 61.4506 110.224 61.4279 111.027C61.2465 117.617 59.7275 118.337 51.9041 115.547C48.5309 114.014 48.3268 112.105 50.4272 109.622C53.2741 106.259 57.4085 104.336 61.904 102.766C63.104 102.35 64.3283 102.404 64.6813 103.737Z" fill="#3E3B41"/>
<path fill-rule="evenodd" clip-rule="evenodd" d="M81.9881 91.9589C80.7411 93.1641 79.4941 94.3693 78.3071 95.5159C74.5679 95.6267 74.0497 89.4568 68.8432 92.6405C68.3882 94.5884 71.478 95.0777 71.5153 96.8816C70.5857 98.3875 68.7396 97.7696 67.219 97.8269C65.1397 97.9072 62.7915 96.8689 62.947 95.6675C63.1672 93.968 62.7154 90.7792 64.3008 90.6582C68.9242 90.3053 65.7583 88.0669 66.5259 86.5865C68.5404 86.0196 70.7784 85.4896 72.1517 87.528C74.1031 90.4276 77.3533 90.89 80.9727 90.9283C81.6593 91.0595 81.9508 91.4302 81.9881 91.9589Z" fill="#312E33"/>
<path fill-rule="evenodd" clip-rule="evenodd" d="M80.5644 105.703C78.0058 104.254 79.1798 102.95 80.8074 101.659C87.2219 104.066 91.5425 108.422 96.5368 112.143C97.3999 112.785 96.846 113.653 96.5594 114.416C94.8266 118.355 91.0825 120.676 86.3878 122.227C84.8818 122.509 83.0503 122.029 81.975 123.36C79.9442 124.777 78.6843 124.465 78.239 122.327C77.6997 120.211 80.4446 120.579 81.4907 119.653C82.2211 119.349 81.3013 119.731 82.0365 119.43C92.323 115.243 92.6404 113.407 84.0316 107.692C82.9401 106.968 81.9183 106.151 80.5644 105.703Z" fill="#EAE9EA"/>
<path fill-rule="evenodd" clip-rule="evenodd" d="M52.3542 94.9695C52.6473 95.195 52.8935 95.4969 53.2416 95.6319C58.2375 97.5697 58.2408 97.5646 57.1153 101.826C53.1283 104.533 48.1858 106.491 45.9688 110.592C43.2239 111.382 42.3931 110.665 43.3551 108.538C44.1016 107.187 44.6603 105.75 46.168 104.75C48.5081 103.203 48.1308 100.678 49.619 98.822C49.2692 96.9837 51.1931 96.1428 52.3542 94.9695Z" fill="#3A353C"/>
<path fill-rule="evenodd" clip-rule="evenodd" d="M85.8406 121.468C90.796 120.419 92.9304 116.714 96.5595 114.416C97.6818 114.264 98.966 112.14 99.9247 114.676C100.129 115.22 101.343 114.551 102.088 114.417C103.115 116.086 104.142 117.751 105.517 119.983C99.3838 120.849 93.8389 121.633 88.2875 122.418C87.0616 122.76 85.6949 123.323 85.8406 121.468Z" fill="#3B383D"/>
<path fill-rule="evenodd" clip-rule="evenodd" d="M51.9041 115.548C52.921 115.597 53.951 115.584 54.9566 115.706C59.64 116.272 60.3963 115.848 60.7558 112.297C60.8821 111.04 60.3785 109.678 61.8165 108.66C61.3453 113.453 61.0878 118.192 67.0213 121.362C67.3257 122.25 67.0748 122.712 65.7744 122.367C60.3396 121.114 55.5785 119.015 51.9041 115.548Z" fill="#4B454E"/>
<path fill-rule="evenodd" clip-rule="evenodd" d="M65.7728 122.365C66.1906 122.03 66.6052 121.695 67.0198 121.36C69.9509 121.77 72.8529 123.081 75.8375 121.513C76.2375 121.717 76.3557 121.898 76.197 122.062C76.048 122.215 75.8974 122.291 75.7468 122.291C72.44 123.793 69.1185 123.941 65.7728 122.365Z" fill="#A7A5A8"/>
<path fill-rule="evenodd" clip-rule="evenodd" d="M43.3568 108.536C43.5236 109.776 44.2443 110.581 45.9706 110.591C46.3398 111.761 45.3455 112.586 44.7819 113.521C43.339 113.139 41.8945 112.758 40.4532 112.377C41.0993 110.947 41.7876 109.535 43.3568 108.536Z" fill="#534A57"/>
<path fill-rule="evenodd" clip-rule="evenodd" d="M49.6224 98.8206C49.3487 101.115 49.5284 103.569 46.1714 104.748C47.0621 102.679 47.671 100.509 49.6224 98.8206Z" fill="#534A57"/>
<path fill-rule="evenodd" clip-rule="evenodd" d="M85.8406 121.469C86.3394 122.294 87.4729 122.106 88.2891 122.418C86.4171 123.688 84.124 123.215 81.9766 123.359C82.2001 121.384 84.2309 121.694 85.8406 121.469Z" fill="#888689"/>
<path fill-rule="evenodd" clip-rule="evenodd" d="M75.7466 122.292C75.8195 122.037 75.8503 121.778 75.8373 121.515C77.0535 120.807 78.2713 120.102 79.4891 119.393C80.5822 119.393 81.5442 119.593 82.0802 120.446C81.1895 121.565 79.0729 121.135 78.2389 122.327C77.4098 122.315 76.5774 122.304 75.7466 122.292Z" fill="#828084"/>
<path fill-rule="evenodd" clip-rule="evenodd" d="M62.1323 78.3743C61.4489 77.099 59.959 75.6225 63.3485 75.3677C63.3744 76.4786 63.2319 77.5475 62.1323 78.3743Z" fill="#473D4C"/>
<path fill-rule="evenodd" clip-rule="evenodd" d="M48.5794 94.0687C46.7365 91.7869 49.4588 91.7054 50.947 91.0264C50.7656 92.3335 50.0499 93.382 48.5794 94.0687Z" fill="#5D4965"/>
<path fill-rule="evenodd" clip-rule="evenodd" d="M63.2772 155.57C63.2934 154.931 63.3096 154.293 63.3258 153.655C64.108 153.512 64.8497 153.383 65.4278 152.838C68.5565 149.894 69.2335 149.889 73.2917 152.639C70.1954 154.129 67.6399 156.758 63.2772 155.57Z" fill="#2C292E"/>
<path fill-rule="evenodd" clip-rule="evenodd" d="M78.3006 131.968C78.7751 132.661 79.2495 133.354 79.724 134.045C79.6009 135.016 79.4795 135.986 79.3548 136.957C78.333 136.992 77.5556 136.633 76.9305 136.027C76.6196 134.797 76.3071 133.568 75.9961 132.338L75.9508 132.348C76.5289 131.43 77.3872 131.597 78.3006 131.968Z" fill="#DBDADC"/>
<path fill-rule="evenodd" clip-rule="evenodd" d="M86.3944 142.535C86.2114 142.879 86.1483 143.282 85.9296 143.346C85.3159 143.519 84.8203 143.197 84.7199 142.755C84.6778 142.558 83.7191 141.858 85.0163 141.974C85.4989 142.013 85.9426 142.34 86.3944 142.535Z" fill="#403C43"/>
<path fill-rule="evenodd" clip-rule="evenodd" d="M98.1432 128.189C98.7926 129.399 98.7554 130.255 96.621 130.16C95.4696 130.109 94.3117 130.153 93.1571 130.156C92.7296 129.639 92.3344 129.105 91.8696 128.609C91.3482 128.051 91.2089 127.509 91.8324 126.965C92.4267 126.449 93.2267 126.328 93.9668 126.65C95.3174 127.24 96.3846 128.286 98.1432 128.189Z" fill="#302D32"/>
<path fill-rule="evenodd" clip-rule="evenodd" d="M12.3206 83.1863C13.5578 83.515 14.3335 84.2118 14.8258 85.1329C12.8663 85.3992 12.8663 85.3992 12.3206 83.1863Z" fill="#6F507C"/>
<path fill-rule="evenodd" clip-rule="evenodd" d="M45.9495 142.809C46.1163 141.273 46.7964 139.936 48.364 138.941C50.113 137.862 51.8603 136.785 53.9834 135.474C55.4198 138.001 58.4724 137.664 61.1218 138.303C63.7323 138.934 67.0003 137.592 69.2092 140.101C67.9282 141.887 66.1355 142.544 63.8343 141.25C62.3752 140.429 62.2149 140.934 62.0626 141.895C61.5088 142.408 60.7752 142.698 59.9979 142.934C56.1566 145.422 52.1891 147.341 47.2596 144.559C46.7268 144.023 46.4758 143.353 45.9495 142.809Z" fill="#363139"/>
<path fill-rule="evenodd" clip-rule="evenodd" d="M59.5752 141.888C60.4044 141.891 61.2351 141.893 62.0626 141.896C63.9913 144.212 68.2423 145.32 67.8666 149.039C65.7015 149.466 63.4408 150.016 62.0448 151.667C59.8764 151.5 59.2869 153.805 57.1088 153.622C56.6635 151.708 53.5186 152.722 52.7639 151.141C52.8336 148.512 55.6417 148.857 57.6481 148.331C59.8748 147.786 60.0222 146.559 59.3517 145.072C59.5283 144.017 56.2052 142.789 59.5752 141.888Z" fill="#2C292E"/>
<path fill-rule="evenodd" clip-rule="evenodd" d="M70.6407 135.033C70.9922 134.18 71.044 133.099 72.7784 133.305C73.4942 135.453 73.9557 137.605 72.8578 139.948C69.7631 138.862 71.3241 136.623 70.6407 135.033Z" fill="#EFEEF0"/>
<path fill-rule="evenodd" clip-rule="evenodd" d="M53.3842 151.675C55.4036 151.401 57.6757 150.83 57.1089 153.62C55.7777 153.308 54.168 152.083 53.3567 154.54C55.5478 155.503 58.2506 153.667 60.5097 155.622C58.0514 156.608 56.1793 158.171 53.3632 158.521C52.3867 155.496 51.0523 157.867 50.5924 158.567C49.1932 160.695 49.3276 160.75 47.1657 158.538C47.2645 155.795 48.1325 152.796 43.4442 151.658L43.4183 151.671C41.9349 149.731 43.5576 148.304 44.7106 146.801C45.1074 146.802 45.5058 146.793 45.8993 146.774C46.3171 146.444 46.8078 146.35 47.3713 146.488C49.8571 147.875 51.1818 150.086 53.3842 151.675Z" fill="#37323A"/>
<path fill-rule="evenodd" clip-rule="evenodd" d="M40.9762 145.742C40.9584 143.48 40.9422 141.217 40.9276 138.957C44.6766 139.209 44.6847 141.319 44.6442 143.512C44.6086 145.529 43.0426 145.862 40.9762 145.742Z" fill="#694E75"/>
<path fill-rule="evenodd" clip-rule="evenodd" d="M44.7122 146.799C44.9827 148.537 43.5236 149.992 43.4199 151.67C43.0151 151.671 42.6086 151.663 42.2037 151.649C41.7762 150.354 41.3487 149.058 40.9228 147.764C42.1843 147.441 43.4491 147.12 44.7122 146.799Z" fill="#4F4156"/>
<path fill-rule="evenodd" clip-rule="evenodd" d="M47.1462 146.799C46.7317 146.791 46.3171 146.783 45.9009 146.773C45.9155 145.453 45.9349 144.132 45.9495 142.811C46.3592 143.152 46.7657 143.492 47.177 143.834C47.9058 144.827 49.9154 145.829 47.1462 146.799Z" fill="#4F4156"/>
<path fill-rule="evenodd" clip-rule="evenodd" d="M43.4458 151.658C48.2425 151.327 49.8474 152.624 48.7462 156.022C48.4547 156.926 48.3478 157.957 47.1672 158.539L47.0684 158.446C45.5187 157.082 46.1535 155.033 44.6539 153.652C43.6418 153.214 43.4571 152.467 43.4458 151.658Z" fill="#493D4E"/>
<path fill-rule="evenodd" clip-rule="evenodd" d="M44.6539 153.651C45.8491 153.336 47.1446 152.882 47.1446 154.562C47.1446 155.858 47.096 157.152 47.0718 158.445C45.7535 157.933 44.254 157.639 43.4216 156.549C43.3487 155.456 44.1357 154.587 44.6539 153.651Z" fill="#62496D"/>
<path fill-rule="evenodd" clip-rule="evenodd" d="M82.0803 120.445C81.1151 120.247 80.0187 120.256 79.4892 119.393C82.4025 114.955 82.4884 110.377 80.5645 105.704C81.6689 104.315 82.6519 105.303 83.5021 105.871C86.7879 108.064 90.0154 110.308 93.4907 112.691C90.9611 116.682 87.1976 119.157 82.0803 120.445Z" fill="#413E43"/>
<path fill-rule="evenodd" clip-rule="evenodd" d="M70.5226 106.387C75.5622 108.893 76.6861 110.837 75.4715 114.482C75.0181 115.843 74.1711 116.985 72.2181 116.981C70.0497 116.978 67.9752 116.437 67.4376 114.535C66.5922 111.539 66.8918 108.694 70.5226 106.387Z" fill="#3C393E"/>
<path fill-rule="evenodd" clip-rule="evenodd" d="M78.3005 131.967C77.5183 132.095 76.7345 132.218 75.9523 132.346C76.0592 131.545 76.3556 130.793 77.5815 130.857C77.8519 130.869 78.0625 131.579 78.3005 131.967Z" fill="#403C43"/>
<path fill-rule="evenodd" clip-rule="evenodd" d="M47.1462 146.799C48.5664 145.818 46.7414 144.82 47.177 143.834C49.8895 145.602 52.9632 143.595 55.8668 144.329C56.8692 144.581 56.9388 143.231 57.1591 142.486C57.5299 141.238 58.2797 140.854 59.5753 141.888C58.1502 143.361 60.7995 143.742 60.8481 144.82C60.474 146.457 59.9364 148.068 59.5623 149.707C57.3988 150.159 54.1599 148.527 53.381 151.676C49.5511 151.438 48.5859 148.931 47.1462 146.799Z" fill="#403C43"/>
<path fill-rule="evenodd" clip-rule="evenodd" d="M59.5639 149.705C59.1736 147.943 57.8425 146.027 60.8497 144.818C62.8141 146.837 60.636 148.181 59.5639 149.705Z" fill="#37323A"/>
<path fill-rule="evenodd" clip-rule="evenodd" d="M52.9745 147.895C52.6911 148.198 52.3462 148.218 51.9883 147.922C51.8571 147.815 51.713 147.654 51.7146 147.519C51.7211 147.153 52.0725 146.95 52.4952 147.143C52.751 147.262 52.8206 147.635 52.9745 147.895Z" fill="#363139"/>
</svg>
