<svg width="83" height="81" viewBox="0 0 83 81" fill="none" xmlns="http://www.w3.org/2000/svg">
<path fill-rule="evenodd" clip-rule="evenodd" d="M38.8038 48.2357C39.5863 48.0207 40.303 48.1569 40.9595 48.6107C41.4733 49.0899 41.0744 49.3553 40.6601 49.5479C40.0714 49.8208 39.4507 50.0516 38.6062 50.0175C39.9888 50.2963 41.1487 50.2634 42.0991 49.4289C43.4127 50.1086 44.7263 50.7877 46.0391 51.4679C45.5402 52.4428 44.6038 53.3111 45.1715 54.5501C45.1157 55.1399 44.6848 55.289 44.1006 55.2601C43.3783 55.0958 43.0494 54.6179 42.858 54.0393C42.985 53.8762 42.8358 54.1275 42.9347 53.9457C42.9543 53.9093 42.9201 53.9352 42.8321 54.0274C43.4044 55.7418 43.2054 56.009 41.3335 56.0595C40.3231 56.0672 39.3888 55.7759 38.472 55.4158C38.2746 55.0471 38.6055 54.8228 38.7421 54.5446C38.8176 54.4361 38.9113 54.34 39.016 54.2531C39.3615 54.0273 39.5806 53.7198 39.7307 53.3676C40.0408 53.0907 39.7759 52.6474 40.0665 52.3627C40.4578 52.0168 40.9647 52.0583 41.8111 52.0833C40.9142 52.0186 40.382 52.0168 39.9997 52.4374C39.7971 52.6353 39.6035 52.5326 39.4082 52.4116C39.1865 52.2286 38.9839 52.0257 38.758 51.8455C38.3402 51.4183 37.7938 51.2602 37.187 51.2238C36.8294 51.1585 36.5588 50.9721 36.3173 50.7217C36.0145 51.2665 35.9026 51.9371 35.1594 52.1528C34.6024 52.0436 34.7867 51.5251 34.4499 51.2971C34.3813 51.769 34.6063 52.2093 34.5925 52.6618C34.5737 52.8087 34.4976 52.9284 34.375 53.0251C33.3899 53.2707 32.5692 53.1545 32.2449 52.1328C32.1317 51.7757 31.9705 51.6001 31.5466 51.6985C30.7346 51.8871 30.0115 51.4699 29.2407 51.3726C28.8087 51.3209 28.4314 51.1568 28.0883 50.9181C27.5247 50.5425 26.9629 50.1638 26.2094 50.2037C25.6108 50.0018 25.2162 49.5828 24.6947 49.1114C25.3811 48.6605 26.0141 48.2734 26.8732 48.2752C27.985 48.6157 28.6773 49.4873 29.6336 50.0195C30.4024 50.4477 30.4947 50.4001 31.127 49.6182C30.4855 49.308 30.211 50.4997 29.5477 49.8858C28.9919 49.3714 28.4678 48.8342 28.5919 48.0521C29.0266 47.8907 29.4857 47.8514 29.9577 47.8739C32.0786 47.8287 34.1854 47.9475 36.2613 48.4352C36.6164 48.6561 36.5034 48.8843 36.3036 49.1093C36.314 49.1052 36.3464 49.1995 36.3464 49.1995C36.3464 49.1995 36.4488 49.1626 36.4592 49.1579C36.6602 49.0467 36.8464 48.9325 37.0683 48.8734C37.1931 48.8386 37.3206 48.8195 37.4507 48.81C37.7125 48.8027 37.9782 48.832 38.2353 48.7699C38.4112 48.6597 38.5137 48.4984 38.6342 48.3506C38.6905 48.3121 38.7476 48.2736 38.8038 48.2357Z" fill="#433C47"/>
<path fill-rule="evenodd" clip-rule="evenodd" d="M24.3267 22.6443C23.6935 22.0321 23.0594 21.4205 22.4262 20.8082C22.3799 20.03 23.0845 19.8877 23.6757 19.6499C24.8237 20.6344 25.9724 21.6196 27.1211 22.6048C28.0084 22.2656 27.2717 21.7918 27.2092 21.3741C26.7408 19.8216 25.8866 18.421 24.9389 17.0531C24.5472 16.4873 24.0486 15.9646 23.8986 15.2899C24.1225 14.9549 24.5279 14.7605 24.7492 14.4224C24.8337 14.3144 24.9433 14.2309 25.0745 14.1694C26.647 16.5578 28.3782 18.8828 29.0587 21.9209C29.8872 19.3176 29.3511 16.9755 28.9906 14.6369C30.0472 14.9198 30.6769 15.5483 30.9239 16.483C30.9035 16.5627 30.8182 16.6466 30.8235 16.7202C30.8331 16.8397 30.9108 16.8372 30.963 16.7085C31.0498 16.5573 31.1613 16.4586 31.3679 16.5114C31.5902 17.1407 31.7866 17.7715 31.5191 18.4183C31.2978 18.4908 31.1778 18.6406 31.2014 18.8435C31.2245 19.0443 31.4547 18.8933 31.5594 18.9791C31.8388 19.972 31.3904 20.8748 31.2116 21.812C31.0691 22.5591 30.9518 23.3099 30.8234 24.0594C30.5087 24.4609 30.0061 24.551 29.5151 24.6586C28.8164 24.7836 28.4423 25.5323 27.6095 25.4033L27.6071 25.4043C26.9401 25.3699 26.9574 24.3887 26.143 24.5603C25.9249 24.6319 25.7044 24.6489 25.4762 24.6049C25.323 24.5553 25.2161 24.4626 25.1454 24.3341C24.824 23.8813 25.5029 23.1887 24.6447 22.8646C24.4973 22.8358 24.3934 22.7615 24.3267 22.6443Z" fill="#474249"/>
<path fill-rule="evenodd" clip-rule="evenodd" d="M52.3761 39.0384C52.3728 37.749 52.1343 36.4428 52.5971 35.1872C53.1335 34.9882 53.0109 34.5169 53.1045 34.1438C53.2317 33.6323 53.416 33.0891 53.986 32.931C54.6582 32.7446 54.9529 33.34 55.3153 33.7236C55.4797 34.3739 55.6102 35.0221 55.1631 35.618C54.9909 35.748 54.7693 35.8232 54.6124 35.9645C54.4865 36.0761 54.2066 36.1996 54.4461 36.3929C54.5268 36.4583 54.7394 36.2897 54.8784 36.2011C55.9588 35.988 56.0248 35.0984 56.3888 34.4073C56.9948 35.1486 56.997 36.0258 57.174 36.8636C56.825 37.2355 56.754 37.5605 57.3936 37.7688C57.752 38.9701 58.1003 40.1727 58.0822 41.4194C57.8148 41.8802 57.2759 42.0501 56.6964 42.2733C57.183 42.5103 57.5519 42.0446 57.8992 42.3728C57.6084 43.6294 57.4309 44.92 56.615 46.0185C56.5371 46.017 56.4599 46.0156 56.3833 46.0155C54.9319 46.0567 53.5239 46.3126 52.1156 46.5705C51.9711 46.5373 51.8338 46.4817 51.7077 46.4087C51.4357 46.1779 51.3765 45.8509 51.2108 45.5704C51.186 45.5125 51.162 45.4547 51.138 45.3969C51.0832 45.1326 51.0743 44.878 51.3128 44.6779C51.4226 44.7161 51.4857 44.6964 51.5018 44.6208C51.5177 44.5465 51.4725 44.4948 51.3659 44.4677C51.2899 44.2088 51.3043 43.9685 51.5181 43.7653C51.8546 43.4955 52.1947 43.2457 52.6494 43.638C53.0189 43.9576 53.4061 44.1088 53.8467 43.7696C54.4303 43.7362 54.6771 44.2709 55.2362 44.486C55.5616 43.8557 54.921 43.4333 54.9237 42.7874C54.5599 43.3354 54.1655 43.6629 53.6546 43.8704C52.3207 43.5601 52.1403 42.546 51.8445 41.6013C51.8377 40.8105 52.0078 40.0548 52.3504 39.3336C53.6318 38.7505 54.7769 39.8697 56.1396 39.556C54.9846 38.5112 53.6619 38.8759 52.3761 39.0384Z" fill="#423F44"/>
<path fill-rule="evenodd" clip-rule="evenodd" d="M13.4367 20.9352C11.5075 21.7793 8.60822 21.1845 7.21951 19.6588C6.2959 18.6444 6.34312 17.0368 7.33345 15.9945C8.19854 15.0826 9.35589 14.5578 10.6218 14.2357C11.7204 13.9552 12.7514 14.6262 13.0867 15.8734C13.3947 17.0156 13.5661 18.1832 13.7973 19.3394C13.9563 19.9281 13.9992 20.4926 13.4367 20.9352Z" fill="#E9A9FF"/>
<path fill-rule="evenodd" clip-rule="evenodd" d="M47.2175 34.1434C47.0641 34.9915 46.9106 35.8395 46.7565 36.6875C46.1494 37.1842 45.6516 36.7913 45.0468 36.5652C43.3516 35.9296 42.7206 36.2756 42.2168 37.7783C42.0538 38.2653 42.0767 38.931 41.3395 39.1536C40.7725 39.2378 40.047 39.3581 39.7914 38.8397C39.4661 38.1777 40.0006 37.6426 40.5641 37.2162C39.7189 36.9967 39.2822 36.4514 39.2631 35.7173C39.2528 35.326 39.5768 35.0835 40.0888 35.3183L40.0886 35.3009C40.5798 35.6181 40.6096 35.2023 40.7615 34.9782C40.8647 34.7989 41.0378 34.6 40.9573 34.4156C40.3486 33.017 40.3724 31.8347 42.1581 31.2017C41.9709 30.0149 43.0094 29.8962 43.8905 29.6378C44.8872 29.5689 45.4054 30.0004 44.9738 30.7976C44.62 31.4492 44.6728 32.0075 45.0064 32.5889C45.0441 32.0598 45.2706 31.6729 46.1241 31.88C46.6949 32.019 47.2004 32.1332 46.9628 32.7215C46.7416 33.2696 47.5044 33.6348 47.2175 34.1434Z" fill="#322F34"/>
<path fill-rule="evenodd" clip-rule="evenodd" d="M61.2852 66.2506C61.1277 66.5945 60.3935 66.6749 60.7285 67.2451C60.6377 67.3912 60.5525 67.5352 60.8791 67.4696C61.2444 67.7132 61.3904 68.0314 61.3203 68.4228C61.1436 68.7008 60.9143 68.9502 60.7666 69.2451C60.6946 69.3614 60.5954 69.4529 60.4705 69.5252C60.3813 69.4614 60.2644 69.4129 60.2068 69.3316C59.0563 67.6759 59.0867 67.7746 56.9362 68.2156C55.2914 68.5528 53.616 68.9364 51.8664 68.7557C51.6452 68.1981 50.4048 68.2625 50.7322 67.4057C50.9625 66.8025 51.4188 66.3542 52.3055 66.4771C52.0406 65.577 51.6461 64.7868 50.6181 64.3388C50.3165 64.2068 50.0812 63.9304 50.2398 63.5713C52.0996 64.003 54.0214 64.245 55.7421 65.1051C55.4989 65.5475 55.3747 65.9911 55.7762 66.4391C55.8362 66.8404 55.4151 67.0268 55.2852 67.3433C55.0671 67.4022 55.4862 67.5473 55.3106 67.4087C55.2421 67.3548 55.3032 67.3516 55.413 67.2908C55.7256 67.1171 55.9785 67.0646 56.3076 67.3311C56.4442 67.4415 56.585 67.1778 56.5869 67.0704C56.5961 66.5377 55.9002 66.671 55.6754 66.3464C55.4727 65.9155 55.4998 65.5034 55.7684 65.113C56.372 65.1637 56.8977 65.6135 57.5471 65.4264C58.4014 65.0356 57.3681 64.7168 57.4556 64.3556C57.4068 64.2158 57.3841 64.0732 57.3838 63.928C57.4053 63.7835 57.4674 63.6547 57.5671 63.5405C58.4346 63.5112 59.3617 63.3174 59.8886 64.2456C60.2943 64.9443 60.3348 65.8369 61.2852 66.2506Z" fill="#745481"/>
<path fill-rule="evenodd" clip-rule="evenodd" d="M50.5385 49.5261C50.7378 48.1498 50.9372 46.773 51.1372 45.3968C51.1859 45.4269 51.2319 45.46 51.2752 45.4961C51.544 45.7103 51.4456 46.0728 51.7038 46.2925L51.7018 46.2903C52.2968 46.5526 52.4919 47.1257 52.7565 47.3923C54.0521 46.8966 55.5746 46.9437 56.4799 45.9451L56.6135 46.0184C56.1776 48.2773 55.2654 50.3948 54.3473 52.5102C53.8702 52.263 53.9726 51.8494 53.9516 51.4709C53.2782 52.0505 53.9564 52.2347 54.3506 52.5019C54.2621 53.4328 53.6816 54.1455 53.0817 54.8491C52.3192 55.0057 51.8289 54.7308 51.4336 54.1264C51.2574 53.8566 51.2947 54.3127 51.1261 54.302C50.5875 54.5442 49.9984 54.419 49.4336 54.4601C48.9903 54.4511 48.5439 54.4478 48.2497 54.0645C48.1912 53.8119 48.3028 53.6135 48.488 53.4396C48.7641 53.2293 49.1001 53.2539 49.4343 53.2748C50.2494 53.591 49.9718 52.9676 50.0833 52.6776C50.5202 51.8001 50.4324 50.8469 50.4973 49.917C50.4602 49.7807 50.4746 49.6507 50.5385 49.5261Z" fill="#454047"/>
<path fill-rule="evenodd" clip-rule="evenodd" d="M44.5764 68.6251C43.3778 68.3061 42.1742 67.9964 41.1493 67.3006C40.7371 66.6554 39.4353 66.5276 39.7407 65.4614C39.6919 64.2902 39.1151 63.8669 37.8669 64.3899C37.1585 64.1865 36.6284 64.5007 36.103 64.8268C35.5386 64.6612 34.9692 64.505 34.5535 64.0854C35.495 62.712 37.3001 62.9778 38.6924 62.4604C40.0498 62.9997 41.4428 63.4095 42.936 63.429C43.6937 63.2812 43.9102 63.9018 44.3379 64.2232C44.7293 64.4271 45.1523 64.3486 45.5649 64.3611C45.9108 64.1381 45.924 65.0561 46.3487 64.5557C46.6314 64.4219 46.9226 64.3974 47.2277 64.5125C47.6939 64.9657 49.0526 64.9633 48.2741 66.059C48.1143 66.4093 47.8592 66.6523 47.3959 66.6576C47.2216 66.6442 47.0596 66.5922 46.9081 66.5107C46.7093 68.3766 46.7093 68.3766 44.5764 68.6251Z" fill="#71517E"/>
<path fill-rule="evenodd" clip-rule="evenodd" d="M60.8059 51.9507C61.262 50.7311 61.7284 49.5268 62.4117 48.3785C63.2488 46.9723 63.8506 45.4561 63.6963 43.7475C65.6812 46.2174 67.0814 48.8047 66.4869 51.8863C64.6893 51.4301 63.0333 52.5633 61.2354 52.1151C61.0744 52.0987 60.93 52.0455 60.8059 51.9507Z" fill="#434045"/>
<path fill-rule="evenodd" clip-rule="evenodd" d="M61.2172 51.9176C61.3639 51.6312 61.6513 51.5387 61.9053 51.7311C62.4757 52.163 63.1564 51.9804 63.506 51.7337C64.5873 50.9701 65.5106 51.4126 66.4869 51.8863C66.7917 52.4923 66.475 53.0768 66.3957 53.6484C66.1899 55.1389 66.3726 56.6409 66.2399 58.129C66.1768 58.4397 65.9696 58.6504 65.6598 58.7889C65.5096 58.8454 65.3503 58.882 65.1882 58.9056C63.1905 58.5345 63.122 57.9435 64.9321 56.062C64.3162 55.7229 63.7776 55.6494 63.3062 56.1775C62.7953 56.7495 62.2553 57.3307 61.3589 56.7123C60.8757 56.3787 61.0804 54.3965 61.5332 54.0326C61.8159 53.8051 62.3241 53.8789 62.5237 53.4211C61.9799 53.458 61.6471 54.2473 61.0459 53.6899C60.3308 53.0275 60.8849 52.4808 61.2172 51.9176Z" fill="#353137"/>
<path fill-rule="evenodd" clip-rule="evenodd" d="M41.4099 41.7369C40.2012 42.2781 38.9259 42.4419 37.5731 42.1614C37.4314 41.9694 37.3143 41.9591 37.2285 42.1887C36.5035 42.1137 35.7535 42.2123 35.0596 41.9023C35.0108 41.7197 35.5951 41.7172 35.2614 41.5378C34.5927 41.1774 33.8843 41.3319 33.214 41.5774C32.4613 41.3579 31.7095 41.1371 30.9569 40.9169C31.0995 38.8535 31.6689 38.1321 33.3886 37.8335C34.5638 37.5644 34.7803 36.5609 35.3386 35.8187C35.5682 35.7526 35.7969 35.7305 36.0281 35.8305C36.4752 35.8586 36.8725 35.989 37.1907 36.2883C36.9685 36.6342 36.884 36.9583 37.4039 37.1901C37.5004 37.3056 37.5661 37.4314 37.6076 37.5689C37.6678 38.0057 37.6116 38.4263 37.4337 38.8312C36.5871 39.6972 35.3453 39.3654 34.2833 39.6203C35.313 39.332 36.4992 39.9867 37.4397 39.2206C37.6823 38.944 37.8352 38.5628 38.3564 38.6174C38.9854 39.0605 40.0429 39.0646 40.1792 40.0172C40.109 40.5771 40.4266 41.2208 39.7915 41.6619C39.2744 41.5121 39.158 41.1072 38.9923 40.6902C39.0533 41.1572 39.3225 41.4598 39.7454 41.673C40.3038 41.5288 40.8617 41.2782 41.4099 41.7369Z" fill="#6A4D76"/>
<path fill-rule="evenodd" clip-rule="evenodd" d="M16.8725 14.9805C16.1215 14.7157 15.3461 14.4954 14.6247 14.1754C13.2301 13.556 12.6507 12.1417 13.2475 10.9627C13.8122 9.84743 15.7647 9.23298 17.0335 9.7901C17.7206 10.0925 17.9329 10.6738 18.1449 11.2764C18.4721 12.2063 18.1522 13.1998 18.6433 14.1042C18.4649 15.0262 17.8734 15.3154 16.8725 14.9805Z" fill="#E8A5FE"/>
<path fill-rule="evenodd" clip-rule="evenodd" d="M61.2172 51.9175C61.4776 52.4592 60.3197 53.1679 61.514 53.6022C62.0462 53.4434 61.6225 52.9285 61.9449 52.6811C62.5726 52.6646 63.1571 52.8153 63.1924 53.4477C63.2149 53.8511 63.3183 54.5782 62.3001 54.2104C61.5943 53.9552 61.1805 54.7184 61.367 54.855C62.1933 55.4575 61.3583 56.062 61.5283 56.6421C62.1751 56.7851 62.8757 56.4283 62.8783 56.1911C62.8958 54.6153 64.2746 55.6294 64.9148 55.4432C65.5126 55.2691 65.544 56.1131 65.6054 56.7126C64.5436 56.6317 64.0122 57.2534 63.9937 58.0157C63.9766 58.7294 64.7624 58.6058 65.3335 58.5562C65.5848 59.3449 64.959 59.4814 64.3406 59.5386C63.7046 59.5977 63.1394 59.7289 62.7181 60.1709C62.3089 60.4765 61.9368 60.8261 61.4469 61.0422C61.2899 61.0664 61.133 61.0599 60.9772 61.0193C60.7121 60.9112 60.4047 60.7832 60.4272 60.4949C60.5387 59.0745 60.002 57.7009 59.9326 56.2957C59.9245 54.7923 60.3028 53.3605 60.805 51.9512C60.9422 51.94 61.0801 51.9288 61.2172 51.9175Z" fill="#423D44"/>
<path fill-rule="evenodd" clip-rule="evenodd" d="M25.8293 7.57096C23.9925 6.55678 23.6907 5.67891 24.7574 4.1938C25.247 3.51142 25.9597 2.9822 26.7443 2.57752C27.4462 2.21621 28.1459 2.14492 28.5721 3.0287C28.7287 3.35296 29.0444 3.61714 29.2698 3.91907C30.2923 5.29481 30.213 6.1513 28.9526 7.47216C28.4528 7.1934 28.447 6.71576 28.2992 6.20864C28.116 6.84836 28.4393 7.1991 28.9517 7.47339C28.8562 7.70114 28.7607 7.92888 28.6645 8.15654C27.5906 8.52034 26.6454 8.32468 25.8293 7.57096Z" fill="#E8A7FE"/>
<path fill-rule="evenodd" clip-rule="evenodd" d="M21.0221 10.6551C20.6232 10.2904 20.2274 9.9682 19.6494 9.77749C17.9991 9.23305 17.7414 8.90441 17.7823 7.76225C17.8143 6.85246 18.8063 5.76019 19.9157 5.52048C21.7209 5.13075 22.676 5.41926 23.0009 7.15885C23.1828 8.12969 22.9139 9.07195 23.124 10.0228C22.5688 10.5855 21.7961 10.621 21.0221 10.6551Z" fill="#E8A9FE"/>
<path fill-rule="evenodd" clip-rule="evenodd" d="M13.4367 20.9353C13.3458 20.3602 13.5278 19.8414 13.7973 19.3394C16.6975 21.4092 19.9259 22.7762 23.6187 23.1474C24.1756 23.3375 24.4757 23.1168 24.636 22.6703C24.9583 22.5339 25.1817 22.16 25.7466 22.4019C25.368 23.0397 25.5748 23.7889 25.3088 24.4673C24.8526 24.6119 24.3705 24.6471 23.8901 24.6864C19.976 24.4379 16.558 23.033 13.4367 20.9353Z" fill="#48444B"/>
<path fill-rule="evenodd" clip-rule="evenodd" d="M47.878 65.8077C47.9782 65.6341 48.0791 65.4605 48.1953 65.2614C47.9386 65.0051 46.7097 65.8101 47.2793 64.6359C47.315 64.0857 47.5406 63.577 47.6679 63.0468C48.2982 63.1262 48.9564 63.0411 49.5502 63.3441C49.5002 63.4423 49.5134 63.5637 49.6169 63.5857C49.7004 63.6033 49.785 63.4953 49.8347 63.4111C50.0163 63.3652 50.1496 63.4224 50.24 63.5699C50.4314 63.9132 50.7591 64.2096 51.139 64.2536C52.0116 64.3547 52.3977 64.8115 52.3351 65.4881C52.2578 66.3214 53.4346 66.3361 53.5806 67.0377C51.7187 66.7903 51.7187 66.7903 50.952 67.6661C51.2812 68.0122 52.3639 67.8729 51.8659 68.7536C51.0683 68.8196 50.2732 68.9514 49.4657 68.7579C48.8197 68.0585 48.2256 67.3748 49.3158 66.5997C49.4546 66.501 49.0734 66.3378 48.896 66.2384C48.5405 66.1252 48.187 66.0089 47.878 65.8077Z" fill="#684D73"/>
<path fill-rule="evenodd" clip-rule="evenodd" d="M41.141 38.9292C41.8337 38.6864 41.8826 37.9172 41.8424 37.5898C41.7459 36.8074 42.1035 36.2359 42.4108 35.586C43.8481 35.9504 45.3023 36.319 46.7564 36.6875C46.7765 37.3582 46.3199 37.8339 45.9412 38.3426C45.5321 38.2215 45.0571 38.3217 44.7006 38.0197C44.4828 37.7488 44.523 37.3845 44.2344 36.9671C44.2177 37.5477 44.5379 37.8124 44.7951 38.1022C45.1059 38.3016 45.5393 38.3421 45.7389 38.6863C45.4572 39.4177 45.0418 40.0837 44.5219 40.6975C44.5131 41.0041 44.5261 41.306 44.7444 41.573C44.8134 42.0176 45.4072 42.2343 45.4063 42.7111C45.7801 43.1323 45.6627 43.4951 45.1824 43.701C44.799 43.8647 44.5905 43.518 44.3539 43.3016C43.7512 42.7494 43.409 42.003 42.6718 41.5526L42.6911 41.5623C42.5631 41.4617 42.5085 41.3379 42.5235 41.1913C42.9909 40.4914 42.524 39.7358 42.6103 38.9403C42.2332 39.0894 41.9891 39.4654 41.5315 39.3751C41.2779 39.3092 41.0838 39.2037 41.141 38.9292Z" fill="#403A43"/>
<path fill-rule="evenodd" clip-rule="evenodd" d="M57.6136 77.9806C56.7418 78.1438 55.887 78.1746 55.106 77.6546C54.967 77.5633 54.9223 77.4461 54.9704 77.3015C55.4533 76.8892 55.5081 76.3381 55.5547 75.7852C55.7932 75.3998 55.7508 74.923 56.0188 74.5439C56.2053 74.4216 56.4168 74.36 56.6482 74.3409C57.4994 74.2715 57.4952 75.0101 57.8789 75.387C57.6343 75.0319 57.3563 74.6954 57.5332 74.2556C58.5587 73.8283 59.7681 73.9982 60.7857 73.5733C61.8402 73.1329 61.643 74.3501 62.2851 74.439C63.9143 75.0932 62.3395 75.6143 62.2568 76.2008C61.672 76.7879 60.9873 77.1513 60.0332 76.984C58.9449 76.7922 58.7022 78.1577 57.6136 77.9806Z" fill="#463B4B"/>
<path fill-rule="evenodd" clip-rule="evenodd" d="M59.9333 56.2957C60.0034 56.5405 60.0075 56.8219 60.1549 57.0239C60.9647 58.1374 61.0146 59.3182 60.7915 60.549C60.7727 60.6524 61.0973 60.8127 61.2629 60.9467C61.1649 61.0651 61.0247 61.1884 61.0504 61.3306C61.0651 61.4154 61.1552 61.3669 61.1327 61.2103C61.1181 61.1129 61.186 61.0235 61.2621 60.9473C61.5848 60.5795 61.8378 60.1256 62.4988 60.1713C62.5692 60.1853 62.6388 60.1986 62.7101 60.2107C63.0476 60.3471 63.3729 60.5021 63.6675 60.7095C64.3316 61.2492 64.3869 62.133 65.1082 62.6389C65.0403 63.1182 64.7049 63.4282 64.2857 63.6864C63.2617 64.3668 62.8961 63.6503 62.5057 62.9876C62.4942 62.7849 62.2313 63.0543 62.4414 62.9737C62.781 63.8589 62.5033 64.2549 61.4079 64.0034C61.2924 63.9062 61.1976 63.7949 61.1161 63.6745C60.9693 63.4364 60.8302 63.1919 60.5996 63.0011C60.0706 62.207 58.965 62.9094 58.3775 62.2774C58.6783 61.5016 58.9777 60.725 59.2784 59.9492C59.417 59.7474 59.8141 59.6076 59.4559 59.2887C59.6164 58.2903 59.7752 57.2931 59.9333 56.2957Z" fill="#4F4155"/>
<path fill-rule="evenodd" clip-rule="evenodd" d="M19.047 35.2652C21.3646 34.9458 23.6796 34.6106 26.0015 34.3178C26.553 34.2483 27.1387 34.1423 27.6973 34.3982C27.8115 34.7039 28.0826 34.9539 28.1291 35.2854C28.2092 35.8812 27.9208 36.2658 27.2484 36.2876C26.7283 36.3047 26.2719 36.4085 25.8475 36.6461C25.0923 36.8236 25.6627 37.5337 25.2643 37.8567C24.872 38.5437 24.245 38.7209 23.461 38.3979C22.7419 38.1022 22.7212 37.5853 22.9833 37.0255C22.8812 36.8571 23.5438 36.8956 23.125 36.687C22.103 36.1776 20.9228 36.9932 19.8744 36.316C19.4324 36.0303 18.73 35.9815 19.047 35.2652Z" fill="#674E72"/>
<path fill-rule="evenodd" clip-rule="evenodd" d="M47.2175 34.1434C47.1652 33.5931 46.6568 33.8177 46.3248 33.7234C46.1363 33.1705 46.6808 32.8066 46.7831 32.3255C46.3857 32.0967 45.8195 32.854 45.5865 32.0708C45.021 32.4449 45.3645 33.0757 45.1108 33.7148C44.5983 33.096 44.8393 32.4179 44.1352 32.0244C43.6512 31.7536 43.9858 31.3144 44.4415 30.9443C45.1299 30.3847 44.977 30.1659 43.8939 29.8509C43.6722 29.6806 43.6161 29.4703 43.6857 29.2307C43.9926 28.8684 44.442 28.8654 44.9085 28.8464C46.3707 28.7851 46.6562 28.4115 46.6526 27.0692C46.6499 25.9859 45.9008 24.8906 46.5935 23.8198C47.8088 26.1897 47.8534 28.6929 47.725 31.1715C47.6737 32.1512 47.6738 33.2007 47.2175 34.1434Z" fill="#3A373C"/>
<path fill-rule="evenodd" clip-rule="evenodd" d="M25.8293 7.57102C26.7737 7.76726 27.7198 7.96235 28.6643 8.15792C29.0921 9.32551 29.557 10.4809 30.1684 11.5922C30.9711 13.0533 31.0653 14.6401 31.3069 16.1989C30.3165 15.6358 30.186 14.3208 28.8838 14.0305C27.9353 11.8531 26.9481 9.68903 25.8293 7.57102Z" fill="#413D43"/>
<path fill-rule="evenodd" clip-rule="evenodd" d="M41.1929 19.8643C40.9883 18.6525 40.8123 17.4356 40.5669 16.2288C40.4461 15.6374 40.6343 15.2478 41.3864 14.8973C43.2942 16.6119 44.6 18.6772 45.6117 20.9079C45.547 21.1073 45.5782 21.3038 45.6268 21.5071C45.7003 21.8164 45.7213 22.1461 45.3352 22.2887C44.8372 22.4717 44.609 22.1313 44.4049 21.8105C44.2331 21.5419 44.0822 21.2632 43.833 21.0386C43.7287 20.9308 43.6456 20.8109 43.5802 20.6825C43.4932 20.4397 43.4786 20.1998 43.6601 19.8589C42.808 20.0713 42.0905 20.5658 41.2213 20.2571C41.1256 20.1289 41.1166 19.9981 41.1929 19.8643Z" fill="#3F3C41"/>
<path fill-rule="evenodd" clip-rule="evenodd" d="M41.141 38.9292C41.2752 39.0159 41.4095 39.1026 41.5429 39.1892C41.7188 39.4122 41.5965 39.5865 41.4458 39.7579C41.084 40.0667 40.6791 40.2698 40.1403 40.1428C40.0734 40.1005 40.0074 40.0576 39.9405 40.0153C39.8598 39.6722 39.6422 39.4923 39.2299 39.4651C38.7011 39.4296 38.4086 39.1308 38.284 38.6881C37.5478 38.5689 37.6164 37.9666 37.387 37.5438C37.3614 37.443 37.3367 37.3416 37.3111 37.2415C37.2896 36.9158 37.2344 36.5685 37.7913 36.5794C38.0164 36.8217 38.3436 36.7081 38.6169 36.7858C38.7665 36.871 38.9213 36.9074 39.0724 36.8069C39.1724 36.7403 39.1405 36.6661 38.9937 36.6019C38.0169 35.4211 37.0396 34.2389 36.0629 33.0574C36.5055 32.7512 36.9785 32.4822 37.4327 32.1921C38.4764 33.131 39.3683 34.169 40.0888 35.3176C39.5251 35.4491 39.3019 35.7842 39.6974 36.1893C39.9453 36.4432 39.9677 37.2493 40.7325 36.7586C41.0034 36.5845 41.2026 36.6798 41.2469 36.8806C41.2959 37.0993 41.3841 37.5797 41.2481 37.5443C39.9974 37.2175 40.8469 38.7546 39.8003 38.5137C40.2462 39.1136 40.7786 38.6746 41.141 38.9292Z" fill="#49404D"/>
<path fill-rule="evenodd" clip-rule="evenodd" d="M16.8725 14.9804C17.634 14.9495 18.1041 14.4748 18.644 14.105C20.2401 16.0107 21.9334 17.848 23.6764 19.6507C23.678 19.9037 23.7041 20.2588 23.345 20.2374C22.8043 20.2058 22.7434 20.6399 22.4262 20.8083C20.295 19.0723 18.6575 16.9722 16.8725 14.9804Z" fill="#3E3A40"/>
<path fill-rule="evenodd" clip-rule="evenodd" d="M66.2086 68.619C66.6807 67.4241 67.1535 66.2299 67.6263 65.0351C68.7079 65.4362 68.3329 66.2483 68.2957 66.9214C69.4128 67.2559 69.7266 65.899 70.7565 66.1834C70.8789 66.3476 71.1185 66.5215 71.1058 66.6738C70.9695 68.334 71.35 70.0777 70.3171 71.6024C68.5898 71.2037 67.5782 70.721 68.7066 69.1404C68.8181 68.906 69.0962 68.8337 69.3339 68.6703C68.9409 68.7337 68.8446 69.0176 68.662 69.2259C68.524 69.5595 68.341 69.8822 68.0361 70.0983C67.3632 70.5755 66.448 70.2585 66.6468 69.5905C66.8223 69.0014 66.1773 68.979 66.2086 68.619Z" fill="#584560"/>
<path fill-rule="evenodd" clip-rule="evenodd" d="M29.1351 24.2755C29.6977 24.2028 30.2602 24.1307 30.8235 24.0587C30.8824 24.7529 31.2696 25.2808 31.8094 25.7952C33.071 26.997 34.2224 28.2808 35.0768 29.7476C34.7908 30.249 34.8191 30.7782 34.9501 31.3174C34.9431 31.461 34.884 31.5842 34.7834 31.6929C33.8367 31.0824 33.1541 30.2547 32.5193 29.4149C31.6183 28.2226 30.5974 27.1294 29.4375 26.1307C29.3004 25.7768 30.3897 25.6028 29.5894 25.1527C29.8373 24.7089 28.9928 24.6808 29.1351 24.2755Z" fill="#4E4651"/>
<path fill-rule="evenodd" clip-rule="evenodd" d="M70.7565 66.1833C70.758 66.431 70.7595 66.678 70.7617 66.9753C70.5057 66.7867 70.3013 66.6358 70.1002 66.4881C69.5354 66.709 70.076 67.2971 69.4367 67.6113C68.9219 67.5541 68.1826 67.0586 67.403 67.6138C67.6442 66.7123 68.6134 65.947 67.6263 65.0358C67.9211 63.9689 68.2812 62.9141 68.0291 61.7735C67.9302 61.3252 68.123 60.9903 68.9184 60.8994C69.1088 62.7643 69.9836 64.4603 70.7565 66.1833Z" fill="#423C45"/>
<path fill-rule="evenodd" clip-rule="evenodd" d="M38.8391 62.631C38.6308 62.9994 38.1957 63.0403 37.8245 63.0676C36.6198 63.1565 35.6144 63.6792 34.5536 64.0854C33.2891 63.5242 32.0234 62.9614 30.6741 62.3622C31.2821 61.1352 32.4271 61.0631 33.6193 61.0697C34.3319 61.517 33.258 62.1471 34.0104 62.6716C34.5113 62.8053 35.0827 62.5744 35.826 62.4316C35.064 62.3186 34.5342 62.7666 33.8048 62.5426C33.7365 61.5055 34.186 60.976 35.4486 61.1257C36.6752 61.087 37.8793 61.2068 39.0463 61.6042C38.9647 61.8551 38.6801 61.863 38.4982 61.961C38.3532 62.0911 38.2959 61.8539 38.4471 62.0123C38.5991 62.1707 38.3203 62.0014 38.5473 61.9684C38.7735 61.936 38.7407 62.1781 38.7119 61.9806C38.96 62.1776 39.0256 62.3903 38.8391 62.631Z" fill="#524658"/>
<path fill-rule="evenodd" clip-rule="evenodd" d="M43.7772 29.2386C43.8166 29.4428 43.8546 29.6461 43.894 29.8503C43.6431 30.4115 42.8286 30.1021 42.4897 30.5267C42.496 31.1061 43.0492 30.6342 43.4308 31.0102C42.3404 31.3786 41.7099 32.2203 40.6221 32.5061C41.7159 34.2345 41.7428 34.5468 40.8538 35.2584C40.4638 34.6667 40.235 34.0466 40.3554 33.363C40.0553 32.5951 40.3039 31.843 40.3987 31.0954C40.5449 29.9414 40.7687 28.7983 40.9604 27.6506C41.587 27.9035 41.4352 28.5584 41.8235 28.8991C41.8916 29.1288 42.1601 28.8568 41.9612 28.9568C41.9257 28.9745 41.9255 28.9143 41.8656 28.8273C41.4451 28.2185 41.7017 27.7597 42.2162 27.356C42.7812 26.9116 43.1936 26.9502 43.7622 27.5143C43.9541 27.7051 44.7485 27.4803 44.8452 28.1323C44.8787 28.7986 44.1258 28.864 43.7772 29.2386Z" fill="#423F44"/>
<path fill-rule="evenodd" clip-rule="evenodd" d="M46.4589 23.2916C46.4809 23.3906 46.5028 23.4903 46.5255 23.5894C45.994 24.1067 45.3525 23.7785 44.7484 23.7197C44.5123 23.6967 44.2892 23.6666 44.2315 23.9392C44.1668 24.2496 44.3663 24.2433 44.6508 24.3726C46.1392 25.049 46.8322 27.108 46.1344 28.5167C45.8985 28.6034 45.6562 28.6118 45.409 28.5373C45.2651 28.4615 45.1477 28.3614 45.0551 28.2384C44.2914 26.8302 43.1585 26.4884 41.7229 27.2412C41.4853 27.3666 41.272 27.5404 40.9577 27.4256C40.7996 26.5513 40.8315 25.6923 41.1235 24.8525C41.4644 24.7814 42.2539 25.4863 42.0498 24.48C41.8974 23.7255 42.3499 23.1971 42.7338 22.6275C44.1046 22.1871 45.3612 22.33 46.4589 23.2916Z" fill="#423F44"/>
<path fill-rule="evenodd" clip-rule="evenodd" d="M50.7352 49.8391C51.1302 49.8582 51.5109 50.038 51.2195 50.3668C50.7645 50.8789 50.5851 51.3699 50.8878 51.981C51.2726 52.7567 50.5131 52.6052 50.114 52.7482C50.0561 52.8555 49.9988 52.8899 49.9397 52.8525C49.8905 52.8204 49.8617 52.7834 49.8532 52.7416C49.095 51.0157 47.5625 49.673 46.7389 47.9799C46.4997 47.2167 46.2175 46.4389 47.4863 46.2107C48.3051 47.344 49.1238 48.4774 49.9433 49.6108C50.166 49.8107 50.4058 49.9579 50.7352 49.8391Z" fill="#4A424E"/>
<path fill-rule="evenodd" clip-rule="evenodd" d="M46.0466 28.3299C46.2701 28.134 46.3854 27.8685 46.18 27.6507C45.7241 27.1693 45.3617 26.8044 45.7305 26.061C46.0307 25.457 44.8895 25.1958 44.8197 24.6087C44.1298 24.5882 44.5248 25.2875 43.9804 25.329C43.4121 25.0593 43.6977 24.6355 43.8309 24.3046C44.0085 23.8589 43.5633 23.5935 43.3302 23.1013C44.5361 23.2126 45.5031 23.6263 46.5248 23.5886L46.6137 23.6925L46.5921 23.8189C46.7467 24.7771 46.837 25.7467 47.0714 26.6912C47.364 27.8723 46.9584 28.7549 45.8523 29.5168C45.2319 29.2453 44.5227 29.0412 43.7766 29.2379C43.8254 28.7415 44.4355 28.6091 44.6192 28.2002C44.8089 27.9893 45.0347 27.9602 45.2963 28.1148C45.3191 28.2139 45.341 28.3129 45.3622 28.4125C45.6371 28.6315 45.8518 28.5328 46.0466 28.3299Z" fill="#312E33"/>
<path fill-rule="evenodd" clip-rule="evenodd" d="M69.8705 72.3677C69.496 73.4288 68.9596 74.3937 67.8944 75.0455C66.6856 74.9573 67.3985 74.0743 67.0986 73.6568C67.1209 73.889 67.2708 74.2124 66.8159 74.3285C65.8224 74.458 65.0357 74.2925 64.9065 73.2138C64.9669 72.7837 65.1275 72.3713 65.1471 71.9342L65.1363 71.9416C65.6126 71.5151 66.5668 71.5393 66.5921 70.6722C66.599 70.4061 66.9552 70.3402 67.2503 70.3155C68.1674 70.2395 69.7439 71.4719 69.8705 72.3677Z" fill="#53435A"/>
<path fill-rule="evenodd" clip-rule="evenodd" d="M48.5899 53.5424C48.4966 53.66 48.4025 53.7776 48.3091 53.8959C47.9573 54.2774 47.7323 54.7328 47.4218 55.1241C48.1227 55.457 48.5267 55.8363 47.7597 56.4305C47.6428 56.4442 47.5266 56.4574 47.4088 56.4717C47.0166 56.3058 46.6118 56.4955 46.2168 56.4076C45.5451 56.4368 44.8769 56.3996 44.2155 56.2575C43.4077 55.9369 43.3303 55.5421 44.0252 55.0716C44.5345 55.0184 44.9899 54.9171 44.8921 54.3178C45.6862 52.2668 45.6862 52.2668 48.1182 52.6403C48.244 52.7153 48.3691 52.7895 48.4948 52.8651C48.7042 53.0748 48.7509 53.2999 48.5899 53.5424Z" fill="#433D46"/>
<path fill-rule="evenodd" clip-rule="evenodd" d="M46.4589 23.2915C45.1675 22.9069 43.8715 22.5779 42.5107 22.8636C42.4406 22.8349 42.3698 22.8062 42.299 22.7781C41.2779 22.1189 41.2739 21.194 41.3772 20.2415C42.4388 20.0828 43.2615 19.0775 44.6068 19.5115C44.5732 20.1489 43.3834 20.1045 43.8583 20.8197C43.7942 20.8787 43.7275 20.9341 43.6595 20.9872C43.7351 20.9403 43.8011 20.8842 43.857 20.8182C44.9151 20.7374 44.4899 21.7668 45.0901 22.1288C45.56 21.8039 44.8991 21.0779 45.6125 20.9073C46.1947 21.6256 46.3761 22.4466 46.4589 23.2915Z" fill="#312E33"/>
<path fill-rule="evenodd" clip-rule="evenodd" d="M39.0013 54.7617C38.8244 54.9795 38.6483 55.1973 38.472 55.4158C37.1521 55.1026 35.8845 54.6666 34.6881 54.0636C34.4566 53.6886 34.2497 53.3101 34.4461 52.878C34.4226 52.7794 34.3983 52.6808 34.3747 52.5829C34.9789 52.3935 35.4796 51.9473 36.2033 52.0516C36.6943 52.4443 37.1849 52.8403 37.7099 53.1978C38.4042 53.6703 37.6512 52.9217 37.9049 53.005C38.1461 52.6473 38.3428 52.2494 38.9342 52.3006C39.3253 52.6175 40.1341 52.6834 39.8208 53.4249C40.4461 54.3605 39.61 54.3569 38.9723 54.4792C38.6874 54.5887 38.8802 54.6733 39.0013 54.7617Z" fill="#55445C"/>
<path fill-rule="evenodd" clip-rule="evenodd" d="M47.4863 46.2107C46.82 46.6527 46.7555 47.3077 46.7389 47.9799C45.1724 45.938 44.1466 43.6374 42.6719 41.5513C43.8326 41.8457 44.3198 42.8072 45.0434 43.5047C45.4974 43.3217 45.3809 42.9923 45.4065 42.7098C46.2416 43.8144 46.9526 44.9733 47.4863 46.2107Z" fill="#4D4153"/>
<path fill-rule="evenodd" clip-rule="evenodd" d="M61.4564 63.7257C61.9505 64.1061 62.1982 63.8368 62.3164 63.448C62.4234 63.0959 61.8826 62.6757 62.4543 62.307C62.854 62.9862 63.0165 63.954 64.2857 63.6858C63.5039 64.741 62.5884 65.6741 61.2844 66.2504C60.8956 66.2361 60.5112 66.4204 59.9928 66.1949C60.1535 65.5343 59.8102 64.9149 59.4715 64.294C59.5492 62.63 60.6909 63.6538 61.4564 63.7257Z" fill="#5F4968"/>
<path fill-rule="evenodd" clip-rule="evenodd" d="M65.1091 62.6384C64.6723 62.5326 64.234 62.4272 63.63 62.2808C64.3558 61.5954 63.6592 61.1787 63.3071 60.686C62.9955 60.5674 62.7401 60.3802 62.502 60.1704L62.4982 60.1699C62.574 59.3244 63.1628 59.0381 64.0264 59.1883C64.7185 59.3087 65.143 59.1502 65.3329 58.5547C65.45 58.5397 65.5672 58.5246 65.6844 58.5089C66.0366 58.8151 65.9606 59.1937 65.9487 59.5621C66.1264 60.697 65.7552 61.7003 65.1091 62.6384Z" fill="#363239"/>
<path fill-rule="evenodd" clip-rule="evenodd" d="M21.0221 10.6551C21.6077 10.1664 22.2986 9.93152 23.124 10.0228C23.733 11.4187 24.6605 12.7045 25.0745 14.1694L24.9739 14.2848C24.5875 14.5471 24.1298 14.723 23.7809 15.0313C23.1366 14.2318 22.8087 13.3012 22.362 12.4236C22.0246 11.7621 21.6317 11.1507 21.0221 10.6551Z" fill="#474449"/>
<path fill-rule="evenodd" clip-rule="evenodd" d="M55.9334 74.7207C56.3049 75.1114 56.2974 75.4436 55.7742 75.6964C55.236 75.9902 54.6761 75.8994 54.1119 75.7258C53.4884 74.8118 54.3886 74.2875 54.7241 73.6243C54.7553 73.4315 54.5961 73.3511 54.4393 73.269C54.3186 73.214 54.225 73.1363 54.1546 73.0367C55.7516 72.5511 57.3516 72.0901 59.0759 72.7299C59.0439 72.7922 59.012 72.8545 58.9816 72.917C58.5429 73.2838 58.0363 73.5862 57.6498 74.0036C57.6261 74.0669 57.6003 74.1293 57.5744 74.1917C57.5404 75.0799 58.4153 75.2742 59.0284 75.7729C58.5068 75.7463 57.9852 75.7198 57.4606 75.6928C57.2565 75.2611 57.5524 74.5562 56.6218 74.6306C56.3461 74.4295 56.1152 74.4507 55.9334 74.7207Z" fill="#6A4F76"/>
<path fill-rule="evenodd" clip-rule="evenodd" d="M57.6136 77.9806C57.8049 77.3305 59.5278 77.7093 58.516 76.2519C60.044 76.7914 61.1591 76.7778 62.1485 76.0946C62.8497 75.3378 63.6045 74.8238 64.6747 75.7191C64.7783 75.8455 64.8508 75.9842 64.8953 76.1342C64.9662 76.8847 64.4 76.9683 63.7604 76.9768C63.4947 76.991 63.2217 76.9655 62.9443 77.0264C63.0519 77.243 63.3043 77.1268 63.4618 77.2217C63.6143 77.2705 63.7417 77.345 63.8482 77.4477C63.2146 78.0797 62.3018 77.904 61.4918 78.0273C61.1302 77.9642 60.6639 77.3391 60.4642 78.15C59.5061 78.2812 58.558 78.1708 57.6136 77.9806Z" fill="#674E72"/>
<path fill-rule="evenodd" clip-rule="evenodd" d="M50.5949 76.3689C49.7468 76.2407 48.9016 76.1069 47.9512 75.5206C49.3439 74.4695 51.112 74.3254 52.4904 73.5635C53.4677 73.4367 53.0417 74.3857 53.5447 74.6254C53.6255 74.7517 53.6638 74.8848 53.6638 75.0267C53.6015 75.2377 53.4628 75.3973 53.261 75.515C52.3517 75.7492 51.5757 76.2934 50.5949 76.3689Z" fill="#58485F"/>
<path fill-rule="evenodd" clip-rule="evenodd" d="M28.5918 48.0528C29.1468 48.5858 29.1724 49.4585 29.9972 49.8381C30.4673 49.5185 29.5132 48.9679 30.1979 48.8272C31.0584 48.6513 31.5234 49.2622 32.0281 49.7349C31.0937 50.9085 30.7933 51.0322 29.6826 50.4175C28.9398 50.0059 28.0043 49.7432 27.6667 48.885C27.1419 48.9651 26.9608 49.7796 26.2115 49.3779C25.9309 48.7662 26.7296 48.679 26.8731 48.2759C27.4458 48.201 28.0191 48.1276 28.5918 48.0528Z" fill="#5E4A67"/>
<path fill-rule="evenodd" clip-rule="evenodd" d="M46.2562 64.735C45.8639 65.1443 45.8113 64.4543 45.5188 64.5387C45.0295 64.3362 44.5574 64.2334 44.1805 64.6841C43.8686 64.593 43.7349 64.3786 43.6699 64.1171C43.5805 63.7522 43.3062 63.6202 42.9155 63.6331C42.2478 63.4314 41.7439 62.9461 40.9758 62.8645C40.4045 62.8037 39.7056 62.5045 40.4073 61.7994C41.2527 61.8691 42.0982 61.9381 42.9444 62.0079C43.5281 62.7578 44.2713 62.7461 45.0819 62.4142C45.9046 62.4282 46.6673 62.6469 47.3924 62.9989C47.1986 63.6754 46.7313 64.2073 46.2562 64.735Z" fill="#684D73"/>
<path fill-rule="evenodd" clip-rule="evenodd" d="M45.2969 28.1161C45.0712 28.1446 44.8455 28.1731 44.6198 28.2016C44.5222 27.9648 44.436 27.6599 44.0576 27.8202C43.736 27.9559 43.8525 28.5515 43.3234 28.4691C42.4645 28.1316 43.559 27.6619 43.1041 27.2897C42.4906 27.302 42.4124 27.8951 42.0191 27.9973C41.752 28.7277 43.6537 29.5525 41.7628 30.1217C41.4822 29.2571 41.2221 28.454 40.9612 27.6507C40.8887 27.5742 40.8873 27.4991 40.9585 27.4256C41.0833 27.3292 41.2341 27.2501 41.3288 27.1339C41.7662 26.5983 42.2626 26.0144 43.0985 26.3846C43.9769 26.7728 45.3578 26.7557 45.2969 28.1161Z" fill="#3A373C"/>
<path fill-rule="evenodd" clip-rule="evenodd" d="M23.2164 36.8942C23.386 37.3043 22.7943 37.8484 23.6571 38.1597C24.4881 38.4584 24.7569 37.9991 25.1123 37.5691C25.8233 37.3374 26.288 37.6914 26.4216 38.2216C26.6384 39.081 25.6687 39.0723 25.1446 39.3812C22.9721 38.9271 21.0613 37.8671 18.9957 37.1653C20.0043 36.6971 22.4009 36.5432 23.2164 36.8942Z" fill="#72557F"/>
<path fill-rule="evenodd" clip-rule="evenodd" d="M36.0266 35.8303C35.7813 35.8704 35.5361 35.9092 35.2907 35.9493C34.7388 36.4969 34.7521 37.5253 33.5741 37.5392C33.3671 37.4462 33.2486 37.2932 33.1972 37.1063C33.1457 37.0746 33.2649 36.8517 33.0375 37.0111C32.5575 37.9121 31.7304 37.9463 30.7846 37.693C30.6621 37.5977 30.5801 37.4806 30.5364 37.3422C30.9544 36.4958 31.1071 35.5915 31.1845 34.6705C32.8244 34.9662 34.4788 35.2048 36.0266 35.8303Z" fill="#6F507C"/>
<path fill-rule="evenodd" clip-rule="evenodd" d="M25.1447 39.3806C25.2069 38.8062 25.9756 38.8271 26.2272 38.4151C26.0426 37.9048 25.578 37.7354 25.1123 37.5685C25.1942 37.198 24.863 36.6529 25.624 36.5698C25.8323 36.6716 26.0558 36.7165 26.2854 36.6998C28.1553 36.5669 29.1578 37.2291 29.7992 39.029C29.7458 39.1676 29.6477 39.2746 29.5064 39.3502C28.1107 38.9748 26.7778 39.5891 25.3963 39.4502C25.2973 39.4715 25.2138 39.4479 25.1447 39.3806Z" fill="#4E4153"/>
<path fill-rule="evenodd" clip-rule="evenodd" d="M23.2164 36.8942C22.6225 36.9558 21.7304 36.2964 21.5682 37.4323C21.5399 37.6315 21.2062 37.3598 21.0096 37.3122C20.3481 37.1527 19.6818 36.9452 18.9951 37.1646C18.8984 37.1855 18.8087 37.1691 18.7274 37.115C18.2765 36.679 17.4165 36.5553 17.415 35.7765C17.9945 35.6898 18.3505 35.082 19.0462 35.2658C19.2247 35.881 19.6243 36.0425 20.3262 35.9226C20.643 35.8685 20.8875 36.8544 21.4293 36.0801C21.6069 35.8257 21.9382 35.9326 22.205 36.0262C22.9945 36.3044 23.7946 36.5706 24.5213 37.0765C23.8922 37.6969 23.6251 36.9384 23.2164 36.8942Z" fill="#524658"/>
<path fill-rule="evenodd" clip-rule="evenodd" d="M31.1854 34.67C32.1166 35.783 31.3934 36.6267 30.6963 37.4735C29.2854 37.7712 28.8841 37.2597 29.2711 35.6209C28.8011 35.3719 28.1027 35.5751 27.7631 35.0424C27.6531 34.8323 27.3194 34.6341 27.6973 34.3982C28.8804 34.1823 30.0291 34.4819 31.1854 34.67Z" fill="#584560"/>
<path fill-rule="evenodd" clip-rule="evenodd" d="M69.8705 72.3676C69.6427 71.2146 68.3873 71.0798 67.5388 70.5656C67.1598 70.3358 66.8096 70.5751 66.7755 71.0445C66.7537 71.3455 67.1075 71.5829 66.9115 71.9809C66.3388 71.8644 65.7344 71.8578 65.1371 71.941C65.0774 71.5992 65.0831 71.2694 65.3139 70.9767C65.7964 70.7717 65.8674 70.4594 65.5931 70.0558C65.6937 69.539 65.8125 69.0285 66.2095 68.6177C66.3571 68.9295 67.2528 68.6883 66.9162 69.3794C66.8045 69.6099 66.8455 69.9059 67.177 70.0289C67.5577 70.1713 67.8536 70.0036 68.0348 69.7261C68.2319 69.4239 68.3474 69.0702 68.8149 69.0059L68.8163 69.0067C69.1083 69.5442 68.5261 69.9316 68.5152 70.4835C69.1191 70.8399 69.85 71.0641 70.3195 71.6014C70.2749 71.9089 70.1311 72.1662 69.8705 72.3676Z" fill="#6D517A"/>
<path fill-rule="evenodd" clip-rule="evenodd" d="M62.1922 74.5534C62.1008 74.6117 62.0046 74.6661 61.9172 74.7296C61.6781 74.9043 61.4837 75.3139 61.1003 74.9337C60.7345 74.5717 61.1149 74.4197 61.4132 74.2631C61.5672 74.183 61.6408 74.0529 61.4934 73.7772C60.2392 74.0895 58.9881 74.7539 57.5737 74.1916L57.5836 74.2036C57.6066 73.4171 58.344 73.1992 58.935 72.8638C58.9836 72.8202 59.03 72.7758 59.0759 72.7299C60.3106 72.8287 61.4664 73.2 62.6122 73.6096C62.794 73.6299 62.8826 73.7237 62.8935 73.8816C62.7963 74.2162 62.7773 74.6185 62.1922 74.5534Z" fill="#694E74"/>
<path fill-rule="evenodd" clip-rule="evenodd" d="M52.3761 39.0384C52.7562 38.5118 53.0406 37.74 53.989 38.4913C54.8211 39.1513 55.1264 38.1413 55.8294 38.1166C56.4545 38.7459 56.0027 39.8677 57.1669 40.1705C56.7495 40.7226 56.4596 40.4462 56.1711 40.3251C55.5229 40.0509 54.943 39.6225 54.1308 39.8191C53.472 39.9777 53.1016 39.0165 52.3489 39.3341C52.358 39.2349 52.367 39.137 52.3761 39.0384Z" fill="#2E2B30"/>
<path fill-rule="evenodd" clip-rule="evenodd" d="M47.7606 56.4292C48.1368 55.6199 47.6942 55.3027 46.7344 55.2129C47.6978 55.1185 47.1636 53.7806 48.3099 53.8953C48.6194 54.2096 49.0034 54.1156 49.3764 54.0737C49.8424 54.5711 50.109 55.3095 51.0805 55.1867C51.3121 55.2084 51.527 55.2749 51.7198 55.397C51.8355 55.4861 51.9192 55.5947 51.9689 55.7218C51.9788 55.8629 51.9137 55.9612 51.7634 56.0117C50.381 55.8613 49.1189 56.4362 47.7606 56.4292Z" fill="#5F4D67"/>
<path fill-rule="evenodd" clip-rule="evenodd" d="M61.4564 63.7257C61.1006 63.8994 61.2536 64.4326 60.7635 64.5135C60.2902 64.2976 60.6477 63.7207 60.1711 63.507C59.6823 63.5908 59.8288 64.1205 59.4723 64.2941C59.3843 64.1709 59.2351 63.9339 59.2176 63.9411C58.593 64.1915 58.1323 63.7737 57.6132 63.6097C57.2821 63.3041 57.4369 63.0074 57.6 62.7104C57.6565 62.6698 57.7145 62.6301 57.7717 62.5903C57.9741 62.4861 58.1766 62.3812 58.3791 62.2763C59.3834 61.8865 60.2536 62.0141 60.936 62.8618C61.125 63.0275 61.1061 63.3235 61.397 63.4248L61.4294 63.5752L61.4564 63.7257Z" fill="#694E75"/>
<path fill-rule="evenodd" clip-rule="evenodd" d="M36.3957 48.5816C35.4731 48.6529 34.5118 49.0693 33.7101 48.1923C33.5089 47.9716 33.1513 48.0548 32.9763 48.2821C32.5706 48.8069 32.2395 48.8652 31.9127 48.2037C31.7699 47.9152 31.561 48.0789 31.3683 48.1589C30.8281 48.3836 30.3915 48.134 29.9584 47.8748C32.4286 47.5353 34.9049 47.3068 37.4178 47.7498C37.2877 48.2295 36.9031 48.4646 36.3957 48.5816Z" fill="#664F70"/>
<path fill-rule="evenodd" clip-rule="evenodd" d="M48.9502 65.9641C49.4426 65.9443 49.9357 66.0049 49.9945 66.5325C50.0435 66.9673 49.8523 67.2087 49.2078 67.1148C48.941 67.0767 48.8234 67.6269 49.0879 67.8687C49.388 68.143 49.661 68.3591 49.4655 68.7592C48.3035 68.9082 47.1532 69.2024 45.9536 68.8859C46.5083 68.358 47.0956 67.8495 47.3083 67.1117C48.0574 66.9529 48.1308 66.0461 48.9502 65.9641Z" fill="#755483"/>
<path fill-rule="evenodd" clip-rule="evenodd" d="M25.3955 39.4501C25.5582 39.4166 25.7232 39.388 25.8836 39.3482C26.3864 39.2253 29.1649 39.0868 29.6331 39.1651C31.0393 39.3063 30.8434 39.9324 30.2615 40.675C28.5811 40.4687 26.9656 40.0362 25.3955 39.4501Z" fill="#6F507C"/>
<path fill-rule="evenodd" clip-rule="evenodd" d="M42.0991 49.429C41.6039 49.8919 41.8381 50.5909 41.4465 51.1616C40.9341 51.0906 41.0977 50.5549 40.7731 50.3946C40.1176 50.6245 39.4611 50.5546 37.2344 50.0163C37.3245 49.6039 37.7368 49.581 38.0229 49.673C39.0254 49.9947 39.7457 49.3112 40.6305 49.2272C40.9551 49.1962 40.9583 48.8675 40.9588 48.6107C41.4244 48.7903 41.885 48.9739 42.0991 49.429Z" fill="#644B6F"/>
<path fill-rule="evenodd" clip-rule="evenodd" d="M40.4073 61.7994C40.2403 62.2759 40.4482 62.7141 40.9956 62.5794C42.1445 62.2963 42.423 63.0737 42.9148 63.6331C42.831 63.7599 42.7457 63.8859 42.6611 64.0126C41.5021 63.2844 39.7176 64.0064 38.8391 62.631C38.7716 62.3778 38.682 62.1374 38.375 62.0248L38.3662 62.0224C38.479 61.7399 38.7694 61.6792 39.0471 61.6043C39.5145 61.5781 39.9756 61.5905 40.4073 61.7994Z" fill="#493E4E"/>
<path fill-rule="evenodd" clip-rule="evenodd" d="M36.103 64.8268C36.6187 63.5858 36.6717 63.5682 37.7608 64.2785C38.5356 64.7135 39.5586 64.7762 40.1085 65.5481C40.0271 65.8471 39.9476 66.1357 40.3324 66.3562C40.7279 66.582 41.09 66.8445 41.1492 67.3013C39.4675 66.4761 37.785 65.6508 36.103 64.8268Z" fill="#66516F"/>
<path fill-rule="evenodd" clip-rule="evenodd" d="M55.8974 62.6291C55.4041 62.119 55.2308 61.4736 54.912 60.8893C54.6704 60.4416 54.3397 59.9475 54.8017 59.5326C55.2355 59.1437 55.7164 59.3473 56.0964 59.7364C56.4886 60.3899 56.881 61.0428 57.274 61.6964C57.6834 62.9949 56.5994 62.5949 55.8974 62.6291Z" fill="#54475A"/>
<path fill-rule="evenodd" clip-rule="evenodd" d="M65.1471 71.9342C65.3714 72.3805 65.2543 72.8089 65.1025 73.2358C65.0034 73.8082 65.5799 74.4376 64.9769 74.9695C64.5948 75.1347 64.2337 75.1606 63.9336 74.812C63.599 74.579 64.5357 74.5843 64.0367 74.331C63.4949 74.0551 63.254 73.5954 63.0222 73.1242C62.7338 72.9095 62.4454 72.6948 62.4697 72.3178C62.872 71.8328 61.7394 70.9894 62.9033 70.6828C63.5827 71.203 63.9143 71.9922 64.6892 72.4693C64.8416 72.2907 64.9939 72.1127 65.1471 71.9342Z" fill="#695473"/>
<path fill-rule="evenodd" clip-rule="evenodd" d="M52.7194 33.6972C52.4793 32.6075 52.2392 31.5178 51.9991 30.4281C51.9361 30.0819 51.3805 29.6591 52.1602 29.4432C53.0407 30.358 53.9211 31.2734 54.8015 32.1889C54.0328 32.6116 53.5834 33.3752 52.7194 33.6972Z" fill="#454247"/>
<path fill-rule="evenodd" clip-rule="evenodd" d="M53.3644 58.5755C52.7213 57.7721 52.2206 56.9019 51.7634 56.0117C51.8178 55.9762 51.8682 55.9362 51.9138 55.8923C52.3429 55.5604 52.6363 55.8265 52.8899 56.1145C53.1634 56.4264 53.4296 56.4323 53.7366 56.1991C54.3775 56.9092 54.9668 57.6445 55.2391 58.5335C55.4082 59.2566 55.0943 59.4782 54.3635 59.1296C54.0232 58.9674 53.7725 58.6551 53.3644 58.5755Z" fill="#57495E"/>
<path fill-rule="evenodd" clip-rule="evenodd" d="M48.1184 52.6383C47.4047 53.3614 46.779 52.706 46.1072 52.4141C45.4752 52.966 45.8094 53.9809 44.8923 54.3158C44.746 54.0684 43.9784 54.0565 44.5044 53.5531C44.617 53.4452 44.8244 53.2446 44.8004 53.2176C43.7265 52.0248 44.7817 52.0601 45.6675 51.9434C45.8194 51.9233 45.9164 51.6335 46.039 51.4686C46.7698 51.8052 47.6157 51.9759 48.1184 52.6383Z" fill="#634D6D"/>
<path fill-rule="evenodd" clip-rule="evenodd" d="M52.7194 33.6972C53.1797 32.9443 53.6989 32.2549 54.8014 32.1889C55.2479 32.4691 55.5939 32.82 55.792 33.2758C55.9561 33.3909 55.9859 33.525 55.8827 33.6796C55.6504 33.8236 55.4106 33.8557 55.1584 33.6983C54.6705 33.7929 54.4801 33.4344 54.2233 33.1848C53.4051 33.5232 53.6014 34.2349 53.4488 34.8229C53.3536 35.1911 53.2456 35.7117 52.5972 35.1865C52.4854 34.6765 52.6106 34.1875 52.7194 33.6972Z" fill="#373439"/>
<path fill-rule="evenodd" clip-rule="evenodd" d="M34.4461 52.878C34.8227 53.2333 34.9385 53.6241 34.6881 54.0636C33.5855 53.6915 32.5979 53.1247 31.6005 52.5748C31.3143 52.1323 30.8765 51.924 30.3191 51.8984C29.9267 51.7773 29.5361 51.6538 29.2407 51.3727C30.1014 51.164 31.0379 51.7024 31.9033 51.1591C32.2632 50.9337 32.6746 51.2578 32.6861 51.696C32.6933 51.9892 32.5142 52.2863 32.8262 52.5989C33.3198 52.7612 33.872 52.8718 34.4461 52.878Z" fill="#5D4866"/>
<path fill-rule="evenodd" clip-rule="evenodd" d="M62.9034 70.6821C62.5593 70.9208 62.6853 71.173 62.8748 71.4525C63.1772 71.899 63.0447 72.1998 62.4697 72.3178C61.864 71.7224 61.2273 71.1445 61.0005 70.3354C61.0634 69.8541 60.991 69.4185 60.4434 69.1472C60.3277 68.5203 60.8414 68.4877 61.3203 68.4228C62.1104 69.0362 62.4249 69.9029 62.9034 70.6821Z" fill="#504754"/>
<path fill-rule="evenodd" clip-rule="evenodd" d="M69.6673 76.5983C71.19 77.5211 72.9464 78.1889 73.9446 79.7262C72.5035 78.9118 70.8464 78.5344 69.4759 77.6451C69.378 77.2685 69.2682 76.8905 69.6673 76.5983Z" fill="#706376"/>
<path fill-rule="evenodd" clip-rule="evenodd" d="M65.0811 74.7877C65.1512 74.2725 64.2021 73.7192 65.1026 73.2351C65.6181 73.3974 65.4597 73.9465 65.8099 74.1889C66.0111 74.249 66.143 74.1816 66.2143 74.0398C66.2794 73.9107 66.3149 73.7699 66.3668 73.6251C66.6872 73.7829 66.6317 74.0563 66.7201 74.2752C66.9365 74.4088 67.0041 74.5997 66.997 74.8176C66.8169 75.3828 66.437 75.8947 66.4712 76.5183C66.269 76.7262 66.0201 76.6836 65.7641 76.6007C65.3679 76.4544 64.8645 76.4962 64.6261 76.0717C64.6119 75.9776 64.5932 75.883 64.5714 75.7887C64.5148 75.3603 65.015 75.1655 65.0811 74.7877Z" fill="#413B45"/>
<path fill-rule="evenodd" clip-rule="evenodd" d="M50.5949 76.3689C51.2539 75.591 52.0859 75.1587 53.2481 75.385C53.112 76.0178 53.5172 76.2702 54.1304 76.4766C54.5426 76.6155 54.9036 76.9067 55.0429 77.3285C55.063 77.4366 55.0837 77.5455 55.1053 77.6545C53.6022 77.2265 52.0986 76.7977 50.5949 76.3689Z" fill="#644E6E"/>
<path fill-rule="evenodd" clip-rule="evenodd" d="M42.6428 41.2327C42.6588 41.343 42.6758 41.4521 42.6919 41.5618C42.2645 41.6204 41.8372 41.6789 41.4098 41.7375C40.8008 41.632 40.1665 42.0785 39.5736 41.6197L39.5665 41.6289C40.1634 41.1898 39.3804 40.4636 39.9404 40.0166L39.9709 40.0217C40.4555 40.2685 40.8608 40.0072 41.2888 39.8939C42.4444 39.7849 42.4462 40.5851 42.6428 41.2327Z" fill="#4D4153"/>
<path fill-rule="evenodd" clip-rule="evenodd" d="M35.4494 61.1251C34.6932 61.249 34.0389 61.4697 33.9753 62.3027C34.9447 62.3943 35.6237 61.6703 36.6054 61.6804C36.791 62.4477 36.262 62.8216 35.6994 62.913C35.1374 63.0052 34.4634 63.2757 33.9136 62.9165C33.1371 62.4091 33.7286 61.6871 33.6186 61.0689C34.2304 60.9413 34.8408 60.8684 35.4494 61.1251Z" fill="#664D70"/>
<path fill-rule="evenodd" clip-rule="evenodd" d="M42.5107 22.8636C43.0987 23.4549 42.5983 23.8242 42.205 24.2168C42.3612 24.5075 42.8912 24.4094 42.9628 24.7901C41.6617 25.8799 41.6617 25.8799 41.1242 24.8526C40.8198 24.1698 41.6052 23.6595 41.4376 22.9981C41.7481 22.7118 42.1039 22.6558 42.51 22.8629L42.5107 22.8636Z" fill="#39363B"/>
<path fill-rule="evenodd" clip-rule="evenodd" d="M30.2616 40.6743C30.1975 40.1273 30.5786 39.445 29.6332 39.1644L29.6266 39.1743C30.0772 38.6176 30.9692 38.6047 31.4225 38.051C31.9047 37.6633 32.5228 37.6322 33.1316 37.5725C33.4082 37.6299 33.6469 37.7187 33.6077 38.0316C32.3179 37.9174 32.1446 39.0761 31.3756 39.5569C31.1916 39.6721 31.2582 39.9204 31.4352 40.0847C32.2079 40.803 31.2566 40.7055 30.9562 40.9162C30.6915 40.9158 30.4492 40.8633 30.2616 40.6743Z" fill="#4A3C50"/>
<path fill-rule="evenodd" clip-rule="evenodd" d="M55.1584 33.6983C55.3695 33.6654 55.5814 33.6319 55.7924 33.5996C56.1315 33.6733 56.0284 34.05 56.3004 34.1697L56.3959 34.275L56.3879 34.4079C56.4635 34.9596 56.5399 35.5115 56.6169 36.0701C56.1024 36.3628 55.4092 36.0603 55.0253 36.5182C54.6745 36.2497 54.604 35.9467 54.845 35.6024C55.3648 35.0321 54.7176 34.2804 55.1584 33.6983Z" fill="#3C393E"/>
<path fill-rule="evenodd" clip-rule="evenodd" d="M47.4189 67.0945C47.3449 67.9624 47.0827 68.7081 45.9536 68.8859C45.4636 68.9475 45.0186 68.7918 44.5757 68.6244C44.5598 68.4271 44.5446 68.2293 44.5209 67.9347C45.2089 67.8413 46.0202 68.6459 46.5093 67.9173C46.9096 67.3196 46.9468 66.6212 45.8882 66.1072C46.0162 66.0474 46.144 65.9881 46.2727 65.9284C46.6144 66.1108 46.9559 66.2939 47.2982 66.4777C47.537 66.6575 47.5923 66.8616 47.4189 67.0945Z" fill="#5C4864"/>
<path fill-rule="evenodd" clip-rule="evenodd" d="M51.7918 55.6379C51.6599 55.5508 51.5281 55.4637 51.3961 55.3772C50.575 55.0597 50.5563 54.644 51.1622 54.1505C51.1629 53.8168 50.8921 53.4779 51.2534 53.0125C51.689 53.8132 52.1307 54.5584 53.0832 54.8493L53.131 54.9729L53.1205 55.1013C53.3969 55.3888 53.4123 55.7024 53.2926 56.0844C52.7313 56.0475 52.3263 55.6339 51.7918 55.6379Z" fill="#332E36"/>
<path fill-rule="evenodd" clip-rule="evenodd" d="M53.6709 43.855C53.5306 44.2993 53.2599 44.6079 52.7718 44.1727C52.3918 43.8338 51.9781 43.787 51.5159 43.765C51.5146 43.0277 51.5492 42.2955 51.843 41.6011C52.0037 41.6322 52.3049 41.6873 52.3046 41.6899C52.1081 42.728 53.3002 43.0998 53.673 43.8566L53.6709 43.855Z" fill="#363338"/>
<path fill-rule="evenodd" clip-rule="evenodd" d="M44.0261 55.0697C43.7581 55.4983 43.8111 55.8948 44.2165 56.2556C43.2448 56.3985 42.2782 56.4391 41.3335 56.0595C42.9225 55.7008 42.9592 55.6798 42.5712 54.275C42.4541 53.8512 42.6529 53.7392 43.0071 53.6469L42.9992 53.6426C42.977 54.3181 43.5767 54.6533 44.0261 55.0697Z" fill="#634D6D"/>
<path fill-rule="evenodd" clip-rule="evenodd" d="M28.8838 14.0305C30.5308 14.2494 30.5354 14.2486 30.8963 15.5465C30.9674 15.8014 31.0523 16.0372 31.307 16.1983C31.3276 16.3025 31.3475 16.4059 31.3688 16.5102C31.2904 16.6237 31.2135 16.7373 31.136 16.8502C30.8623 16.9296 30.7135 16.8686 30.7588 16.5865C30.7368 16.4875 30.6966 16.3889 30.6958 16.2905C30.6872 15.5329 29.7602 16.1147 29.602 15.6986C29.4547 15.3106 29.7331 14.7669 28.9915 14.6357C28.9555 14.4346 28.9196 14.2329 28.8838 14.0305Z" fill="#312E33"/>
<path fill-rule="evenodd" clip-rule="evenodd" d="M33.2133 41.5773C33.7293 40.945 34.2583 40.3484 35.2087 41.1514C35.3448 41.2657 35.4749 41.3245 35.6175 41.2009C35.9223 40.936 36.1404 41.0805 36.2229 41.3595C36.3244 41.7004 35.9844 41.7396 35.7168 41.7937C35.4999 41.8373 35.2786 41.867 35.0588 41.9022C34.413 41.9547 33.7964 41.8562 33.2133 41.5773Z" fill="#574460"/>
<path fill-rule="evenodd" clip-rule="evenodd" d="M53.3644 58.5755C53.771 58.3091 54.1426 58.1674 54.4693 58.7125C55.045 59.6702 55.0184 58.7064 55.2391 58.5335C55.6706 58.8553 55.9071 59.2824 56.0957 59.7357C54.7427 59.4946 54.7427 59.4946 54.9113 60.8886C54.2174 60.2087 53.8114 59.3823 53.3644 58.5755Z" fill="#795E85"/>
<path fill-rule="evenodd" clip-rule="evenodd" d="M37.4336 32.1916C37.4167 33.015 37.0006 33.3525 36.0638 33.0569C35.6912 32.8426 35.4581 32.529 35.2617 32.1892C34.8347 31.8745 35.1143 31.5182 35.1472 31.1764C35.2605 30.9763 35.424 30.8365 35.6996 30.8402C36.3638 31.2067 36.6873 31.9194 37.4395 32.199L37.4336 32.1916Z" fill="#3A363D"/>
<path fill-rule="evenodd" clip-rule="evenodd" d="M36.3957 48.5815C36.5122 48.0901 36.9416 47.8974 37.4178 47.7505C37.9366 47.7747 38.5064 47.6801 38.8037 48.2364L38.7892 48.2861C38.5497 48.5818 38.5789 48.9927 38.2852 49.2657C38.0287 49.1867 37.7727 49.1091 37.5169 49.0309C37.3974 48.954 37.2533 48.7437 37.2083 49.0672C36.992 49.2046 36.7765 49.3413 36.5601 49.4786C36.3534 49.2967 36.0246 49.4731 35.8264 49.2655C36.0152 49.0371 36.2054 48.8097 36.3957 48.5815Z" fill="#544959"/>
<path fill-rule="evenodd" clip-rule="evenodd" d="M69.6673 76.5983C69.6597 76.9566 69.8364 77.3462 69.4766 77.6452C68.8288 77.4358 68.366 76.9924 67.8476 76.6184C67.6623 76.219 67.5193 75.8269 68.0596 75.5588C68.6192 75.875 69.2509 76.1044 69.6673 76.5983Z" fill="#594860"/>
<path fill-rule="evenodd" clip-rule="evenodd" d="M46.2562 64.735C46.3104 63.9845 46.5576 63.3359 47.3924 62.9989C47.4937 62.9639 47.5851 62.9798 47.667 63.0474C48.379 63.7595 47.8646 64.2054 47.2785 64.6365C46.9378 64.6689 46.597 64.702 46.2562 64.735Z" fill="#443B49"/>
<path fill-rule="evenodd" clip-rule="evenodd" d="M45.082 62.4135C44.8206 62.6831 45.1328 63.6118 44.3986 63.1979C43.912 62.9241 42.2977 63.4088 42.9445 62.0073C43.7055 61.9127 44.4031 62.1175 45.082 62.4135Z" fill="#765783"/>
<path fill-rule="evenodd" clip-rule="evenodd" d="M68.0596 75.5587C67.9882 75.9118 67.9175 76.2657 67.8476 76.6183C67.3949 76.4945 66.9563 76.1189 66.4719 76.519C65.7075 75.8077 66.1944 75.3257 66.8045 74.8662C67.2028 74.9826 67.5423 75.2076 67.9229 75.3567C68.0243 75.3952 68.07 75.4623 68.0596 75.5587Z" fill="#57485D"/>
<path fill-rule="evenodd" clip-rule="evenodd" d="M57.8977 42.3727C57.2323 42.3933 57.0694 43.2074 56.2315 43.1126C55.8592 42.6615 56.7047 42.261 56.1304 41.5951C57.0203 41.9392 57.5198 41.5838 58.0807 41.4199C58.2461 41.7773 58.1435 42.0878 57.8977 42.3727Z" fill="#333035"/>
<path fill-rule="evenodd" clip-rule="evenodd" d="M29.1351 24.2755C29.2592 24.5811 30.4436 24.4282 29.6336 25.1388C29.6999 25.5442 29.4246 25.8034 29.1536 26.0645C28.5757 25.9654 28.0616 25.7424 27.6095 25.4033C28.3024 25.2201 28.3879 24.4005 29.1351 24.2755Z" fill="#685371"/>
<path fill-rule="evenodd" clip-rule="evenodd" d="M42.5092 22.8634C42.1526 22.9079 41.7944 22.9529 41.4368 22.9987C41.3146 21.9556 40.948 20.9205 41.1921 19.8649C41.2533 19.9901 41.3136 20.1166 41.3749 20.2418C41.5312 21.1861 41.9795 22.0379 42.5092 22.8634Z" fill="#423F44"/>
<path fill-rule="evenodd" clip-rule="evenodd" d="M17.4158 35.776C17.7772 36.2799 18.7727 36.3011 18.7282 37.1144C18.1848 37.1915 17.7056 36.9801 17.2403 36.7792C16.4783 36.4501 16.5041 36.3322 17.4158 35.776Z" fill="#7C6386"/>
<path fill-rule="evenodd" clip-rule="evenodd" d="M53.4775 74.7342C52.9479 74.7113 52.3419 74.7607 52.8168 74.0063C52.9544 73.787 52.7117 73.6509 52.4911 73.5636C52.9283 73.1163 53.5688 73.138 54.1547 73.0361C54.2021 73.07 54.2502 73.1046 54.2983 73.1393C54.3958 73.253 54.4477 73.3797 54.447 73.5215C54.151 73.9433 54.1947 74.5821 53.4775 74.7342Z" fill="#6A4F76"/>
<path fill-rule="evenodd" clip-rule="evenodd" d="M26.0024 24.3712C26.3585 24.1768 26.1267 23.6921 26.6138 23.4683C27.1991 24.0077 26.941 24.9051 27.6071 25.4043C27.0662 25.4108 26.5602 25.3072 26.1129 25.0095C25.8786 24.8175 25.8371 24.6057 26.0024 24.3712Z" fill="#6A5674"/>
<path fill-rule="evenodd" clip-rule="evenodd" d="M35.6982 30.9076C35.6043 31.0238 35.5104 31.14 35.4171 31.257C35.2221 31.4558 35.0029 31.4991 34.7506 31.3176C34.0467 30.3362 34.0538 30.303 35.0769 29.747C35.2545 29.8945 35.4336 30.0416 35.6119 30.1893C35.7717 30.4203 35.8932 30.6532 35.6982 30.9076Z" fill="#363039"/>
<path fill-rule="evenodd" clip-rule="evenodd" d="M51.7918 55.6379C52.2382 55.5603 52.6797 55.5108 53.0186 55.8822C53.2602 55.5948 53.0897 55.3397 53.1198 55.1013C53.5297 55.3824 53.6471 55.7854 53.7373 56.1998C53.3143 56.9881 53.0653 57.0525 52.6713 56.4128C52.4771 56.098 52.2975 55.9174 51.9137 55.893C51.8654 55.8108 51.8243 55.7255 51.7918 55.6379Z" fill="#454047"/>
<path fill-rule="evenodd" clip-rule="evenodd" d="M35.6982 30.9076C35.6699 30.668 35.641 30.4283 35.6119 30.1893C36.3508 30.7683 37.0019 31.4081 37.4395 32.199C36.5134 32.1375 35.9452 31.6938 35.6982 30.9076Z" fill="#49404D"/>
<path fill-rule="evenodd" clip-rule="evenodd" d="M64.6269 76.0717C65.0046 76.2506 65.4936 76.2337 65.7648 76.6008C65.1541 76.9298 64.557 77.2832 63.8482 77.4477C63.714 77.4473 63.5789 77.4481 63.4446 77.4483C63.0179 77.0441 63.362 76.7927 63.6484 76.5295C64.1541 76.6672 64.689 76.8506 64.6269 76.0717Z" fill="#5D4A66"/>
<path fill-rule="evenodd" clip-rule="evenodd" d="M23.7809 15.032C23.5965 14.1559 23.6843 13.984 24.9746 14.2849C25.3862 15.2693 24.5297 15.1842 23.8986 15.29C23.7967 15.2246 23.7571 15.1395 23.7809 15.032Z" fill="#38363A"/>
<path fill-rule="evenodd" clip-rule="evenodd" d="M55.8974 62.6291C56.2166 62.4569 56.4769 62.2086 56.9208 62.2317C57.3323 62.2534 57.221 61.912 57.2732 61.6964C57.6318 61.9143 57.6882 62.2577 57.771 62.5903C57.7634 62.6522 57.7426 62.7105 57.71 62.766C57.2782 62.9659 57.1488 63.5868 56.4707 63.4453C56.1075 63.2656 56.0422 62.9265 55.8974 62.6291Z" fill="#796083"/>
<path fill-rule="evenodd" clip-rule="evenodd" d="M67.923 75.356C67.422 75.4337 66.9556 75.4453 66.8046 74.8655C66.7764 74.6688 66.7483 74.472 66.7208 74.2753C67.0382 74.0193 66.899 73.6457 66.9514 73.1946C67.5864 73.7923 67.1379 74.6529 67.8951 75.0456C67.9037 75.149 67.9137 75.2526 67.923 75.356Z" fill="#6B5077"/>
<path fill-rule="evenodd" clip-rule="evenodd" d="M40.3554 33.3631C40.4917 34.0006 40.8802 34.5921 40.8529 35.259C40.9266 35.5176 41.2416 35.8867 40.7581 35.9758C40.2699 36.0664 40.1506 35.6544 40.0888 35.2996C40.8098 34.7393 39.9387 33.9648 40.3554 33.3631Z" fill="#564F5A"/>
<path fill-rule="evenodd" clip-rule="evenodd" d="M57.7048 64.2102C57.9584 64.6093 58.4208 64.8955 58.545 65.3609C57.7568 66.0227 57.7568 66.0227 57.5473 65.425C57.518 65.3552 57.5078 65.2837 57.5159 65.2111C57.3871 64.8455 56.8702 64.4108 57.7048 64.2102Z" fill="#504356"/>
<path fill-rule="evenodd" clip-rule="evenodd" d="M37.7914 36.5788C37.6308 36.7992 37.471 37.0197 37.3111 37.2409C36.8592 37.2831 36.4553 37.182 36.0749 36.9379C36.3646 36.5494 36.7721 36.4115 37.1893 36.2875C37.4422 36.2971 37.6984 36.2985 37.7914 36.5788Z" fill="#54435B"/>
<path fill-rule="evenodd" clip-rule="evenodd" d="M60.4643 78.1493C60.2983 77.8647 59.5499 77.9314 59.8174 77.4137C60.0821 76.9017 60.4718 77.3161 60.8135 77.4123C61.1667 77.5125 61.4229 77.6871 61.4926 78.0268C61.1493 78.0682 60.8061 78.1084 60.4643 78.1493Z" fill="#433849"/>
<path fill-rule="evenodd" clip-rule="evenodd" d="M56.4722 63.4455C56.8426 63.1592 56.9628 62.5258 57.7115 62.7655C57.6784 63.0478 57.6454 63.3287 57.6132 63.6097C57.6191 63.7101 57.6302 63.8111 57.6475 63.9109C57.4327 64.1099 57.1789 64.157 56.8852 64.0414C56.5519 63.9456 56.5112 63.6964 56.4722 63.4455Z" fill="#504356"/>
<path fill-rule="evenodd" clip-rule="evenodd" d="M65.5914 70.0569C65.8005 70.0465 66.0095 70.0367 66.5514 70.0096C65.8444 70.4552 66.2169 71.01 65.9066 71.394C65.4766 71.4737 65.4453 71.1728 65.3123 70.9779C65.2679 70.6346 65.4441 70.3492 65.5914 70.0569Z" fill="#514657"/>
<path fill-rule="evenodd" clip-rule="evenodd" d="M29.1537 26.0638C29.0882 25.6585 29.2539 25.3524 29.6344 25.1382C29.9012 25.1395 30.1733 25.0117 30.4697 25.2047C30.4151 25.7605 29.9919 26.0009 29.4367 26.1307C29.3277 26.1601 29.2341 26.1379 29.1537 26.0638Z" fill="#474249"/>
<path fill-rule="evenodd" clip-rule="evenodd" d="M57.3928 37.7687C57.0293 37.9127 56.6088 38.3849 56.3441 37.6868C56.1018 37.0477 56.6293 36.9272 57.174 36.8636C57.3661 37.1461 57.4453 37.4468 57.3928 37.7687Z" fill="#2D292E"/>
<path fill-rule="evenodd" clip-rule="evenodd" d="M52.1602 29.4431C51.8272 29.728 52.1067 30.1075 51.9992 30.4274C51.5169 29.7474 51.1238 29.0383 50.9284 28.1039C51.6626 28.4496 51.9044 28.9509 52.1602 29.4431Z" fill="#7B797C"/>
<path fill-rule="evenodd" clip-rule="evenodd" d="M63.0223 73.1235C63.5802 73.4034 64.0297 73.8131 64.3862 74.2575C64.6947 74.6426 64.1588 74.5407 63.9694 74.6318C63.303 74.7038 62.9329 74.3828 62.7078 73.8688C62.669 73.7831 62.6371 73.6969 62.6131 73.6084C62.7497 73.4472 62.8863 73.2854 63.0223 73.1235Z" fill="#E2DDE4"/>
<path fill-rule="evenodd" clip-rule="evenodd" d="M26.2094 50.2038C27.2327 49.5729 27.6354 50.3019 28.0883 50.9181C27.3773 50.8656 26.7669 50.5926 26.2094 50.2038Z" fill="#6E5C75"/>
<path fill-rule="evenodd" clip-rule="evenodd" d="M60.4426 69.1471C61.6914 69.4035 61.7394 69.5064 60.9998 70.3353C60.6436 70.1538 60.5612 69.8366 60.4699 69.5244C60.4611 69.3982 60.4521 69.2734 60.4426 69.1471Z" fill="#65506D"/>
<path fill-rule="evenodd" clip-rule="evenodd" d="M49.8339 63.4117C49.8907 63.697 49.9467 63.9821 50.0096 64.2975C48.8265 63.9382 48.8265 63.9382 49.5494 63.3447C49.6553 63.3222 49.7512 63.344 49.8339 63.4117Z" fill="#413A45"/>
<path fill-rule="evenodd" clip-rule="evenodd" d="M60.8791 67.4696C60.8235 67.8053 60.8424 68.2016 60.2682 68.1585C60.0149 68.1395 59.8633 67.9784 59.8751 67.7591C59.9018 67.2754 60.3771 67.3331 60.7291 67.2459C60.8189 67.299 60.8689 67.3741 60.8791 67.4696Z" fill="#4C4150"/>
<path fill-rule="evenodd" clip-rule="evenodd" d="M23.8895 24.685C24.3013 24.3456 24.7612 24.2141 25.3089 24.466L25.3093 24.4627C25.5219 24.5972 25.8825 24.6308 25.7724 24.9845C25.1324 24.9647 24.4942 24.9245 23.8895 24.685Z" fill="#6A5674"/>
<path fill-rule="evenodd" clip-rule="evenodd" d="M44.8357 38.1427C45.272 37.8692 45.7089 37.5904 45.9419 38.3428C45.9714 38.5042 45.915 38.6237 45.7397 38.6865C45.2848 38.7096 44.9405 38.5864 44.8373 38.1416L44.8357 38.1427Z" fill="#2F2C31"/>
<path fill-rule="evenodd" clip-rule="evenodd" d="M31.5595 18.9785C31.4169 19.1148 31.2742 19.2512 31.1153 19.4029C30.7697 19.1043 30.769 18.7396 30.8707 18.4357C30.9935 18.0662 31.288 18.2682 31.5199 18.4178C31.5326 18.6046 31.5453 18.7915 31.5595 18.9785Z" fill="#2A272C"/>
<path fill-rule="evenodd" clip-rule="evenodd" d="M37.2285 42.1886C37.0841 41.9441 36.6618 41.7324 37.0382 41.4221C37.1336 41.3428 37.3871 41.3104 37.5 41.3671C37.9479 41.5927 37.5881 41.8916 37.5731 42.162C37.4583 42.17 37.3434 42.1793 37.2285 42.1886Z" fill="#493A50"/>
<path fill-rule="evenodd" clip-rule="evenodd" d="M27.2092 21.3742C27.655 21.8516 27.7586 22.4035 27.8003 22.9839C27.3598 23.0569 27.2476 22.8224 27.1211 22.6048C27.503 22.2243 27.0562 21.7741 27.2092 21.3742Z" fill="#AFACB0"/>
<path fill-rule="evenodd" clip-rule="evenodd" d="M30.3191 51.899C30.9839 51.7599 31.7374 51.4845 31.6005 52.5754C31.1019 52.46 30.6765 52.2312 30.3191 51.899Z" fill="#82638F"/>
<path fill-rule="evenodd" clip-rule="evenodd" d="M24.636 22.6696C24.7199 22.8512 24.915 23.1648 24.8705 23.1941C24.4682 23.4557 24.0344 23.3817 23.618 23.1466C23.8949 23.0228 24.2427 22.9765 24.3274 22.6444C24.4311 22.6338 24.534 22.6417 24.636 22.6696Z" fill="#C9C8CA"/>
<path fill-rule="evenodd" clip-rule="evenodd" d="M56.8852 64.0414C57.1393 63.9976 57.3934 63.9546 57.6475 63.9109L57.6769 64.061L57.7047 64.2109C57.3269 64.4902 57.5237 64.8696 57.5165 65.2125C57.0434 64.927 57.0209 64.462 56.8852 64.0414Z" fill="#694E75"/>
<path fill-rule="evenodd" clip-rule="evenodd" d="M48.5899 53.5424C48.5577 53.3163 48.5264 53.0898 48.495 52.8632C48.8852 52.8174 49.1792 53.0602 49.5215 53.1571C49.6972 53.2148 49.7235 53.303 49.5989 53.4221C49.2626 53.4618 48.9263 53.5021 48.5899 53.5424Z" fill="#63576A"/>
<path fill-rule="evenodd" clip-rule="evenodd" d="M50.7351 49.8392C50.6894 50.0142 50.7354 50.3248 50.4834 50.2899C50.1225 50.2395 49.9607 49.9387 49.9441 49.6109C50.1424 49.5831 50.3409 49.554 50.5392 49.5262C50.6045 49.6305 50.6691 49.7347 50.7351 49.8392Z" fill="#ACA8AF"/>
<path fill-rule="evenodd" clip-rule="evenodd" d="M38.9938 36.6013C39.2447 36.6769 39.7014 36.7624 39.5007 37.0187C39.1526 37.4636 38.8773 37.0064 38.6163 36.785C38.7414 36.7235 38.8673 36.662 38.9938 36.6013Z" fill="#54435B"/>
<path fill-rule="evenodd" clip-rule="evenodd" d="M65.9493 59.5629C65.8613 59.2116 65.7731 58.861 65.685 58.5097C65.8697 58.3832 66.0544 58.256 66.2391 58.1295C66.2694 58.6302 66.2054 59.114 65.9493 59.5629Z" fill="#423D44"/>
<path fill-rule="evenodd" clip-rule="evenodd" d="M59.4574 59.2882C59.6679 59.2913 59.9923 59.2375 59.9999 59.4719C60.0136 59.8488 59.6058 59.8837 59.28 59.9487C59.2173 59.6995 59.2578 59.4751 59.4574 59.2882Z" fill="#423D44"/>
<path fill-rule="evenodd" clip-rule="evenodd" d="M49.599 53.4221C49.5687 53.3348 49.5424 53.2466 49.5215 53.1571C49.6319 53.0181 49.7422 52.8798 49.8533 52.741C49.9398 52.7462 50.0268 52.7482 50.1141 52.7476C50.1441 53.0964 50.6911 53.7622 49.599 53.4221Z" fill="#B7B3B9"/>
<path fill-rule="evenodd" clip-rule="evenodd" d="M51.3644 44.4669C51.5751 44.468 51.8023 44.4591 51.9161 44.6563C51.948 44.7111 51.8922 44.8628 51.8325 44.8862C51.5966 44.979 51.4506 44.8213 51.3121 44.6772C51.2552 44.5906 51.2736 44.5213 51.3644 44.4669Z" fill="#373439"/>
<path fill-rule="evenodd" clip-rule="evenodd" d="M34.7498 31.3182C34.9722 31.298 35.1946 31.2779 35.4163 31.2576C35.3645 31.5683 35.3128 31.8783 35.2609 32.1897C35.0021 32.0984 34.8444 31.9312 34.7826 31.6928C34.7722 31.5678 34.761 31.4427 34.7498 31.3182Z" fill="#49404D"/>
<path fill-rule="evenodd" clip-rule="evenodd" d="M56.3004 34.1697C55.9992 34.0712 55.8946 33.8362 55.7932 33.5997C55.7929 33.4913 55.7924 33.3842 55.792 33.2758C56.1962 33.4739 56.2819 33.8075 56.3004 34.1697Z" fill="#423F44"/>
<path fill-rule="evenodd" clip-rule="evenodd" d="M46.2186 56.4058C46.6215 56.2807 47.0232 56.1594 47.4106 56.4699C47.0086 56.5811 46.6087 56.6383 46.2186 56.4058Z" fill="#5F4D67"/>
<path fill-rule="evenodd" clip-rule="evenodd" d="M44.7445 41.5724C44.3363 41.339 44.2381 41.0513 44.522 40.6969C44.5962 40.9889 44.6703 41.281 44.7445 41.5724Z" fill="#4D4153"/>
<path fill-rule="evenodd" clip-rule="evenodd" d="M25.773 24.9851C25.6192 24.8111 25.4646 24.6376 25.3101 24.4627C25.5398 24.4327 25.7711 24.4016 26.0024 24.3712C26.0392 24.5837 26.0761 24.7963 26.1129 25.0095C25.9994 25.0009 25.8866 24.9931 25.773 24.9851Z" fill="#48444B"/>
<path fill-rule="evenodd" clip-rule="evenodd" d="M36.0496 52.0555C35.5223 52.3038 35.1245 52.8509 34.3748 52.5823C33.7236 52.2274 34.4728 51.314 33.4101 51.0377C34.1649 51.0113 34.5839 50.5945 35.0963 50.3812C35.587 50.9679 34.592 51.3507 35.142 51.9487C35.512 51.3319 36.0618 50.8569 36.1192 50.08C36.5237 50.412 36.6763 50.917 37.2465 50.9984C37.4782 51.1807 37.5097 51.3999 37.42 51.6425C37.0649 52.0263 36.6765 52.3298 36.0496 52.0555Z" fill="#5D4866"/>
<path fill-rule="evenodd" clip-rule="evenodd" d="M37.3383 51.5729C37.308 51.3812 37.2762 51.1893 37.2457 50.9989C38.1435 50.568 38.602 51.1514 39.091 51.6663C39.3009 51.8526 39.205 52.0282 39.0858 52.2028C39.0222 52.2385 38.9593 52.2756 38.8957 52.3113C38.5583 52.508 38.542 53.0177 38.0083 53.0224C37.4088 52.6665 37.1978 52.1797 37.3383 51.5729Z" fill="#6B4E78"/>
<path fill-rule="evenodd" clip-rule="evenodd" d="M39.9639 52.4819C39.9844 51.6289 40.7098 51.6819 41.311 51.7831C41.8719 51.8787 42.4614 52.1297 42.013 52.9656C41.4982 52.0315 40.7016 52.4407 39.9704 52.4847L39.9639 52.4819Z" fill="#614A6B"/>
<path fill-rule="evenodd" clip-rule="evenodd" d="M39.821 53.4236C39.7403 52.9066 38.9468 52.8467 38.8958 52.3106L38.8934 52.3117C39.0785 52.101 39.3033 52.0677 39.5677 52.2125C39.7001 52.3017 39.8323 52.3922 39.9639 52.4819L39.9689 52.4845C40.122 52.7388 40.6641 52.7151 40.6085 53.0755C40.5534 53.4439 40.1179 53.359 39.821 53.4236Z" fill="#312D34"/>
<path fill-rule="evenodd" clip-rule="evenodd" d="M33.8622 49.0598C34.1757 49.4655 34.2364 49.7927 34.1449 50.1487C33.1838 49.6374 33.1838 49.6374 33.8622 49.0598Z" fill="#61486B"/>
<path fill-rule="evenodd" clip-rule="evenodd" d="M39.0014 54.7618C38.8869 54.7671 38.7716 54.7864 38.6583 54.7758C38.347 54.7477 38.1107 54.6096 38.0121 54.338C37.9457 54.1559 38.0845 54.0445 38.2539 53.9991C38.7229 53.8734 38.8527 54.175 38.9724 54.4786C38.9813 54.5734 38.9909 54.6675 39.0014 54.7618Z" fill="#755283"/>
<path fill-rule="evenodd" clip-rule="evenodd" d="M42.018 54.2586C41.9841 54.3313 41.9644 54.5222 41.8658 54.5596C41.608 54.6577 41.4849 54.4801 41.4431 54.2769C41.4126 54.124 41.4908 53.9938 41.6678 53.9667C41.8495 53.9382 41.9635 54.0358 42.018 54.2586Z" fill="#5C4566"/>
<path fill-rule="evenodd" clip-rule="evenodd" d="M43.0078 53.6469C43.0108 53.5483 42.9992 53.4452 43.0222 53.3504C43.0958 53.0477 43.3362 52.9675 43.6461 53.0504C43.721 53.0703 43.816 53.2044 43.8081 53.2756C43.7819 53.5132 43.5525 53.5593 43.3326 53.5965C43.2218 53.615 43.1103 53.6274 43.0001 53.642L43.0078 53.6469Z" fill="#624B6C"/>
<path fill-rule="evenodd" clip-rule="evenodd" d="M38.2845 49.2649C38.1962 48.8293 38.363 48.5026 38.7886 48.2853C38.9029 48.7315 38.9675 49.1568 38.2845 49.2649Z" fill="#664F70"/>
<path fill-rule="evenodd" clip-rule="evenodd" d="M35.8257 49.2647C36.1001 49.2476 36.3694 49.2472 36.5595 49.4779C36.2925 49.5147 36.0276 49.5597 35.7591 49.585C35.6072 49.5991 35.4379 49.5689 35.5435 49.3826C35.5803 49.3175 35.7285 49.3029 35.8257 49.2647Z" fill="#664F70"/>
<path fill-rule="evenodd" clip-rule="evenodd" d="M37.2076 49.0672C37.1392 48.9197 36.8393 48.725 37.0777 48.6305C37.402 48.5031 37.4493 48.8219 37.5162 49.0308C37.4145 49.0498 37.3121 49.062 37.2076 49.0672Z" fill="#664F70"/>
<path fill-rule="evenodd" clip-rule="evenodd" d="M39.5677 52.2125C39.343 52.2451 39.1182 52.2784 38.8934 52.3116C38.9593 52.0963 39.0251 51.8817 39.0917 51.6664C39.4028 51.7454 39.5072 51.9636 39.5677 52.2125Z" fill="#55445C"/>
<path fill-rule="evenodd" clip-rule="evenodd" d="M30.7587 16.5872C30.8852 16.6749 31.0101 16.7632 31.1359 16.8509C31.1746 17.0483 31.2133 17.2457 31.2823 17.5919C30.6662 17.5384 30.2856 17.3144 29.929 17.0686C30.0311 16.5647 30.4616 16.6778 30.7587 16.5872Z" fill="#2D292E"/>
<path fill-rule="evenodd" clip-rule="evenodd" d="M56.4799 45.9451C56.0034 46.3849 55.6359 46.8763 55.6734 47.5043C54.343 47.6654 54.343 47.6654 53.5369 47.1329C53.0296 47.5094 53.9265 47.9935 53.3449 48.4619C52.1051 48.1759 52.2803 46.99 51.7017 46.2909C51.9252 46.2996 52.2476 46.3974 52.3586 46.3026C53.418 45.3899 54.9485 46.1189 56.1033 45.535C56.2803 45.4457 56.4383 45.7407 56.4799 45.9451Z" fill="#373439"/>
<path fill-rule="evenodd" clip-rule="evenodd" d="M53.6737 43.8567C53.9446 43.2692 54.8016 42.8494 54.0692 42.0009C54.8626 42.0248 55.3031 42.2053 55.317 42.7782C55.324 43.0975 55.3913 43.3526 55.5977 43.6301C56.2777 44.5464 56.2598 44.5562 54.9512 45.1394C54.3469 44.8725 54.5431 43.9227 53.6717 43.8545L53.6737 43.8567Z" fill="#363338"/>
<path fill-rule="evenodd" clip-rule="evenodd" d="M54.8451 35.6018C54.9054 35.9075 54.965 36.2125 55.0254 36.5176C54.8595 36.7072 54.7281 36.9379 54.5189 37.0781C54.1927 37.2949 53.8847 37.1969 53.7293 36.8507C53.4694 36.2743 53.9638 35.731 54.8451 35.6018Z" fill="#2E2B30"/>
<path fill-rule="evenodd" clip-rule="evenodd" d="M54.2729 41.0894C54.3274 41.1704 54.4363 41.2653 54.4187 41.3287C54.4003 41.392 54.2553 41.4237 54.1663 41.4696C54.1125 41.3888 54.0021 41.2936 54.0204 41.231C54.038 41.1676 54.1831 41.1352 54.2729 41.0894Z" fill="#363338"/>
<path fill-rule="evenodd" clip-rule="evenodd" d="M51.7038 46.2925C51.2917 46.1342 51.2577 45.8243 51.2746 45.4953C51.9228 45.5595 51.8101 45.9276 51.7038 46.2925Z" fill="#373439"/>
<path fill-rule="evenodd" clip-rule="evenodd" d="M44.2556 33.953C43.7908 34.4036 43.3168 34.7554 42.5278 34.5341C42.3465 33.9105 42.9183 33.6336 43.0233 33.1615C43.5844 33.3414 43.9575 33.5337 44.2556 33.953Z" fill="#3A373C"/>
<path fill-rule="evenodd" clip-rule="evenodd" d="M55.6683 66.3482C56.4656 66.1491 57.0643 66.5109 57.6871 66.9178C56.9525 67.249 56.7583 67.4533 56.62 68.0109C55.9218 68.1941 56.4034 67.391 56.2598 67.3867C55.3486 67.3458 55.2215 68.1957 54.4509 67.9178C54.3889 67.1015 55.4853 66.9866 55.68 66.3396L55.6683 66.3482Z" fill="#504057"/>
<path fill-rule="evenodd" clip-rule="evenodd" d="M55.6807 66.3397C55.1096 65.889 54.8455 65.4579 55.7421 65.1044L55.7691 65.1131C55.9295 65.5428 55.8275 65.9477 55.669 66.3483L55.6807 66.3397Z" fill="#524359"/>
<path fill-rule="evenodd" clip-rule="evenodd" d="M58.6224 67.0219C58.6987 67.0674 58.8241 67.1029 58.8412 67.1605C58.8888 67.3229 58.7761 67.4194 58.5977 67.3895C58.5323 67.3788 58.4432 67.2581 58.4441 67.1893C58.4436 67.1311 58.5579 67.0776 58.6224 67.0219Z" fill="#574160"/>
<path fill-rule="evenodd" clip-rule="evenodd" d="M52.8835 64.932C53.0226 64.9176 53.0949 64.9713 53.0775 65.0882C53.0704 65.1335 53.0349 65.1813 52.9974 65.2149C52.8861 65.3129 52.7675 65.2963 52.7438 65.1623C52.7312 65.0919 52.8323 65.0093 52.8835 64.932Z" fill="#684D73"/>
<path fill-rule="evenodd" clip-rule="evenodd" d="M51.1614 54.1505C50.9144 54.5991 51.0317 55.0028 51.3954 55.3766C50.7956 56.018 50.1398 55.1261 49.4751 55.4003C49.4414 54.946 49.4093 54.5099 49.3756 54.0737C49.9755 53.8952 50.5652 54.1943 51.1614 54.1505Z" fill="#433D46"/>
<path fill-rule="evenodd" clip-rule="evenodd" d="M54.3514 52.5013C53.8074 52.5154 53.2645 52.3845 52.5791 52.685C53.2262 51.5905 53.3217 51.1467 53.0371 50.586C53.8821 50.6035 54.361 50.8168 54.3141 51.6131C54.2959 51.9098 54.3347 52.2109 54.3488 52.5103L54.3514 52.5013Z" fill="#39353C"/>
<path fill-rule="evenodd" clip-rule="evenodd" d="M53.6898 48.9578C53.3613 49.7737 53.1254 50.2865 52.2959 50.1425C51.9899 50.0896 51.7188 49.8583 51.807 49.5969C52.0722 48.8207 52.7949 48.9757 53.6898 48.9578Z" fill="#343036"/>
<path fill-rule="evenodd" clip-rule="evenodd" d="M40.1086 65.5474C39.2727 65.412 38.6189 64.8253 37.7371 64.7619C37.519 64.7465 37.5927 64.4371 37.7608 64.2785C38.105 64.0385 38.1512 63.5385 38.8262 63.4401C39.1265 64.0274 39.7607 64.3963 40.5529 64.5665C40.3562 65.0012 40.2324 65.2743 40.1086 65.5474Z" fill="#514357"/>
<path fill-rule="evenodd" clip-rule="evenodd" d="M42.5584 65.5412C43.4765 65.9884 44.4674 66.1462 45.4929 66.1764C45.7731 66.5199 45.6274 66.8351 45.4569 67.2296C44.3855 66.9796 43.326 66.7391 42.6206 65.8559C42.4552 65.77 42.4409 65.6639 42.5584 65.5412Z" fill="#5C4864"/>
<path fill-rule="evenodd" clip-rule="evenodd" d="M42.5584 65.5412C42.579 65.6454 42.5994 65.7509 42.62 65.8551C41.3058 66.2797 41.0957 66.0947 41.3348 64.5976C41.8886 64.8007 41.9414 65.5075 42.5584 65.5412Z" fill="#463E4A"/>
<path fill-rule="evenodd" clip-rule="evenodd" d="M47.4189 67.0945C47.3782 66.8888 47.3382 66.6832 47.2982 66.4776C47.7371 66.4238 47.925 66.1967 47.8772 65.8076C48.252 65.7452 48.6364 65.6286 48.9501 65.9647C48.4196 66.3197 48.6247 67.4479 47.4189 67.0945Z" fill="#493D4F"/>
<path fill-rule="evenodd" clip-rule="evenodd" d="M44.1805 64.6842C44.1237 64.3434 44.2415 64.107 44.6511 64.0329C45.1289 63.9464 45.401 64.133 45.5188 64.5388C45.1283 64.9089 44.6332 64.6728 44.1805 64.6842Z" fill="#493F4E"/>
<path fill-rule="evenodd" clip-rule="evenodd" d="M37.742 39.3781C37.4825 39.8727 37.3191 40.4867 36.4394 39.8931C36.1375 39.6901 35.7678 39.612 35.3812 39.9625C34.8025 40.4875 34.1907 40.1642 33.5093 39.7902C33.9478 39.3263 34.3137 38.9404 34.6859 38.5467C35.0501 38.879 35.113 39.8988 35.7861 39.0557C36.2735 38.446 36.8899 39.2882 37.2378 38.7837C37.8201 38.7108 37.8854 38.9756 37.742 39.3781Z" fill="#443949"/>
<path fill-rule="evenodd" clip-rule="evenodd" d="M33.6077 38.0317C33.4756 37.9459 33.3444 37.8595 33.2123 37.7737C33.0414 37.4919 33.1533 37.3899 33.4863 37.4268C34.4658 37.2935 34.4321 36.1971 35.2908 35.9486C35.3343 36.9841 34.7986 37.6474 33.6077 38.0317Z" fill="#4F3E57"/>
<path fill-rule="evenodd" clip-rule="evenodd" d="M39.5737 41.6191C38.6588 41.1027 38.6588 41.1027 38.4801 39.9015C39.7933 40.0715 39.22 41.078 39.5665 41.6283L39.5737 41.6191Z" fill="#49404D"/>
<path fill-rule="evenodd" clip-rule="evenodd" d="M37.7419 39.3781C37.6684 39.1182 37.5586 38.8826 37.2369 38.7843C37.1263 38.3506 37.2129 37.9425 37.3862 37.5437C37.8743 37.8123 37.9138 38.349 38.2832 38.688C38.1033 38.9181 37.9234 39.1482 37.7419 39.3781Z" fill="#54435B"/>
<path fill-rule="evenodd" clip-rule="evenodd" d="M32.64 39.167C32.8377 39.7311 33.4463 40.0005 33.0732 40.4945C33.0196 40.5661 32.6989 40.5836 32.6281 40.5181C32.1987 40.1235 32.5452 39.742 32.64 39.167Z" fill="#443949"/>
<path fill-rule="evenodd" clip-rule="evenodd" d="M63.0099 56.8428C63.186 56.8042 63.3413 56.8614 63.415 56.9962C63.5352 57.2156 63.4087 57.3747 63.1726 57.42C63.0033 57.452 62.8475 57.3372 62.8039 57.1861C62.7611 57.0343 62.859 56.9166 63.0099 56.8428Z" fill="#353137"/>
<path fill-rule="evenodd" clip-rule="evenodd" d="M28.9509 7.47333C28.2367 7.5455 27.4775 7.71249 27.8455 6.61785C27.9802 6.21834 27.3171 5.7884 27.7128 5.32661C28.5973 5.66466 28.5973 5.66465 28.9518 7.47209L28.9509 7.47333Z" fill="#E493FE"/>
<path fill-rule="evenodd" clip-rule="evenodd" d="M42.6428 41.2327C42.195 41.2667 42.0918 41.0754 42.1257 40.7063C42.1661 40.2537 41.8283 40.1206 41.376 40.1474C41.1362 39.9694 41.105 39.7662 41.2632 39.5402C41.3564 39.4239 41.449 39.3061 41.5422 39.1891C42.4046 39.1144 42.0768 38.1457 42.8855 37.8544C43.0045 38.8122 43.1232 39.7171 43.226 40.6213C43.2688 40.9898 43.0037 41.1539 42.6428 41.2327Z" fill="#342D37"/>
<path fill-rule="evenodd" clip-rule="evenodd" d="M44.8366 38.1408C44.6286 38.0504 44.3866 37.9946 44.2209 37.8618C43.861 37.5748 43.1454 37.4482 43.3821 36.8425C43.615 36.2429 44.2571 36.5666 44.7264 36.5119C45.2344 37.0512 44.7183 37.6038 44.8365 38.1421L44.8366 38.1408Z" fill="#2F2C31"/>
<path fill-rule="evenodd" clip-rule="evenodd" d="M55.0436 77.3292C54.1695 77.1095 53.6828 76.2303 52.5133 76.3356C52.978 75.9853 53.3828 75.8323 53.2481 75.3856C53.3442 75.2697 53.4403 75.1544 53.5372 75.0385C53.8427 75.1202 53.7836 75.4467 54.0114 75.5804C54.6036 75.532 55.2004 75.3973 55.7749 75.6966C55.8388 76.0844 55.9519 76.4728 55.9545 76.8591C55.958 77.4114 55.5498 77.4683 55.0436 77.3292Z" fill="#433A48"/>
<path fill-rule="evenodd" clip-rule="evenodd" d="M62.7077 73.8695C63.1286 74.1232 63.5486 74.3774 63.9693 74.6324C64.3017 74.9462 64.6954 74.8346 65.0804 74.7876C65.7334 75.4671 64.7881 75.4755 64.5713 75.7893C63.6646 75.379 62.875 75.577 62.1486 76.0945C61.9365 75.5487 62.1725 75.2754 62.8018 75.2463C62.7674 74.8902 62.3395 74.8176 62.1922 74.5534C62.3642 74.3256 62.5356 74.0972 62.7077 73.8695Z" fill="#5D4A66"/>
<path fill-rule="evenodd" clip-rule="evenodd" d="M55.9334 74.7207C55.9395 74.4733 55.6101 74.0924 56.0716 74.0213C56.4434 73.9646 56.5344 74.3537 56.6225 74.6307C56.3936 74.6608 56.1631 74.6907 55.9334 74.7207Z" fill="#413946"/>
<path fill-rule="evenodd" clip-rule="evenodd" d="M58.3203 76.6104C58.2861 76.7286 58.1955 76.7744 58.0795 76.706C57.999 76.6579 57.9491 76.5695 57.8849 76.4994C57.9711 76.4645 58.0725 76.386 58.1415 76.4052C58.2163 76.4258 58.2617 76.5377 58.3203 76.6104Z" fill="#6C4F78"/>
<path fill-rule="evenodd" clip-rule="evenodd" d="M61.2622 60.9466C61.3095 61.3892 61.8768 61.7104 61.7126 62.2815C61.0906 62.3255 60.6667 61.9972 60.5237 61.6058C60.3769 61.2011 60.8589 61.0375 61.2622 60.9466Z" fill="#604A69"/>
<path fill-rule="evenodd" clip-rule="evenodd" d="M62.5026 60.1712C62.8547 60.2378 63.1251 60.4075 63.3077 60.6867C62.8671 60.7296 62.5985 60.5582 62.5026 60.1712Z" fill="#423D44"/>
<path fill-rule="evenodd" clip-rule="evenodd" d="M61.397 63.4248C60.802 63.5143 60.83 63.212 60.936 62.8618C61.2383 62.9571 61.3435 63.1747 61.397 63.4248Z" fill="#5F4968"/>
<path fill-rule="evenodd" clip-rule="evenodd" d="M31.5737 38.2956C31.3103 39.2305 30.336 38.9811 29.6267 39.1736C29.6329 38.1222 28.6336 38.1011 27.9271 37.9187C27.6909 37.4462 28.3669 37.4256 28.181 36.9753C27.9186 36.7839 27.5395 36.5541 27.1388 36.9269C26.3975 37.6152 25.9886 37.2078 25.6241 36.5697C26.0741 36.3882 26.0343 35.5759 27.0089 35.9899C27.6959 36.281 27.9136 35.6327 27.7631 35.0424C28.1487 35.1318 28.5245 35.3144 28.9343 35.152C29.5767 34.8985 29.8267 35.3887 30.183 35.6559C30.1085 36.1203 29.4851 36.0157 29.31 36.5026C29.7137 36.8224 29.5852 37.7451 30.6964 37.4728L30.697 37.4742C30.9769 37.7581 31.0868 38.1843 31.5737 38.2956Z" fill="#6F507C"/>
<path fill-rule="evenodd" clip-rule="evenodd" d="M41.2639 39.5403C41.3013 39.7422 41.3394 39.9449 41.3767 40.1475C40.9036 40.1523 40.411 40.4209 39.9702 40.0209C40.4712 39.9988 40.8788 39.7927 41.2639 39.5403Z" fill="#403A43"/>
<path fill-rule="evenodd" clip-rule="evenodd" d="M38.7819 38.1165C38.8845 38.1398 38.9862 38.1643 39.0886 38.1882C39.064 38.2775 39.0703 38.4114 39.008 38.4439C38.9441 38.4762 38.8121 38.4085 38.7096 38.3845C38.7341 38.2959 38.7581 38.2058 38.7819 38.1165Z" fill="#54435B"/>
<path fill-rule="evenodd" clip-rule="evenodd" d="M68.8126 69.007C68.8176 68.237 69.2745 68.0677 70.4345 68.479C70.0058 68.9869 69.4878 69.1534 68.814 69.0078L68.8126 69.007Z" fill="#3C363F"/>
<path fill-rule="evenodd" clip-rule="evenodd" d="M38.375 62.0248C38.1898 62.3292 37.9781 62.5948 37.4857 62.5036C37.4652 61.8676 37.8915 61.9106 38.3663 62.0217L38.375 62.0248Z" fill="#6D507A"/>
<path fill-rule="evenodd" clip-rule="evenodd" d="M46.0466 28.33C45.963 28.5411 45.9269 28.8163 45.579 28.7649C45.4911 28.7521 45.4334 28.5363 45.3628 28.4139C45.5907 28.3857 45.8186 28.3582 46.0466 28.33Z" fill="#3A373C"/>
<path fill-rule="evenodd" clip-rule="evenodd" d="M67.7755 73.3078C67.7176 72.7849 67.3728 72.3259 67.823 71.8153C68.1931 72.2788 68.7147 72.4719 69.3798 72.3863C68.918 72.8608 68.1174 72.729 67.7755 73.3078Z" fill="#38323C"/>
<path fill-rule="evenodd" clip-rule="evenodd" d="M43.8561 20.8194C43.6238 21.136 43.8338 21.7852 43.0476 21.678C42.9648 21.6665 42.8313 21.5491 42.8298 21.4814C42.8144 20.8467 43.4101 20.9185 43.8574 20.8209L43.8561 20.8194Z" fill="#3F3C41"/>
<path fill-rule="evenodd" clip-rule="evenodd" d="M37.3383 51.5729C37.7906 51.9783 37.8804 52.507 38.0075 53.0223C38.1323 53.3527 38.6542 53.1539 38.8163 53.5571C37.4822 53.6066 36.4964 53.2475 36.0489 52.0554C36.4797 51.8942 36.9098 51.7336 37.3383 51.5729Z" fill="#363039"/>
<path fill-rule="evenodd" clip-rule="evenodd" d="M54.0115 75.5797C53.7043 75.4998 53.6087 75.2774 53.5373 75.0379C53.5179 74.9365 53.4977 74.835 53.4775 74.7342C53.5076 74.168 53.8681 73.758 54.2716 73.3688C54.7032 73.0345 55.0455 73.1936 55.3528 73.5504C54.7 74.1171 54.3419 74.841 54.0115 75.5797Z" fill="#644E6E"/>
<path fill-rule="evenodd" clip-rule="evenodd" d="M58.9358 72.8639C58.485 73.3109 58.035 73.7573 57.5843 74.2036C57.4853 74.0958 57.2808 73.9149 57.3028 73.8901C57.7249 73.4048 58.0395 72.7699 58.9358 72.8639Z" fill="#463B4B"/>
<path fill-rule="evenodd" clip-rule="evenodd" d="M55.3528 73.5504C54.9924 73.4901 54.6319 73.4298 54.2715 73.3695C54.2578 73.2895 54.2657 73.2129 54.2976 73.1385C54.5605 73.0912 54.8225 73.0017 55.086 73.0059C55.5818 73.0139 55.6145 73.2414 55.3528 73.5504Z" fill="#4F4354"/>
<path fill-rule="evenodd" clip-rule="evenodd" d="M63.6477 76.5294C63.5797 76.8361 63.5118 77.1422 63.4446 77.4483C62.7696 77.6705 62.2719 77.4682 61.8124 76.9235C62.425 76.5606 63.071 76.6546 63.6477 76.5294Z" fill="#48424B"/>
<path fill-rule="evenodd" clip-rule="evenodd" d="M31.5737 38.2956C31.2592 38.269 31.0275 38.5931 30.6441 38.4297C30.6609 38.1133 30.6783 37.793 30.6962 37.4742C31.6779 37.5833 32.4868 37.3763 32.9621 36.5564C33.16 36.5633 33.2941 36.6506 33.3649 36.8152C33.4051 37.0195 33.446 37.2232 33.4863 37.4268C33.3947 37.5419 33.3032 37.6578 33.2123 37.7737C32.6081 37.8146 32.0275 37.9105 31.5737 38.2956Z" fill="#6A4D76"/>
<path fill-rule="evenodd" clip-rule="evenodd" d="M33.3657 36.8153C33.2321 36.7294 33.0972 36.6426 32.9629 36.5565C33.1123 36.2718 33.2166 35.7442 33.678 36.0383C34.1302 36.3272 33.6281 36.5987 33.3657 36.8153Z" fill="#563F5F"/>
</svg>
