<svg width="77" height="108" viewBox="0 0 77 108" fill="none" xmlns="http://www.w3.org/2000/svg">
<path fill-rule="evenodd" clip-rule="evenodd" d="M65.9971 83.148C64.9461 79.972 64.2681 76.689 63.0341 73.559C62.5161 72.247 61.8051 72.057 60.5371 72.182C60.4091 75.003 59.8581 77.747 60.0351 80.537C60.2851 84.452 59.0701 88.119 58.2151 91.848C57.1601 91.124 57.8741 89.891 57.4011 89.065C57.3561 88.619 56.8691 88.999 57.2391 88.89C57.3091 88.869 57.3191 88.951 57.3631 89.11C57.6981 90.264 57.2781 91.317 56.9591 92.388C56.8431 92.632 56.6801 92.84 56.4751 93.016C54.4511 92.691 53.8202 94.111 53.2402 95.599C53.1371 95.681 53.0321 95.762 52.9271 95.843C47.5981 93.743 42.2981 91.582 37.2131 88.938C36.4491 86.967 36.9281 84.781 36.0661 82.793C35.5511 81.609 37.1981 81.262 37.8161 79.868C36.0781 81.052 34.5871 81.286 33.0271 81.005C31.4641 80.724 29.9881 80.36 31.3681 78.264C31.7801 77.636 31.3891 76.948 31.4071 76.288C31.6501 75.722 32.1601 75.439 32.6621 75.189C33.9531 74.547 34.3891 73.69 33.2981 72.54C32.5281 71.729 32.4511 70.662 32.0441 69.718C31.9571 69.464 31.9251 69.202 31.9441 68.935C32.7491 67.447 34.0981 67.731 35.4071 67.87C36.0061 68.227 36.1441 68.793 36.1221 69.417C36.1281 69.4 36.1401 69.648 36.1401 69.648C36.1401 69.648 36.3841 69.694 36.3991 69.678C36.7231 69.569 37.0351 69.503 37.3581 69.52C38.9871 69.525 37.6482 68.446 37.9212 67.959C38.0162 66.476 38.4571 65.63 39.9991 66.836C40.1811 66.981 40.3451 67.151 40.4931 67.326C40.7641 67.699 41.1301 67.881 41.6041 67.846C41.8451 67.898 42.0541 68.002 42.2421 68.16C43.2781 69.269 42.8631 70.875 43.6001 72.087C45.7221 76.686 47.8921 81.266 49.4111 86.115C49.9091 87.707 50.7751 89.09 52.1631 90.049C53.0621 90.671 52.6701 89.754 52.7761 89.441C52.7711 88.451 54.9251 88.157 53.3811 86.386C53.3431 87.655 53.4151 88.778 52.1621 89.061C50.6111 88.71 50.2041 87.335 49.6681 86.153C48.6861 83.997 47.7802 81.801 47.4602 79.425C48.1662 78.406 48.9431 78.978 49.6461 79.391C50.2201 79.728 50.7131 80.227 51.3361 79.508C52.9951 78.357 54.1511 80.894 55.7581 80.093C56.6071 79.929 57.4321 79.698 58.2341 79.223C57.4151 78.87 56.6211 78.673 55.7671 78.821C55.2231 78.847 54.7481 78.722 54.4591 78.206C54.0161 77.545 55.5361 77.014 54.5781 76.316C54.2641 76.13 54.0461 75.871 53.9151 75.538C53.5571 74.739 55.0651 74.374 54.3691 73.5C54.0721 73.275 53.9201 72.991 53.9551 72.619C54.2691 71.647 55.3321 71.303 55.7561 70.435C55.7461 69.986 55.5741 69.571 55.4761 69.153C53.6731 68.983 52.9721 70.811 51.5401 71.311C51.1901 71.434 51.4741 71.143 51.3191 71.449C51.0861 71.912 51.6241 71.482 51.7081 71.671C52.0691 71.759 52.3491 71.949 52.5481 72.254C52.7241 72.679 52.9281 73.085 53.2841 73.398C53.5481 73.632 53.7541 73.906 53.8531 74.249C53.9511 74.724 53.6382 75.129 53.6282 75.585C53.7201 76.187 54.4071 76.457 54.4631 77.079C54.4121 77.445 54.3671 77.812 54.0301 78.049C52.7341 77.743 51.8031 78.125 51.3801 79.462C50.8131 80.008 50.1921 79.718 49.9191 79.274C49.0921 77.934 48.2991 78.465 47.4421 79.163C45.2071 76.694 44.4011 73.516 43.1471 70.559C42.9721 68.038 40.9511 66.399 40.0991 64.193C39.4501 62.514 38.2792 61.054 37.9641 59.226C37.8651 57.579 39.0391 57.158 40.2911 56.812C40.5671 56.812 40.8171 56.897 41.0411 57.059C42.4141 60.21 42.4141 60.21 44.7321 58.891C45.0761 58.51 45.3791 58.095 45.7241 57.716C47.2831 57.104 47.2831 57.104 48.6161 57.835C48.7611 57.346 48.3801 56.958 48.3521 56.499C48.2451 55.812 48.2431 55.136 48.5001 54.478C48.6271 54.232 48.8151 54.044 49.0571 53.912C50.2571 53.679 50.7371 54.429 51.0631 55.387C51.7531 53.149 49.9311 52.374 48.6611 51.279C48.4581 51.11 48.2881 50.911 48.1471 50.685C47.9271 49.963 47.8671 49.183 47.3521 48.577C46.6102 47.71 46.1481 48.492 45.6231 48.881C44.7121 49.651 43.8331 50.477 42.5191 50.436C42.2381 50.361 41.8391 50.208 41.8451 49.986C41.9191 47.498 40.3981 46.376 38.2921 45.724C38.1831 44.289 39.5111 44.139 40.2801 43.485C40.5011 43.33 40.7361 43.201 40.9791 43.086C41.8971 42.831 42.8201 42.807 43.7451 43.044C45.6641 45.042 45.7151 45.371 44.2091 46.148C45.6201 46.726 45.5451 43.777 47.1861 44.898C50.6181 47.803 54.0861 50.669 57.4681 53.634C58.7811 54.785 59.7451 56.25 59.9421 58.077C60.0581 59.156 60.5611 59.813 61.6811 60.062C63.4521 60.456 65.0991 61.369 67.0021 61.228C68.4021 61.124 69.5811 61.939 70.8601 62.328C71.7961 62.613 72.1471 63.444 72.1631 64.375C72.1781 65.335 72.1271 66.296 72.1051 67.256C72.6461 68.432 71.9601 69.766 72.5821 70.93C72.6181 71.25 72.6521 71.571 72.6871 71.891C73.1441 72.671 72.5821 73.662 73.2061 74.408C73.6761 75.058 73.0141 76.034 73.8271 76.588C74.2491 77.134 73.7901 77.949 74.3921 78.44L74.3811 78.415C74.8471 78.914 74.3761 79.72 74.9581 80.182L74.9521 80.159C75.4951 80.858 74.9431 81.783 75.4331 82.493C75.6441 83.126 75.9191 83.714 76.3981 84.209C76.8231 84.652 77.0351 85.129 76.4101 85.638C75.7611 86.166 75.3831 85.617 74.9281 85.34C74.4111 85.105 74.1031 84.654 73.7601 84.236C73.5191 83.555 73.4881 82.867 73.7021 82.172C73.2201 81.399 73.9211 80.335 73.0841 79.65L73.1161 79.708C72.7251 79.174 73.2251 78.337 72.5061 77.917L72.5361 77.973C72.1671 77.426 72.6031 76.634 71.9902 76.16L72.0111 76.187C71.5531 75.677 72.0121 74.881 71.4501 74.404L71.3251 74.272L71.3921 74.103C70.9891 73.287 71.4461 72.314 70.9161 71.521C70.4191 69.849 70.3761 68.122 70.2871 66.398C70.1711 64.166 69.9361 63.69 67.7151 63.45C65.3181 63.19 63.0011 62.726 60.5911 61.67C59.9151 64.349 60.5802 66.784 60.6021 69.197C60.6112 70.123 61.7151 70.158 62.4271 70.225C63.7941 70.353 64.5031 71.027 64.7011 72.36C64.9552 74.075 66.1791 75.482 66.2731 77.253C66.7491 77.756 66.3291 78.511 66.7711 79.024C67.4421 79.783 66.5901 80.957 67.4871 81.655C67.9141 82.468 67.3741 83.474 68.0131 84.243C68.5061 85.856 68.7471 87.559 69.7281 88.995C70.3271 90.206 71.7251 89.337 72.5091 90.065L72.5722 90.13C73.1362 90.999 72.6481 91.378 71.8631 91.415C70.9371 91.459 69.9771 91.673 69.0841 91.201C68.1361 90.299 67.4791 89.244 67.3461 87.911C66.9791 87.316 67.3741 86.514 66.8181 85.971L66.6911 85.825L66.7671 85.647C66.2381 84.897 67.1161 83.71 65.9971 83.148Z" fill="#423F44"/>
<path fill-rule="evenodd" clip-rule="evenodd" d="M31.5701 76.1499C33.0861 78.0209 33.0861 78.0209 31.1041 79.7729C33.5871 80.518 35.8781 81.4389 37.5641 78.6349C39.4561 80.5689 39.4561 80.5689 36.3131 82.3779C37.3391 83.1589 38.5871 83.9039 37.2351 85.3859C36.7441 85.9249 37.4371 86.624 37.6791 87.222C37.9701 87.93 37.9321 88.5189 37.2131 88.9379C36.7691 88.9609 36.3391 88.9499 36.1281 88.4529C35.7861 87.6509 34.9851 87.5079 34.3091 87.1819C34.0141 87.1889 33.8391 87.0519 33.8031 86.7529C33.0371 85.6459 34.6441 84.9769 34.2771 83.8049C33.8861 85.2529 32.5721 85.1239 31.6331 85.6029C31.1441 87.3869 29.3631 88.1439 28.3671 89.7899C29.7731 91.4009 31.2431 93.0839 32.7141 94.7669C33.1471 95.2579 33.4891 95.8129 33.8201 96.3739C34.0471 97.2579 34.4441 98.0569 35.0321 98.7569C35.4461 99.2829 35.7911 99.8569 36.1441 100.423C37.4031 102.071 39.3491 103.116 40.2381 105.088C40.6681 105.667 40.5441 106.274 40.3301 106.887H40.3501C39.4991 107.186 38.8881 107.047 38.8201 106.01C38.7411 104.799 38.0241 104.031 37.0811 103.406C36.3041 103.384 35.8631 102.923 35.5751 102.259C35.2321 101.621 34.9511 100.945 34.3701 100.467L34.3971 100.506C34.0781 99.8559 33.7811 99.188 33.1701 98.739C32.4091 97.908 32.0471 96.8509 31.5341 95.8789C30.9181 94.7169 30.0051 93.8149 28.9971 92.9989C28.1931 92.3329 27.4361 91.6249 26.8871 90.7209C26.6081 90.0959 26.5191 89.4769 26.9451 88.8719C27.9531 87.1789 29.6111 85.9459 30.2791 84.2539C28.2101 82.1919 26.2061 80.1939 24.0791 78.0739C23.8581 78.1329 23.7631 78.662 23.4821 79.028C22.8391 79.748 23.4441 80.7369 22.9541 81.4909C23.0351 81.6629 23.0011 81.8079 22.8541 81.9279C22.3681 82.3399 22.8571 83.0979 22.3031 83.4879C21.7251 84.7009 21.1451 85.9149 20.5681 87.1289C20.0371 87.5819 20.5271 88.3849 19.9891 88.8349L19.9811 88.8559C19.5911 89.4349 19.5711 90.0149 19.9851 90.5939C21.8221 93.5189 23.8871 96.2639 26.3631 98.6849C26.8711 99.1149 27.4861 99.3969 27.9701 99.8579C28.5211 100.574 29.0381 101.316 29.6271 101.997C30.3271 102.807 29.7181 103.321 29.2871 103.895C29.0021 104.29 28.6191 104.712 28.1471 104.423C27.7041 104.153 27.8141 103.603 28.0271 103.151C28.0711 101.883 26.7561 101.55 26.2951 100.629C25.3101 99.6029 24.2991 98.6019 23.2791 97.6069C22.8201 97.3279 22.4061 97.0089 22.2911 96.4389C21.8641 95.8459 21.6831 95.0599 20.9331 94.7249C20.3791 94.3019 19.8441 93.8669 19.9431 93.0559C19.6451 92.3679 19.3471 91.6799 18.7001 91.2269C18.2041 90.8009 17.7071 90.3749 17.0851 89.8409C17.8071 88.5049 18.5101 87.2049 19.2111 85.9039C20.0731 85.6089 19.4811 84.66 19.9791 84.2L19.9701 84.2249C20.5741 83.7769 20.0631 82.9499 20.5691 82.4679C20.5221 81.3439 21.2341 80.525 21.7141 79.614C22.4141 78.976 21.6811 77.963 22.3221 77.308C22.7121 76.346 22.3391 75.7199 21.5221 75.1579C19.5861 73.8279 19.0581 71.9569 19.2661 69.6499C19.5991 65.9589 19.0931 62.1819 20.4881 58.6069C21.4681 59.2939 21.5981 60.5489 22.3561 61.3819C22.5821 61.8119 22.5061 62.2419 22.3611 62.6649C22.2971 63.0109 22.5261 63.1589 22.8061 63.2769C23.4351 63.7079 23.7181 64.3009 23.6941 65.0509C23.4761 65.6389 23.4881 66.2079 23.8261 66.7539C24.0511 67.1869 24.2131 67.6419 24.3781 68.0919C27.4001 67.9409 27.8041 70.3239 27.6641 72.2409C27.4321 75.4039 28.9851 76.1339 31.5701 76.1499Z" fill="#3F3C41"/>
<path fill-rule="evenodd" clip-rule="evenodd" d="M21.7381 62.838C21.9281 62.45 22.1212 62.064 22.3132 61.676C21.6952 60.421 22.7151 59.584 23.1381 58.55C22.3081 58.138 21.3091 58.233 20.5741 57.632C20.6831 56.259 20.3161 54.837 20.9791 53.517C23.2901 55.456 27.1021 55.531 28.0251 59.239C28.1931 58.746 27.8751 58.356 27.8441 57.932C27.9901 57.297 27.5551 56.823 27.3671 56.272C28.4911 54.252 30.6721 56.277 32.0041 55.053C32.2871 55.045 32.5421 54.92 32.8141 54.861C32.5501 54.65 32.4441 55.1 32.1931 55.004C30.2771 54.691 30.7871 53.172 30.6521 51.973C30.8371 51.082 30.5261 50.18 30.7111 49.288C30.9291 48.745 31.3811 48.471 31.8831 48.246C33.6011 47.819 34.9612 46.545 36.7142 46.196C38.8332 45.703 39.9001 47.285 40.9001 48.587C41.9041 49.895 41.0501 50.894 39.7321 51.497C39.5591 51.576 39.2442 51.628 39.2311 51.73C39.1911 52.048 39.4321 51.721 39.5341 51.798C40.8731 51.53 42.2162 51.424 43.5592 51.335C44.2752 51.186 44.9921 50.936 45.7201 51.277C46.5201 51.667 46.9942 51.095 47.5162 50.659C47.7342 50.529 47.9661 50.493 48.2111 50.556L48.4061 50.763C49.2731 51.793 49.8441 52.868 48.9121 54.166L48.9171 54.159C48.3201 54.836 48.8091 55.703 48.5181 56.432C46.9981 57.264 45.9481 57.052 46.1641 55.088C46.2791 54.044 45.6491 54.058 45.0731 53.835C42.8931 53.161 42.2181 55.696 40.4911 55.985C38.8121 56.474 37.8911 54.837 36.4831 54.56C35.3211 53.526 35.0592 52.168 35.0632 50.934C34.4832 52.818 36.7091 54.24 36.4721 56.263C35.3181 57.23 33.5271 57.024 32.6011 58.63C33.1301 59.06 33.8961 59.366 34.7261 59.538C35.3501 59.701 35.8261 59.468 36.2041 58.969C36.5101 58.701 36.8491 58.563 37.2601 58.673C38.9561 61.629 40.9501 64.444 41.5641 67.904L41.3381 68.083C40.7171 68.325 40.5431 67.777 40.2381 67.459L40.2442 67.464C39.2262 65.805 38.0341 65.433 36.5521 66.932C36.1471 67.344 35.6951 67.722 35.0381 67.587C34.7021 67.286 34.7011 66.897 34.7501 66.493C34.5981 65.487 34.3551 64.465 35.2121 63.622C34.2231 64.36 34.4851 65.36 34.6481 66.34C34.5921 67.275 34.0361 67.601 33.1681 67.588C31.9761 67.57 31.7121 68.168 32.1461 69.196C32.2871 69.869 31.8571 74.117 31.5061 75.051C29.2161 74.387 28.0231 72.47 27.7341 70.54C27.3481 67.968 26.3331 67.337 24.0531 68.041C23.5901 67.79 23.4841 67.357 23.4691 66.881C23.0571 66.305 22.9841 65.729 23.4691 65.152C23.1331 64.541 22.9651 63.819 22.3151 63.415C21.7151 63.632 21.5891 63.373 21.7381 62.838Z" fill="#423F44"/>
<path fill-rule="evenodd" clip-rule="evenodd" d="M32.1161 48.803C31.7161 48.997 31.3171 49.194 30.9191 49.39C30.0511 50.699 28.5591 50.052 27.4221 50.517C26.7821 50.691 26.1331 50.84 25.5061 51.062C25.2691 51.154 25.0261 51.228 24.7801 51.296C23.6811 51.526 22.6961 52.018 21.7561 52.62C21.4791 52.681 21.2982 52.569 21.2012 52.309C19.3332 50.83 18.5661 48.774 18.1761 46.523C17.5781 45.87 16.4652 45.62 16.5372 44.437C16.2332 42.675 15.5152 41.095 14.4602 39.657C14.1232 39.197 13.7502 38.737 13.5332 38.219C12.6212 36.035 11.9451 33.852 14.1461 31.952C14.5971 31.564 14.7682 30.998 14.9082 30.434C15.3672 29.935 15.9472 29.661 16.5972 29.508C16.8642 29.465 17.1301 29.471 17.3961 29.517C17.6591 29.6 17.8871 29.739 18.0911 29.92C20.0491 32.557 20.0492 32.557 15.9682 37.367C17.2032 36.803 17.6471 35.931 18.4401 35.552C20.2791 34.676 21.2411 35.2 21.0871 37.243C20.9971 38.439 21.6691 38.967 22.4011 39.57C22.6071 39.718 22.7891 39.896 22.9541 40.091C23.1391 40.652 23.3942 41.177 23.8172 41.611C24.1682 42.494 24.4621 43.398 24.8581 44.259C25.6761 45.933 26.5841 45.432 27.5141 44.363C28.7131 43.586 29.9681 43.032 31.4491 43.353C32.3281 43.775 33.2431 44.141 33.9661 44.836C33.8131 46.479 32.3331 46.466 31.2881 46.986C31.0201 47.022 30.7401 46.987 30.4231 47.064C30.8981 47.751 32.9211 46.944 32.1161 48.803Z" fill="#EAA7FE"/>
<path fill-rule="evenodd" clip-rule="evenodd" d="M22.8501 40.246C20.8381 40.412 20.6321 38.493 19.6501 37.699C19.6321 36.655 20.9121 36.982 20.8901 36.057C20.6381 35.932 20.3911 35.696 20.1661 35.714C18.3561 35.872 17.2851 36.83 17.1271 38.772C15.8011 38.898 15.9901 36.853 14.4871 37.152C16.0541 36.435 16.5551 34.738 18.2091 34.262C18.6321 34.139 19.8421 32.508 18.3961 31.427C17.9141 31.066 17.7111 30.516 17.6981 29.907C18.4281 27.616 20.4981 28.008 22.1981 27.658C23.1941 27.897 23.8151 28.451 23.7721 29.553C23.5981 30.349 22.7441 30.431 22.3121 30.946C22.1401 31.132 21.9321 31.304 21.8821 31.613C22.3651 31.561 22.4431 31.046 22.7831 30.841C23.0071 30.692 23.2441 30.588 23.5011 30.521C24.0371 30.418 24.5531 30.468 25.0351 30.73C25.8261 31.934 27.4821 30.475 28.2491 31.758C28.3621 31.966 28.1791 32.347 28.5551 32.402C28.7591 32.429 28.8681 32.242 28.8431 32.008C28.6141 31.613 28.3711 31.229 28.7671 30.807C29.1031 30.596 29.4721 30.527 29.8611 30.526C31.0581 30.758 32.2191 30.309 33.4031 30.348C34.1191 31.221 34.5371 32.191 34.4031 33.346C31.4441 33.491 29.2301 34.922 27.7241 37.4C26.5881 39.266 24.1731 38.79 22.8501 40.246Z" fill="#F4B8FD"/>
<path fill-rule="evenodd" clip-rule="evenodd" d="M16.5361 44.438C17.3471 44.926 18.2101 45.372 18.1751 46.523C16.1051 47.105 14.2841 45.665 12.2371 45.815C10.5221 45.941 8.78712 45.802 7.06212 45.735C6.37312 45.709 5.63713 45.537 5.61513 44.661C5.56513 42.5 4.4501 40.605 4.1371 38.526C3.8721 36.77 3.5051 34.953 4.9301 32.685C6.3381 36.514 5.7991 40.29 8.0341 43.787C10.4601 44.128 13.5841 43.483 16.5361 44.438Z" fill="#5A525E"/>
<path fill-rule="evenodd" clip-rule="evenodd" d="M22.8501 40.246C23.3421 39.663 23.8361 39.082 24.3241 38.498C24.7281 38.013 24.8031 37.005 25.7921 38.25C26.2441 38.819 27.2681 37.472 27.1251 35.579C28.1811 35.128 29.3571 35.07 30.2621 33.979C31.5201 32.465 32.9281 32.453 34.4041 33.344C34.6091 34.53 35.3501 35.377 36.1911 36.161C36.7291 36.372 37.0041 36.755 36.9561 37.344C36.5931 38.348 37.8971 39.566 36.5631 40.449C35.7211 40.594 34.8801 40.771 34.0241 40.554C33.8151 40.44 33.6381 40.284 33.5031 40.086C33.2591 39.693 32.9901 39.321 32.6071 39.044C32.2101 38.73 31.8621 38.392 32.0231 37.827C32.0841 38.22 31.8231 37.447 32.1681 37.553C32.3401 37.606 32.3311 37.164 32.1631 37.247C31.3091 37.665 30.3931 37.962 29.5931 38.486C29.2631 38.737 28.9341 38.987 28.6001 39.231C26.8211 40.145 25.1341 41.552 22.9431 40.33L22.8501 40.246Z" fill="#E99FFC"/>
<path fill-rule="evenodd" clip-rule="evenodd" d="M22.1531 28.051C20.5941 28.491 19.0801 29.039 17.6991 29.908C17.4981 29.876 17.2931 29.842 17.0911 29.81C16.8901 29.669 16.6491 29.356 16.6141 29.922C16.1421 30.417 15.5641 30.561 14.9071 30.434C15.1361 27.845 13.9631 26.031 11.7771 24.775C11.9111 24.167 12.3381 23.866 12.8961 23.7C14.8071 23.683 15.2431 25.703 16.6261 26.394C17.0261 26.143 17.1471 25.703 17.3761 25.341C17.5721 25.06 17.8351 24.848 18.0791 24.622C18.5061 24.163 18.3121 23.559 18.4441 23.03C19.9321 21.121 20.1071 23.381 20.8521 23.691C20.8451 22.674 19.0361 22.556 19.4251 21.21C19.8711 20.821 20.3171 20.432 20.7641 20.043C21.8341 19.401 22.9061 19.345 23.9751 20.048C24.6571 20.698 24.4051 21.58 24.5511 22.365C22.4691 23.617 24.1301 25.9 23.1511 27.459C22.9421 27.862 22.5521 27.966 22.1531 28.051Z" fill="#6C5177"/>
<path fill-rule="evenodd" clip-rule="evenodd" d="M21.2001 52.31C21.3051 52.348 21.4151 52.355 21.5251 52.329C21.8591 52.138 22.3671 51.92 22.5651 52.182C24.4911 54.756 25.9781 53.508 27.4161 51.674C27.7201 51.435 28.0331 51.206 28.3491 50.982C28.7801 50.682 29.2291 50.429 29.7841 50.489C30.4361 50.738 30.8741 51.169 30.9671 51.889C31.9501 52.597 30.6041 54.27 32.1481 54.746C32.3451 54.872 32.4091 54.999 32.3451 55.125C32.2791 55.251 32.2141 55.315 32.1481 55.315C31.5201 55.674 32.2951 56.402 31.5791 56.918C30.3621 56.496 29.0531 54.977 27.5231 56.48C27.8431 56.8 28.4631 56.97 28.1011 57.634C28.4161 58.225 28.6911 58.844 29.0591 59.4C29.3961 59.907 29.7831 60.392 29.0551 60.815C28.4141 61.189 27.9621 60.688 27.5921 60.264C27.3551 59.992 27.0521 59.571 27.1101 59.283C27.4421 57.623 26.1971 56.784 25.1341 56.578C23.9271 56.344 23.2451 55.088 21.7281 55.388C20.4741 55.636 22.1241 53.826 20.9801 53.518C21.0521 53.114 21.1261 52.712 21.2001 52.31Z" fill="#353237"/>
<path fill-rule="evenodd" clip-rule="evenodd" d="M22.1531 28.051C22.4041 27.869 22.6541 27.6869 22.9031 27.5029C23.3151 26.4889 24.2801 26.222 25.1551 25.831C25.5741 25.64 25.9851 25.4269 26.4361 25.3129C30.4531 24.6449 32.2281 27.082 33.4041 30.347C32.3281 31.352 31.1451 31.76 29.7561 30.993C29.4521 30.414 28.7981 30.479 28.3221 30.206C28.1091 30.057 27.9821 29.857 27.9461 29.599C28.0541 29.3 28.1781 29.023 28.5351 29.017C28.5151 29.015 28.3561 28.828 28.3561 28.828C28.3561 28.828 28.1421 28.948 28.1241 28.96C26.6251 29.632 25.1891 30.565 23.4591 29.749C23.4281 28.873 22.9161 28.364 22.1531 28.051Z" fill="#EBADF9"/>
<path fill-rule="evenodd" clip-rule="evenodd" d="M19.4261 21.21C19.7271 21.989 20.5501 22.186 21.0761 22.698C21.8141 23.415 22.3901 24.266 22.1271 25.566C20.4421 25.531 20.3161 24.221 19.7721 23.21C19.3161 22.365 18.9371 22.786 18.8261 23.527C18.3361 24.144 17.5431 24.23 16.9391 24.619C16.7951 24.705 16.6281 24.777 16.4651 24.837C16.4751 24.843 16.3331 25.052 16.3331 25.052C16.3331 25.052 16.4911 25.248 16.5041 25.26C16.8131 26.01 17.3711 26.678 17.1301 27.56C16.4991 27.518 15.6841 27.7 15.4971 26.857C15.1831 25.445 13.7971 25.05 13.0491 24.065C12.9281 23.935 12.8741 23.796 12.8881 23.647C12.9011 23.495 12.9241 23.418 12.9571 23.418C13.7951 23.149 14.3401 22.536 14.7951 21.824C16.3581 21.755 17.9091 21.618 19.4261 21.21Z" fill="#56465D"/>
<path fill-rule="evenodd" clip-rule="evenodd" d="M23.9761 20.048C22.9051 19.999 21.8341 20.566 20.7651 20.043C22.0231 18.314 21.3021 16.36 21.3691 14.501C21.3991 13.651 21.2341 12.795 21.1581 11.941C21.5641 11.489 21.7091 10.787 22.4211 10.63C23.3221 12.467 23.4521 14.444 23.4061 16.437C23.3781 17.684 23.4561 18.895 23.9761 20.048Z" fill="#695D6F"/>
<path fill-rule="evenodd" clip-rule="evenodd" d="M35.1321 19.971C36.6331 22.828 39.3571 24.528 41.5241 26.756C41.7491 27.775 41.3021 28.191 40.3041 28.109C37.5631 25.899 35.0441 23.513 33.8891 20.042C34.0841 19.187 34.0841 19.187 35.1321 19.971Z" fill="#464249"/>
<path fill-rule="evenodd" clip-rule="evenodd" d="M14.7961 21.823C14.7421 22.941 14.0841 23.462 13.0381 23.6C12.4591 23.942 11.7671 24.105 11.3221 24.665C8.53714 24.028 6.56112 22.291 4.98712 20.009C5.01612 19.885 5.04713 19.762 5.07413 19.637C5.26313 19.291 5.53112 19.031 5.88812 18.863C6.01412 18.845 6.14112 18.829 6.26712 18.812C7.33712 19.753 8.35613 20.759 9.48813 21.619C11.1751 22.904 12.9561 23.634 14.7961 21.823Z" fill="#6C5177"/>
<path fill-rule="evenodd" clip-rule="evenodd" d="M40.3042 28.109C40.9002 27.828 41.2972 27.369 41.5242 26.756C43.4852 28.75 43.4752 28.744 42.0542 30.933C41.1742 32.289 40.3292 33.67 39.4682 35.04C38.2692 35.629 37.8671 35.105 37.9281 33.937C38.6221 32.841 39.3671 31.773 39.9971 30.641C40.4251 29.872 41.1032 29.059 40.3042 28.109Z" fill="#584C5D"/>
<path fill-rule="evenodd" clip-rule="evenodd" d="M3.27213 11.292C4.36513 13.761 4.91112 16.448 6.26712 18.812C6.16512 18.827 6.07513 18.866 5.99313 18.926C5.65913 19.189 5.30814 19.432 5.07114 19.799L4.98813 20.009C3.05713 17.657 2.34114 14.795 1.60214 11.944C2.02614 11.386 2.61213 11.242 3.27213 11.292Z" fill="#56505A"/>
<path fill-rule="evenodd" clip-rule="evenodd" d="M36.3191 40.298C37.0191 39.542 36.5781 39.025 36.0751 38.349C35.4621 37.524 36.3601 37.527 36.8401 37.356C37.0691 37.221 37.2521 37.266 37.3921 37.494C38.2211 39.09 40.4761 39.435 40.8481 41.433C40.6461 42.181 41.5691 42.963 40.7781 43.693L40.7651 43.706C40.2761 44.051 39.9121 43.72 39.5291 43.483C39.3541 43.347 39.1811 43.207 39.0061 43.074C38.7111 42.885 38.3781 42.9 38.0441 42.91C37.8061 42.922 37.5731 42.893 37.3441 42.831C37.0001 42.686 36.7171 42.462 36.4631 42.194C36.1291 41.81 35.8751 41.393 35.8931 40.858C35.9401 40.599 36.0861 40.416 36.3191 40.298Z" fill="#F4BAFE"/>
<path fill-rule="evenodd" clip-rule="evenodd" d="M3.27213 11.292C2.90613 11.997 2.24414 11.943 1.60214 11.944C0.178144 8.694 -0.22286 6.758 0.11014 4.328C2.20714 6.317 2.41913 8.95699 3.27213 11.292Z" fill="#524D54"/>
<path fill-rule="evenodd" clip-rule="evenodd" d="M20.5741 57.632C21.5651 56.894 22.7181 57.721 23.8551 57.249C24.5881 56.944 24.8111 58.228 24.2791 58.636C23.2191 59.447 22.8191 60.572 22.3121 61.676C20.5511 61.336 20.7261 59.848 20.4851 58.605C20.5151 58.281 20.5441 57.956 20.5741 57.632Z" fill="#373439"/>
<path fill-rule="evenodd" clip-rule="evenodd" d="M22.4201 10.63C22.2851 11.343 22.0371 11.945 21.1571 11.941C20.3601 10.05 19.5651 8.16201 18.7671 6.27201C18.6431 5.18401 19.1801 5.236 19.9071 5.611C21.1371 7.087 22.0721 8.71201 22.4201 10.63Z" fill="#4C484F"/>
<path fill-rule="evenodd" clip-rule="evenodd" d="M19.9081 5.61099C19.4041 5.61899 19.0001 5.796 18.7681 6.272C17.6911 3.887 15.8621 2.037 14.2391 0C17.3231 0.713 18.6101 3.16699 19.9081 5.61099Z" fill="#69636D"/>
<path fill-rule="evenodd" clip-rule="evenodd" d="M25.7531 26.299C24.8031 26.7 23.8531 27.102 22.9021 27.503C22.4221 25.774 23.5321 23.956 22.2361 22.188C23.2561 22.266 23.9031 22.315 24.5511 22.365C24.6121 22.544 24.6731 22.722 24.7371 22.9C24.5191 23.831 24.8761 24.416 25.7971 24.658L25.7961 24.655C26.1481 25.212 26.2091 25.762 25.7531 26.299Z" fill="#45374C"/>
<path fill-rule="evenodd" clip-rule="evenodd" d="M31.6331 85.603C31.8111 84.557 33.2081 85.006 33.4931 84.089C33.6691 83.398 32.6641 83.022 33.0141 82.287C33.3241 81.992 33.7621 81.886 34.0201 82.168C34.5151 82.711 34.9581 83.326 35.3021 83.976C35.7661 84.85 35.8391 85.585 34.4531 85.636C33.8851 85.656 33.9091 86.31 33.8031 86.753C33.0321 86.458 32.5671 85.588 31.6331 85.603Z" fill="#423F44"/>
<path fill-rule="evenodd" clip-rule="evenodd" d="M56.4311 92.911C56.9211 90.737 56.6441 88.512 56.8051 86.28C57.8871 88.028 58.1621 89.911 58.2151 91.847C58.2911 92.031 58.2571 92.192 58.1141 92.331C57.7181 93.006 57.2681 93.523 56.4311 92.911Z" fill="#333035"/>
<path fill-rule="evenodd" clip-rule="evenodd" d="M47.1921 44.894C46.9201 44.982 46.5571 44.988 46.3901 45.17C44.5961 47.127 44.0011 47.099 42.1951 44.816C43.1231 44.875 43.6691 45.754 44.6331 45.679C45.2401 44.538 44.0421 44.063 43.6851 43.287C43.7741 42.983 43.9461 42.925 44.2031 43.11C45.1781 43.738 46.4191 43.922 47.1921 44.894Z" fill="#6A5374"/>
<path fill-rule="evenodd" clip-rule="evenodd" d="M56.4311 92.911C57.0701 92.945 57.5731 92.579 58.1151 92.332C56.9751 95.922 56.0811 96.727 53.5981 96.329C53.3551 96.291 53.1491 96.011 52.9271 95.843L53.1031 95.648C53.7811 93.919 53.7811 93.919 56.4351 92.907L56.4311 92.911Z" fill="#423F44"/>
<path fill-rule="evenodd" clip-rule="evenodd" d="M37.3911 37.493C37.2211 37.384 37.0381 37.339 36.8391 37.355C36.6221 36.958 36.4061 36.56 36.1911 36.163C36.7711 35.42 37.3501 34.679 37.9281 33.936C38.2071 34.63 38.7101 35.012 39.4681 35.039C38.8641 35.933 38.7321 37.226 37.3911 37.493Z" fill="#796084"/>
<path fill-rule="evenodd" clip-rule="evenodd" d="M44.2021 43.111C44.0281 43.171 43.8571 43.229 43.6841 43.288C42.6411 42.894 41.7051 43.276 40.7771 43.692C40.9791 42.944 39.7801 42.154 40.8451 41.432C41.4311 43.061 43.2861 42.146 44.2021 43.111Z" fill="#D592E8"/>
<path fill-rule="evenodd" clip-rule="evenodd" d="M37.0801 103.405C38.2781 103.624 38.9361 104.394 39.0921 105.549C39.1971 106.348 39.5871 106.761 40.3501 106.885C39.7721 107.682 38.7311 107.709 38.7481 106.867C38.7781 105.296 37.5991 104.56 37.0801 103.405Z" fill="#4A474C"/>
<path fill-rule="evenodd" clip-rule="evenodd" d="M35.1321 19.971C34.7141 19.953 34.2771 19.533 33.8891 20.042C33.2601 19.452 32.9271 18.739 32.8081 17.662C34.3571 17.912 34.7541 18.933 35.1321 19.971Z" fill="#8C7994"/>
<path fill-rule="evenodd" clip-rule="evenodd" d="M69.0921 91.195C69.8171 91.184 70.5421 91.163 71.2691 91.167C71.9941 91.171 72.5011 90.925 72.5801 90.124C73.4031 90.807 73.3141 91.457 72.2961 91.646C71.2271 91.844 70.0771 91.926 69.0921 91.195Z" fill="#444146"/>
<path fill-rule="evenodd" clip-rule="evenodd" d="M23.2791 97.604C24.7121 98.186 25.7231 99.187 26.2951 100.626C25.0091 99.899 23.9261 98.97 23.2791 97.604Z" fill="#49464B"/>
<path fill-rule="evenodd" clip-rule="evenodd" d="M28.9971 92.998C30.3901 93.476 31.4031 94.2871 31.5341 95.8781C30.5621 95.0291 29.6531 94.126 28.9971 92.998Z" fill="#4A474C"/>
<path fill-rule="evenodd" clip-rule="evenodd" d="M25.7971 24.658C25.2841 24.849 24.7391 25.216 24.3191 24.533C23.9041 23.864 23.9961 23.291 24.7371 22.9C25.2101 23.415 25.6121 23.972 25.7971 24.658Z" fill="#66506F"/>
<path fill-rule="evenodd" clip-rule="evenodd" d="M28.0271 103.149C28.0491 104.069 28.4802 104.299 29.2872 103.893C29.1752 105.359 28.2961 105.256 27.2751 104.936C27.1831 104.147 27.4271 103.569 28.0271 103.149Z" fill="#49464B"/>
<path fill-rule="evenodd" clip-rule="evenodd" d="M72.5871 70.927C71.6051 69.81 72.1881 68.49 72.1101 67.254C72.7081 68.421 72.6131 69.678 72.5871 70.927Z" fill="#454247"/>
<path fill-rule="evenodd" clip-rule="evenodd" d="M72.5171 90.06C71.5641 89.771 70.1581 90.66 69.7361 88.99C70.4701 89.848 71.7921 89.177 72.5171 90.06Z" fill="#444146"/>
<path fill-rule="evenodd" clip-rule="evenodd" d="M34.3091 87.182C35.2611 87.11 36.1731 87.095 36.1281 88.453C35.4141 88.183 34.7681 87.818 34.3091 87.182Z" fill="#423F44"/>
<path fill-rule="evenodd" clip-rule="evenodd" d="M11.3231 24.666C11.4071 23.524 12.1561 23.454 13.0391 23.6C13.0511 23.755 13.0551 23.911 13.0511 24.065C12.6271 24.302 12.2031 24.538 11.7791 24.775L11.5331 24.797L11.3231 24.666Z" fill="#4E4452"/>
<path fill-rule="evenodd" clip-rule="evenodd" d="M18.6991 91.224C19.6691 91.457 20.0271 92.104 19.9421 93.053C19.3361 92.573 18.9991 91.912 18.6991 91.224Z" fill="#49464B"/>
<path fill-rule="evenodd" clip-rule="evenodd" d="M33.1701 98.738C34.0961 98.968 34.4811 99.575 34.3971 100.505C33.7431 100.086 33.4451 99.419 33.1701 98.738Z" fill="#4A474C"/>
<path fill-rule="evenodd" clip-rule="evenodd" d="M68.0211 84.237C67.1161 83.523 67.5051 82.546 67.4951 81.65C68.0781 82.43 68.1091 83.322 68.0211 84.237Z" fill="#444146"/>
<path fill-rule="evenodd" clip-rule="evenodd" d="M27.9691 99.856C27.1731 99.823 26.6561 99.4071 26.3621 98.6831C27.1901 98.6721 27.6861 99.118 27.9691 99.856Z" fill="#49464B"/>
<path fill-rule="evenodd" clip-rule="evenodd" d="M75.4401 82.4881C74.6931 81.8321 74.9701 80.9631 74.9591 80.1541C75.5041 80.8541 75.5131 81.6621 75.4401 82.4881Z" fill="#49464B"/>
<path fill-rule="evenodd" clip-rule="evenodd" d="M20.9321 94.722C21.9231 94.867 22.3061 95.494 22.2901 96.436C21.6561 96.009 21.2241 95.42 20.9321 94.722Z" fill="#49464B"/>
<path fill-rule="evenodd" clip-rule="evenodd" d="M33.8211 96.373C33.1381 96.054 32.7381 95.539 32.7151 94.766C33.4601 95.042 33.8221 95.582 33.8211 96.373Z" fill="#4A474C"/>
<path fill-rule="evenodd" clip-rule="evenodd" d="M34.3701 100.466C35.2691 100.73 35.6401 101.348 35.5751 102.258C34.9441 101.817 34.4671 101.269 34.3701 100.466Z" fill="#4A474C"/>
<path fill-rule="evenodd" clip-rule="evenodd" d="M36.1451 100.422C35.4321 100.095 35.0421 99.554 35.0331 98.756C35.8201 99.033 36.1051 99.647 36.1451 100.422Z" fill="#4A474C"/>
<path fill-rule="evenodd" clip-rule="evenodd" d="M65.9971 83.1479C67.2641 83.6639 66.7161 84.746 66.7741 85.64C66.1951 84.909 66.3081 83.9619 65.9971 83.1479Z" fill="#444146"/>
<path fill-rule="evenodd" clip-rule="evenodd" d="M70.9231 71.517C71.7581 72.252 71.3911 73.209 71.3981 74.099C70.8221 73.316 70.8561 72.42 70.9231 71.517Z" fill="#454247"/>
<path fill-rule="evenodd" clip-rule="evenodd" d="M22.3201 77.306C22.2671 78.115 22.5731 79.016 21.7121 79.612C21.5851 78.756 21.6181 77.944 22.3201 77.306Z" fill="#49464B"/>
<path fill-rule="evenodd" clip-rule="evenodd" d="M22.9531 81.49C22.9321 80.627 22.6201 79.7 23.4811 79.027C23.6151 79.915 23.5981 80.77 22.9531 81.49Z" fill="#49464B"/>
<path fill-rule="evenodd" clip-rule="evenodd" d="M73.0901 79.646C74.1441 80.277 73.7091 81.275 73.7081 82.167C73.2221 81.397 73.1941 80.511 73.0901 79.646Z" fill="#49464B"/>
<path fill-rule="evenodd" clip-rule="evenodd" d="M73.2111 74.4039C72.3391 73.7089 72.6721 72.7659 72.6921 71.8879C73.1201 72.6749 73.2381 73.5249 73.2111 74.4039Z" fill="#49464B"/>
<path fill-rule="evenodd" clip-rule="evenodd" d="M25.7531 26.299C25.7681 25.75 25.7811 25.202 25.7961 24.655C26.0091 24.873 26.2221 25.091 26.4361 25.311C26.2901 25.698 26.3961 26.257 25.7531 26.299Z" fill="#66506F"/>
<path fill-rule="evenodd" clip-rule="evenodd" d="M40.3301 106.886C40.2991 106.285 40.2691 105.687 40.2381 105.087C41.0801 105.646 40.9231 106.254 40.3301 106.886Z" fill="#4A474C"/>
<path fill-rule="evenodd" clip-rule="evenodd" d="M71.4561 74.4C72.1491 74.836 72.0401 75.524 72.0171 76.183C71.5311 75.683 71.4091 75.069 71.4561 74.4Z" fill="#454247"/>
<path fill-rule="evenodd" clip-rule="evenodd" d="M66.8251 85.965C67.5571 86.46 67.3961 87.198 67.3531 87.905C66.8391 87.351 66.7641 86.676 66.8251 85.965Z" fill="#444146"/>
<path fill-rule="evenodd" clip-rule="evenodd" d="M19.9881 88.8329C19.9831 88.1979 19.9121 87.539 20.5671 87.127C20.7141 87.811 20.5441 88.3889 19.9881 88.8329Z" fill="#49464B"/>
<path fill-rule="evenodd" clip-rule="evenodd" d="M22.3021 83.487C22.2961 82.899 22.2381 82.295 22.8531 81.927C22.9001 82.526 22.9561 83.132 22.3021 83.487Z" fill="#49464B"/>
<path fill-rule="evenodd" clip-rule="evenodd" d="M74.9642 80.177C74.2542 79.757 74.3631 79.071 74.3871 78.411C74.8951 78.896 75.0402 79.5 74.9642 80.177Z" fill="#49464B"/>
<path fill-rule="evenodd" clip-rule="evenodd" d="M72.5121 77.912C73.3461 78.293 73.1911 79.012 73.1221 79.702C72.5511 79.232 72.4961 78.583 72.5121 77.912Z" fill="#49464B"/>
<path fill-rule="evenodd" clip-rule="evenodd" d="M20.5671 82.4661C20.6011 83.1301 20.6911 83.8151 19.9681 84.2231C19.9211 83.5531 20.0881 82.9571 20.5671 82.4661Z" fill="#49464B"/>
<path fill-rule="evenodd" clip-rule="evenodd" d="M66.7791 79.0191C66.1531 78.5581 66.2751 77.887 66.2811 77.248C66.7141 77.763 66.8171 78.3701 66.7791 79.0191Z" fill="#444146"/>
<path fill-rule="evenodd" clip-rule="evenodd" d="M74.3981 78.436C73.6491 77.992 73.7811 77.276 73.8331 76.584C74.2951 77.118 74.3921 77.763 74.3981 78.436Z" fill="#49464B"/>
<path fill-rule="evenodd" clip-rule="evenodd" d="M71.9961 76.155C72.7551 76.585 72.6301 77.282 72.5421 77.968C71.9931 77.474 71.9901 76.816 71.9961 76.155Z" fill="#49464B"/>
<path fill-rule="evenodd" clip-rule="evenodd" d="M19.9771 84.197C19.9991 84.891 20.1251 85.632 19.2091 85.901C19.4061 85.306 19.4221 84.631 19.9771 84.197Z" fill="#49464B"/>
<path fill-rule="evenodd" clip-rule="evenodd" d="M73.7661 84.2319C74.3071 84.4389 74.6961 84.8069 74.9341 85.3359C74.1291 85.4059 73.6791 85.1019 73.7661 84.2319Z" fill="#49464B"/>
<path fill-rule="evenodd" clip-rule="evenodd" d="M19.9841 90.592C19.2411 90.015 19.2341 89.434 19.9801 88.854C19.9801 89.433 19.9831 90.013 19.9841 90.592Z" fill="#49464B"/>
<path fill-rule="evenodd" clip-rule="evenodd" d="M26.9451 88.871C26.9261 89.487 26.9091 90.103 26.8871 90.72C26.0251 90.076 26.3591 89.47 26.9451 88.871Z" fill="#4A474C"/>
<path fill-rule="evenodd" clip-rule="evenodd" d="M24.0521 68.042C24.8581 66.691 26.3751 66.987 27.8291 66.25C27.4121 69.736 28.8311 72.283 31.1471 74.635C31.6121 73.996 31.0681 73.026 31.7211 72.5C31.4721 71.893 30.9011 72.17 30.4941 72.023C29.8211 71.779 29.1441 71.414 29.5351 70.606C30.0241 69.592 30.5801 70.324 31.0911 70.718C31.3021 70.882 31.5601 70.986 31.7951 71.115C32.3831 70.512 32.0411 69.816 32.1441 69.197C32.6661 69.463 33.2041 69.773 33.1411 70.443C33.0851 71.03 32.9161 71.669 33.6011 71.91C35.2301 72.483 34.7631 73.833 34.8581 75.203C33.6441 75.071 32.8501 76.295 31.5691 76.148C30.8751 76.477 30.1781 76.739 29.3791 76.72C27.8081 76.684 26.9841 76.051 27.0431 74.526C27.0931 73.258 27.4991 72.11 26.1351 71.113C25.4151 70.589 26.9201 69.946 26.6141 68.876C25.5801 69.262 24.4541 69.665 23.3481 68.93C23.5961 68.62 23.8241 68.332 24.0521 68.042Z" fill="#373439"/>
<path fill-rule="evenodd" clip-rule="evenodd" d="M47.7421 79.0359C48.7571 81.2689 49.1491 83.7289 50.2841 85.9229C50.8491 87.0149 51.3381 88.1389 52.3671 88.8969C52.6371 89.0009 52.8201 89.1889 52.9181 89.4609C53.3081 90.2969 54.7741 90.2249 54.6371 91.6189C53.1381 92.1149 52.1461 91.2009 51.1781 90.3099C49.4221 88.6939 48.5561 86.516 47.9421 84.334C46.8981 80.627 45.0871 77.2709 43.6101 73.7619C43.3911 73.2429 43.2741 72.6809 43.1091 72.1379C42.9401 71.4449 42.2991 70.6089 43.6451 70.3779C44.8661 73.3379 46.1201 76.2799 47.7491 79.0469L47.7421 79.0359Z" fill="#EFEFEF"/>
<path fill-rule="evenodd" clip-rule="evenodd" d="M45.4151 53.035C46.1871 53.326 46.7171 54.072 47.5881 54.085C47.5631 54.976 46.7341 55.137 46.3781 55.607C46.8041 56.64 47.6321 56.414 48.3571 56.447C48.5571 56.184 48.7421 56.206 48.9161 56.473C49.1041 56.99 49.5861 57.477 49.3801 58.042C49.0651 58.906 48.3571 59.022 47.7351 58.434C47.5941 58.3 47.9621 57.606 47.2151 57.637C46.7221 57.657 46.2991 57.78 46.0191 58.216C45.7781 58.57 44.7271 58.491 45.4191 59.341C44.1051 60.425 42.8031 61.562 40.9581 60.063C40.9071 59.119 41.1761 58.081 40.8121 57.089C41.5091 54.786 43.6651 54.141 45.4151 53.035Z" fill="#55445C"/>
<path fill-rule="evenodd" clip-rule="evenodd" d="M39.6961 52.421C38.8871 52.324 38.3751 53.091 37.4911 53.167C37.2351 51.758 38.2911 51.403 39.1841 50.95C40.8931 50.08 40.5161 50.298 39.5601 48.574C38.8091 47.22 37.9971 46.81 36.7321 46.626C36.8201 45.419 37.4721 45.142 38.5321 45.536C38.7461 45.787 39.0101 45.696 39.2921 45.699C41.3961 45.716 42.0721 46.387 42.2401 48.34C42.2911 48.926 41.6851 49.668 42.5481 50.12C42.4331 51.924 40.6671 51.682 39.6961 52.421Z" fill="#644B6F"/>
<path fill-rule="evenodd" clip-rule="evenodd" d="M43.6451 70.378C42.9991 70.823 43.2341 71.536 43.1091 72.138C42.2321 70.86 42.6031 69.125 41.5641 67.906C39.9801 64.841 38.3971 61.775 36.8131 58.71C36.4511 58.424 36.3601 58.042 36.4151 57.607C36.5511 57.178 36.8111 56.902 37.2891 56.887C38.3261 57.158 38.0551 58.215 38.4741 58.859C39.5861 61.665 41.0461 64.301 42.4381 66.971C43.0021 68.054 43.6941 69.081 43.6451 70.378Z" fill="#D9D6DA"/>
<path fill-rule="evenodd" clip-rule="evenodd" d="M38.5321 45.536C37.9321 45.898 37.3331 46.263 36.7331 46.626C35.3021 47.584 33.7791 48.341 32.1161 48.803C31.5491 46.784 30.2741 48.602 29.1331 48.194C29.2621 47.474 29.6701 46.699 29.3701 45.695C30.0981 46.119 30.5701 46.392 31.0411 46.667C32.7691 46.827 33.9681 45.63 35.3701 44.967C36.7781 44.277 38.0151 43.176 39.7031 43.163C40.0581 43.345 40.4111 43.525 40.7651 43.705C40.3701 44.741 39.0481 44.649 38.5321 45.536Z" fill="#D592E8"/>
<path fill-rule="evenodd" clip-rule="evenodd" d="M48.9131 54.165C49.1371 52.973 48.1201 51.964 48.4051 50.762C49.9351 50.465 50.4581 52.417 51.9061 52.35C51.9871 52.345 52.2391 52.962 52.1641 53.035C50.9601 54.215 53.2331 56.792 50.3531 57.421C49.8341 56.308 51.4471 54.221 48.9131 54.165Z" fill="#322E35"/>
<path fill-rule="evenodd" clip-rule="evenodd" d="M52.3301 61.628C51.2881 61.938 50.5591 62.771 49.6261 63.251C48.8291 63.659 48.0671 64.458 46.9221 63.684C50.7511 61.144 54.7451 58.958 58.1811 55.91C57.9431 57.705 56.5461 58.513 55.3511 59.479C54.7721 60.797 53.7341 61.47 52.3301 61.628Z" fill="#D8D7D8"/>
<path fill-rule="evenodd" clip-rule="evenodd" d="M35.0421 67.453C35.3381 67.22 35.6901 67.03 35.9231 66.744C37.8501 64.387 38.9261 64.561 40.2441 67.465C40.0641 67.433 39.8261 67.463 39.7121 67.358C38.5621 66.299 38.4611 67.049 38.4921 68.049C37.9741 68.532 38.0881 69.436 37.3491 69.774C36.7861 70.017 36.2641 70.384 35.6121 70.352L35.6181 70.355C35.5331 69.558 35.8801 68.651 35.0371 68.044C34.8981 67.845 34.9011 67.649 35.0421 67.453Z" fill="#343136"/>
<path fill-rule="evenodd" clip-rule="evenodd" d="M51.2291 79.6121C51.3321 78.5911 50.9762 77.522 51.6282 76.373C52.5862 76.702 53.2291 77.7171 54.2981 77.7731C54.4241 77.7711 54.5511 77.7691 54.6771 77.7681C54.8931 78.3011 55.3431 78.4271 55.8531 78.4481C55.9961 78.6161 56.0621 78.8071 56.0441 79.0281C55.9281 79.4321 55.9521 79.8341 56.0951 80.2321C56.1231 80.4591 56.0362 80.6331 55.8562 80.7631C54.9492 80.9081 54.0331 81.2611 53.3011 80.2761C52.8011 79.6031 52.0011 79.579 51.2281 79.606L51.2291 79.6121Z" fill="#373439"/>
<path fill-rule="evenodd" clip-rule="evenodd" d="M40.9671 73.386C41.4551 74.324 41.8441 75.068 42.2871 75.923C41.6801 76.67 41.0411 77.454 40.3561 78.293C38.9541 74.445 38.9541 74.445 40.9671 73.386Z" fill="#353237"/>
<path fill-rule="evenodd" clip-rule="evenodd" d="M38.4731 58.858C38.0981 58.256 37.7251 57.655 37.3501 57.054C36.2271 56.328 36.2421 55.322 36.6511 54.217C37.5051 54.128 38.3851 54.092 38.8631 54.963C39.2391 55.649 39.6971 55.537 40.2421 55.318C40.7341 55.905 40.6761 56.492 40.2421 57.078C40.2181 58.236 38.2981 57.504 38.4731 58.858Z" fill="#55445C"/>
<path fill-rule="evenodd" clip-rule="evenodd" d="M51.7221 72.0209C50.8461 72.1779 50.1001 73.1559 48.7921 72.2879C51.5421 70.6809 53.7181 68.4909 56.5901 67.1899C56.9751 68.3879 56.1031 68.6159 55.8261 69.1609C54.9571 70.8329 53.4161 71.5359 51.7221 72.0209Z" fill="#D4D3D5"/>
<path fill-rule="evenodd" clip-rule="evenodd" d="M48.2121 50.555C48.0411 50.57 47.9061 50.645 47.8061 50.783C47.1001 51.295 46.7601 52.639 45.4681 51.807C44.8611 50.923 44.3211 52.0161 43.7401 51.8681C42.3261 51.8151 43.1541 50.996 43.4471 50.69C44.1561 49.95 45.0701 49.421 45.8171 48.702C46.4251 48.306 47.0451 47.9671 47.7911 48.3551C48.7501 48.9311 49.2161 49.603 48.2121 50.555Z" fill="#DFDAE1"/>
<path fill-rule="evenodd" clip-rule="evenodd" d="M52.9181 89.46C52.5861 89.416 52.4041 89.227 52.3671 88.896C53.5501 87.487 52.4951 86.624 50.8221 85.511C53.2511 85.568 54.5501 86.332 55.9721 87.265C55.1401 88.495 53.7911 88.657 52.9181 89.46Z" fill="#312E33"/>
<path fill-rule="evenodd" clip-rule="evenodd" d="M55.8521 79.031C55.8521 78.837 55.8521 78.641 55.8521 78.447C56.2741 77.914 56.5211 76.969 57.4921 77.852C57.9061 78.227 58.2201 78.117 58.7941 77.583C59.3311 79.557 58.7171 80.223 55.8551 80.762C55.8531 80.569 55.8531 80.373 55.8521 80.18C55.5121 79.798 55.5121 79.415 55.8521 79.031Z" fill="#2F2C31"/>
<path fill-rule="evenodd" clip-rule="evenodd" d="M40.2411 57.079C40.2411 56.493 40.2411 55.906 40.2411 55.319C40.8051 55.252 41.4691 55.152 41.6851 54.624C42.4241 52.815 43.9241 52.976 45.4141 53.034C44.4111 54.989 42.1371 55.5 40.8131 57.09C40.8111 57.09 40.5261 57.071 40.5261 57.071L40.2411 57.079Z" fill="#6C4E79"/>
<path fill-rule="evenodd" clip-rule="evenodd" d="M46.0231 48.936C45.6201 49.835 44.8771 50.372 44.0501 50.844C43.6801 51.056 43.1491 51.3221 43.7401 51.8681C42.3701 51.8931 41.1151 52.772 39.6951 52.421C40.3551 51.294 41.7981 51.137 42.5471 50.12C43.5011 49.531 44.4561 48.9421 45.4101 48.3551C45.9951 48.1501 46.1101 48.436 46.0231 48.936Z" fill="#CFBFD5"/>
<path fill-rule="evenodd" clip-rule="evenodd" d="M56.4351 92.9061C56.6391 93.4281 56.8731 93.9131 56.3451 94.4361C55.2751 95.4991 54.8491 94.995 54.6801 93.774C53.7001 94.063 54.5901 95.8501 53.1031 95.6481C52.7031 94.2931 53.2101 93.3221 54.3211 92.5281C55.2041 91.8961 55.8331 92.2041 56.4351 92.9061Z" fill="#312E33"/>
<path fill-rule="evenodd" clip-rule="evenodd" d="M35.0421 67.453C35.0401 67.65 35.0382 67.846 35.0372 68.044C34.2632 68.904 32.7402 67.888 32.1452 69.197C31.4272 68.822 30.7151 68.253 31.1731 67.447C31.6261 66.647 32.3862 66.036 33.4602 66.961C33.8992 67.341 34.2361 66.725 34.4491 66.309C34.6441 66.152 34.8421 66.144 35.0391 66.308C35.0401 66.69 35.0421 67.071 35.0421 67.453Z" fill="#322F34"/>
<path fill-rule="evenodd" clip-rule="evenodd" d="M47.7481 79.047C47.8801 78.113 48.2001 77.271 49.1211 76.374C49.5931 77.682 49.8471 79.083 51.2281 79.611L51.2261 79.605C51.2061 79.983 51.1881 80.361 51.1501 81.121C49.8441 80.449 48.9801 79.371 47.7421 79.036L47.7481 79.047Z" fill="#343136"/>
<path fill-rule="evenodd" clip-rule="evenodd" d="M52.8251 73.688C51.8751 73.641 51.7041 73.2561 52.3171 72.5281C53.5811 71.1861 54.6321 69.3731 56.9741 70.4331C56.4261 71.6621 54.9701 71.845 54.2111 72.831C53.9041 73.364 53.4401 73.649 52.8251 73.688Z" fill="#E1E0E1"/>
<path fill-rule="evenodd" clip-rule="evenodd" d="M45.8701 71.723C45.8261 70.303 46.4931 69.395 47.7541 68.667C49.1931 71.066 46.6441 70.889 45.8701 71.723Z" fill="#343136"/>
<path fill-rule="evenodd" clip-rule="evenodd" d="M56.9751 70.433C54.8861 69.937 53.9461 71.996 52.3181 72.528C52.1201 72.359 51.9211 72.191 51.7221 72.021C52.9871 70.921 54.2341 69.792 55.8271 69.161C56.0421 69.737 56.9011 69.731 56.9751 70.433Z" fill="#646265"/>
<path fill-rule="evenodd" clip-rule="evenodd" d="M52.9161 62.986C52.3911 62.717 52.3601 62.434 52.8921 62.134C53.7391 61.188 54.5001 60.114 55.9451 60.041C57.0061 60.669 55.8551 61.145 55.8321 61.699C55.7681 61.811 55.7051 61.925 55.6441 62.039C54.8781 62.765 54.0981 63.456 52.9161 62.986Z" fill="#DBDADB"/>
<path fill-rule="evenodd" clip-rule="evenodd" d="M53.0101 75.4051C53.1681 75.0421 53.3241 74.6811 53.4811 74.3181C53.7571 73.8111 54.1781 73.4701 54.7071 73.2521C55.2171 73.2261 55.6291 72.4911 56.3661 73.1531C56.2771 74.5661 54.5791 74.5241 54.0131 75.5001C53.6481 75.8061 53.2941 75.9711 53.0101 75.4051Z" fill="#DBDADB"/>
<path fill-rule="evenodd" clip-rule="evenodd" d="M37.3501 69.7751C37.3561 68.9511 37.7311 68.373 38.4931 68.05C38.3751 68.933 39.3391 69.4741 39.3561 70.3411C38.3861 70.8611 37.8561 70.3581 37.3501 69.7751Z" fill="#312E33"/>
<path fill-rule="evenodd" clip-rule="evenodd" d="M54.6761 77.768L54.4861 77.7179L54.2981 77.773C54.2161 77.413 54.1321 77.054 54.0481 76.696C54.1411 76.372 54.3451 76.16 54.6771 76.083C55.3641 75.948 55.9531 75.122 56.8121 75.838C56.7041 77.137 55.3101 77.053 54.6761 77.768Z" fill="#D6D5D7"/>
<path fill-rule="evenodd" clip-rule="evenodd" d="M55.9451 60.041C54.9281 60.738 53.9091 61.436 52.8921 62.134C52.7031 61.964 52.5161 61.797 52.3301 61.628C53.3371 60.911 54.3431 60.194 55.3511 59.479C55.5491 59.665 55.7451 59.854 55.9451 60.041Z" fill="#716F73"/>
<path fill-rule="evenodd" clip-rule="evenodd" d="M46.0231 48.936C45.8191 48.743 45.6151 48.5499 45.4111 48.3559C47.0121 46.6209 47.0121 46.6209 47.7921 48.3559C47.2081 48.5669 46.7001 49.008 46.0231 48.936Z" fill="#B1A7B5"/>
<path fill-rule="evenodd" clip-rule="evenodd" d="M59.4391 66.139C58.3091 67.059 57.5731 66.986 56.6301 66.463C57.3281 65.444 58.1241 65.692 59.4391 66.139Z" fill="#302D32"/>
<path fill-rule="evenodd" clip-rule="evenodd" d="M45.4191 59.342C45.1381 59.336 44.8531 59.367 44.5801 59.318C44.0621 59.224 43.7121 58.923 43.8371 58.356C43.9801 57.699 44.4591 57.827 44.9321 57.964C45.2871 58.068 45.6561 58.135 46.0191 58.216C45.8191 58.592 45.6201 58.967 45.4191 59.342Z" fill="#6A4E76"/>
<path fill-rule="evenodd" clip-rule="evenodd" d="M55.8311 61.699C56.0541 61.853 56.4801 62.034 56.4671 62.158C56.3221 63.305 55.0671 64.141 53.6631 64.088C53.9761 62.894 55.0051 62.353 55.8741 61.665L55.8311 61.699Z" fill="#DAD9DA"/>
<path fill-rule="evenodd" clip-rule="evenodd" d="M55.8741 61.6651C55.1381 62.4731 54.4001 63.2801 53.6631 64.0881C53.4131 63.7211 53.1651 63.3541 52.9161 62.9851C54.0381 62.8521 54.6221 61.5091 55.8741 61.6651Z" fill="#7B797D"/>
<path fill-rule="evenodd" clip-rule="evenodd" d="M54.6761 76.082C54.4681 76.285 54.2571 76.49 54.0471 76.695C53.2261 76.649 52.9601 76.153 53.0101 75.405C53.3451 75.436 53.6791 75.468 54.0131 75.5C54.2341 75.694 54.4561 75.888 54.6761 76.082Z" fill="#373439"/>
<path fill-rule="evenodd" clip-rule="evenodd" d="M54.7061 73.2521C54.4501 73.7831 53.9741 74.0611 53.4801 74.3181C53.2621 74.1091 53.0441 73.8971 52.8251 73.6871C53.1781 73.2251 53.6651 72.9801 54.2121 72.8311C54.3771 72.9711 54.5411 73.1121 54.7061 73.2521Z" fill="#6F6D71"/>
<path fill-rule="evenodd" clip-rule="evenodd" d="M54.0921 67.4231C53.5321 67.6111 53.1741 68.4181 52.2441 67.8471C52.4511 67.2641 53.0871 67.1691 53.5371 66.8801C54.1451 66.6301 54.2241 66.9191 54.0921 67.4231Z" fill="#B4B2B5"/>
<path fill-rule="evenodd" clip-rule="evenodd" d="M40.2391 67.46C40.6061 67.667 40.9731 67.876 41.3391 68.083C41.3341 68.446 41.2541 68.959 40.9041 68.921C39.9931 68.826 40.3501 68.008 40.2391 67.46Z" fill="#343136"/>
<path fill-rule="evenodd" clip-rule="evenodd" d="M54.0921 67.423C54.0401 67.106 53.8161 66.965 53.5371 66.88C53.9271 66.442 54.4421 65.9 54.9051 66.53C55.1711 66.893 54.5961 67.315 54.0921 67.423Z" fill="#918F92"/>
<path fill-rule="evenodd" clip-rule="evenodd" d="M35.6131 70.353C35.5421 70.768 35.5681 71.265 34.9291 71.227C34.8631 71.223 34.7541 71.114 34.7501 71.047C34.7081 70.411 35.2031 70.432 35.6181 70.356L35.6131 70.353Z" fill="#343136"/>
<path fill-rule="evenodd" clip-rule="evenodd" d="M48.9151 56.4739C48.7291 56.4739 48.5441 56.4659 48.3561 56.4479C48.4101 55.6529 48.0751 54.7619 48.9171 54.1589C48.9181 54.9299 48.9161 55.7019 48.9151 56.4739Z" fill="#322E35"/>
<path fill-rule="evenodd" clip-rule="evenodd" d="M51.0681 59.032C51.2291 59.099 51.4781 59.133 51.5261 59.248C51.5711 59.36 51.4472 59.646 51.3342 59.691C51.2202 59.736 50.9371 59.615 50.8891 59.501C50.8431 59.388 50.9991 59.192 51.0681 59.032Z" fill="#322E35"/>
<path fill-rule="evenodd" clip-rule="evenodd" d="M38.2921 76.877C38.1281 76.938 37.9281 77.088 37.8151 77.039C37.7021 76.987 37.6771 76.738 37.6141 76.576C37.7751 76.512 37.9781 76.362 38.0921 76.412C38.2041 76.465 38.2301 76.714 38.2921 76.877Z" fill="#353237"/>
<path fill-rule="evenodd" clip-rule="evenodd" d="M23.4681 65.152C23.4681 65.729 23.4681 66.305 23.4681 66.881C22.5681 66.306 21.6551 65.73 23.4681 65.152Z" fill="#373439"/>
<path fill-rule="evenodd" clip-rule="evenodd" d="M21.7381 62.838C21.9301 63.031 22.1211 63.223 22.3141 63.415C21.9711 63.894 21.4341 64.253 21.0401 63.729C20.7491 63.341 21.3501 63.035 21.7381 62.838Z" fill="#373439"/>
<path fill-rule="evenodd" clip-rule="evenodd" d="M36.6941 57.7569C36.7341 58.0739 36.7731 58.392 36.8131 58.709C36.6091 58.928 36.4031 59.147 36.1971 59.366C35.9151 59.765 35.5151 59.934 35.0381 59.945C34.4451 60.164 33.6871 60.799 33.2711 60.038C32.6701 58.94 31.6631 59.4349 30.8581 59.1839C30.7981 58.3629 31.0211 57.7529 31.8791 57.8519C32.5681 57.9299 33.0191 57.709 33.2481 57.144C33.8961 55.537 35.0341 56.24 36.0861 56.485C36.7051 56.709 36.4641 57.3449 36.6941 57.7569Z" fill="#39363C"/>
<path fill-rule="evenodd" clip-rule="evenodd" d="M31.4011 61.3359C33.6761 63.4539 33.2611 64.4979 30.6791 65.8819C29.8791 64.1779 31.2091 62.8669 31.4011 61.3359Z" fill="#2F2C31"/>
<path fill-rule="evenodd" clip-rule="evenodd" d="M36.6941 57.757C36.4911 57.332 36.2871 56.908 36.0851 56.485C35.9291 54.364 33.9941 52.643 34.6501 50.219C36.2141 51.194 35.4951 53.176 36.6511 54.218C36.8851 55.164 37.1171 56.11 37.3501 57.055C37.1321 57.287 36.9121 57.524 36.6941 57.757Z" fill="#C5BEC8"/>
<path fill-rule="evenodd" clip-rule="evenodd" d="M35.0391 66.308C34.8431 66.309 34.6451 66.309 34.4491 66.309C33.6551 65.615 33.6411 64.707 34.2641 64.052C34.8631 63.419 34.4151 62.618 34.8731 62.007C35.6351 62.488 36.2691 63.025 36.6781 64.11C35.1181 64.096 35.0861 65.206 35.0391 66.308Z" fill="#312E33"/>
<path fill-rule="evenodd" clip-rule="evenodd" d="M23.8381 60.875C25.0751 61.098 25.8581 61.787 26.2821 63.114C24.2321 63.588 24.0431 62.216 23.8381 60.875Z" fill="#373439"/>
<path fill-rule="evenodd" clip-rule="evenodd" d="M30.9671 51.889C30.4161 51.659 30.0481 51.255 29.8271 50.707C28.8481 50.349 27.5991 51.217 26.7961 50.045C28.0751 49.237 29.5371 49.567 30.9181 49.39C31.2021 50.217 32.0791 51.033 30.9671 51.889Z" fill="#4E4153"/>
<path fill-rule="evenodd" clip-rule="evenodd" d="M32.1481 55.315C32.1481 55.125 32.1481 54.937 32.1481 54.747C33.1331 54.363 31.9451 53.262 32.7781 52.824C34.3101 54.113 34.2651 54.294 32.1481 55.315Z" fill="#2E2A30"/>
<path fill-rule="evenodd" clip-rule="evenodd" d="M36.8011 48.009C37.3361 48.002 37.6431 48.352 37.7591 48.845C37.8631 49.273 37.6191 49.616 37.2141 49.714C36.5861 49.866 36.3831 49.389 36.2831 48.906C36.1991 48.506 36.3101 48.151 36.8011 48.009Z" fill="#644A6E"/>
<path fill-rule="evenodd" clip-rule="evenodd" d="M45.4681 51.807C46.6161 52.311 46.9581 50.972 47.8061 50.783C47.0281 52.654 46.7331 52.783 45.4681 51.807Z" fill="#796283"/>
<path fill-rule="evenodd" clip-rule="evenodd" d="M28.1011 57.634C27.9091 57.249 27.7141 56.863 27.5231 56.48C28.0371 56.515 28.7211 56.295 28.9361 56.918C29.1591 57.564 28.5021 57.526 28.1011 57.634Z" fill="#5B4665"/>
<path fill-rule="evenodd" clip-rule="evenodd" d="M35.0371 59.945C35.2861 59.479 35.7131 59.364 36.1961 59.366C36.2671 59.705 36.6501 60.111 36.2191 60.372C35.7471 60.66 35.3221 60.404 35.0371 59.945Z" fill="#56465D"/>
<path fill-rule="evenodd" clip-rule="evenodd" d="M26.7961 50.045C27.7961 50.316 28.9901 49.691 29.8271 50.707C29.4501 50.902 29.0731 51.097 28.6961 51.292C28.3301 51.322 28.1381 51.519 28.1321 51.889C27.0081 52.653 26.0811 53.552 26.1881 55.085C24.5421 55.373 23.6851 54.42 23.0071 53.461C22.5891 52.872 22.2541 52.407 21.5251 52.328C22.1401 50.981 23.3951 50.884 24.6261 50.738C24.7581 50.962 24.8781 51.428 25.0091 51.376C25.4971 51.177 25.0011 50.858 25.0091 50.581C25.4611 49.919 26.1431 50.029 26.7961 50.045Z" fill="#473F4A"/>
<path fill-rule="evenodd" clip-rule="evenodd" d="M33.8631 39.679C33.8871 39.956 33.9131 40.235 33.9361 40.514C33.9741 40.965 33.7971 41.333 33.5011 41.657C32.7441 42.276 31.8511 42.651 30.9781 43.064C29.2791 43.705 27.4851 44.082 26.0321 44.673C26.4131 44.304 26.9731 44.344 27.5211 44.909C27.3001 45.322 27.0791 45.735 26.6961 46.446C26.1041 45.49 24.2431 46.239 24.5821 44.298C24.7741 42.679 26.0121 41.906 27.1861 41.078C27.8991 41.106 28.6101 41.094 29.2891 40.822C30.2201 40.528 31.1441 40.229 32.0441 39.85C32.6361 39.649 33.2191 39.317 33.8631 39.679Z" fill="#DB96EE"/>
<path fill-rule="evenodd" clip-rule="evenodd" d="M27.4591 41.419C26.5001 42.38 25.5421 43.339 24.5811 44.299C23.3081 43.752 23.4821 42.62 23.4741 41.561C24.1401 40.645 25.2411 40.686 26.1631 40.336C26.6111 40.318 27.0401 40.384 27.4181 40.648C27.6571 40.893 27.6681 41.15 27.4591 41.419Z" fill="#F1B3FE"/>
<path fill-rule="evenodd" clip-rule="evenodd" d="M27.5211 44.909C26.8691 44.877 26.2141 44.845 25.5621 44.812C27.1331 43.411 29.1821 43.316 30.9781 42.585C31.4581 42.262 31.6501 42.572 31.8061 42.962C31.8141 43.23 31.7221 43.461 31.5331 43.652C30.0111 43.483 28.8621 44.499 27.5211 44.909Z" fill="#543E5D"/>
<path fill-rule="evenodd" clip-rule="evenodd" d="M31.5332 43.652C31.4942 43.488 31.5041 43.326 31.5601 43.167C32.1131 42.426 32.9881 42.138 33.7131 41.635C34.4381 41.085 35.1391 40.457 36.1651 40.827C36.4271 41.22 36.6901 41.612 36.9541 42.006C36.8821 42.114 36.8111 42.223 36.7421 42.332C36.1641 43.087 34.8542 42.966 34.6152 44.116C34.6702 44.341 34.6701 44.563 34.6211 44.786C34.4741 44.989 34.2852 45.043 34.0542 44.949C32.9882 44.955 31.9362 44.933 31.5332 43.652Z" fill="#BE82D0"/>
<path fill-rule="evenodd" clip-rule="evenodd" d="M26.3551 40.857C25.3941 41.091 24.4351 41.326 23.4741 41.561C22.4321 41.526 22.4621 41.026 22.9421 40.332C24.9931 40.186 26.8561 39.426 28.6881 38.564C29.1171 38.677 29.3831 38.931 29.4161 39.392C28.8551 40.84 27.2711 40.151 26.3551 40.857Z" fill="#895F99"/>
<path fill-rule="evenodd" clip-rule="evenodd" d="M34.0541 44.949C34.3001 44.979 34.5461 45.01 34.7921 45.042C35.1621 44.962 35.4011 45.12 35.5381 45.457C34.6791 45.968 33.8481 46.54 32.9501 46.97C32.3071 47.277 31.5291 47.664 31.0401 46.666C32.0441 46.093 33.0491 45.521 34.0541 44.949Z" fill="#61496A"/>
<path fill-rule="evenodd" clip-rule="evenodd" d="M25.0091 50.5811C25.5881 50.7611 26.3591 50.4701 26.7461 51.3731C26.1821 52.6881 24.9131 52.5021 23.8641 52.8451C23.4331 51.7341 24.4681 51.4251 24.6261 50.7381C24.7211 50.6071 24.8491 50.5541 25.0091 50.5811Z" fill="#353237"/>
<path fill-rule="evenodd" clip-rule="evenodd" d="M16.6151 29.922C15.9791 29.798 15.3041 29.714 15.5371 28.554C16.3871 28.564 16.9991 28.784 17.0921 29.81C16.9461 29.908 16.7881 29.945 16.6151 29.922Z" fill="#504455"/>
<path fill-rule="evenodd" clip-rule="evenodd" d="M23.4591 29.749C25.2061 29.225 26.9531 28.7 28.7011 28.175C29.0491 28.469 29.6481 28.243 29.8911 28.754C29.3021 29.128 28.7131 29.502 28.1251 29.877C26.8521 31.403 24.9291 30.278 23.4621 31.019C23.2741 31.072 23.0871 31.123 22.9011 31.175C22.2851 31.317 21.6211 31.533 21.7791 30.461C22.3401 30.223 22.9001 29.987 23.4591 29.749Z" fill="#876095"/>
<path fill-rule="evenodd" clip-rule="evenodd" d="M28.8371 31.107C28.8151 31.77 29.7021 31.635 29.7941 32.199C29.1791 32.547 28.5711 32.68 27.9851 32.143C26.9931 30.955 25.8791 32.859 24.8731 31.995C24.8361 31.58 25.2221 31.385 25.4151 31.077C26.1571 30.391 27.0411 30.1429 28.0341 30.2439C28.4261 30.4149 28.7331 30.668 28.8371 31.107Z" fill="#7B5888"/>
<path fill-rule="evenodd" clip-rule="evenodd" d="M21.7801 30.461C21.9681 30.993 22.4451 31.067 22.9021 31.175C22.9101 33.117 21.7161 32.849 20.3781 32.589C20.7031 31.682 21.0681 30.96 21.7801 30.461Z" fill="#EAA7FE"/>
<path fill-rule="evenodd" clip-rule="evenodd" d="M28.0331 30.305C27.1061 30.38 26.4211 31.272 25.4161 31.076C24.7661 31.058 24.1151 31.038 23.4641 31.018C24.9491 30.354 26.4571 29.788 28.1271 29.875L28.0981 29.843C28.2591 29.971 28.3041 30.08 28.2321 30.175C28.1631 30.263 28.0981 30.305 28.0331 30.305Z" fill="#CC90DC"/>
<path fill-rule="evenodd" clip-rule="evenodd" d="M27.9861 32.143C28.5891 32.162 29.1911 32.18 29.7951 32.199C29.3391 33.363 28.1721 33.232 27.1291 33.787C27.0261 32.864 27.3791 32.441 27.9861 32.143Z" fill="#74557F"/>
<path fill-rule="evenodd" clip-rule="evenodd" d="M28.0331 30.305C28.0621 30.153 28.0831 29.998 28.0971 29.844C28.4681 29.839 28.8391 29.83 29.2101 29.829C30.2261 29.827 30.3181 30.258 29.7551 30.994C29.4491 31.031 29.1431 31.069 28.8371 31.105C28.5681 30.84 28.3001 30.572 28.0331 30.305Z" fill="#876095"/>
<path fill-rule="evenodd" clip-rule="evenodd" d="M26.3551 40.857C27.1391 39.91 28.4211 39.921 29.3721 39.291C29.4621 38.709 29.9101 38.443 30.3561 38.172C30.9451 37.984 31.5211 37.53 32.1621 38.046C32.4421 38.489 32.9091 38.524 33.3611 38.588C33.5031 39.526 32.6901 39.606 32.1541 39.936C31.1521 40.287 30.1551 40.648 29.1871 41.086C28.6651 41.211 28.1341 41.388 27.6831 40.909C27.2411 40.891 26.7961 40.873 26.3551 40.857Z" fill="#DB96EE"/>
<path fill-rule="evenodd" clip-rule="evenodd" d="M32.1611 38.045C31.6121 38.24 31.0651 38.435 30.5161 38.63C30.0131 38.549 29.4981 38.485 29.2311 37.954C30.8531 37.181 32.3761 36.132 34.4731 35.942C34.1381 37.414 32.7831 37.32 32.1611 38.045Z" fill="#8F639F"/>
<path fill-rule="evenodd" clip-rule="evenodd" d="M36.1651 40.827C35.3921 41.214 34.6211 41.599 33.8481 41.987C33.2431 42.207 33.1451 41.925 33.2841 41.414C33.5011 41.114 33.7181 40.812 33.9351 40.512C34.7441 40.6 35.4131 39.15 36.3181 40.298C36.2741 40.475 36.2231 40.652 36.1651 40.827Z" fill="#604769"/>
<path fill-rule="evenodd" clip-rule="evenodd" d="M29.2321 37.954C29.7611 37.989 30.2861 38.031 30.5171 38.63C30.2351 39.023 29.8271 39.197 29.3711 39.29C29.1421 39.049 28.9151 38.806 28.6871 38.563C28.8701 38.361 29.0501 38.157 29.2321 37.954Z" fill="#594063"/>
<path fill-rule="evenodd" clip-rule="evenodd" d="M32.0371 39.488C32.4781 39.188 32.9201 38.887 33.3601 38.587C33.8551 38.8 33.8401 39.248 33.8631 39.679C33.3331 40.001 32.8551 40.458 32.1551 40.339C31.8871 40.088 31.8481 39.805 32.0371 39.488Z" fill="#4A3951"/>
<path fill-rule="evenodd" clip-rule="evenodd" d="M15.9501 24.674C16.1451 24.67 16.3431 24.666 16.5371 24.663C16.6541 24.664 16.7701 24.666 16.8861 24.666C17.2331 24.76 17.5211 24.937 17.6921 25.266C17.6131 26.057 17.9441 26.948 17.1311 27.559C16.5781 26.66 15.7091 25.891 15.9561 24.667L15.9501 24.674Z" fill="#684D74"/>
<path fill-rule="evenodd" clip-rule="evenodd" d="M16.5371 24.663C16.7151 23.102 17.9231 23.621 18.8261 23.527C19.0221 24.09 19.8261 24.643 18.8541 25.224C18.1821 24.621 17.2061 25.281 16.5371 24.663Z" fill="#403744"/>
<path fill-rule="evenodd" clip-rule="evenodd" d="M16.5371 24.664C17.3321 24.756 18.2321 24.421 18.8541 25.225C18.4661 25.239 18.0791 25.253 17.6911 25.267C17.2141 25.245 16.7791 25.14 16.5371 24.664Z" fill="#56465D"/>
<path fill-rule="evenodd" clip-rule="evenodd" d="M28.1331 51.889C27.8061 51.676 27.4991 51.378 27.8321 51.027C28.1711 50.671 28.4771 50.964 28.6961 51.292C28.5081 51.491 28.3221 51.691 28.1331 51.889Z" fill="#4E4153"/>
<path fill-rule="evenodd" clip-rule="evenodd" d="M29.8921 28.754C29.4301 28.695 28.9501 28.674 28.7021 28.175C29.2221 27.889 29.7381 27.214 30.3361 27.925C30.5741 28.21 30.2721 28.592 29.8921 28.754Z" fill="#664A71"/>
<path fill-rule="evenodd" clip-rule="evenodd" d="M15.9561 24.668C15.7321 24.515 15.4691 24.398 15.2961 24.201C15.0041 23.87 15.0491 23.49 15.4791 23.348C15.8201 23.236 15.9051 23.582 15.9321 23.854C15.9571 24.125 15.9471 24.401 15.9501 24.674L15.9561 24.668Z" fill="#684D74"/>
<path fill-rule="evenodd" clip-rule="evenodd" d="M5.07115 19.8C5.03615 19.145 5.42015 18.935 5.99415 18.927C5.91015 19.454 5.67415 19.823 5.07115 19.8Z" fill="#534658"/>
<path fill-rule="evenodd" clip-rule="evenodd" d="M35.5381 45.457C35.2881 45.318 35.0391 45.179 34.7911 45.04C34.7261 44.759 34.6571 44.477 34.5911 44.194C34.4301 43.228 35.3851 43.621 35.7201 43.254C36.2531 43.009 36.7711 42.6959 37.3981 42.7959C37.5871 42.7649 37.7591 42.693 37.9151 42.582C38.5121 42.262 39.0991 42.084 39.6161 42.725C39.6101 42.878 39.6381 43.024 39.7031 43.163C38.4801 44.227 36.8511 44.555 35.5381 45.457Z" fill="#56435E"/>
<path fill-rule="evenodd" clip-rule="evenodd" d="M37.3981 42.796C36.9771 43.463 36.4001 43.867 35.5831 43.858C35.1541 42.724 36.2631 42.572 36.7551 42.026L36.9531 42.005C37.1031 42.27 37.2501 42.531 37.3981 42.796Z" fill="#D592E8"/>
<path fill-rule="evenodd" clip-rule="evenodd" d="M39.6161 42.725C39.0501 42.677 38.4811 42.63 37.9151 42.582C38.5401 41.917 39.1291 41.716 39.6161 42.725Z" fill="#D592E8"/>
<path fill-rule="evenodd" clip-rule="evenodd" d="M28.5461 74.1741C28.6441 74.2831 28.8241 74.4011 28.8561 74.5511C28.8991 74.7541 28.7201 74.8541 28.4971 74.7781C28.4161 74.7521 28.3241 74.6751 28.2911 74.5971C28.1981 74.3761 28.2791 74.2331 28.5461 74.1741Z" fill="#3F3C41"/>
<path fill-rule="evenodd" clip-rule="evenodd" d="M55.8521 79.031C55.8521 79.415 55.8521 79.798 55.8521 80.18C55.4991 80.144 55.0451 80.111 54.9781 79.735C54.8661 79.106 55.4311 79.112 55.8521 79.031Z" fill="#423F44"/>
<path fill-rule="evenodd" clip-rule="evenodd" d="M34.9551 58.5911C34.8651 58.4671 34.6901 58.331 34.7021 58.219C34.7361 57.925 34.9681 57.8 35.2271 57.947C35.3321 58.007 35.4161 58.2681 35.3691 58.3791C35.3241 58.4871 35.1011 58.5241 34.9551 58.5911Z" fill="#56465D"/>
<path fill-rule="evenodd" clip-rule="evenodd" d="M32.0371 39.488C32.0771 39.771 32.1151 40.055 32.1551 40.339C31.2301 40.777 30.4021 41.482 29.2841 41.399C29.0721 41.3 28.9822 41.177 29.0162 41.029C29.0542 40.87 29.1021 40.789 29.1611 40.789C29.8641 39.79 31.0911 39.949 32.0371 39.488Z" fill="#5A4463"/>
<path fill-rule="evenodd" clip-rule="evenodd" d="M33.2841 41.414C33.4721 41.605 33.6591 41.796 33.8481 41.987C33.2291 42.659 32.4601 43.04 31.5601 43.167C31.3661 42.974 31.1711 42.779 30.9781 42.585C31.5151 41.737 32.3971 41.571 33.2841 41.414Z" fill="#7C578A"/>
<path fill-rule="evenodd" clip-rule="evenodd" d="M29.1621 40.788C29.2021 40.992 29.2431 41.196 29.2841 41.398C28.6791 41.612 28.0791 42.398 27.4591 41.419C27.5311 41.247 27.6031 41.077 27.6831 40.908C28.1751 40.869 28.6681 40.828 29.1621 40.788Z" fill="#9966AB"/>
<path fill-rule="evenodd" clip-rule="evenodd" d="M36.7541 42.026C36.7421 42.879 35.6581 43.046 35.5821 43.858C35.4031 44.423 34.8421 43.855 34.5901 44.195C34.0541 44.288 33.5081 44.488 32.8511 43.967C34.0391 42.973 35.1941 42.126 36.7541 42.026Z" fill="#7C5A88"/>
</svg>
