<svg width="120" height="54" viewBox="0 0 120 54" fill="none" xmlns="http://www.w3.org/2000/svg">
<path d="M34.5835 2.9V2.34H36.8435C38.3502 2.34 39.1302 2.36 39.1835 2.4L39.2835 2.5C39.3102 2.52667 39.9768 4.32 41.2835 7.88L43.2635 13.2L45.2435 7.88C46.5502 4.30667 47.2235 2.51333 47.2635 2.5C47.2768 2.47333 47.3035 2.44 47.3435 2.4C47.3968 2.36 48.1768 2.34 49.6835 2.34H51.9435V2.9V3.46H51.3835C50.4502 3.46 49.9568 3.50667 49.9035 3.6V14.74C49.9568 14.8333 50.4502 14.88 51.3835 14.88H51.9435V15.44V16H51.7235L50.1635 15.96C49.2702 15.9467 48.3768 15.9467 47.4835 15.96L45.9235 16H45.7035V15.44V14.88H46.2635C47.1968 14.88 47.6902 14.8333 47.7435 14.74C47.7568 14.7267 47.7635 12.8667 47.7635 9.16V3.64L45.5035 9.72C43.9968 13.7867 43.2368 15.8267 43.2235 15.84C43.0502 15.9333 42.8768 15.98 42.7035 15.98C42.4235 15.98 42.2568 15.94 42.2035 15.86C42.1502 15.8067 41.4035 13.8067 39.9635 9.86C38.4835 5.9 37.7435 3.9 37.7435 3.86C37.7302 3.84667 37.7235 3.87333 37.7235 3.94C37.7102 4.12667 37.7035 5.82 37.7035 9.02L37.7235 14.24L37.7635 14.34C37.9502 14.66 38.4902 14.84 39.3835 14.88H39.7635V15.44V16H39.5835L38.2835 15.96C37.5502 15.9467 36.8102 15.9467 36.0635 15.96L34.7635 16H34.5835V15.44V14.88H34.9635C35.8568 14.84 36.3968 14.66 36.5835 14.34L36.6435 14.24V8.94C36.6435 5.39333 36.6368 3.61333 36.6235 3.6C36.5702 3.50667 36.0768 3.46 35.1435 3.46H34.5835V2.9ZM56.3834 7.06C56.4367 7.03333 56.6234 7.03333 56.9434 7.06C57.4634 7.06 57.9234 7.12667 58.3234 7.26C58.95 7.47333 59.4567 7.78667 59.8434 8.2C60.19 8.56 60.4167 8.96 60.5234 9.4C60.55 9.50667 60.57 10.4067 60.5834 12.1C60.5834 13.74 60.5967 14.6133 60.6234 14.72C60.7167 14.9733 60.8567 15.06 61.0434 14.98C61.07 14.9667 61.1034 14.94 61.1434 14.9C61.2367 14.8067 61.2834 14.6 61.2834 14.28C61.2967 14.2 61.3034 14.06 61.3034 13.86V13.1H61.8034H62.3034V13.8C62.3034 14.3067 62.2967 14.5867 62.2834 14.64C62.2034 15.16 61.8967 15.5667 61.3634 15.86C60.8434 16.1133 60.3834 16.1867 59.9834 16.08C59.5967 15.9733 59.3034 15.7267 59.1034 15.34C59.05 15.26 59.01 15.1733 58.9834 15.08L58.9634 15L58.7834 15.18C58.5567 15.4067 58.2767 15.6 57.9434 15.76C57.3034 16.0933 56.61 16.2467 55.8634 16.22C54.9567 16.18 54.2367 15.8733 53.7034 15.3C53.5034 15.1 53.35 14.8867 53.2434 14.66C52.99 14.1267 52.95 13.5933 53.1234 13.06C53.3634 12.34 53.91 11.7733 54.7634 11.36C55.3767 11.0533 56.0834 10.84 56.8834 10.72C57.39 10.6267 57.9234 10.5667 58.4834 10.54H58.7034V10.06C58.69 9.72667 58.67 9.50667 58.6434 9.4C58.6034 9.22667 58.5167 9.03333 58.3834 8.82C58.0634 8.35333 57.65 8.08 57.1434 8C56.8367 7.94667 56.3967 7.96 55.8234 8.04C55.7167 8.06667 55.6567 8.08 55.6434 8.08C55.6167 8.08 55.6367 8.11333 55.7034 8.18C55.9167 8.46 55.99 8.8 55.9234 9.2C55.8167 9.65333 55.53 9.94 55.0634 10.06C54.6367 10.1667 54.2634 10.0667 53.9434 9.76C53.7034 9.53333 53.59 9.22667 53.6034 8.84C53.6167 8.64 53.67 8.44 53.7634 8.24C53.91 7.96 54.1767 7.70667 54.5634 7.48C55.03 7.25333 55.6367 7.11333 56.3834 7.06ZM58.7034 12.46V11.46H58.5834C58.33 11.46 58.05 11.4933 57.7434 11.56C57.29 11.64 56.8367 11.7733 56.3834 11.96C55.65 12.2933 55.2167 12.78 55.0834 13.42C55.0167 13.8333 55.0967 14.2133 55.3234 14.56C55.7234 15.1867 56.3234 15.4067 57.1234 15.22C57.1634 15.2067 57.2034 15.1933 57.2434 15.18C57.83 15.02 58.25 14.68 58.5034 14.16C58.53 14.0933 58.5567 14.0333 58.5834 13.98C58.6634 13.6733 58.7034 13.1667 58.7034 12.46ZM70.7434 6.96H71.2434C71.5767 7.02667 71.8234 7.22667 71.9834 7.56C72.25 8.09333 72.21 8.51333 71.8634 8.82C71.73 8.94 71.5634 9.00667 71.3634 9.02C70.9767 9.03333 70.7034 8.86667 70.5434 8.52C70.5167 8.45333 70.4967 8.38 70.4834 8.3C70.4567 8.15333 70.4767 8.06 70.5434 8.02L70.8234 8H70.8434L71.1234 7.98L71.1034 7.94C71.0767 7.91333 71.01 7.9 70.9034 7.9C70.5167 7.9 70.1367 8.03333 69.7634 8.3L69.6834 8.36L69.8234 8.54C70.0234 8.80667 70.1767 9.10667 70.2834 9.44C70.4167 9.94667 70.4167 10.44 70.2834 10.92C70.1767 11.2533 70.03 11.5467 69.8434 11.8C69.6434 12.08 69.43 12.3 69.2034 12.46C68.3234 13.14 67.3034 13.3667 66.1434 13.14C65.7967 13.0733 65.4634 12.9667 65.1434 12.82L64.9234 12.7L64.8634 12.84C64.7167 13.12 64.6967 13.4267 64.8034 13.76C64.91 14.0667 65.11 14.2733 65.4034 14.38C65.47 14.4067 65.99 14.4267 66.9634 14.44C68.0834 14.4533 68.81 14.4933 69.1434 14.56C69.9567 14.68 70.59 14.96 71.0434 15.4C71.55 15.8667 71.8234 16.5 71.8634 17.3C71.8767 17.7933 71.7234 18.24 71.4034 18.64C71.03 19.1067 70.4634 19.48 69.7034 19.76C68.5434 20.1733 67.31 20.2467 66.0034 19.98C65.91 19.9667 65.8167 19.9467 65.7234 19.92C65.35 19.8267 64.99 19.7 64.6434 19.54C63.4567 18.94 62.91 18.18 63.0034 17.26C63.0167 17.22 63.0234 17.18 63.0234 17.14C63.05 16.9933 63.1167 16.8067 63.2234 16.58C63.4234 16.1667 63.7367 15.84 64.1634 15.6L64.3034 15.52L64.1634 15.36C63.6434 14.6933 63.5034 13.9267 63.7434 13.06C63.8767 12.7267 63.9967 12.48 64.1034 12.32C64.1567 12.24 64.19 12.1933 64.2034 12.18C64.2034 12.1667 64.1767 12.12 64.1234 12.04C63.8567 11.7733 63.6434 11.4 63.4834 10.92C63.31 10.2667 63.37 9.62667 63.6634 9C63.8367 8.68 64.0234 8.42 64.2234 8.22C64.9034 7.51333 65.79 7.16 66.8834 7.16C67.6167 7.16 68.2767 7.33333 68.8634 7.68C68.9434 7.73333 68.99 7.76 69.0034 7.76L69.1434 7.64C69.5967 7.26667 70.13 7.04 70.7434 6.96ZM67.1834 8.14C66.5034 8.04667 65.9967 8.20667 65.6634 8.62C65.6234 8.67333 65.59 8.72667 65.5634 8.78C65.4567 9.00667 65.4034 9.47333 65.4034 10.18C65.4034 10.9 65.4567 11.3667 65.5634 11.58C65.7234 11.9533 66.0634 12.1733 66.5834 12.24C67.2634 12.3333 67.77 12.1733 68.1034 11.76C68.1434 11.7067 68.1767 11.6467 68.2034 11.58C68.3234 11.34 68.3834 10.8733 68.3834 10.18C68.3834 9.5 68.3234 9.03333 68.2034 8.78C68.03 8.42 67.69 8.20667 67.1834 8.14ZM68.2434 16.12C68.1367 16.1067 67.65 16.1 66.7834 16.1C65.9167 16.1 65.4034 16.14 65.2434 16.22C65.0167 16.34 64.8367 16.5267 64.7034 16.78C64.61 16.9667 64.5634 17.18 64.5634 17.42C64.5634 17.5933 64.5767 17.7133 64.6034 17.78C64.7767 18.26 65.23 18.64 65.9634 18.92C66.4034 19.0667 66.8967 19.14 67.4434 19.14C67.9767 19.14 68.47 19.0667 68.9234 18.92C69.6167 18.6667 70.0634 18.2867 70.2634 17.78C70.33 17.58 70.3367 17.3667 70.2834 17.14C70.07 16.54 69.39 16.2 68.2434 16.12ZM74.7234 2.66C75.19 2.55333 75.5967 2.66667 75.9434 3C76.1967 3.28 76.3234 3.58667 76.3234 3.92C76.3234 4.13333 76.2767 4.33333 76.1834 4.52C75.9434 4.97333 75.55 5.21333 75.0034 5.24C74.4967 5.24 74.1167 5.01333 73.8634 4.56C73.7567 4.36 73.7034 4.14667 73.7034 3.92C73.7034 3.72 73.75 3.52667 73.8434 3.34C74.0167 2.96667 74.31 2.74 74.7234 2.66ZM74.5834 7.28C75.7034 7.2 76.2367 7.16 76.1834 7.16H76.2434V10.94C76.2434 13.46 76.2567 14.7333 76.2834 14.76C76.3234 14.8 76.3567 14.82 76.3834 14.82C76.4634 14.86 76.7567 14.88 77.2634 14.88H77.6434V15.44V16H77.4834L76.3434 15.96C75.6767 15.9467 74.99 15.9467 74.2834 15.96C73.47 15.9867 73.0567 16 73.0434 16H72.8634V15.44V14.88H73.2834C73.9767 14.88 74.35 14.8333 74.4034 14.74C74.4167 14.7267 74.4234 13.8067 74.4234 11.98C74.4234 10.06 74.3967 9.03333 74.3434 8.9C74.3034 8.78 74.2234 8.69333 74.1034 8.64C73.9167 8.54667 73.6034 8.5 73.1634 8.5H72.9434V7.94V7.38H72.9834L74.5834 7.28ZM82.5498 7.06C82.8431 7.03333 83.2631 7.04 83.8098 7.08C84.7031 7.2 85.3498 7.49333 85.7498 7.96C85.8831 8.12 85.9764 8.30667 86.0298 8.52C86.0831 8.70667 86.0964 8.93333 86.0698 9.2C85.9631 9.66667 85.6631 9.95333 85.1698 10.06C84.6631 10.1667 84.2631 10.02 83.9698 9.62C83.8764 9.5 83.8098 9.36 83.7698 9.2C83.7031 8.8 83.7698 8.47333 83.9698 8.22C84.0098 8.18 84.0298 8.14667 84.0298 8.12C84.0298 8.08 83.7364 8.06 83.1498 8.06C82.8431 8.06 82.6564 8.06667 82.5898 8.08C82.2431 8.17333 81.9364 8.35333 81.6698 8.62C81.2298 9.06 80.9631 9.73333 80.8698 10.64C80.8164 11.1067 80.8098 11.68 80.8498 12.36C80.8631 12.4267 80.8698 12.48 80.8698 12.52C80.9631 13.16 81.1364 13.6733 81.3898 14.06C81.8564 14.7667 82.5298 15.1533 83.4098 15.22C83.9831 15.2333 84.4498 15.0267 84.8098 14.6C85.0364 14.3067 85.1964 13.9933 85.2898 13.66C85.3298 13.5267 85.3831 13.4533 85.4498 13.44C85.5031 13.4267 85.6231 13.42 85.8098 13.42H86.1898L86.2498 13.48C86.3164 13.5467 86.3098 13.68 86.2298 13.88C86.1631 14.12 86.0231 14.42 85.8098 14.78C85.1164 15.78 84.1298 16.26 82.8498 16.22C82.2098 16.18 81.6231 16.0267 81.0898 15.76C79.7698 15.08 78.9764 13.9467 78.7098 12.36C78.6564 12.04 78.6498 11.64 78.6898 11.16C78.7031 11.12 78.7098 11.0867 78.7098 11.06C78.8698 9.80667 79.4164 8.78667 80.3498 8C81.0031 7.48 81.7364 7.16667 82.5498 7.06ZM34.9902 23.72C35.0302 23.6933 35.1902 23.68 35.4702 23.68C35.7636 23.68 35.9302 23.6933 35.9702 23.72C36.0102 23.7333 36.0502 23.76 36.0902 23.8C36.1169 23.84 36.8302 25.9933 38.2302 30.26C39.6436 34.5533 40.3569 36.7067 40.3702 36.72C40.4236 36.8 40.6169 36.8467 40.9502 36.86C41.0836 36.8733 41.3702 36.88 41.8102 36.88H42.3302V37.44V38H42.1502C42.1636 38 41.6902 37.9867 40.7302 37.96C39.9169 37.9467 39.0502 37.9467 38.1302 37.96L36.5302 38H36.3102V37.44V36.88H36.6302C37.3502 36.88 37.7902 36.84 37.9502 36.76C37.9769 36.7333 37.9902 36.7067 37.9902 36.68C37.9902 36.7067 37.8636 36.3133 37.6102 35.5C37.3836 34.82 37.2436 34.3867 37.1902 34.2L37.1502 34.08H34.8902H32.6502L32.3102 35.1L31.9702 36.18C31.9569 36.2867 32.0036 36.3933 32.1102 36.5C32.3369 36.7133 32.7169 36.84 33.2502 36.88H33.4702V37.44V38H33.2902L31.9902 37.96C31.2169 37.9467 30.5169 37.9467 29.8902 37.96C29.1569 37.9867 28.7836 38 28.7702 38H28.6302V37.44V36.88H28.8302C29.2569 36.88 29.6436 36.8333 29.9902 36.74C30.4036 36.6067 30.6569 36.4333 30.7502 36.22C30.7636 36.1933 31.4569 34.1133 32.8302 29.98C34.1636 25.9267 34.8436 23.8667 34.8702 23.8C34.9102 23.76 34.9502 23.7333 34.9902 23.72ZM35.8302 30.1L34.9102 27.26C34.9102 27.2733 34.2836 29.16 33.0302 32.92C33.0302 32.9467 33.6502 32.96 34.8902 32.96C36.1436 32.96 36.7702 32.9533 36.7702 32.94L35.8302 30.1ZM45.0302 29.28C46.1502 29.2 46.6836 29.16 46.6302 29.16H46.7102V29.84V30.52L46.9302 30.28C47.4769 29.72 48.1236 29.3733 48.8702 29.24C49.4969 29.1067 50.1102 29.1267 50.7102 29.3C51.0302 29.3667 51.3169 29.5067 51.5702 29.72C52.0102 30.08 52.2702 30.6467 52.3502 31.42C52.3636 31.5133 52.3702 32.4333 52.3702 34.18C52.3702 35.8733 52.3769 36.7267 52.3902 36.74C52.4436 36.8333 52.8169 36.88 53.5102 36.88H53.9302V37.44V38H53.7702L52.5102 37.96C51.7769 37.9467 51.0569 37.9467 50.3502 37.96L49.1302 38H48.9502V37.44V36.88H49.3702C50.0769 36.88 50.4502 36.8267 50.4902 36.72V34.02C50.4769 32.18 50.4369 31.16 50.3702 30.96C50.2502 30.52 49.9702 30.2467 49.5302 30.14C49.2502 30.0867 48.9502 30.0933 48.6302 30.16C48.0836 30.28 47.6436 30.6 47.3102 31.12C47.1102 31.4 46.9702 31.7333 46.8902 32.12C46.8636 32.24 46.8436 33.0267 46.8302 34.48V36.72C46.8702 36.8267 47.2502 36.88 47.9702 36.88H48.3902V37.44V38H48.2302L46.9702 37.96C46.2502 37.9467 45.5302 37.9467 44.8102 37.96L43.5502 38H43.3902V37.44V36.88H43.8102C44.5036 36.88 44.8769 36.8333 44.9302 36.74V31.18C44.8769 30.86 44.7102 30.66 44.4302 30.58C44.2836 30.54 44.0569 30.5133 43.7502 30.5H43.3902V29.94V29.38H43.4302L45.0302 29.28ZM62.4035 28.96H62.9035C63.2368 29.0267 63.4835 29.2267 63.6435 29.56C63.9102 30.0933 63.8702 30.5133 63.5235 30.82C63.3902 30.94 63.2235 31.0067 63.0235 31.02C62.6368 31.0333 62.3635 30.8667 62.2035 30.52C62.1768 30.4533 62.1568 30.38 62.1435 30.3C62.1168 30.1533 62.1368 30.06 62.2035 30.02L62.4835 30H62.5035L62.7835 29.98L62.7635 29.94C62.7368 29.9133 62.6702 29.9 62.5635 29.9C62.1768 29.9 61.7968 30.0333 61.4235 30.3L61.3435 30.36L61.4835 30.54C61.6835 30.8067 61.8368 31.1067 61.9435 31.44C62.0768 31.9467 62.0768 32.44 61.9435 32.92C61.8368 33.2533 61.6902 33.5467 61.5035 33.8C61.3035 34.08 61.0902 34.3 60.8635 34.46C59.9835 35.14 58.9635 35.3667 57.8035 35.14C57.4568 35.0733 57.1235 34.9667 56.8035 34.82L56.5835 34.7L56.5235 34.84C56.3768 35.12 56.3568 35.4267 56.4635 35.76C56.5702 36.0667 56.7702 36.2733 57.0635 36.38C57.1302 36.4067 57.6502 36.4267 58.6235 36.44C59.7435 36.4533 60.4702 36.4933 60.8035 36.56C61.6168 36.68 62.2502 36.96 62.7035 37.4C63.2102 37.8667 63.4835 38.5 63.5235 39.3C63.5368 39.7933 63.3835 40.24 63.0635 40.64C62.6902 41.1067 62.1235 41.48 61.3635 41.76C60.2035 42.1733 58.9702 42.2467 57.6635 41.98C57.5702 41.9667 57.4768 41.9467 57.3835 41.92C57.0102 41.8267 56.6502 41.7 56.3035 41.54C55.1168 40.94 54.5702 40.18 54.6635 39.26C54.6768 39.22 54.6835 39.18 54.6835 39.14C54.7102 38.9933 54.7768 38.8067 54.8835 38.58C55.0835 38.1667 55.3968 37.84 55.8235 37.6L55.9635 37.52L55.8235 37.36C55.3035 36.6933 55.1635 35.9267 55.4035 35.06C55.5368 34.7267 55.6568 34.48 55.7635 34.32C55.8168 34.24 55.8502 34.1933 55.8635 34.18C55.8635 34.1667 55.8368 34.12 55.7835 34.04C55.5168 33.7733 55.3035 33.4 55.1435 32.92C54.9702 32.2667 55.0302 31.6267 55.3235 31C55.4968 30.68 55.6835 30.42 55.8835 30.22C56.5635 29.5133 57.4502 29.16 58.5435 29.16C59.2768 29.16 59.9368 29.3333 60.5235 29.68C60.6035 29.7333 60.6502 29.76 60.6635 29.76L60.8035 29.64C61.2568 29.2667 61.7902 29.04 62.4035 28.96ZM58.8435 30.14C58.1635 30.0467 57.6568 30.2067 57.3235 30.62C57.2835 30.6733 57.2502 30.7267 57.2235 30.78C57.1168 31.0067 57.0635 31.4733 57.0635 32.18C57.0635 32.9 57.1168 33.3667 57.2235 33.58C57.3835 33.9533 57.7235 34.1733 58.2435 34.24C58.9235 34.3333 59.4302 34.1733 59.7635 33.76C59.8035 33.7067 59.8368 33.6467 59.8635 33.58C59.9835 33.34 60.0435 32.8733 60.0435 32.18C60.0435 31.5 59.9835 31.0333 59.8635 30.78C59.6902 30.42 59.3502 30.2067 58.8435 30.14ZM59.9035 38.12C59.7968 38.1067 59.3102 38.1 58.4435 38.1C57.5768 38.1 57.0635 38.14 56.9035 38.22C56.6768 38.34 56.4968 38.5267 56.3635 38.78C56.2702 38.9667 56.2235 39.18 56.2235 39.42C56.2235 39.5933 56.2368 39.7133 56.2635 39.78C56.4368 40.26 56.8902 40.64 57.6235 40.92C58.0635 41.0667 58.5568 41.14 59.1035 41.14C59.6368 41.14 60.1302 41.0667 60.5835 40.92C61.2768 40.6667 61.7235 40.2867 61.9235 39.78C61.9902 39.58 61.9968 39.3667 61.9435 39.14C61.7302 38.54 61.0502 38.2 59.9035 38.12ZM68.4035 29.06C68.6568 29.02 69.0302 29.0333 69.5235 29.1C70.2435 29.22 70.8435 29.52 71.3235 30C71.8302 30.5067 72.1635 31.2 72.3235 32.08C72.3768 32.4533 72.4035 32.7933 72.4035 33.1C72.4035 33.1933 72.3768 33.2667 72.3235 33.32L72.2635 33.38H69.5435H66.8235V33.72C66.8235 34.7333 66.9635 35.48 67.2435 35.96C67.5502 36.4933 68.0168 36.86 68.6435 37.06C68.9635 37.1533 69.2768 37.2 69.5835 37.2C69.7968 37.2 69.9502 37.1867 70.0435 37.16C70.6835 36.9733 71.1235 36.48 71.3635 35.68C71.3902 35.5733 71.4302 35.4933 71.4835 35.44L71.5435 35.38H71.9035H72.2635L72.3235 35.44C72.4035 35.5067 72.4102 35.6467 72.3435 35.86C72.2235 36.2067 72.0635 36.5133 71.8635 36.78C71.6635 37.0867 71.3968 37.3533 71.0635 37.58C70.5435 37.9667 69.9302 38.18 69.2235 38.22C68.0235 38.26 66.9768 37.8467 66.0835 36.98C65.7235 36.6333 65.4102 36.2067 65.1435 35.7C64.8102 35.0067 64.6502 34.26 64.6635 33.46C64.6768 32.7667 64.8435 32.0867 65.1635 31.42C65.7635 30.2067 66.6902 29.4467 67.9435 29.14C68.0902 29.1 68.2435 29.0733 68.4035 29.06ZM69.2035 30.04C69.0302 29.9867 68.8035 29.9733 68.5235 30C67.8435 30.1467 67.3635 30.5667 67.0835 31.26C66.9368 31.6733 66.8635 32.0467 66.8635 32.38V32.46H68.7035H70.5435V32.3C70.5035 31.82 70.3902 31.3733 70.2035 30.96C69.9635 30.4933 69.6302 30.1867 69.2035 30.04ZM75.0702 24.24C76.2169 24.16 76.7636 24.12 76.7102 24.12H76.7902V30.42C76.7902 34.62 76.7969 36.7267 76.8102 36.74C76.8636 36.8333 77.2369 36.88 77.9302 36.88H78.3502V37.44V38H78.1702L76.9302 37.96C76.2236 37.9467 75.5169 37.9467 74.8102 37.96L73.5902 38H73.4102V37.44V36.88H73.8302C74.5236 36.88 74.8969 36.8333 74.9502 36.74V26.14C74.8969 25.82 74.7302 25.62 74.4502 25.54C74.3036 25.5 74.0769 25.4733 73.7702 25.46H73.4102V24.9V24.34H73.4502L75.0702 24.24ZM80.8366 24.66C81.3033 24.5533 81.71 24.6667 82.0566 25C82.31 25.28 82.4366 25.5867 82.4366 25.92C82.4366 26.1333 82.39 26.3333 82.2966 26.52C82.0566 26.9733 81.6633 27.2133 81.1166 27.24C80.61 27.24 80.23 27.0133 79.9766 26.56C79.87 26.36 79.8166 26.1467 79.8166 25.92C79.8166 25.72 79.8633 25.5267 79.9566 25.34C80.13 24.9667 80.4233 24.74 80.8366 24.66ZM80.6966 29.28C81.8166 29.2 82.35 29.16 82.2966 29.16H82.3566V32.94C82.3566 35.46 82.37 36.7333 82.3966 36.76C82.4366 36.8 82.47 36.82 82.4966 36.82C82.5766 36.86 82.87 36.88 83.3766 36.88H83.7566V37.44V38H83.5966L82.4566 37.96C81.79 37.9467 81.1033 37.9467 80.3966 37.96C79.5833 37.9867 79.17 38 79.1566 38H78.9766V37.44V36.88H79.3966C80.09 36.88 80.4633 36.8333 80.5166 36.74C80.53 36.7267 80.5366 35.8067 80.5366 33.98C80.5366 32.06 80.51 31.0333 80.4566 30.9C80.4166 30.78 80.3366 30.6933 80.2166 30.64C80.03 30.5467 79.7166 30.5 79.2766 30.5H79.0566V29.94V29.38H79.0966L80.6966 29.28ZM88.663 29.06C88.9564 29.0333 89.3764 29.04 89.923 29.08C90.8164 29.2 91.463 29.4933 91.863 29.96C91.9964 30.12 92.0897 30.3067 92.143 30.52C92.1964 30.7067 92.2097 30.9333 92.183 31.2C92.0764 31.6667 91.7764 31.9533 91.283 32.06C90.7764 32.1667 90.3764 32.02 90.083 31.62C89.9897 31.5 89.923 31.36 89.883 31.2C89.8164 30.8 89.883 30.4733 90.083 30.22C90.123 30.18 90.143 30.1467 90.143 30.12C90.143 30.08 89.8497 30.06 89.263 30.06C88.9564 30.06 88.7697 30.0667 88.703 30.08C88.3564 30.1733 88.0497 30.3533 87.783 30.62C87.343 31.06 87.0764 31.7333 86.983 32.64C86.9297 33.1067 86.923 33.68 86.963 34.36C86.9764 34.4267 86.983 34.48 86.983 34.52C87.0764 35.16 87.2497 35.6733 87.503 36.06C87.9697 36.7667 88.643 37.1533 89.523 37.22C90.0964 37.2333 90.563 37.0267 90.923 36.6C91.1497 36.3067 91.3097 35.9933 91.403 35.66C91.443 35.5267 91.4964 35.4533 91.563 35.44C91.6164 35.4267 91.7364 35.42 91.923 35.42H92.303L92.363 35.48C92.4297 35.5467 92.423 35.68 92.343 35.88C92.2764 36.12 92.1364 36.42 91.923 36.78C91.2297 37.78 90.243 38.26 88.963 38.22C88.323 38.18 87.7364 38.0267 87.203 37.76C85.883 37.08 85.0897 35.9467 84.823 34.36C84.7697 34.04 84.763 33.64 84.803 33.16C84.8164 33.12 84.823 33.0867 84.823 33.06C84.983 31.8067 85.5297 30.7867 86.463 30C87.1164 29.48 87.8497 29.1667 88.663 29.06Z" fill="#FAEEFA"/>
<path d="M9.39917 10.9602C9.6243 9.67993 11.3757 9.67993 11.6008 10.9602L12.7807 17.6699C12.8648 18.1483 13.2221 18.5226 13.6787 18.6107L20.0834 19.8468C21.3055 20.0826 21.3055 21.9174 20.0834 22.1533L13.6787 23.3893C13.2221 23.4774 12.8648 23.8517 12.7807 24.3301L11.6008 31.0398C11.3757 32.3201 9.6243 32.3201 9.39917 31.0398L8.21929 24.3301C8.13517 23.8517 7.77788 23.4774 7.32125 23.3893L0.916557 22.1533C-0.305519 21.9174 -0.305519 20.0826 0.916557 19.8468L7.32125 18.6107C7.77788 18.5226 8.13517 18.1483 8.21929 17.6699L9.39917 10.9602Z" fill="#FFE769"/>
<path d="M106.161 0.698329C106.333 -0.232777 107.667 -0.232776 107.839 0.698329L108.738 5.5781C108.802 5.926 109.074 6.19822 109.422 6.26231L114.302 7.16127C115.233 7.3328 115.233 8.6672 114.302 8.83873L109.422 9.73769C109.074 9.80178 108.802 10.074 108.738 10.4219L107.839 15.3017C107.667 16.2328 106.333 16.2328 106.161 15.3017L105.262 10.4219C105.198 10.074 104.926 9.80178 104.578 9.73769L99.6983 8.83873C98.7672 8.6672 98.7672 7.3328 99.6983 7.16127L104.578 6.26231C104.926 6.19822 105.198 5.926 105.262 5.5781L106.161 0.698329Z" fill="#FFE769"/>
<path d="M111.714 38.6983C111.875 37.7672 113.125 37.7672 113.286 38.6983L114.129 43.5781C114.189 43.926 114.444 44.1982 114.771 44.2623L119.345 45.1613C120.218 45.3328 120.218 46.6672 119.345 46.8387L114.771 47.7377C114.444 47.8018 114.189 48.074 114.129 48.4219L113.286 53.3017C113.125 54.2328 111.875 54.2328 111.714 53.3017L110.871 48.4219C110.811 48.074 110.556 47.8018 110.229 47.7377L105.655 46.8387C104.782 46.6672 104.782 45.3328 105.655 45.1613L110.229 44.2623C110.556 44.1982 110.811 43.926 110.871 43.5781L111.714 38.6983Z" fill="#FFE769"/>
</svg>
