<svg width="76" height="75" viewBox="0 0 76 75" fill="none" xmlns="http://www.w3.org/2000/svg">
<path fill-rule="evenodd" clip-rule="evenodd" d="M37.92 41.0783C35.5009 44.3884 32.6004 47.4164 30.0219 50.633C29.493 51.2924 28.7962 51.8723 28.5275 52.6804C30.8294 53.336 32.6129 54.3716 33.2472 56.4435C33.6107 57.6316 33.1754 58.4091 31.7857 58.8738C30.3071 59.3696 28.76 59.5271 27.2155 59.7247C25.6006 59.9322 23.9831 60.1309 22.2101 60.353C22.4254 63.5629 23.2151 66.4523 25.0994 69.0562C27.0186 71.708 29.9396 72.5706 34.0981 71.7775C32.8421 69.8281 30.699 69.2259 28.3984 68.7902C28.3089 67.5909 29.1907 67.2976 30.2083 67.5431C32.4278 68.0767 34.4076 69.0356 35.5826 70.788C36.5751 72.2684 36.043 73.1154 34.0981 73.4977C29.659 74.3742 25.5361 72.8176 23.2685 69.4207C21.8465 67.291 21.2459 64.9163 20.4529 62.5957C19.5354 62.6218 19.3491 63.293 18.9723 63.7315C16.3701 66.7651 13.8042 69.8203 11.2283 72.8694C10.6843 73.5133 10.2687 74.3369 8.83228 73.924C9.05423 72.073 10.8206 70.9684 11.8711 69.5504C12.9295 68.1213 14.1499 66.7778 15.2992 65.3971C15.3486 64.8863 15.1425 64.6654 14.5267 64.9124C12.4283 65.4072 10.3221 65.868 8.14403 66.0416C6.29134 66.1896 4.49597 66.0711 2.81518 65.3081C0.744495 64.3682 -0.229598 62.9485 0.0457029 60.954C0.324297 58.9361 1.43999 57.2894 3.72406 56.4741C5.68081 55.7762 7.21012 56.6188 8.43053 58.8599C7.49991 59.5861 6.94338 58.9756 6.24261 58.4998C4.89772 57.5832 4.35502 57.6645 3.14777 58.6823C1.17325 60.3452 0.757007 63.7081 5.07752 64.3203C9.42636 64.9352 13.5737 64.0793 17.1611 61.8244C18.6391 60.8956 18.8801 59.9506 17.9232 58.5215C16.0191 55.6805 15.56 52.5574 15.0424 49.4248C14.8902 48.5038 14.8244 47.5182 15.969 47.1231C17.1881 46.7013 18.1319 47.3924 18.8498 48.1927C19.926 49.392 20.4805 50.7816 20.7697 52.248C21.0088 53.4595 21.2011 54.676 21.4764 56.2432C23.5912 54.4868 25.6718 53.2608 27.2057 51.4321C30.4717 47.5388 33.5297 43.5153 37.131 39.8273C37.7501 40.0838 37.8239 40.5864 37.92 41.0783Z" fill="#444146"/>
<path fill-rule="evenodd" clip-rule="evenodd" d="M62.9085 20.9516C61.6769 21.1319 61.92 22.0579 61.7691 22.7007C61.15 25.3536 60.6251 28.0231 60.0633 30.6855C59.9731 31.1162 59.9533 31.5759 59.7538 31.9677C59.435 32.5943 58.4484 32.6421 58.1309 32.0239C57.8273 31.4334 57.7483 30.7556 57.6067 30.1106C56.9296 27.032 56.7801 23.856 55.2074 20.9443C54.1285 20.3689 55.1678 19.4256 54.6752 18.7478C54.7608 18.607 54.8458 18.4668 54.9314 18.3265C55.3648 17.4984 54.143 17.5752 53.9685 17.0783C53.7861 16.8062 53.707 16.5134 53.7097 16.204C54.4348 15.2858 53.678 12.663 56.68 14.3514C57.1786 13.4927 57.8919 13.1783 59.0932 13.8505C58.3667 12.9061 57.1582 12.0769 58.4998 11.1548C59.5088 10.4614 60.7786 10.024 61.8659 11.2183C61.3423 13.7225 64.2554 14.1683 65.6168 15.51C66.0297 15.9169 66.8273 16.2263 67.3068 16.7366C68.1656 17.6504 69.6771 18.5007 66.689 18.8524C65.3388 19.011 64.7138 20.8926 62.9085 20.9516Z" fill="#E083FE"/>
<path fill-rule="evenodd" clip-rule="evenodd" d="M61.7085 11.2945C59.9784 10.9806 59.9784 10.9806 58.2752 11.8621C59.109 12.7848 59.8433 13.7838 59.7959 14.9814C58.5248 15.2947 58.9549 14.4199 58.6223 14.1277C58.4128 13.944 57.9735 13.781 57.7134 13.8411C57.1094 13.9797 57.1924 14.244 57.6265 14.5941C57.9979 14.8929 57.6324 15.1756 57.2912 15.1912C56.9046 15.2084 56.4146 15.4316 56.1024 15.042C55.8693 14.7499 55.9812 14.298 55.3141 14.022C54.9209 14.7666 54.5257 15.5151 54.1305 16.263C53.2131 17.0138 52.1382 16.396 51.143 16.4828C50.2974 16.5563 49.5044 16.1918 49.5578 15.3737C49.6078 14.6107 50.0807 13.9736 51.1924 13.9774C51.6554 13.9791 52.1237 14.2852 52.6164 13.9697C51.7654 12.8828 49.1237 14.0553 49.1237 11.9657C49.8851 11.3351 50.1031 10.723 49.2252 9.99617C48.4519 9.35675 47.6353 8.72011 47.3086 7.79297C47.2309 6.18076 48.3834 6.16629 49.6434 6.63376C50.5964 6.98881 51.2781 7.71393 52.0104 8.49416C51.7127 6.79903 52.0473 5.5686 54.5053 5.88804C55.4504 6.2058 56.4561 6.43453 57.3235 6.86415C58.4899 7.44236 59.4152 7.17468 60.3478 6.55251C61.0717 6.07669 61.754 6.02716 62.3698 6.68829C62.8967 7.3689 62.8335 8.2454 63.2905 8.91989C64.3957 10.5443 63.5454 11.1281 61.7085 11.2945Z" fill="#E390FE"/>
<path fill-rule="evenodd" clip-rule="evenodd" d="M61.7086 11.2945C62.2598 11.0079 62.2302 10.0546 63.4249 10.3757C62.1841 9.48084 62.6102 8.21813 62.0609 7.22754C62.6524 6.40391 62.9125 5.026 64.4649 5.40665C66.0324 5.79286 66.8952 7.09286 67.0493 8.37339C67.1566 9.26491 66.4453 10.2271 67.4833 11.0285C67.5702 12.8761 69.1779 14.17 69.9439 15.7749C70.7415 17.4467 71.8591 19.0094 72.8359 20.6182C72.7588 21.7591 72.4776 22.8487 71.7748 24.0508C70.7178 23.4637 69.664 23.1019 68.7939 22.4569C68.7399 21.9706 68.7867 21.5187 69.5276 21.315C68.3698 21.3718 69.0455 23.2132 67.3812 22.6573C65.7485 22.3551 64.3489 21.6166 62.9086 20.9527C63.2431 20.8703 63.6778 20.7774 63.7022 20.4724C63.7977 19.2509 64.5604 18.8163 65.7775 19.1396C66.3274 18.5686 65.377 18.2336 65.8065 17.8045C66.5658 17.7294 66.9939 18.6504 68.0036 18.2898C65.95 15.9747 63.0159 14.6207 60.6772 12.5277C60.5896 11.9874 61.1843 11.6585 61.7086 11.2945Z" fill="#E799FE"/>
<path fill-rule="evenodd" clip-rule="evenodd" d="M49.1237 11.9662C49.8344 12.1137 49.7257 13.1966 50.8994 12.9262C52.8436 12.4776 53.2638 13.7025 53.6082 15.027C52.8548 14.4087 51.9413 15.076 51.1101 14.5885C50.4324 14.1911 50.1571 14.9791 50.0385 15.3225C49.8594 15.8373 50.5272 16.2713 50.9349 16.0426C52.1422 15.3648 53.0583 16.4127 54.1299 16.263C54.1812 16.554 54.2319 16.8457 54.2833 17.1362C53.5503 17.6431 52.5953 17.8234 51.8543 18.3182C47.6656 19.5108 43.3859 20.3745 38.9356 20.9983C40.8298 17.9698 43.8917 16.0593 46.7705 14.0019C48.2023 14.1366 48.0844 12.9807 48.6482 12.3919C48.8063 12.2495 48.9657 12.107 49.1237 11.9662Z" fill="#E188FE"/>
<path fill-rule="evenodd" clip-rule="evenodd" d="M54.6745 18.7473C55.7171 19.3311 55.4174 20.1469 55.2054 20.9461C50.1294 26.9046 45.0561 32.8687 39.9723 38.825C39.3163 39.593 38.6056 40.3282 37.9207 41.0783C37.2252 40.8552 37.2542 40.307 37.133 39.8262C41.2361 34.4575 45.8557 29.395 50.1729 24.1538C51.662 22.3451 53.1729 20.5487 54.6745 18.7473Z" fill="#322F34"/>
<path fill-rule="evenodd" clip-rule="evenodd" d="M67.4833 11.028C67.204 10.0112 66.5994 10.511 66.0435 10.8087C65.7597 10.5828 65.6431 10.1804 65.8111 10.0229C67.3417 8.59601 66.1832 7.56926 65.186 6.4657C64.2745 5.45675 64.0828 5.39665 63.1674 6.39614C62.844 6.74841 62.6385 7.14242 62.0616 7.22645C61.8462 6.35552 61.0947 6.45847 60.3478 6.55252C61.6374 5.34768 63.3525 4.61309 64.8521 3.63975C66.4954 2.57293 68.1485 1.51724 69.8194 0.4838C70.2844 0.196641 70.781 -0.233541 71.4409 0.154901C72.1529 0.572839 72.0455 1.15661 71.7814 1.72981C70.9983 3.42438 70.1988 5.11395 69.4051 6.80518C68.3909 7.5292 68.1182 8.48583 68.1998 9.55321C68.0661 10.0808 67.9588 10.6184 67.4833 11.028Z" fill="#ECA9FE"/>
<path fill-rule="evenodd" clip-rule="evenodd" d="M54.5053 5.88859C53.9876 6.31544 53.331 6.46013 52.6526 6.52914C52.264 7.47464 52.5689 8.38565 52.9384 9.66228C51.691 8.71399 50.7656 8.00834 49.839 7.30658C48.7081 6.45011 48.558 6.47904 47.3086 7.7924C46.835 7.6171 46.4274 7.38225 46.2324 6.95207C46.2581 6.80849 46.3246 6.67882 46.3852 6.54637C46.644 5.98597 48.0449 5.62369 46.8838 4.81953C45.9024 4.14059 45.3953 4.94031 44.8091 5.40889C43.9654 4.59304 43.1244 3.77609 42.2774 2.96248C41.8072 2.51059 41.8164 2.01195 42.1938 1.56173C42.587 1.09092 43.1573 1.32689 43.5894 1.51666C47.1657 3.08601 51.0785 4.05379 54.5053 5.88859Z" fill="#E8A3FE"/>
<path fill-rule="evenodd" clip-rule="evenodd" d="M68.9533 22.4397C69.8372 22.7068 71.3849 21.8047 71.4396 23.6445C71.6201 22.4091 72.0818 21.4636 72.8365 20.6177C73.4951 21.5515 74.1966 22.4642 74.7952 23.4241C75.1087 23.9261 75.4065 24.5555 74.8703 25.0597C74.4001 25.5027 73.7454 25.2606 73.1836 25.0853C71.7445 24.634 70.2436 24.2867 69.0785 23.3685C68.7637 23.0847 68.6892 22.7786 68.9533 22.4397Z" fill="#EFABFE"/>
<path fill-rule="evenodd" clip-rule="evenodd" d="M44.8085 5.40888C44.7518 4.70545 44.4996 3.69929 45.6298 3.69873C46.6012 3.69817 47.7005 4.18734 48.1641 5.13285C48.3749 5.56247 48.3584 5.97818 47.7881 6.23807C47.2678 6.47514 46.7501 6.71389 46.2311 6.95152C45.7483 6.44343 44.873 6.19356 44.8085 5.40888Z" fill="#E390FE"/>
<path fill-rule="evenodd" clip-rule="evenodd" d="M68.9533 22.4397C68.9948 22.7486 69.0376 23.0575 69.0791 23.3674C68.5134 23.1304 67.9469 22.8938 67.3812 22.6573C68.6174 22.4943 68.0707 21.4798 68.5542 20.8782C69.2793 20.9066 70.0268 20.9355 71.0964 20.9772C70.1974 21.5048 69.1008 21.5438 68.9533 22.4397Z" fill="#F4B7FE"/>
<path fill-rule="evenodd" clip-rule="evenodd" d="M51.8537 18.3182C52.5149 17.7061 52.8073 16.5524 54.2826 17.1362C55.3917 17.1874 55.7434 17.5313 54.9301 18.3266C53.9079 17.661 52.8791 18.4095 51.8537 18.3182Z" fill="#E390FE"/>
<path fill-rule="evenodd" clip-rule="evenodd" d="M68.1998 9.55321C67.8982 8.59769 67.8982 8.59768 68.5798 6.21138C69.1871 6.07781 69.2451 6.49298 69.4051 6.80518C69.004 7.7223 68.6016 8.6372 68.1998 9.55321Z" fill="#E799FE"/>
<path fill-rule="evenodd" clip-rule="evenodd" d="M48.6482 12.392C48.8181 13.1421 48.5092 13.7932 48.0904 14.4099C47.4304 14.7287 47.2658 13.9991 46.7711 14.0019C47.2434 13.3375 47.7703 12.7186 48.6482 12.392Z" fill="#E390FE"/>
<path fill-rule="evenodd" clip-rule="evenodd" d="M14.5273 64.9113C14.8382 64.5501 15.3605 64.2118 15.7458 64.4951C16.2608 64.8752 15.6661 65.1612 15.2999 65.396C15.0424 65.2341 14.7849 65.0727 14.5273 64.9113Z" fill="#B5B4B6"/>
<path fill-rule="evenodd" clip-rule="evenodd" d="M23.3159 58.5605C24.3598 57.3144 25.1192 56.586 25.6382 55.7512C26.9692 53.6125 29.7611 54.1963 31.1211 55.9321C31.8443 56.8547 31.619 57.4363 30.2801 57.6639C28.1817 58.0195 26.0452 58.2188 23.3159 58.5605Z" fill="#F9F8F9"/>
<path fill-rule="evenodd" clip-rule="evenodd" d="M19.874 58.0323C17.5675 55.0094 16.8733 52.8295 16.9109 49.215C18.7379 50.0587 19.656 52.6793 19.874 58.0323Z" fill="#D8D7D9"/>
<path fill-rule="evenodd" clip-rule="evenodd" d="M64.2692 17.8802C63.9459 17.7088 63.8313 17.4334 63.8484 17.1429C63.8596 16.9548 63.9992 16.7717 64.0763 16.5969C64.7645 16.5697 64.7764 16.9809 64.8192 17.317C64.8567 17.6209 64.7085 17.8724 64.2692 17.8802Z" fill="#E799FE"/>
<path fill-rule="evenodd" clip-rule="evenodd" d="M49.0993 17.3955C47.7571 17.9509 47.1591 17.4695 46.9134 16.6876C46.6453 15.8356 47.4713 15.5974 48.2109 15.3553C49.3839 15.8963 48.0133 16.9264 49.0993 17.3955Z" fill="#E390FE"/>
<path fill-rule="evenodd" clip-rule="evenodd" d="M67.4925 7.34833C65.4883 7.05672 66.9946 5.77341 66.1707 5.24251C66.9439 4.69212 67.6888 4.71884 69.0468 4.80176C67.0288 5.29371 68.1307 6.636 67.4925 7.34833Z" fill="#E799FE"/>
</svg>
