<svg width="66" height="69" viewBox="0 0 66 69" fill="none" xmlns="http://www.w3.org/2000/svg">
<path d="M60.2821 40.0465C61.2911 37.4574 62.1605 34.8014 62.6461 32.0911C63.4892 27.3848 62.9627 22.2722 59.5305 18.4211C58.0401 16.7489 56.0422 15.4332 53.7221 14.8448C51.5539 14.295 49.1753 14.3304 47.0682 15.0703C46.1299 15.4 45.2642 15.8776 44.5175 16.4806C44.3479 16.1932 44.0459 15.9596 43.6921 15.8732C43.5646 15.8422 43.434 15.8303 43.3041 15.839C43.5573 15.4136 43.6482 14.9187 43.4773 14.4439C43.3419 14.0663 43.0228 13.7686 42.6068 13.6274C42.1102 13.4584 41.5471 13.5312 41.0511 13.66C40.9706 13.6806 40.8913 13.7056 40.8114 13.7295C40.8333 13.667 40.8553 13.6046 40.8773 13.5421C41.0328 13.0939 41.1859 12.6452 41.3354 12.1954C41.6325 11.3022 41.9162 10.4059 42.1816 9.50515C42.3158 9.05044 42.4451 8.59573 42.55 8.13505C42.5665 8.09974 42.5818 8.06334 42.5946 8.02532C42.8032 7.40818 42.317 6.84319 41.7503 6.54059C41.4141 6.36078 41.0462 6.22821 40.6833 6.09946C40.3343 5.9756 39.9799 5.86315 39.6211 5.76211C38.9037 5.56001 38.1686 5.40464 37.4267 5.29436C35.9364 5.07217 34.4118 5.03576 32.9117 5.20146C32.6835 5.22645 32.4578 5.26557 32.2327 5.30631C31.8313 5.32207 31.4304 5.34542 31.0309 5.37639C29.5411 5.4921 28.0611 5.73549 26.6476 6.1777C25.9661 6.3912 25.3024 6.65141 24.6716 6.96596C24.1829 7.20934 23.5869 7.51031 23.3197 7.97588C23.3154 7.97859 23.3105 7.97968 23.3069 7.98294C23.169 8.0954 23.0702 8.24099 23.0275 8.40342C23.0207 8.42896 23.0177 8.45394 23.0134 8.47893C23.0085 8.48817 23.0067 8.49903 23.0073 8.51153C23.0012 8.56205 22.9976 8.61257 23.0006 8.66527C23.0055 8.74839 23.0207 8.85704 23.0891 8.91897C23.111 8.93907 23.1373 8.95211 23.1659 8.95645C23.2806 9.2471 23.4069 9.53448 23.5326 9.82186C23.7217 10.2543 23.9114 10.6867 24.1005 11.1192C24.4788 11.984 24.8625 12.8467 25.2456 13.71C25.3768 14.0055 25.5055 14.3016 25.6373 14.5976C24.685 14.527 23.6332 14.703 22.9689 15.3577C22.6535 15.6684 22.4351 16.084 22.4278 16.5072C22.4198 16.9396 22.6315 17.3362 22.9799 17.6317C22.9878 17.6383 22.9957 17.6437 23.0037 17.6502C22.7792 17.8148 22.6297 18.0381 22.5492 18.2831C17.1666 17.8284 11.4119 18.791 7.38058 22.2049C5.36676 23.9102 4.04903 26.093 3.49814 28.5154C2.91676 31.0719 3.13455 33.7355 3.7013 36.2774C4.11248 38.1212 4.69997 39.9286 5.43753 41.6872C5.43814 41.6888 5.43875 41.6899 5.43936 41.6915C6.48074 44.1742 7.82226 46.558 9.40476 48.8011C12.1348 52.6697 15.581 56.1237 19.4824 59.0844C21.4425 60.5719 23.521 61.9355 25.6953 63.1649C28.108 64.529 30.652 65.8268 33.354 66.6776C35.9632 67.499 38.85 67.8472 41.5483 67.1507C44.1362 66.4825 46.0664 64.8451 47.5599 62.9052C48.3353 61.8974 49.0045 60.8299 49.6707 59.763C50.4699 58.4825 51.2666 57.2004 52.0518 55.9129C53.6111 53.3558 55.1265 50.7759 56.5223 48.1449C57.9248 45.5003 59.2066 42.8068 60.2821 40.0465ZM43.1943 16.1486C43.517 16.0796 43.8464 16.1964 44.0667 16.4121C44.1612 16.505 44.2308 16.6093 44.2759 16.7207C44.2637 16.7739 44.2814 16.8283 44.3198 16.8674C44.3509 17.0108 44.3491 17.1607 44.3143 17.3101C44.1484 18.0158 43.4212 18.4358 42.7038 18.6514C42.3298 18.7639 41.94 18.8312 41.5526 18.8932C41.4806 18.9046 41.4092 18.9149 41.3372 18.9263C41.2927 18.9144 41.2451 18.9198 41.2091 18.9459C40.8626 18.9997 40.5161 19.0529 40.1696 19.1056C39.2276 19.2496 38.2851 19.3908 37.3413 19.5261C35.4489 19.7972 33.5498 20.0389 31.6421 20.2073C29.7339 20.3763 27.8055 20.4893 25.8868 20.4496C25.0114 20.4317 24.0902 20.3285 23.3978 19.8075C22.8304 19.3805 22.5504 18.6422 22.9524 18.0408C23.0171 17.9441 23.0958 17.8577 23.1879 17.7828C24.017 18.3369 25.1529 18.3211 26.1504 18.3532C27.3107 18.3907 28.4722 18.4064 29.6338 18.3977C31.9594 18.3798 34.2868 18.2603 36.5934 17.9876C37.7348 17.8528 38.8714 17.6801 39.9975 17.4644C40.9535 17.2813 41.9821 17.0651 42.7373 16.4757C42.8673 16.3741 42.9856 16.2595 43.0906 16.1361C43.1186 16.1503 43.1522 16.1573 43.1943 16.1486ZM30.9216 22.2331C30.5642 21.648 29.7363 21.4622 29.0658 21.7056C28.7883 21.8067 28.4906 21.9925 28.3136 22.2266C28.3118 22.2228 28.31 22.219 28.3075 22.2152C28.0391 21.7165 27.7756 21.2145 27.484 20.7261C27.5822 20.724 27.681 20.7229 27.7792 20.7207C28.7968 20.6941 29.8138 20.6403 30.8277 20.5637C31.5268 20.511 32.2247 20.4442 32.9214 20.3725C32.8635 20.5088 32.8592 20.6745 32.8909 20.8011C32.9648 21.0961 33.188 21.3476 33.49 21.4834C33.7938 21.6203 34.1739 21.6165 34.4789 21.484C34.8004 21.3444 35.0237 21.0689 35.0914 20.7582C35.1274 20.5941 35.1128 20.4219 35.0451 20.266C35.028 20.2258 35.0036 20.1818 34.9737 20.1389C35.6313 20.0574 36.2884 19.9721 36.9442 19.8808C37.2211 19.8422 37.4981 19.8015 37.7745 19.7613C37.6415 19.9753 37.6012 20.2269 37.6653 20.4757C37.7537 20.8201 38.0289 21.0917 38.401 21.2123C38.7738 21.3335 39.2026 21.2895 39.515 21.0657C39.8157 20.85 40.0067 20.5132 39.9951 20.1671C39.9884 19.9661 39.9152 19.7689 39.7712 19.6119C39.7309 19.5674 39.6815 19.525 39.6278 19.487C39.7407 19.4696 39.8542 19.4533 39.9677 19.4359C40.3447 19.3783 40.7211 19.3202 41.0981 19.262C41.0859 19.3191 41.0743 19.3761 41.0609 19.4321C41.0255 19.5793 40.9895 19.7265 40.9529 19.8732C40.8785 20.1698 40.7992 20.4654 40.7162 20.7598C40.6338 21.0521 40.5497 21.3443 40.4636 21.6361C40.3813 21.9153 40.2855 22.1924 40.2257 22.476C40.0238 22.5178 39.831 22.589 39.6358 22.652C39.418 22.7226 39.1996 22.7921 38.98 22.8573C38.5407 22.9877 38.096 23.1029 37.6464 23.2023C36.7471 23.4017 35.8333 23.5418 34.9102 23.6157C33.9884 23.6896 33.0599 23.6967 32.1363 23.6391C31.6745 23.6103 31.2139 23.5646 30.7563 23.5033C30.746 23.5016 30.7356 23.5005 30.7252 23.4989C30.7374 23.4897 30.7496 23.4804 30.7606 23.4712C30.8826 23.3691 30.9741 23.2392 31.0235 23.0964C31.1236 22.8122 31.0815 22.4944 30.9216 22.2331ZM30.6703 23.167C30.6264 23.2305 30.5721 23.2881 30.5038 23.3321C30.4373 23.375 30.3561 23.3924 30.2921 23.4381C29.9791 23.3919 29.6661 23.3387 29.3642 23.261C29.0896 23.1903 28.8572 23.0779 28.6888 22.8682C28.5833 22.7362 28.5015 22.5879 28.4241 22.4396C28.5259 22.3434 28.6205 22.2424 28.737 22.1576C28.8749 22.0571 29.0268 21.9762 29.1946 21.9207C29.5435 21.8056 29.9626 21.8295 30.2841 22.0028C30.5776 22.1614 30.7728 22.4406 30.7862 22.7487C30.7929 22.8943 30.7563 23.0426 30.6703 23.167ZM34.6339 20.1807C34.679 20.2285 34.7297 20.273 34.7602 20.3306C34.8126 20.4306 34.8279 20.5409 34.8157 20.6501C34.7913 20.875 34.6479 21.0907 34.4326 21.2129C34.0012 21.4574 33.4223 21.2922 33.2112 20.8853C33.1179 20.706 33.0923 20.4833 33.2454 20.3382C33.709 20.2888 34.1715 20.2361 34.6339 20.1807ZM38.0411 19.7238C38.4236 19.6679 38.8055 19.6114 39.188 19.5538C39.2527 19.5799 39.3204 19.5961 39.3832 19.6271C39.4534 19.6619 39.5132 19.7091 39.5632 19.764C39.6626 19.8727 39.7181 20.0036 39.7334 20.1427C39.7608 20.3996 39.6333 20.6772 39.4125 20.8446C38.944 21.1982 38.1619 20.9983 37.9563 20.492C37.8568 20.2481 37.8965 19.9514 38.0411 19.7238ZM34.2184 5.71701C34.2654 5.63661 34.3331 5.57251 34.4118 5.52035C34.518 5.51927 34.6241 5.51872 34.7303 5.51763C35.1146 5.51492 35.4983 5.5046 35.8827 5.50134C35.9382 5.50079 35.9711 5.46385 35.9772 5.42528C36.0443 5.43017 36.1115 5.43343 36.1786 5.43832C36.3262 5.45027 36.4732 5.46494 36.6202 5.4807C36.5971 5.50134 36.5855 5.53177 36.6026 5.56653C36.6684 5.70126 36.7093 5.82241 36.6764 5.97126C36.6422 6.12283 36.5452 6.25755 36.414 6.35697C36.1407 6.5634 35.7832 6.70085 35.43 6.75083C35.078 6.80081 34.6967 6.74105 34.4234 6.52592C34.1769 6.33252 34.0604 5.98755 34.2184 5.71701ZM24.2146 7.52606C24.3269 7.45544 24.4446 7.39025 24.5624 7.32614C24.8009 7.33484 25.0468 7.40383 25.2121 7.55648C25.3884 7.71892 25.4836 7.96121 25.4 8.18122C25.3152 8.40505 25.0962 8.54847 24.8308 8.5501C24.6703 8.55118 24.5001 8.52783 24.3446 8.49306C24.2043 8.461 24.0621 8.41211 23.9578 8.31921C23.8492 8.22251 23.8108 8.09811 23.8297 7.96393C23.8394 7.89276 23.8687 7.82376 23.895 7.75423C23.9962 7.67057 24.106 7.59451 24.2146 7.52606ZM23.5484 8.1758C23.5576 8.15569 23.5692 8.13668 23.5802 8.11767C23.5887 8.20622 23.6168 8.29259 23.6723 8.37082C23.8901 8.67667 24.3415 8.75382 24.7185 8.77012C25.0815 8.78587 25.4055 8.65387 25.5732 8.35779C25.7282 8.08453 25.6702 7.75966 25.4695 7.51791C25.317 7.33429 25.0937 7.21966 24.8515 7.17674C25.2359 6.98715 25.6373 6.82037 26.0369 6.67152C27.3247 6.19073 28.6919 5.90281 30.0731 5.73494C31.4048 5.57305 32.7439 5.5372 34.0854 5.52307C33.8353 5.80665 33.8609 6.22333 34.0793 6.51451C34.6162 7.22998 35.8583 7.04637 36.494 6.54983C36.6654 6.41619 36.8081 6.23854 36.8624 6.0397C36.9106 5.86369 36.9015 5.6415 36.7654 5.49645C38.0002 5.63715 39.2154 5.90606 40.3801 6.29993C40.7235 6.41564 41.0682 6.53733 41.3958 6.68564C41.6984 6.82254 41.9973 7.00671 42.1749 7.27128C42.328 7.49999 42.3811 7.76889 42.2615 8.01879C42.1303 8.29422 41.8351 8.48274 41.5325 8.59193C41.2006 8.71145 40.84 8.75165 40.488 8.79619C40.2983 8.8201 40.108 8.84183 39.9176 8.86465C39.9262 8.84183 39.9335 8.81793 39.9384 8.79402C39.9774 8.61366 39.9201 8.42406 39.8084 8.27304C39.5693 7.94817 39.0721 7.89819 38.7219 8.10517C38.5334 8.21654 38.4199 8.41428 38.4083 8.61311C38.3998 8.75273 38.4346 8.90702 38.5285 9.0211C38.0118 9.07489 37.4951 9.12595 36.9777 9.17158C35.4105 9.30903 33.8396 9.40845 32.2674 9.48233C30.6984 9.55567 29.1256 9.61706 27.5541 9.63335C26.7793 9.6415 26.0003 9.62249 25.2359 9.50188C24.6868 9.41551 24.0133 9.28675 23.6515 8.86953C23.4758 8.66853 23.4405 8.41048 23.5484 8.1758ZM39.6553 8.89616C39.5412 8.90974 39.4271 8.9244 39.3124 8.93744C39.1367 8.95754 38.9611 8.97493 38.7854 8.99394C38.7207 8.8641 38.6597 8.74459 38.6829 8.59736C38.7048 8.45829 38.8043 8.33768 38.9531 8.2763C39.1007 8.21545 39.288 8.21382 39.4186 8.28553C39.562 8.3643 39.6474 8.50012 39.6608 8.65169C39.6669 8.72449 39.6175 8.82119 39.6553 8.89616ZM36.3366 9.75179C36.4543 9.85935 36.5348 9.99897 36.5641 10.1467C36.6233 10.4428 36.4897 10.7633 36.2487 10.9709C35.7247 11.4223 34.7907 11.2327 34.5479 10.6161C34.421 10.2945 34.5076 9.92074 34.715 9.64096C34.7211 9.63281 34.7242 9.62466 34.7266 9.61651C35.1134 9.59152 35.4996 9.56382 35.8857 9.53449C35.8918 9.53775 35.8979 9.54209 35.9059 9.54426C36.0633 9.59587 36.217 9.64259 36.3366 9.75179ZM28.6223 9.88108C28.9261 9.94246 29.0561 10.288 29.1092 10.533C29.1726 10.828 29.1146 11.1615 28.8529 11.3718C28.6211 11.5581 28.2844 11.5766 28.0068 11.4636C27.7353 11.3528 27.5596 11.1029 27.5077 10.8475C27.4388 10.5107 27.5773 10.1641 27.8116 9.89901C28.0824 9.89412 28.3527 9.88814 28.6223 9.88108ZM25.0419 12.4686C24.6606 11.62 24.2738 10.7737 23.8882 9.92672C23.7687 9.66487 23.6522 9.40193 23.5289 9.14171C23.679 9.27806 23.8645 9.39106 24.0609 9.4769C24.3549 9.60511 24.674 9.67519 24.9931 9.7344C25.386 9.8072 25.7855 9.85066 26.1857 9.87565C26.6427 9.9039 27.1002 9.9077 27.5584 9.90281C27.3314 10.1592 27.2009 10.4683 27.2332 10.8073C27.2674 11.1615 27.501 11.5049 27.8567 11.6717C28.2044 11.8346 28.6449 11.8221 28.964 11.6119C29.3251 11.374 29.4477 10.9475 29.391 10.5661C29.3611 10.3662 29.2617 10.068 29.0872 9.86696C29.7546 9.84849 30.4214 9.82947 31.0882 9.8034C32.2217 9.75993 33.3546 9.70289 34.4869 9.63172C34.2404 9.8914 34.1617 10.2543 34.2508 10.5873C34.3539 10.9747 34.6711 11.28 35.0914 11.4131C35.5227 11.55 36.0108 11.4897 36.3665 11.2273C36.7038 10.9785 36.8984 10.5868 36.8649 10.1967C36.8466 9.97832 36.7404 9.75885 36.5727 9.59804C36.533 9.56056 36.4885 9.52362 36.4403 9.49048C37.1199 9.43561 37.7989 9.37585 38.4767 9.3074C39.288 9.22482 40.1025 9.14279 40.9084 9.02328C41.3464 8.95863 41.8332 8.82934 42.181 8.56966C41.9565 9.25416 41.757 9.94627 41.5373 10.6319C41.2903 11.4033 41.0353 12.1725 40.7723 12.9402C40.7485 12.9874 40.7272 13.0352 40.7052 13.083C40.585 12.9233 40.4002 12.7924 40.2214 12.7125C39.8719 12.5566 39.4528 12.5365 39.0843 12.6501C38.3144 12.8869 37.9319 13.7257 38.2699 14.3782C38.3626 14.5569 38.4998 14.7134 38.6682 14.8399C38.725 14.8823 38.7896 14.9252 38.8586 14.9633C37.5158 15.2017 36.159 15.3778 34.7943 15.4788C32.9184 15.6179 31.0302 15.6255 29.1531 15.5038C28.7004 15.4745 28.2484 15.4359 27.7975 15.393C27.9092 15.3175 28.0031 15.2175 28.0629 15.1175C28.2075 14.8785 28.2075 14.6004 28.0788 14.3553C27.8195 13.8615 27.0386 13.5046 26.4804 13.836C26.212 13.9957 26.0503 14.3075 26.0296 14.5944C26.0241 14.5857 26.0174 14.5781 26.0119 14.5694C25.9661 14.495 25.9313 14.4162 25.8905 14.3401C25.6153 13.7132 25.3219 13.0923 25.0419 12.4686ZM40.2324 14.0984C40.2105 14.1456 40.1885 14.1935 40.1665 14.2407C40.0043 14.4472 39.8139 14.6302 39.6297 14.822C39.5333 14.841 39.4369 14.8562 39.3405 14.8747C39.3368 14.872 39.335 14.8687 39.3307 14.8665C39.2002 14.7867 39.0434 14.7541 38.9135 14.6688C38.7915 14.5889 38.6853 14.4879 38.6036 14.3744C38.434 14.1397 38.3821 13.8496 38.4693 13.5807C38.6524 13.0184 39.3039 12.6924 39.9365 12.8712C40.2227 12.9521 40.4484 13.1216 40.5808 13.3503C40.5271 13.466 40.4728 13.5817 40.4191 13.6975C40.3904 13.7594 40.3618 13.8213 40.3331 13.8833C40.3209 13.8876 40.3087 13.8914 40.2971 13.8958C40.1879 13.9354 40.1836 14.0316 40.2324 14.0984ZM26.5103 14.0908C26.6909 13.9235 26.9538 13.8892 27.1978 13.9512C27.6432 14.0642 28.0702 14.4874 27.9067 14.9209C27.8677 15.0246 27.8006 15.1213 27.7078 15.1941C27.609 15.2718 27.5047 15.2979 27.3815 15.3283C27.3662 15.3321 27.354 15.3381 27.3424 15.3457C27.1704 15.3267 26.999 15.3077 26.8269 15.2881C26.8257 15.2343 26.7854 15.1887 26.7287 15.1632C26.6768 15.1398 26.6256 15.1165 26.5737 15.0931C26.4346 15.0203 26.3071 14.9263 26.2016 14.8128C26.1815 14.7916 26.1638 14.7682 26.1449 14.7459C26.1681 14.7405 26.1888 14.7264 26.1998 14.6981C26.2779 14.4879 26.3315 14.2559 26.5103 14.0908ZM22.9433 17.1721C22.698 16.8375 22.6754 16.4279 22.831 16.0585C23.1702 15.2539 24.1048 14.9057 25.0059 14.8367C25.2408 14.8187 25.4781 14.8155 25.7136 14.8182C25.7233 14.8182 25.7312 14.8155 25.7398 14.8139C25.7947 14.9339 25.8465 15.0545 25.9039 15.1735C25.9118 15.1903 25.9234 15.2023 25.9344 15.2137C25.8411 15.243 25.8106 15.3816 25.9265 15.4093C26.0851 15.4473 26.2449 15.4766 26.406 15.5038C26.4828 15.5364 26.564 15.5549 26.639 15.5413C26.8721 15.575 27.1063 15.6021 27.3412 15.6293C27.8116 15.6842 28.2831 15.7292 28.7553 15.7651C29.7003 15.8368 30.6483 15.8754 31.5964 15.8814C33.4998 15.8928 35.4062 15.77 37.2883 15.5168C38.3479 15.374 39.4009 15.1887 40.4423 14.9627C40.6137 14.9258 40.6052 14.7237 40.4813 14.6759C40.5411 14.5232 40.5869 14.3629 40.6405 14.2119C40.6576 14.1641 40.6741 14.1163 40.6912 14.0685C41.4629 13.8121 42.5104 13.5817 43.0405 14.2717C43.4694 14.8307 43.2296 15.6331 42.7495 16.0981C42.1206 16.7071 41.1683 16.9456 40.2934 17.1232C39.249 17.3357 38.1918 17.5035 37.1315 17.6415C34.9761 17.9213 32.8 18.0642 30.6233 18.1082C29.5264 18.1304 28.4289 18.1283 27.3314 18.1065C26.7903 18.0957 26.2492 18.0805 25.7087 18.0615C25.1523 18.0419 24.5813 18.0272 24.0469 17.8729C23.6107 17.7474 23.1977 17.5193 22.9433 17.1721ZM4.49316 37.9887C3.25046 33.7801 2.78498 29.0477 5.19778 25.1662C7.85521 20.8907 13.2597 18.7921 18.5386 18.4798C19.8557 18.4015 21.179 18.4276 22.4936 18.527C22.4552 18.8128 22.5034 19.1105 22.6364 19.3707C23.0116 20.1036 23.8858 20.4969 24.7338 20.6414C25.2328 20.7267 25.7434 20.7364 26.2498 20.7386C26.5847 20.7397 26.919 20.7364 27.254 20.731C27.254 20.7446 27.2564 20.7587 27.2637 20.7739C27.4864 21.2515 27.7402 21.7181 27.9848 22.1875C28.188 22.577 28.3673 23.0572 28.7816 23.3115C29 23.4457 29.2568 23.5119 29.5124 23.5646C29.7522 23.6141 29.9937 23.6592 30.2359 23.6988C30.7039 23.7754 31.176 23.833 31.6495 23.8743C33.5431 24.0389 35.4697 23.9292 37.3249 23.5522C37.8513 23.4451 38.3717 23.3142 38.8842 23.1621C39.1398 23.086 39.3948 23.0067 39.6455 22.9171C39.8908 22.8296 40.144 22.7449 40.3599 22.608C40.3831 22.5933 40.3923 22.5727 40.3929 22.5515C40.3971 22.546 40.402 22.5417 40.4057 22.5352C40.5393 22.2597 40.6271 21.9658 40.7217 21.6785C40.8169 21.3894 40.9053 21.0993 40.9895 20.8071C41.0737 20.5153 41.1536 20.2225 41.2299 19.9292C41.2659 19.7912 41.3006 19.6532 41.3348 19.5152C41.3592 19.4163 41.3891 19.3153 41.4123 19.2142C41.4312 19.211 41.4507 19.2083 41.4696 19.2055C41.8863 19.1409 42.3017 19.0697 42.7062 18.9584C43.503 18.7378 44.2844 18.3103 44.5718 17.5741C44.667 17.3302 44.6993 17.0591 44.6444 16.8038C48.0357 13.9794 53.536 14.3097 57.0805 16.7223C59.7239 18.521 61.3192 21.1357 62.0873 23.9558C58.3994 22.4472 53.9131 22.5634 50.3375 24.2796C46.7284 26.012 44.3296 29.0874 41.3287 31.4788C39.7822 32.7109 38.0466 33.7453 36.0462 34.2858C33.9488 34.853 31.7227 34.9193 29.5515 34.7579C24.8241 34.407 20.2675 32.9261 15.4999 32.9022C11.5705 32.8826 7.17499 34.0973 4.97205 37.2058C4.79087 37.4574 4.63286 37.7192 4.49316 37.9887ZM5.03794 39.6744C4.8903 39.2523 4.74755 38.8226 4.61334 38.3869C6.23488 35.0431 10.4431 33.4166 14.3243 33.2227C19.0968 32.9842 23.6869 34.4472 28.3753 34.9622C30.4873 35.1942 32.6536 35.2517 34.7528 34.8932C36.7782 34.5471 38.6292 33.7763 40.2702 32.6702C43.4725 30.5118 45.759 27.4565 49.0381 25.3775C52.441 23.2202 56.9036 22.6259 60.8592 23.8509C61.2521 23.9726 61.6364 24.1144 62.0141 24.2692C58.1207 25.2786 54.5268 27.1507 51.6333 29.6823C50.116 31.01 48.8691 32.5148 47.6929 34.087C46.4782 35.7119 45.2825 37.3895 43.6646 38.7264C40.6637 41.2069 36.4866 41.9409 32.506 41.8018C27.7396 41.635 23.1635 40.2682 18.4642 39.6733C14.5439 39.1768 10.2936 39.2344 6.70829 40.9049C6.36544 41.0646 6.036 41.245 5.71389 41.4356C5.47231 40.8533 5.24597 40.2671 5.03794 39.6744ZM57.9004 44.611C55.404 49.8409 52.3293 54.8302 49.2308 59.7918C47.9674 61.8148 46.632 63.9243 44.5693 65.3927C42.4817 66.8791 39.8072 67.3707 37.1839 67.1371C34.1355 66.8655 31.2987 65.6655 28.6547 64.3546C26.4902 63.2811 24.4062 62.0789 22.4217 60.7582C18.4184 58.0941 14.8148 54.9416 11.8237 51.3724C9.33339 48.4007 7.28053 45.1358 5.8115 41.6665C9.21504 39.7678 13.3628 39.4625 17.2788 39.8396C22.0147 40.2959 26.5756 41.6872 31.328 42.0435C35.1866 42.3326 39.3405 41.9132 42.5927 39.8988C46.1634 37.6866 47.849 33.9061 50.6486 31.0605C53.3427 28.322 56.8359 26.2114 60.6817 24.9793C61.1521 24.8288 61.6279 24.6919 62.108 24.568C62.1611 24.5545 62.1977 24.5251 62.219 24.4893C62.5662 25.9718 62.6943 27.4995 62.629 28.9864C62.5168 31.5598 61.9171 34.0968 61.1289 36.5681C60.2546 39.3088 59.1517 41.9892 57.9004 44.611Z" fill="#1E1E1E"/>
<path d="M43.1943 16.1486C43.517 16.0796 43.8464 16.1964 44.0667 16.4121C44.1612 16.505 44.2308 16.6093 44.2759 16.7207C44.2637 16.7739 44.2814 16.8282 44.3198 16.8674C44.3509 17.0108 44.3491 17.1607 44.3143 17.3101C44.1484 18.0158 43.4212 18.4357 42.7038 18.6514C42.3298 18.7639 41.94 18.8312 41.5526 18.8932C41.4806 18.9046 41.4092 18.9149 41.3372 18.9263C41.2927 18.9144 41.2451 18.9198 41.2091 18.9459C40.8626 18.9996 40.5161 19.0529 40.1696 19.1056C39.2276 19.2495 38.2851 19.3908 37.3413 19.5261C35.4489 19.7971 33.5498 20.0389 31.6421 20.2073C29.7339 20.3763 27.8054 20.4893 25.8868 20.4496C25.0114 20.4317 24.0902 20.3284 23.3977 19.8075C22.8304 19.3805 22.5504 18.6422 22.9524 18.0408C23.0171 17.9441 23.0958 17.8577 23.1879 17.7828C24.017 18.3369 25.1529 18.3211 26.1503 18.3532C27.3107 18.3906 28.4722 18.4064 29.6338 18.3977C31.9594 18.3798 34.2867 18.2603 36.5934 17.9876C37.7348 17.8528 38.8714 17.6801 39.9975 17.4644C40.9535 17.2813 41.9821 17.0651 42.7373 16.4757C42.8673 16.3741 42.9856 16.2595 43.0906 16.1361C43.1186 16.1503 43.1522 16.1573 43.1943 16.1486Z" fill="#C594B3"/>
<path d="M30.9216 22.2331C30.5641 21.648 29.7363 21.4622 29.0658 21.7056C28.7883 21.8067 28.4906 21.9925 28.3136 22.2266C28.3118 22.2228 28.31 22.219 28.3075 22.2152C28.0391 21.7165 27.7756 21.2145 27.4839 20.7261C27.5822 20.724 27.681 20.7229 27.7792 20.7207C28.7968 20.6941 29.8138 20.6403 30.8277 20.5637C31.5268 20.511 32.2247 20.4442 32.9214 20.3725C32.8635 20.5088 32.8592 20.6745 32.8909 20.8011C32.9647 21.0961 33.188 21.3476 33.49 21.4834C33.7938 21.6203 34.1739 21.6165 34.4789 21.484C34.8004 21.3444 35.0237 21.0689 35.0914 20.7582C35.1274 20.5941 35.1128 20.4219 35.0451 20.266C35.028 20.2258 35.0036 20.1818 34.9737 20.1389C35.6313 20.0574 36.2884 19.9721 36.9442 19.8808C37.2211 19.8423 37.4981 19.8015 37.7745 19.7613C37.6415 19.9754 37.6012 20.2269 37.6653 20.4757C37.7537 20.8201 38.0289 21.0917 38.401 21.2123C38.7738 21.3335 39.2026 21.2895 39.515 21.0657C39.8157 20.85 40.0067 20.5132 39.9951 20.1671C39.9884 19.9661 39.9152 19.7689 39.7712 19.6119C39.7309 19.5674 39.6815 19.525 39.6278 19.487C39.7407 19.4696 39.8542 19.4533 39.9676 19.4359C40.3447 19.3783 40.7211 19.3202 41.0981 19.2621C41.0859 19.3191 41.0743 19.3761 41.0609 19.4321C41.0255 19.5793 40.9895 19.7265 40.9529 19.8732C40.8785 20.1698 40.7992 20.4654 40.7162 20.7598C40.6338 21.0521 40.5496 21.3444 40.4636 21.6361C40.3813 21.9153 40.2855 22.1924 40.2257 22.476C40.0238 22.5178 39.831 22.589 39.6358 22.652C39.418 22.7226 39.1996 22.7921 38.98 22.8573C38.5407 22.9877 38.096 23.1029 37.6464 23.2023C36.7471 23.4017 35.8333 23.5418 34.9102 23.6157C33.9884 23.6896 33.0599 23.6967 32.1363 23.6391C31.6745 23.6103 31.2139 23.5647 30.7563 23.5033C30.7459 23.5016 30.7356 23.5005 30.7252 23.4989C30.7374 23.4897 30.7496 23.4804 30.7606 23.4712C30.8826 23.3691 30.9741 23.2392 31.0235 23.0964C31.1236 22.8122 31.0815 22.4944 30.9216 22.2331Z" fill="#C594B3"/>
<path d="M30.6703 23.167C30.6264 23.2305 30.5721 23.2881 30.5038 23.3321C30.4373 23.375 30.3561 23.3924 30.2921 23.438C29.9791 23.3919 29.6662 23.3386 29.3642 23.261C29.0897 23.1903 28.8572 23.0779 28.6888 22.8682C28.5833 22.7362 28.5016 22.5879 28.4241 22.4395C28.526 22.3434 28.6205 22.2423 28.737 22.1576C28.8749 22.0571 29.0268 21.9761 29.1946 21.9207C29.5435 21.8056 29.9626 21.8295 30.2841 22.0028C30.5776 22.1614 30.7728 22.4406 30.7862 22.7487C30.7929 22.8942 30.7563 23.0426 30.6703 23.167Z" fill="#C594B3"/>
<path d="M34.6339 20.1807C34.679 20.2285 34.7296 20.2731 34.7601 20.3307C34.8126 20.4306 34.8279 20.5409 34.8157 20.6501C34.7913 20.875 34.6479 21.0907 34.4325 21.2129C34.0012 21.4574 33.4223 21.2922 33.2112 20.8853C33.1179 20.7061 33.0922 20.4833 33.2454 20.3383C33.709 20.2888 34.1714 20.2361 34.6339 20.1807Z" fill="#C594B3"/>
<path d="M38.0411 19.7238C38.4236 19.6679 38.8055 19.6114 39.188 19.5538C39.2527 19.5799 39.3204 19.5962 39.3832 19.6271C39.4534 19.6619 39.5132 19.7092 39.5632 19.764C39.6626 19.8727 39.7182 20.0036 39.7334 20.1427C39.7609 20.3997 39.6334 20.6773 39.4125 20.8446C38.944 21.1982 38.1619 20.9983 37.9563 20.492C37.8569 20.2481 37.8965 19.9515 38.0411 19.7238Z" fill="#C594B3"/>
<path d="M34.2184 5.71702C34.2654 5.63662 34.3331 5.57252 34.4118 5.52036C34.518 5.51928 34.6241 5.51873 34.7303 5.51765C35.1146 5.51493 35.4983 5.50461 35.8827 5.50135C35.9382 5.50081 35.9711 5.46386 35.9772 5.42529C36.0443 5.43018 36.1114 5.43344 36.1785 5.43833C36.3262 5.45028 36.4732 5.46495 36.6202 5.48071C36.597 5.50135 36.5855 5.53178 36.6025 5.56655C36.6684 5.70127 36.7093 5.82242 36.6764 5.97127C36.6422 6.12284 36.5452 6.25756 36.414 6.35698C36.1407 6.56342 35.7832 6.70086 35.43 6.75084C35.078 6.80082 34.6967 6.74106 34.4234 6.52593C34.1769 6.33253 34.0604 5.98757 34.2184 5.71702Z" fill="#C594B3"/>
<path d="M24.2146 7.52603C24.3269 7.4554 24.4446 7.39022 24.5624 7.32611C24.8009 7.3348 25.0467 7.40379 25.2121 7.55645C25.3884 7.71888 25.4835 7.96117 25.4 8.18119C25.3152 8.40501 25.0962 8.54843 24.8308 8.55006C24.6703 8.55115 24.5001 8.52779 24.3446 8.49302C24.2042 8.46097 24.0621 8.41208 23.9578 8.31918C23.8492 8.22248 23.8108 8.09808 23.8297 7.96389C23.8394 7.89273 23.8687 7.82373 23.8949 7.75419C23.9962 7.67053 24.106 7.59448 24.2146 7.52603Z" fill="#C594B3"/>
<path d="M23.5484 8.17581C23.5576 8.15571 23.5692 8.1367 23.5802 8.11768C23.5887 8.20623 23.6168 8.29261 23.6723 8.37083C23.8901 8.67669 24.3415 8.75383 24.7185 8.77013C25.0815 8.78588 25.4055 8.65388 25.5732 8.3578C25.7282 8.08455 25.6702 7.75967 25.4695 7.51793C25.317 7.3343 25.0937 7.21967 24.8515 7.17676C25.2359 6.98716 25.6373 6.82038 26.0369 6.67153C27.3247 6.19075 28.6919 5.90282 30.073 5.73496C31.4048 5.57307 32.7439 5.53721 34.0854 5.52309C33.8353 5.80667 33.8609 6.22334 34.0793 6.51453C34.6162 7.23 35.8583 7.04638 36.494 6.54984C36.6654 6.4162 36.8081 6.23855 36.8624 6.03972C36.9106 5.8637 36.9015 5.64151 36.7654 5.49646C38.0002 5.63716 39.2154 5.90608 40.3801 6.29994C40.7235 6.41565 41.0682 6.53735 41.3958 6.68566C41.6984 6.82256 41.9973 7.00672 42.1749 7.27129C42.328 7.5 42.3811 7.76891 42.2615 8.01881C42.1303 8.29424 41.835 8.48275 41.5325 8.59195C41.2006 8.71146 40.84 8.75166 40.488 8.79621C40.2983 8.82011 40.108 8.84185 39.9176 8.86466C39.9262 8.84185 39.9335 8.81794 39.9384 8.79404C39.9774 8.61367 39.9201 8.42408 39.8084 8.27305C39.5693 7.94818 39.0721 7.8982 38.7219 8.10518C38.5334 8.21655 38.4199 8.41429 38.4083 8.61313C38.3998 8.75274 38.4346 8.90703 38.5285 9.02112C38.0118 9.0749 37.4951 9.12596 36.9777 9.1716C35.4105 9.30904 33.8396 9.40846 32.2674 9.48234C30.6984 9.55568 29.1256 9.61707 27.5541 9.63337C26.7793 9.64152 26.0003 9.6225 25.2359 9.5019C24.6868 9.41552 24.0133 9.28677 23.6515 8.86954C23.4758 8.66854 23.4405 8.4105 23.5484 8.17581Z" fill="#C594B3"/>
<path d="M39.6553 8.89616C39.5412 8.90974 39.4271 8.92441 39.3124 8.93744C39.1367 8.95754 38.961 8.97493 38.7853 8.99394C38.7206 8.86411 38.6596 8.74459 38.6828 8.59737C38.7048 8.4583 38.8042 8.33769 38.9531 8.2763C39.1007 8.21546 39.288 8.21383 39.4186 8.28554C39.5619 8.36431 39.6473 8.50013 39.6607 8.6517C39.6668 8.72449 39.6174 8.82119 39.6553 8.89616Z" fill="#C594B3"/>
<path d="M36.3366 9.75178C36.4543 9.85935 36.5348 9.99897 36.5641 10.1467C36.6233 10.4428 36.4897 10.7633 36.2487 10.9709C35.7247 11.4223 34.7907 11.2327 34.5478 10.6161C34.421 10.2945 34.5076 9.92074 34.715 9.64096C34.7211 9.63281 34.7242 9.62466 34.7266 9.61651C35.1134 9.59152 35.4995 9.56382 35.8857 9.53448C35.8918 9.53774 35.8979 9.54209 35.9058 9.54426C36.0632 9.59587 36.217 9.64259 36.3366 9.75178Z" fill="#C594B3"/>
<path d="M28.6223 9.8811C28.9261 9.94249 29.0561 10.288 29.1092 10.533C29.1726 10.828 29.1147 11.1616 28.8529 11.3718C28.6211 11.5581 28.2844 11.5766 28.0068 11.4636C27.7353 11.3528 27.5596 11.1029 27.5078 10.8476C27.4388 10.5107 27.5773 10.1641 27.8116 9.89903C28.0824 9.89414 28.3527 9.88817 28.6223 9.8811Z" fill="#C594B3"/>
<path d="M25.0419 12.4686C24.6606 11.6201 24.2738 10.7737 23.8882 9.92673C23.7687 9.66488 23.6521 9.40194 23.5289 9.14172C23.679 9.27808 23.8644 9.39108 24.0609 9.47691C24.3549 9.60512 24.674 9.6752 24.993 9.73441C25.3859 9.80721 25.7855 9.85067 26.1857 9.87566C26.6427 9.90391 27.1002 9.90771 27.5584 9.90282C27.3314 10.1592 27.2009 10.4683 27.2332 10.8073C27.2674 11.1615 27.501 11.5049 27.8567 11.6717C28.2044 11.8346 28.6449 11.8221 28.9639 11.6119C29.3251 11.374 29.4477 10.9475 29.391 10.5661C29.3611 10.3662 29.2617 10.068 29.0872 9.86697C29.7546 9.8485 30.4214 9.82948 31.0882 9.80341C32.2217 9.75995 33.3546 9.7029 34.4868 9.63173C34.2404 9.89141 34.1617 10.2543 34.2507 10.5873C34.3538 10.9747 34.6711 11.28 35.0914 11.4131C35.5227 11.55 36.0108 11.4897 36.3664 11.2273C36.7038 10.9785 36.8984 10.5868 36.8649 10.1967C36.8466 9.97834 36.7404 9.75886 36.5726 9.59805C36.533 9.56057 36.4884 9.52363 36.4403 9.49049C37.1199 9.43562 37.7989 9.37586 38.4766 9.30741C39.288 9.22483 40.1025 9.1428 40.9083 9.02329C41.3464 8.95864 41.8332 8.82935 42.1809 8.56967C41.9564 9.25418 41.7569 9.94628 41.5373 10.6319C41.2902 11.4033 41.0352 12.1726 40.7723 12.9402C40.7485 12.9874 40.7272 13.0352 40.7052 13.0831C40.585 12.9233 40.4002 12.7924 40.2214 12.7125C39.8719 12.5566 39.4527 12.5365 39.0843 12.6501C38.3144 12.8869 37.9319 13.7257 38.2698 14.3782C38.3626 14.5569 38.4998 14.7134 38.6682 14.8399C38.7249 14.8823 38.7896 14.9252 38.8585 14.9633C37.5158 15.2018 36.159 15.3778 34.7943 15.4788C32.9184 15.6179 31.0302 15.6255 29.1531 15.5038C28.7004 15.4745 28.2483 15.4359 27.7975 15.393C27.9091 15.3175 28.0031 15.2175 28.0629 15.1175C28.2075 14.8785 28.2075 14.6004 28.0787 14.3554C27.8195 13.8615 27.0386 13.5046 26.4804 13.836C26.212 13.9957 26.0503 14.3076 26.0295 14.5944C26.0241 14.5857 26.0173 14.5781 26.0119 14.5694C25.9661 14.495 25.9313 14.4162 25.8905 14.3401C25.6153 13.7132 25.3219 13.0923 25.0419 12.4686Z" fill="#C594B3"/>
<path d="M40.2324 14.0984C40.2104 14.1456 40.1885 14.1934 40.1665 14.2407C40.0043 14.4471 39.8139 14.6302 39.6297 14.822C39.5333 14.841 39.4369 14.8562 39.3405 14.8747C39.3368 14.872 39.335 14.8687 39.3307 14.8665C39.2002 14.7867 39.0434 14.7541 38.9135 14.6688C38.7914 14.5889 38.6853 14.4879 38.6035 14.3744C38.4339 14.1397 38.3821 13.8496 38.4693 13.5807C38.6524 13.0184 39.3039 12.6924 39.9365 12.8712C40.2226 12.9521 40.4484 13.1216 40.5808 13.3503C40.5271 13.466 40.4728 13.5817 40.4191 13.6975C40.3904 13.7594 40.3617 13.8213 40.3331 13.8832C40.3209 13.8876 40.3087 13.8914 40.2971 13.8957C40.1879 13.9354 40.1836 14.0316 40.2324 14.0984Z" fill="#C594B3"/>
<path d="M26.5103 14.0908C26.6908 13.9235 26.9538 13.8892 27.1978 13.9512C27.6431 14.0642 28.0702 14.4874 27.9067 14.9209C27.8677 15.0247 27.8005 15.1214 27.7078 15.1942C27.609 15.2718 27.5047 15.2979 27.3814 15.3283C27.3662 15.3321 27.354 15.3381 27.3424 15.3457C27.1703 15.3267 26.9989 15.3077 26.8269 15.2881C26.8257 15.2344 26.7854 15.1887 26.7287 15.1632C26.6768 15.1398 26.6256 15.1165 26.5737 15.0931C26.4346 15.0203 26.3071 14.9263 26.2016 14.8128C26.1814 14.7916 26.1637 14.7682 26.1448 14.746C26.168 14.7405 26.1888 14.7264 26.1997 14.6982C26.2778 14.4879 26.3315 14.2559 26.5103 14.0908Z" fill="#C594B3"/>
<path d="M22.9433 17.1721C22.698 16.8375 22.6754 16.4279 22.831 16.0584C23.1702 15.2539 24.1048 14.9057 25.0059 14.8367C25.2407 14.8187 25.4781 14.8155 25.7135 14.8182C25.7233 14.8182 25.7312 14.8155 25.7398 14.8138C25.7947 14.9339 25.8465 15.0545 25.9039 15.1735C25.9118 15.1903 25.9234 15.2023 25.9344 15.2137C25.841 15.243 25.8105 15.3815 25.9265 15.4093C26.0851 15.4473 26.2449 15.4766 26.406 15.5038C26.4828 15.5364 26.564 15.5548 26.639 15.5413C26.872 15.5749 27.1063 15.6021 27.3412 15.6293C27.8115 15.6841 28.2831 15.7292 28.7553 15.7651C29.7003 15.8368 30.6483 15.8754 31.5964 15.8813C33.4998 15.8928 35.4062 15.77 37.2882 15.5168C38.3479 15.3739 39.4009 15.1887 40.4423 14.9627C40.6137 14.9258 40.6052 14.7237 40.4813 14.6759C40.5411 14.5232 40.5869 14.3629 40.6405 14.2119C40.6576 14.1641 40.6741 14.1163 40.6912 14.0685C41.4629 13.8121 42.5104 13.5817 43.0405 14.2717C43.4694 14.8307 43.2296 15.6331 42.7495 16.0981C42.1205 16.7071 41.1682 16.9456 40.2934 17.1232C39.249 17.3356 38.1917 17.5035 37.1315 17.6415C34.9761 17.9213 32.8 18.0642 30.6233 18.1082C29.5264 18.1304 28.4289 18.1283 27.3314 18.1065C26.7903 18.0957 26.2492 18.0805 25.7087 18.0614C25.1523 18.0419 24.5813 18.0272 24.0469 17.8729C23.6107 17.7474 23.1976 17.5193 22.9433 17.1721Z" fill="#C594B3"/>
<path d="M5.05195 39.7162C4.90371 39.2946 4.76034 38.8649 4.62491 38.4298C6.24035 35.0838 10.4449 33.4508 14.3261 33.2509C19.098 33.0048 23.6912 34.4613 28.3801 34.9687C30.4928 35.1974 32.6591 35.2517 34.7577 34.8904C36.7825 34.5417 38.6322 33.7675 40.2708 32.6587C43.4688 30.4955 45.7492 27.437 49.0246 25.353C52.4233 23.1909 56.8847 22.5895 60.8427 23.8085C61.2362 23.9297 61.6206 24.0709 61.9988 24.2252C58.1072 25.2406 54.517 27.1181 51.6284 29.654C50.1136 30.9839 48.8697 32.4903 47.6965 34.0647C46.4849 35.6912 45.2929 37.371 43.6774 38.7106C40.6814 41.196 36.5055 41.9359 32.5249 41.8028C27.7579 41.6431 23.1793 40.2833 18.4788 39.6955C14.5573 39.205 10.307 39.2691 6.72535 40.9445C6.3825 41.1048 6.05367 41.2857 5.73156 41.4764C5.48815 40.8951 5.26059 40.3084 5.05195 39.7162Z" fill="#C594B3"/>
<path d="M57.9004 44.611C55.404 49.8409 52.3293 54.8302 49.2308 59.7918C47.9674 61.8149 46.6319 63.9243 44.5693 65.3927C42.4817 66.8791 39.8072 67.3708 37.1839 67.1371C34.1354 66.8655 31.2986 65.6655 28.6546 64.3546C26.4901 63.2811 24.4062 62.0789 22.4216 60.7582C18.4184 58.0941 14.8148 54.9416 11.8236 51.3724C9.33335 48.4008 7.28049 45.1358 5.81146 41.6665C9.215 39.7679 13.3628 39.4625 17.2788 39.8396C22.0147 40.2959 26.5755 41.6872 31.3279 42.0436C35.1866 42.3326 39.3405 41.9132 42.5927 39.8988C46.1634 37.6866 47.849 33.9061 50.6486 31.0605C53.3426 28.322 56.8358 26.2114 60.6817 24.9793C61.152 24.8288 61.6279 24.6919 62.108 24.5681C62.1611 24.5545 62.1977 24.5251 62.219 24.4893C62.5661 25.9718 62.6943 27.4995 62.629 28.9864C62.5167 31.5598 61.917 34.0968 61.1288 36.5681C60.2546 39.3088 59.1516 41.9892 57.9004 44.611Z" fill="#674367"/>
<path d="M33.5827 7.21207C33.2515 6.8269 32.6005 6.75193 32.0966 6.81169C32.038 6.81875 32.0051 6.85515 31.9941 6.89752C31.9392 6.91491 31.8855 6.93664 31.8367 6.96434C31.6555 7.06756 31.5268 7.23271 31.4835 7.42068C31.3914 7.82378 31.7617 8.16114 32.1631 8.27848C32.5804 8.40017 33.1252 8.42842 33.4833 8.16602C33.8151 7.92373 33.8377 7.50814 33.5827 7.21207ZM33.4607 7.92428C33.238 8.18015 32.814 8.17309 32.4901 8.12637C32.1649 8.07965 31.7788 7.93025 31.7098 7.60864C31.6537 7.34842 31.855 7.14959 32.1051 7.04583L32.107 7.04638C32.4785 7.06702 32.8726 7.01324 33.2075 7.19523C33.4705 7.33865 33.6791 7.67329 33.4607 7.92428Z" fill="#C594B3"/>
<path d="M34.7089 12.6669C34.5601 12.4713 34.316 12.3333 34.0513 12.3089C33.9274 12.2975 33.7993 12.3116 33.6852 12.3518C33.4247 12.3822 33.1813 12.5148 33.0428 12.7278C32.8202 13.0711 32.9001 13.5247 33.2338 13.7871C33.4266 13.9387 33.6956 14.0321 33.9451 14.0788C34.194 14.1256 34.4301 14.0642 34.6046 13.8979C34.9468 13.5714 34.9883 13.0336 34.7089 12.6669ZM34.457 13.6393C34.3661 13.7637 34.2392 13.8474 34.0665 13.8338C33.8872 13.8197 33.6889 13.7507 33.5358 13.6681C33.2539 13.5166 33.1081 13.2151 33.2173 12.9304C33.2557 12.8304 33.3296 12.7468 33.4205 12.6794C33.451 12.7 33.4924 12.7087 33.5266 12.6941C33.6724 12.6316 33.8213 12.5713 33.9872 12.5778C34.1458 12.5843 34.2947 12.649 34.4014 12.7538C34.6455 12.9939 34.6534 13.371 34.457 13.6393Z" fill="#C594B3"/>
<path d="M12.0945 34.4445C11.7901 34.4646 11.4893 34.5596 11.2026 34.6492C10.911 34.7405 10.623 34.841 10.3394 34.9497C9.7714 35.167 9.2193 35.418 8.68793 35.6999C7.63802 36.2568 6.65948 36.9255 5.80234 37.7029C5.56137 37.9218 5.32832 38.1478 5.10504 38.3814C4.88847 38.6085 4.6481 38.8448 4.50718 39.1175C4.47606 39.1778 4.57123 39.236 4.62492 39.1931C4.85003 39.0138 5.02939 38.7851 5.22461 38.5808C5.418 38.3782 5.61932 38.181 5.82735 37.9908C6.25013 37.6046 6.69913 37.2406 7.17254 36.9043C8.11264 36.2372 9.1467 35.6804 10.2473 35.2496C10.5529 35.13 10.8634 35.0203 11.1782 34.9203C11.5003 34.8182 11.8426 34.7405 12.1488 34.6025C12.2476 34.558 12.1988 34.4374 12.0945 34.4445Z" fill="#1E1E1E"/>
<path d="M13.7387 34.4429C13.7063 34.4342 13.6722 34.4249 13.6386 34.4249C13.6057 34.4255 13.5721 34.4298 13.5392 34.4325C13.48 34.4374 13.4208 34.4412 13.3616 34.4472C13.2396 34.4592 13.1176 34.4727 12.9956 34.4858C12.9505 34.4907 12.9187 34.5347 12.9267 34.5732C12.9352 34.6162 12.9791 34.6384 13.0249 34.6346C13.1451 34.6243 13.2652 34.6145 13.386 34.6042C13.4452 34.5993 13.5038 34.5917 13.5623 34.5852C13.5916 34.5819 13.6215 34.5803 13.6508 34.5754C13.6844 34.57 13.7136 34.5558 13.7435 34.5417C13.7844 34.5211 13.7923 34.457 13.7387 34.4429Z" fill="#C594B3"/>
<path d="M62.1037 24.2655C62.0354 24.1905 61.9287 24.1726 61.8292 24.1438C61.7194 24.1117 61.6096 24.0813 61.4992 24.052C61.2783 23.9933 61.0563 23.939 60.8324 23.8901C60.3937 23.7939 59.9496 23.7168 59.5024 23.6619C59.0534 23.6065 58.5989 23.5647 58.1457 23.5565C57.7015 23.5484 57.2159 23.5342 56.784 23.6369C56.7218 23.6516 56.723 23.7287 56.7889 23.7374C57.0152 23.7684 57.2464 23.7646 57.4752 23.7716C57.6905 23.7782 57.9065 23.7874 58.1219 23.7988C58.5684 23.8227 59.0132 23.8521 59.4567 23.9058C59.5805 23.921 59.7031 23.9401 59.8264 23.958C59.6745 23.958 59.5238 23.9602 59.3755 23.9618C58.9034 23.9661 58.4312 23.9922 57.9614 24.034C57.0054 24.1199 56.0586 24.2752 55.1374 24.5181C54.8867 24.5844 54.6384 24.6566 54.3938 24.7386C54.1455 24.8218 53.8758 24.8995 53.6507 25.0266C53.5915 25.0603 53.6422 25.1455 53.7056 25.1341C53.9307 25.0934 54.1497 25.0076 54.3681 24.944C54.592 24.8793 54.8172 24.8174 55.0429 24.7571C55.4931 24.6365 55.9494 24.5328 56.4088 24.4447C57.333 24.2682 58.2732 24.1661 59.2181 24.1438C59.4829 24.1373 59.7477 24.1362 60.0131 24.1416C60.2723 24.1465 60.5279 24.1644 60.7866 24.1465C60.8025 24.1454 60.8147 24.1383 60.8238 24.1286C60.9239 24.1498 61.0227 24.1731 61.1221 24.1954C60.5633 24.1791 60.007 24.1992 59.4463 24.2589C58.6758 24.341 57.9138 24.4811 57.1696 24.6762C55.6749 25.0679 54.2571 25.6747 52.9845 26.4749C52.6295 26.6982 52.2891 26.9399 51.9627 27.1958C51.6345 27.4528 51.3124 27.7195 51.047 28.0292C50.9988 28.0857 51.0872 28.1595 51.1482 28.1144C51.4411 27.8971 51.7156 27.6619 52.0048 27.4397C52.2946 27.2175 52.5953 27.0089 52.9028 26.8068C53.5141 26.4059 54.1619 26.0501 54.8391 25.7442C56.1983 25.1298 57.6661 24.7104 59.1754 24.5164C60.0228 24.4073 60.8934 24.3584 61.7493 24.3692C61.7651 24.3692 61.778 24.3654 61.7889 24.36C61.8737 24.3861 61.9616 24.4159 62.0494 24.3969C62.1135 24.3817 62.1489 24.3149 62.1037 24.2655Z" fill="#1E1E1E"/>
<path d="M49.8433 28.7739C49.6517 28.963 49.4602 29.152 49.2698 29.3422C49.0807 29.5312 48.8812 29.717 48.7342 29.9349C48.7135 29.9658 48.7531 30.0044 48.7879 29.9799C49.0112 29.8213 49.1918 29.6203 49.3772 29.4285C49.567 29.2324 49.7542 29.0347 49.9427 28.8375C49.9946 28.7842 49.8952 28.7228 49.8433 28.7739Z" fill="#C594B3"/>
<path d="M43.9007 36.8554C43.5658 37.12 43.2626 37.4166 42.9368 37.6904C42.6092 37.9653 42.2621 38.2223 41.8997 38.4597C41.1835 38.9296 40.4057 39.3202 39.5912 39.6375C37.9532 40.2753 36.1505 40.5914 34.3624 40.5398C33.3594 40.5105 32.3608 40.3573 31.3853 40.1519C31.3017 40.1345 31.2529 40.2356 31.3371 40.2666C32.1869 40.5768 33.0837 40.73 33.9988 40.7875C34.9169 40.8451 35.843 40.806 36.7514 40.6735C38.5663 40.4084 40.3099 39.7841 41.8125 38.8389C42.2261 38.5787 42.6208 38.294 42.9917 37.9871C43.3681 37.6752 43.7427 37.3389 44.0044 36.9418C44.0404 36.8837 43.9648 36.8044 43.9007 36.8554Z" fill="#1E1E1E"/>
<path d="M45.3752 35.2577C45.2807 35.3061 45.2014 35.3876 45.1257 35.4576C45.0464 35.5315 44.9726 35.6098 44.8994 35.6885C44.7499 35.8488 44.6151 36.0161 44.4742 36.1824C44.4187 36.2481 44.5285 36.3133 44.5876 36.2557C44.7438 36.1047 44.9018 35.958 45.0501 35.7999C45.1208 35.7249 45.1928 35.65 45.2569 35.5701C45.3209 35.4897 45.4015 35.4039 45.4381 35.3104C45.4509 35.2789 45.4124 35.2393 45.3752 35.2577Z" fill="#C594B3"/>
<path d="M16.3882 37.9919C16.0197 37.899 15.6158 37.8838 15.2345 37.8681C14.8441 37.8518 14.453 37.8496 14.0626 37.861C13.2872 37.8833 12.5131 37.955 11.7505 38.0826C10.2198 38.3385 8.72762 38.797 7.35498 39.4527C6.9743 39.6347 6.60338 39.833 6.24223 40.0443C5.87863 40.2578 5.50344 40.4784 5.20512 40.7636C5.15693 40.8098 5.23196 40.8869 5.29175 40.8581C5.62545 40.6963 5.93109 40.4893 6.25016 40.3057C6.56922 40.122 6.89682 39.9509 7.23053 39.7885C7.90038 39.462 8.5989 39.18 9.3145 38.9437C10.7402 38.4727 12.2495 38.1929 13.768 38.1142C14.1944 38.0919 14.622 38.0875 15.0491 38.0989C15.2657 38.1049 15.4822 38.1136 15.6982 38.125C15.9148 38.1364 16.1313 38.1587 16.3479 38.1522C16.4412 38.1484 16.4986 38.0196 16.3882 37.9919Z" fill="#1E1E1E"/>
<path d="M18.3422 38.5716C18.2738 38.5216 18.1927 38.5004 18.111 38.4738C18.0298 38.4472 17.9462 38.426 17.8633 38.4037C17.6961 38.3592 17.5259 38.3255 17.3563 38.2907C17.274 38.2739 17.2245 38.3749 17.3087 38.4043C17.4734 38.4608 17.6376 38.5189 17.8059 38.5656C17.8889 38.589 17.9713 38.6123 18.0554 38.6308C18.1445 38.6504 18.2257 38.6732 18.3178 38.6656C18.3715 38.6607 18.3782 38.5982 18.3422 38.5716Z" fill="#C594B3"/>
<path d="M11.246 36.567C10.7774 36.6229 10.3333 36.7685 9.88918 36.9049C9.43712 37.0439 8.99971 37.2162 8.57144 37.4068C7.732 37.7806 6.93038 38.2234 6.18183 38.728C5.96587 38.8736 5.75357 39.0241 5.54676 39.1806C5.34788 39.3316 5.12582 39.4826 4.96354 39.6662C4.89826 39.7401 5.01234 39.8211 5.09104 39.7733C5.28077 39.6576 5.4461 39.5038 5.62179 39.3713C5.79932 39.2376 5.97929 39.1067 6.16292 38.9801C6.53018 38.7264 6.91086 38.4885 7.30313 38.2663C8.09438 37.8175 8.93199 37.4617 9.78852 37.1243C10.2711 36.9342 10.778 36.7989 11.26 36.6083C11.2868 36.5985 11.274 36.5637 11.246 36.567Z" fill="#1E1E1E"/>
<path d="M27.7054 38.2565C27.1771 38.1087 26.6171 38.0495 26.0747 37.9534C25.5391 37.8583 25.0071 37.7513 24.4745 37.6432C23.3825 37.4215 22.299 37.1689 21.2101 36.9347C19.2231 36.5077 17.2038 36.1351 15.1522 36.1025C14.037 36.0846 12.8986 36.1492 11.8127 36.3855C11.7303 36.4034 11.7498 36.5159 11.8353 36.5023C12.826 36.3453 13.8192 36.2644 14.8264 36.2796C15.8141 36.2942 16.8012 36.3866 17.7766 36.5213C19.8868 36.812 21.9507 37.3215 24.0182 37.7855C24.6185 37.9202 25.2212 38.0457 25.827 38.1587C26.4273 38.2712 27.0514 38.4108 27.6676 38.4037C27.7573 38.4026 27.8048 38.2847 27.7054 38.2565Z" fill="#C594B3"/>
<path d="M55.936 23.6157C54.3499 23.7602 52.807 24.3133 51.4905 25.107C51.305 25.2189 51.1245 25.3368 50.9488 25.4595C50.7822 25.5758 50.576 25.7013 50.4632 25.8637C50.4424 25.8936 50.4741 25.9343 50.5132 25.918C50.6816 25.8485 50.828 25.7198 50.9732 25.6176C51.1245 25.5111 51.2794 25.409 51.4374 25.3107C51.7632 25.1075 52.1006 24.9201 52.4501 24.7517C53.1444 24.4176 53.8813 24.1535 54.6433 23.9716C55.074 23.8689 55.5157 23.783 55.9555 23.7189C56.0318 23.7086 56.0111 23.6092 55.936 23.6157Z" fill="#C594B3"/>
<path d="M43.2681 30.8351C42.8801 31.2262 42.5189 31.6385 42.109 32.0128C41.7008 32.3855 41.2677 32.7327 40.8089 33.0548C39.8993 33.6942 38.8964 34.2212 37.8239 34.6134C37.5207 34.7243 37.212 34.8247 36.8996 34.9144C36.7459 34.9584 36.5916 34.9991 36.436 35.0372C36.2707 35.0779 36.1108 35.1322 35.9449 35.1692C35.8497 35.1904 35.8723 35.3229 35.9711 35.305C36.1139 35.2795 36.2597 35.268 36.4006 35.2355C36.5537 35.2001 36.7056 35.1621 36.8569 35.1214C37.1333 35.0469 37.4072 34.9649 37.6769 34.8742C38.2339 34.6862 38.7756 34.4619 39.2966 34.2049C40.3373 33.6915 41.3019 33.0532 42.134 32.2948C42.5976 31.8722 43.0515 31.4207 43.3779 30.9051C43.4206 30.8383 43.326 30.7759 43.2681 30.8351Z" fill="#C594B3"/>
<path d="M44.3839 29.8007C44.3906 29.7665 44.3461 29.7458 44.315 29.7572C44.2436 29.7833 44.1905 29.8463 44.1405 29.8969C44.0892 29.9479 44.0417 30.0022 43.9935 30.0555C43.8952 30.1641 43.8062 30.2788 43.7165 30.3929C43.6695 30.4526 43.7641 30.5091 43.8172 30.4575C43.9233 30.3543 44.0313 30.2522 44.1301 30.143C44.1783 30.0897 44.2271 30.037 44.2729 29.9816C44.318 29.9262 44.3705 29.8697 44.3839 29.8007Z" fill="#C594B3"/>
<path d="M41.3415 33.2814C41.1786 33.34 41.0334 33.4797 40.8986 33.578C40.7509 33.6861 40.6009 33.7915 40.4477 33.8931C40.1482 34.0914 39.8383 34.2777 39.5174 34.4477C38.875 34.7878 38.1899 35.0828 37.4877 35.3115C37.4157 35.3349 37.4664 35.4256 37.5359 35.406C37.9044 35.3039 38.2607 35.1936 38.6133 35.054C38.9628 34.9155 39.3033 34.7628 39.6345 34.5923C39.9609 34.4233 40.28 34.2413 40.5856 34.0441C40.7351 33.9474 40.8821 33.848 41.0255 33.7448C41.1639 33.6448 41.3537 33.5296 41.4391 33.3884C41.4751 33.3275 41.4208 33.2526 41.3415 33.2814Z" fill="#C594B3"/>
<path d="M40.7833 34.282C40.7778 34.2554 40.7528 34.2424 40.7259 34.2369C40.6936 34.2304 40.6692 34.2391 40.6411 34.2527C40.5588 34.2935 40.4825 34.3396 40.4081 34.3912C40.3294 34.4456 40.2495 34.4983 40.1702 34.551C40.1372 34.5732 40.1336 34.6194 40.1592 34.6471C40.1879 34.6786 40.2324 34.677 40.2672 34.6569C40.3391 34.6156 40.4099 34.5743 40.4795 34.5358C40.5582 34.4923 40.6362 34.4505 40.707 34.3972C40.7253 34.3836 40.7442 34.3706 40.7601 34.3554C40.7796 34.3369 40.7882 34.307 40.7833 34.282Z" fill="#C594B3"/>
<path d="M42.2517 37.4606C41.8125 37.6872 41.4019 37.955 40.962 38.181C40.521 38.4075 40.0659 38.6118 39.5998 38.7938C38.6768 39.1545 37.7098 39.4272 36.7215 39.6043C36.1584 39.7054 35.5813 39.7896 35.0097 39.8379C34.9145 39.8461 34.9432 39.9694 35.0347 39.9661C35.5538 39.946 36.0614 39.908 36.5739 39.8276C37.0808 39.7478 37.5835 39.6429 38.0777 39.5131C39.0641 39.2545 40.0183 38.8986 40.9169 38.4543C41.4129 38.2087 41.9339 37.9485 42.3548 37.6073C42.4317 37.5448 42.353 37.4085 42.2517 37.4606Z" fill="#1E1E1E"/>
<path d="M43.1674 36.8538C43.1625 36.8283 43.1387 36.8104 43.1107 36.8071C43.0784 36.8033 43.043 36.8109 43.018 36.8299C43.0021 36.8413 42.9881 36.8555 42.9734 36.8679C42.9386 36.8973 42.9057 36.9277 42.8746 36.9598C42.8179 37.0179 42.7617 37.076 42.705 37.1336C42.6788 37.1602 42.6885 37.2048 42.7154 37.227C42.7422 37.2499 42.7916 37.2553 42.8209 37.2308C42.8837 37.1781 42.946 37.1249 43.0088 37.0722C43.0436 37.0429 43.0759 37.0119 43.1076 36.9799C43.1211 36.9663 43.1363 36.9532 43.1479 36.9386C43.1668 36.9141 43.1729 36.8826 43.1674 36.8538Z" fill="#C594B3"/>
<path d="M52.9186 25.2998C52.4074 25.4965 51.9285 25.7524 51.4777 26.043C51.0372 26.3271 50.5705 26.6428 50.2398 27.0307C50.2063 27.0703 50.2673 27.1208 50.3106 27.0899C50.5193 26.9399 50.7084 26.771 50.9109 26.6145C51.1183 26.4537 51.3343 26.3011 51.5564 26.1577C52.0023 25.8692 52.4776 25.6182 52.9619 25.3846C53.0199 25.3558 52.9809 25.2759 52.9186 25.2998Z" fill="#1E1E1E"/>
<path d="M12.0579 21.4416C12.1427 21.4003 12.0847 21.2819 11.995 21.3183C10.0514 22.1158 8.38226 23.4283 7.15421 24.982C5.88284 26.59 5.10562 28.4844 4.88599 30.4406C4.82316 31.0007 4.8073 31.5635 4.83597 32.1258C4.86403 32.6843 4.91467 33.2623 5.0922 33.8007C5.12819 33.9093 5.30267 33.8871 5.28925 33.7703C5.23312 33.2802 5.14039 32.7946 5.10501 32.3018C5.06962 31.8086 5.07267 31.3131 5.1105 30.8198C5.18492 29.8474 5.39723 28.8837 5.74618 27.9596C6.42396 26.1641 7.61724 24.5501 9.17595 23.2637C10.041 22.5493 11.0214 21.9425 12.0579 21.4416Z" fill="#C594B3"/>
<path d="M13.3701 20.9098C13.3225 20.8565 13.2231 20.8668 13.156 20.8701C13.0889 20.8734 13.0248 20.8897 12.9614 20.9098C12.8406 20.9478 12.7271 21.0043 12.6252 21.0727C12.5899 21.0966 12.5831 21.1493 12.613 21.1787C12.6466 21.2123 12.6923 21.2123 12.732 21.1895C12.732 21.1895 12.7509 21.1792 12.7442 21.1825C12.7369 21.1863 12.7552 21.177 12.7564 21.1759C12.7686 21.1694 12.7808 21.1634 12.7936 21.1575C12.8198 21.145 12.8467 21.1336 12.8735 21.1227C12.8998 21.1124 12.926 21.1031 12.9528 21.0945C12.9663 21.0901 12.9803 21.0858 12.9943 21.082C12.9955 21.0814 12.9962 21.0814 12.998 21.0809C13.0059 21.0787 13.0145 21.0765 13.0224 21.0749C13.0773 21.0619 13.1328 21.051 13.1877 21.0385C13.2475 21.0249 13.3323 21.0206 13.3713 20.9728C13.3878 20.9543 13.3866 20.9277 13.3701 20.9098Z" fill="#C594B3"/>
<path d="M5.89628 32.8647C5.88652 32.6811 5.90116 32.4991 5.90177 32.3154C5.90238 32.1514 5.89872 31.9879 5.90421 31.8238C5.91519 31.4832 5.94631 31.1426 6.0006 30.8052C6.0549 30.4657 6.13055 30.1277 6.22877 29.7958C6.27574 29.6372 6.3276 29.4796 6.38494 29.3237C6.44107 29.1694 6.53502 28.9896 6.53502 28.8261C6.53502 28.7473 6.43741 28.7174 6.37945 28.7745C6.25622 28.8951 6.19704 29.0907 6.14214 29.2428C6.08113 29.4112 6.02562 29.5807 5.9762 29.7524C5.87798 30.0924 5.80233 30.4374 5.7517 30.7856C5.70045 31.1366 5.673 31.4897 5.67239 31.8434C5.67178 32.015 5.67117 32.19 5.6913 32.3611C5.71143 32.5355 5.75353 32.7093 5.78464 32.8821C5.79562 32.9483 5.89933 32.9282 5.89628 32.8647Z" fill="#C594B3"/>
<path d="M7.14999 27.6456C7.1628 27.5994 7.11339 27.5685 7.06885 27.5935C6.98954 27.6385 6.93647 27.7146 6.87912 27.7792C6.82178 27.8439 6.77114 27.9134 6.71807 27.9802C6.69366 28.0112 6.69915 28.0596 6.73637 28.0813C6.77358 28.103 6.823 28.0976 6.84984 28.065C6.90413 27.9987 6.96209 27.9335 7.01272 27.8651C7.06275 27.7961 7.12742 27.7271 7.14999 27.6456Z" fill="#C594B3"/>
<path d="M58.0511 19.3137C57.8248 18.7514 57.3514 18.2587 56.8956 17.8306C56.4265 17.39 55.9 16.9983 55.3266 16.6691C54.1528 15.996 52.7985 15.5934 51.4063 15.5016C50.6187 15.4495 49.8006 15.4842 49.0417 15.6885C48.9331 15.7178 48.9545 15.858 49.0722 15.8461C49.753 15.7781 50.4308 15.7254 51.1165 15.757C51.79 15.7879 52.4593 15.8906 53.1041 16.065C54.373 16.4072 55.5389 17.0298 56.4784 17.8632C56.7425 18.0973 56.9896 18.3477 57.2165 18.6112C57.4423 18.8736 57.6454 19.1518 57.8833 19.406C57.959 19.487 58.0883 19.406 58.0511 19.3137Z" fill="#C594B3"/>
<path d="M58.8357 20.2747C58.7808 20.185 58.7198 20.0992 58.6587 20.0123C58.627 19.9677 58.5929 19.9226 58.5563 19.8808C58.5386 19.8607 58.519 19.8417 58.5001 19.8221C58.4885 19.8102 58.4776 19.7988 58.4654 19.7879C58.4513 19.7754 58.4349 19.7678 58.4214 19.7591C58.3708 19.7276 58.3019 19.7662 58.311 19.8205C58.3159 19.8466 58.3202 19.871 58.333 19.8971C58.3433 19.9194 58.3543 19.9411 58.3647 19.9634C58.3861 20.0074 58.4153 20.0487 58.4416 20.0905C58.4959 20.1774 58.5569 20.2643 58.6215 20.3453C58.6386 20.3665 58.6545 20.3909 58.6752 20.4088C58.7051 20.4344 58.7539 20.4501 58.7942 20.4398C58.832 20.4306 58.8521 20.4012 58.8576 20.3676C58.8631 20.3339 58.8534 20.304 58.8357 20.2747Z" fill="#C594B3"/>
<path d="M37.1705 33.2444C37.0821 33.2341 36.9985 33.2797 36.918 33.3085C36.8356 33.3379 36.7539 33.3694 36.6715 33.3998C36.4952 33.465 36.3171 33.5247 36.1365 33.5802C35.7741 33.6926 35.4068 33.7861 35.0304 33.8529C34.6571 33.9192 34.2788 33.9659 33.8988 33.986C33.5163 34.0066 33.127 34.0256 32.7445 34.0023C32.6616 33.9974 32.6512 34.1066 32.7329 34.1163C33.1252 34.1631 33.5114 34.2016 33.9079 34.188C34.3051 34.1745 34.7016 34.137 35.0914 34.068C35.4746 34.0001 35.8565 33.9094 36.2231 33.7898C36.408 33.7295 36.5885 33.66 36.7667 33.5856C36.8588 33.5465 36.9491 33.5057 37.0369 33.459C37.112 33.4194 37.1833 33.3906 37.2242 33.3199C37.245 33.2862 37.2071 33.2488 37.1705 33.2444Z" fill="#C594B3"/>
<path d="M38.584 32.5887C38.5773 32.5615 38.5554 32.5447 38.5273 32.5349C38.4858 32.5208 38.4486 32.53 38.4126 32.5512C38.351 32.5871 38.2937 32.6273 38.2363 32.6675C38.1698 32.7137 38.1033 32.7604 38.0368 32.8066C37.9984 32.8332 37.9905 32.8908 38.0234 32.9239C38.0594 32.9603 38.1119 32.9619 38.1552 32.9359C38.2772 32.862 38.4029 32.7908 38.52 32.7104C38.5407 32.6963 38.5615 32.6816 38.5743 32.661C38.5865 32.6392 38.5901 32.6126 38.584 32.5887Z" fill="#C594B3"/>
<path d="M58.472 22.4325C58.2768 22.3516 58.0285 22.3331 57.8168 22.3076C57.5984 22.281 57.3794 22.2609 57.1592 22.2462C56.7126 22.2169 56.2648 22.2065 55.8177 22.2141C54.9233 22.2299 54.0326 22.3222 53.1578 22.4885C52.663 22.5825 52.1817 22.7058 51.7083 22.8628C51.6131 22.8943 51.6613 23.0388 51.7613 23.0154C52.6124 22.8172 53.475 22.6466 54.3505 22.5553C55.2271 22.464 56.1135 22.4401 56.9951 22.4901C57.2348 22.5037 57.4746 22.5227 57.7137 22.5439C57.9541 22.5651 58.2158 22.6156 58.4562 22.5922C58.555 22.583 58.5495 22.4646 58.472 22.4325Z" fill="#C594B3"/>
<path d="M59.9929 22.7036C59.9331 22.678 59.8733 22.671 59.8087 22.6617C59.7471 22.653 59.6952 22.6411 59.6348 22.6297C59.5293 22.6101 59.4109 22.5775 59.3023 22.5493C59.2743 22.5417 59.2377 22.5422 59.2145 22.5618C59.1791 22.5623 59.1669 22.5971 59.1803 22.6232C59.1797 22.6487 59.1925 22.6775 59.2169 22.6911C59.3371 22.759 59.4634 22.7992 59.6012 22.8263C59.6635 22.8388 59.7269 22.8437 59.7898 22.8465C59.8251 22.8481 59.8654 22.8519 59.9002 22.847C59.9331 22.8426 59.9673 22.8312 59.9972 22.8193C60.0564 22.7948 60.046 22.7258 59.9929 22.7036Z" fill="#C594B3"/>
<path d="M7.18107 34.2793C6.98341 34.3081 6.79795 34.4754 6.65337 34.5884C6.48316 34.7226 6.31966 34.8633 6.16349 35.0105C5.84992 35.3055 5.58942 35.625 5.35943 35.9748C5.31367 36.0444 5.41982 36.1172 5.47534 36.0498C5.73645 35.732 6.02927 35.4256 6.33491 35.1409C6.48743 34.9991 6.64666 34.8639 6.8132 34.7346C6.95779 34.6221 7.16155 34.508 7.24696 34.351C7.2677 34.313 7.22256 34.2733 7.18107 34.2793Z" fill="#C594B3"/>
<path d="M8.62692 33.3156C8.56469 33.3107 8.50796 33.3465 8.45427 33.3672C8.44024 33.3726 8.42072 33.3742 8.40608 33.3808C8.38899 33.3884 8.37252 33.3992 8.35666 33.4085C8.32982 33.4242 8.30298 33.44 8.27613 33.4563C8.17242 33.5177 8.06871 33.5796 7.96439 33.641C7.9284 33.6622 7.92413 33.7127 7.94609 33.7426C7.96744 33.7719 8.01869 33.7936 8.05651 33.773C8.16266 33.7143 8.26881 33.6562 8.37496 33.5975C8.40059 33.5834 8.42621 33.5693 8.45183 33.5552C8.4683 33.5459 8.48599 33.5378 8.50186 33.5274C8.51772 33.5171 8.52687 33.5025 8.5409 33.4905C8.5836 33.4541 8.64583 33.4253 8.66718 33.3715C8.67755 33.3465 8.65803 33.3178 8.62692 33.3156Z" fill="#C594B3"/>
<path d="M61.4656 32.4773C61.5742 32.0231 61.6627 31.5646 61.7292 31.1034C61.864 30.1625 61.9049 29.2107 61.8634 28.2632C61.8408 27.7428 61.828 27.1936 61.6779 26.6878C61.662 26.6351 61.5632 26.6286 61.562 26.6921C61.5547 27.1593 61.6267 27.6287 61.645 28.0965C61.6633 28.5609 61.659 29.0254 61.6352 29.4894C61.587 30.4238 61.4583 31.356 61.249 32.2725C61.1899 32.5332 61.1209 32.7918 61.0514 33.051C60.9843 33.3009 60.9037 33.5556 60.8726 33.8115C60.8629 33.8919 60.9818 33.9044 61.0178 33.8409C61.257 33.4236 61.3576 32.932 61.4656 32.4773Z" fill="#C594B3"/>
<path d="M61.2228 29.8914C61.2307 29.8132 61.2331 29.735 61.2356 29.6567C61.2399 29.5122 61.2386 29.3683 61.2313 29.2238C61.2161 28.9184 61.1673 28.6229 61.0995 28.3236C61.0843 28.2568 60.9739 28.2741 60.983 28.3415C61.0221 28.6354 61.0391 28.9348 61.0446 29.2303C61.0477 29.377 61.0471 29.5236 61.041 29.6703C61.0385 29.7388 61.0337 29.8072 61.0306 29.8757C61.0276 29.9474 61.016 30.0169 61.0538 30.0827C61.0757 30.1212 61.1343 30.1277 61.1642 30.0924C61.2142 30.0332 61.2155 29.9631 61.2228 29.8914Z" fill="#C594B3"/>
<path d="M59.7867 37.6932C59.8367 37.5704 59.8819 37.446 59.9258 37.3216C60.0167 37.0657 60.1015 36.8082 60.1887 36.5512C60.3632 36.0362 60.531 35.5207 60.6866 35.0013C60.7134 34.9117 60.5676 34.859 60.5322 34.9497C60.3358 35.4571 60.1515 35.9667 59.9734 36.4795C59.8868 36.7294 59.7977 36.9788 59.7147 37.2292C59.6708 37.3618 59.6275 37.4938 59.5903 37.6274C59.5555 37.7518 59.5049 37.8811 59.5055 38.011C59.5055 38.0615 59.5799 38.0957 59.6165 38.0479C59.6976 37.9414 59.7379 37.8132 59.7867 37.6932Z" fill="#C594B3"/>
<path d="M11.7303 49.6687C11.6863 49.5497 11.5985 49.4492 11.5235 49.3438C11.4387 49.2243 11.349 49.1086 11.2599 48.9913C11.094 48.7723 10.9293 48.5523 10.7694 48.3301C10.4455 47.8798 10.1435 47.4175 9.85921 46.9459C9.29796 46.0153 8.81967 45.0467 8.4213 44.052C8.19619 43.4903 8.01927 42.9139 7.79354 42.3527C7.76304 42.2772 7.63371 42.3179 7.64652 42.3929C7.73803 42.9225 7.92105 43.4392 8.10956 43.9471C8.2999 44.46 8.51464 44.9647 8.75195 45.4617C9.22048 46.4445 9.77625 47.3914 10.4113 48.2964C10.5931 48.555 10.7792 48.8109 10.9775 49.0597C11.0763 49.1836 11.1739 49.3102 11.2825 49.427C11.3868 49.5389 11.4844 49.6655 11.6205 49.7475C11.6851 49.7872 11.7522 49.7285 11.7303 49.6687Z" fill="#1E1E1E"/>
<path d="M9.95806 45.019C9.87204 44.7061 9.73356 44.4084 9.5969 44.1107C9.45842 43.8092 9.31078 43.5114 9.16559 43.2132C9.12411 43.1284 8.9844 43.1871 9.02039 43.2719C9.14851 43.5723 9.27418 43.8733 9.409 44.1715C9.54383 44.4692 9.67682 44.7691 9.85984 45.0456C9.88668 45.0874 9.9727 45.0739 9.95806 45.019Z" fill="#C594B3"/>
<path d="M11.2752 47.6435C11.1629 47.3887 11.0196 47.1453 10.8817 46.9003C10.7438 46.6553 10.6004 46.4124 10.4595 46.1691C10.4327 46.1229 10.3515 46.1555 10.3772 46.2027C10.5102 46.4499 10.6407 46.6977 10.7761 46.9437C10.9116 47.1898 11.0433 47.4387 11.2038 47.6728C11.2294 47.7103 11.2947 47.6864 11.2752 47.6435Z" fill="#C594B3"/>
<path d="M46.1579 38.5471C46.1732 38.47 46.0493 38.4102 45.9853 38.4657C45.8358 38.5955 45.7339 38.7693 45.6211 38.9247C45.5046 39.085 45.3832 39.242 45.2526 39.3935C44.9964 39.6912 44.7121 39.9688 44.4028 40.2231C43.783 40.7332 43.0692 41.1531 42.2969 41.4574C41.8558 41.6312 41.3946 41.7649 40.9334 41.8893C40.7998 41.9251 40.8254 42.1011 40.9712 42.0843C41.8411 41.9832 42.6781 41.6508 43.42 41.2428C44.1722 40.8288 44.8433 40.297 45.3972 39.6836C45.554 39.5103 45.7004 39.3294 45.8364 39.1431C45.9676 38.9627 46.1165 38.7606 46.1579 38.5471Z" fill="#1E1E1E"/>
<path d="M47.0492 37.3504C47.0535 37.3091 47.0029 37.2928 46.9681 37.3123C46.9162 37.3417 46.8796 37.3868 46.8442 37.4302C46.8082 37.4742 46.7777 37.5193 46.7478 37.5671C46.6887 37.6617 46.6295 37.7556 46.5703 37.8502C46.5508 37.8806 46.552 37.9186 46.5868 37.9409C46.6179 37.961 46.6673 37.9556 46.6887 37.9262C46.7564 37.835 46.8241 37.7437 46.8918 37.6519C46.9272 37.6041 46.9595 37.5568 46.9882 37.5058C47.0163 37.4558 47.0437 37.4063 47.0492 37.3504Z" fill="#C594B3"/>
<path d="M45.895 39.8542C45.8285 39.8934 45.7724 39.9591 45.7236 40.0145C45.6705 40.0742 45.6235 40.1384 45.5741 40.2003C45.4771 40.3225 45.3801 40.4442 45.2825 40.5664C45.2129 40.6534 45.3612 40.7484 45.4326 40.6631C45.5332 40.5436 45.6345 40.4241 45.7351 40.3046C45.7846 40.2459 45.8358 40.1883 45.8834 40.1286C45.9304 40.0688 45.9859 39.9971 46.0078 39.9265C46.028 39.8629 45.9554 39.8184 45.895 39.8542Z" fill="#C594B3"/>
<path d="M21.4614 41.5405C21.2162 41.4139 20.9264 41.3634 20.6543 41.3004C20.3896 41.239 20.1236 41.182 19.857 41.1282C19.3061 41.0168 18.7515 40.9207 18.1933 40.8408C17.0775 40.6811 15.9495 40.592 14.8197 40.5697C14.1871 40.5572 13.5569 40.5741 12.9254 40.6126C12.826 40.6186 12.8315 40.7713 12.9328 40.7696C15.1552 40.7436 17.3813 40.9065 19.5556 41.3265C19.8618 41.3857 20.1663 41.4498 20.4695 41.5193C20.7684 41.5878 21.0808 41.6959 21.3901 41.7084C21.4852 41.7122 21.5572 41.5899 21.4614 41.5405Z" fill="#1E1E1E"/>
<path d="M23.1903 42.1343C23.1561 42.1033 23.1269 42.081 23.0811 42.0653C23.0408 42.0512 22.9988 42.0392 22.9573 42.0262C22.8804 42.0023 22.8029 41.9811 22.7254 41.9599C22.6474 41.9387 22.5687 41.9197 22.49 41.9029C22.4424 41.8925 22.3936 41.8833 22.3448 41.8822C22.3045 41.8817 22.2636 41.8817 22.2234 41.8795C22.1697 41.8773 22.1294 41.9469 22.1837 41.9746C22.2612 42.0142 22.3295 42.0566 22.4143 42.0849C22.49 42.1098 22.5687 42.131 22.6461 42.1511C22.7248 42.1712 22.8029 42.1913 22.8816 42.2082C22.9713 42.2277 23.0555 42.2543 23.1476 42.2364C23.1946 42.2272 23.23 42.1696 23.1903 42.1343Z" fill="#C594B3"/>
<path d="M60.592 26.1326C58.53 26.784 56.6754 27.8863 55.1832 29.309C54.9758 29.5068 54.7751 29.7122 54.5884 29.9257C54.3969 30.1446 54.1943 30.363 54.0656 30.6167C54.0326 30.6813 54.1357 30.7476 54.1937 30.6987C54.3895 30.5341 54.5445 30.3391 54.7171 30.1555C54.8886 29.9735 55.063 29.7936 55.2424 29.6182C55.6066 29.2623 55.9891 28.9233 56.3954 28.6061C57.1989 27.9786 58.0743 27.4267 59.0144 26.973C59.55 26.7144 60.1009 26.4814 60.6683 26.2831C60.7818 26.2434 60.7037 26.0973 60.592 26.1326Z" fill="#1E1E1E"/>
<path d="M57.6387 29.0478C57.6045 29.0103 57.5307 28.9983 57.4886 29.0342C57.3038 29.1912 57.1177 29.3465 56.9359 29.5057C56.8481 29.5829 56.7584 29.6584 56.673 29.7377C56.6303 29.7773 56.5876 29.817 56.5449 29.8572C56.493 29.905 56.4613 29.9517 56.4296 30.012C56.3991 30.0707 56.479 30.1288 56.54 30.1038C56.5973 30.0805 56.6467 30.0571 56.6925 30.0185C56.737 29.9811 56.7822 29.943 56.8267 29.9055C56.9194 29.8273 57.0085 29.7453 57.0982 29.6643C57.2757 29.5057 57.449 29.3427 57.6235 29.1814C57.6631 29.1444 57.6784 29.0907 57.6387 29.0478Z" fill="#C594B3"/>
<path d="M19.1438 44.6599C19.1487 44.6083 19.1395 44.5594 19.1151 44.5126C19.0968 44.4382 19.059 44.3719 19.0016 44.3138C18.9601 44.279 18.9187 44.2443 18.8778 44.2095C18.8259 44.1845 18.7741 44.1601 18.7222 44.1351C18.6386 44.1041 18.5526 44.0933 18.4648 44.1036C18.3794 44.1003 18.297 44.1161 18.2189 44.1508C18.1915 44.1639 18.1634 44.1769 18.1353 44.19C18.0261 44.2345 17.9359 44.3002 17.8651 44.3866C17.7919 44.4773 17.7498 44.5784 17.7376 44.6898C17.74 44.7425 17.7425 44.7951 17.7449 44.8473C17.7656 44.9521 17.8138 45.0456 17.8889 45.1282C17.945 45.1944 18.0145 45.2433 18.0987 45.2754C18.1768 45.3205 18.2635 45.3455 18.3586 45.3503C18.4788 45.3596 18.5935 45.3417 18.7027 45.2977C18.8119 45.2531 18.9022 45.1874 18.973 45.101C18.99 45.0766 19.0071 45.0516 19.0248 45.0271C19.0529 44.9809 19.0803 44.9348 19.1078 44.8886C19.1432 44.8147 19.1548 44.7381 19.1438 44.6599Z" fill="#C594B3"/>
<path d="M20.9904 44.2057C20.3743 44.0004 20.0149 44.8533 20.6323 45.0587C21.2485 45.264 21.6078 44.4116 20.9904 44.2057Z" fill="#C594B3"/>
<path d="M20.3181 45.8072C19.8289 45.6442 19.5434 46.3217 20.0338 46.4847C20.5231 46.6476 20.8086 45.9702 20.3181 45.8072Z" fill="#C594B3"/>
<path d="M16.5961 48.0395C16.6016 47.9824 16.5913 47.9281 16.5644 47.8759L16.515 47.8053C16.4735 47.7602 16.4217 47.7271 16.36 47.7064C16.3137 47.6891 16.2661 47.6831 16.2173 47.6885C16.1697 47.6869 16.124 47.6956 16.0806 47.7152C16.0355 47.7314 15.9983 47.7564 15.9684 47.7896C15.9318 47.8189 15.9055 47.8548 15.8897 47.8971C15.8824 47.9254 15.875 47.9536 15.8677 47.9824C15.8622 48.0395 15.8726 48.0938 15.8994 48.146C15.9159 48.1693 15.9324 48.1932 15.9489 48.2166C15.991 48.2617 16.0422 48.2948 16.1038 48.3154C16.1502 48.3328 16.1978 48.3388 16.2466 48.3334C16.2942 48.335 16.3399 48.3263 16.3832 48.3073C16.4284 48.291 16.4656 48.266 16.4949 48.2329C16.5315 48.2035 16.5577 48.1677 16.5736 48.1253C16.5815 48.096 16.5888 48.0677 16.5961 48.0395Z" fill="#C594B3"/>
<path d="M14.2682 43.9471C13.8594 43.8113 13.6215 44.3763 14.0309 44.5126C14.439 44.649 14.6775 44.0835 14.2682 43.9471Z" fill="#C594B3"/>
<path d="M51.9047 34.8449C51.9145 34.7416 51.8955 34.6433 51.848 34.5488C51.8181 34.5064 51.7888 34.4635 51.7589 34.4211C51.6832 34.3391 51.5899 34.2793 51.4783 34.2418C51.3941 34.2109 51.3081 34.2 51.2202 34.2098C51.1342 34.2065 51.0518 34.2223 50.9731 34.2576C50.892 34.2875 50.8243 34.3326 50.7706 34.3923C50.7041 34.445 50.6571 34.5097 50.6284 34.5868L50.5894 34.7405C50.5796 34.8438 50.5986 34.9421 50.6461 35.0366C50.676 35.079 50.7053 35.1219 50.7352 35.1643C50.8109 35.2463 50.9042 35.3061 51.0158 35.3436C51.1 35.3751 51.186 35.3854 51.2739 35.3756C51.3599 35.3789 51.4423 35.3631 51.521 35.3278C51.6021 35.2979 51.6698 35.2528 51.7235 35.1931C51.79 35.1404 51.8376 35.0757 51.8657 34.9986C51.8785 34.9475 51.8913 34.8959 51.9047 34.8449Z" fill="#C594B3"/>
<path d="M54.0424 35.0649C54.0491 34.9948 54.0363 34.9274 54.0033 34.8633C53.9832 34.8345 53.9631 34.8052 53.9429 34.7764C53.8917 34.7204 53.8276 34.6797 53.752 34.6542C53.6946 34.633 53.6361 34.6259 53.5763 34.6324C53.5177 34.6303 53.4616 34.6411 53.4079 34.665C53.3524 34.6851 53.3066 34.7161 53.27 34.7568C53.2249 34.7927 53.1926 34.8372 53.173 34.8894C53.1639 34.9242 53.1553 34.9595 53.1462 34.9942C53.1395 35.0643 53.1523 35.1317 53.1852 35.1958C53.2054 35.2246 53.2255 35.2539 53.2456 35.2827C53.2969 35.3387 53.3609 35.3794 53.4366 35.4049C53.4939 35.4261 53.5525 35.4332 53.6123 35.4267C53.6709 35.4288 53.727 35.418 53.7807 35.3941C53.8362 35.374 53.8819 35.343 53.9185 35.3023C53.9637 35.2664 53.996 35.2224 54.0155 35.1697C54.0247 35.1349 54.0332 35.1002 54.0424 35.0649Z" fill="#C594B3"/>
<path d="M51.7126 36.8397C51.2337 36.68 50.9542 37.3428 51.4344 37.5025C51.9133 37.6622 52.1921 36.9994 51.7126 36.8397Z" fill="#C594B3"/>
<path d="M52.4099 33.4791C51.9804 33.3362 51.7297 33.9305 52.1604 34.074C52.5898 34.2168 52.84 33.6225 52.4099 33.4791Z" fill="#C594B3"/>
<path d="M56.3228 38.1625C56.3338 38.1359 56.3368 38.1082 56.3313 38.0799C56.3332 38.0386 56.324 37.999 56.3027 37.961L56.2545 37.892C56.2319 37.873 56.2099 37.8545 56.1874 37.8355C56.1483 37.8083 56.1044 37.792 56.0562 37.786C56.011 37.773 55.9647 37.7708 55.9171 37.7801C55.8323 37.7996 55.7481 37.8192 55.6633 37.8387C55.5938 37.8496 55.5322 37.8751 55.4772 37.9142C55.4211 37.9555 55.3802 38.0061 55.3546 38.0669C55.3467 38.0984 55.3388 38.1294 55.3308 38.1609C55.3247 38.2239 55.3363 38.2842 55.3656 38.3418C55.3864 38.3858 55.4169 38.4227 55.4577 38.4515C55.4937 38.4874 55.5383 38.5135 55.5913 38.5292C55.6597 38.5515 55.7298 38.5575 55.8012 38.5466C55.8707 38.5357 55.9324 38.5102 55.9873 38.4711C56.0592 38.4271 56.1312 38.3831 56.2032 38.3391C56.2246 38.319 56.2453 38.2994 56.2667 38.2793C56.2972 38.2445 56.3161 38.2054 56.3228 38.1625Z" fill="#C594B3"/>
<path d="M54.2394 40.7761C53.7709 40.6202 53.4982 41.2683 53.9673 41.4242C54.4359 41.5807 54.7092 40.9326 54.2394 40.7761Z" fill="#C594B3"/>
<path d="M44.7566 44.6642C44.2424 44.4931 43.9428 45.2042 44.4577 45.3759C44.972 45.547 45.2721 44.8359 44.7566 44.6642Z" fill="#C594B3"/>
<path d="M27.3003 43.971C27.3058 43.9102 27.2948 43.8521 27.2667 43.7966C27.249 43.7717 27.232 43.7467 27.2143 43.7217C27.1697 43.6733 27.1148 43.638 27.0489 43.6163C26.9995 43.5978 26.9489 43.5918 26.897 43.5973C26.8464 43.5951 26.7982 43.6049 26.7518 43.6255C26.6896 43.651 26.6384 43.688 26.5981 43.7374C26.5566 43.789 26.5322 43.8466 26.5255 43.9096C26.5249 43.9216 26.5243 43.9335 26.5231 43.9455C26.5224 43.9515 26.5224 43.9574 26.5218 43.9634C26.5218 43.9661 26.5212 43.9694 26.5212 43.9721C26.5194 44.0014 26.5176 44.0297 26.5249 44.0596C26.534 44.0862 26.5432 44.1128 26.5523 44.1394C26.5658 44.165 26.5828 44.1889 26.6024 44.2111C26.6823 44.3008 26.8202 44.3464 26.9464 44.3258C26.9623 44.3231 26.9776 44.3192 26.9922 44.3133C27.0386 44.304 27.08 44.2856 27.116 44.2573C27.1453 44.2361 27.163 44.2166 27.1831 44.1932C27.185 44.1911 27.1868 44.1889 27.1886 44.1867L27.2014 44.172C27.21 44.1628 27.2179 44.153 27.2265 44.1438C27.2692 44.0916 27.2936 44.0346 27.3003 43.971Z" fill="#C594B3"/>
<path d="M28.3997 46.2283C27.9098 46.0653 27.6249 46.7427 28.1154 46.9057C28.6046 47.0687 28.8895 46.3912 28.3997 46.2283Z" fill="#C594B3"/>
<path d="M29.0774 48.2557C28.5705 48.0867 28.2746 48.7886 28.7828 48.9576C29.2897 49.1265 29.5856 48.4246 29.0774 48.2557Z" fill="#C594B3"/>
<path d="M47.0181 7.36853C46.6887 7.70209 46.466 8.11117 46.2244 8.49796C45.9785 8.89183 45.7382 9.28894 45.5045 9.68932C45.2776 10.0778 45.0616 10.4716 44.8493 10.8666C44.6285 11.2778 44.3863 11.6869 44.2685 12.1329C44.2136 12.341 44.5071 12.4344 44.6401 12.2725C44.9299 11.9183 45.1226 11.5136 45.3435 11.1235C45.571 10.721 45.8071 10.3222 46.0432 9.92402C46.2726 9.53722 46.5081 9.15313 46.7491 8.77176C46.9937 8.38497 47.2792 8.01174 47.45 7.59344C47.5379 7.37776 47.1846 7.19957 47.0181 7.36853Z" fill="#F4DAEB"/>
<path d="M59.4725 0.0236822C58.9332 0.376256 58.4562 0.803256 57.9761 1.21667C57.4831 1.6415 56.9939 2.06904 56.5095 2.50093C55.5627 3.34516 54.614 4.18884 53.6702 5.03577C51.7607 6.74975 49.8439 8.45829 47.9424 10.1788L46.3684 11.6027C45.8431 12.078 45.2123 12.5414 44.8304 13.1189C44.7359 13.2618 44.925 13.4324 45.0861 13.3465C45.6577 13.0428 46.1116 12.561 46.5801 12.1448C47.0657 11.7135 47.5513 11.2827 48.0369 10.8519C48.9862 10.0093 49.9299 9.16236 50.8749 8.3165C52.7875 6.60524 54.7006 4.89398 56.6071 3.17729C57.1329 2.70357 57.6576 2.22876 58.1749 1.74743C58.7008 1.2585 59.2529 0.776094 59.7001 0.226318C59.7959 0.108431 59.6049 -0.0632389 59.4725 0.0236822Z" fill="#F4DAEB"/>
<path d="M49.5139 3.80259C49.4968 3.74772 49.4291 3.71187 49.3663 3.72817C49.2266 3.76511 49.154 3.8792 49.0771 3.9835C48.9972 4.09052 48.9258 4.20297 48.8562 4.31543C48.7025 4.56533 48.5488 4.81523 48.395 5.06513C48.0912 5.55895 47.824 6.06526 47.5355 6.5656C47.4507 6.71228 47.6898 6.83886 47.7856 6.69544C48.1077 6.21248 48.4463 5.74257 48.7538 5.25146C48.9044 5.0108 49.0551 4.76959 49.2064 4.52893C49.2821 4.40833 49.3559 4.28664 49.4199 4.16114C49.4779 4.0476 49.5535 3.92917 49.5139 3.80259Z" fill="#F4DAEB"/>
<path d="M50.2887 6.29016C50.2771 6.19672 50.202 6.1462 50.0983 6.16086C49.9348 6.18422 49.8281 6.3195 49.7335 6.43032C49.6164 6.56776 49.5011 6.70684 49.3846 6.84483C49.1594 7.11319 48.9337 7.38156 48.7086 7.64993C48.4902 7.91015 48.2633 8.16548 48.0528 8.43059C47.8301 8.71145 47.6331 9.00753 47.4128 9.28948C47.3341 9.39053 47.5159 9.51711 47.6056 9.42204C47.846 9.16617 48.104 8.92496 48.345 8.66908C48.5866 8.41267 48.8093 8.14103 49.0405 7.87701C49.265 7.62059 49.4889 7.36418 49.7134 7.10831C49.8317 6.97358 49.9501 6.83884 50.0678 6.70357C50.1703 6.58623 50.3082 6.44825 50.2887 6.29016Z" fill="#F4DAEB"/>
<path d="M51.8101 4.35236C51.7687 4.37246 51.7308 4.39039 51.6985 4.42135C51.6674 4.45123 51.6363 4.48111 51.6052 4.51153C51.5399 4.57401 51.4844 4.64354 51.427 4.71199C51.3197 4.83965 51.2123 4.96732 51.1049 5.09499C51.0671 5.14008 51.0915 5.21179 51.1379 5.24275C51.1842 5.27372 51.2666 5.27916 51.3068 5.23407C51.4179 5.10857 51.5289 4.98362 51.6393 4.85813C51.6967 4.79294 51.7571 4.72937 51.8065 4.65929C51.8309 4.62452 51.8553 4.5903 51.8803 4.55553C51.9078 4.51696 51.9187 4.47839 51.9309 4.43493C51.948 4.37246 51.8736 4.32139 51.8101 4.35236Z" fill="#F4DAEB"/>
<path d="M58.0419 9.65346C57.2788 9.72299 56.5479 10.0158 55.8292 10.2402C55.085 10.4727 54.3401 10.7052 53.5958 10.9372C52.1067 11.4022 50.6169 11.8645 49.1308 12.3382C48.7226 12.4686 48.3151 12.5985 47.907 12.7283C47.688 12.7978 47.4702 12.8695 47.2524 12.9413C47.0645 13.0032 46.8674 13.0597 46.7265 13.1911C46.6307 13.2802 46.7088 13.3992 46.8296 13.4133C47.1725 13.4535 47.5788 13.265 47.8984 13.1678C48.2791 13.0521 48.6592 12.9358 49.0393 12.8196C49.7707 12.5963 50.5022 12.3725 51.2318 12.1448C52.7063 11.6852 54.1809 11.2256 55.6554 10.7661C56.0788 10.634 56.5021 10.502 56.9255 10.37C57.3361 10.2418 57.7491 10.1109 58.1164 9.90009C58.2305 9.83545 58.1993 9.63879 58.0419 9.65346Z" fill="#F4DAEB"/>
<path d="M61.3369 8.65006C61.2521 8.65658 61.1814 8.67017 61.102 8.69733C61.0288 8.72286 60.9556 8.74893 60.883 8.77501C60.7275 8.83042 60.5713 8.88475 60.4176 8.94396C60.1235 9.05642 59.8301 9.16887 59.536 9.28133C59.3676 9.34598 59.489 9.60728 59.6623 9.54752C59.9606 9.44484 60.2589 9.34217 60.5579 9.23949C60.7049 9.18897 60.8495 9.13356 60.9953 9.07978C61.0722 9.05153 61.149 9.02328 61.2253 8.99449C61.3089 8.96298 61.3729 8.92875 61.4437 8.87714C61.5395 8.80543 61.462 8.64083 61.3369 8.65006Z" fill="#F4DAEB"/>
<path d="M55.5285 8.73483C55.2491 8.73863 54.9868 8.86846 54.7342 8.96734C54.4499 9.0787 54.1687 9.19713 53.8893 9.31719C53.3304 9.55677 52.771 9.79635 52.2122 10.0365C51.0946 10.5156 49.9916 11.0149 48.8935 11.5288C48.708 11.6157 48.8709 11.8439 49.0545 11.7738C50.1837 11.3408 51.3044 10.8964 52.416 10.4287C52.9632 10.1984 53.5104 9.96802 54.0582 9.73822C54.3389 9.62034 54.6177 9.49919 54.8946 9.37587C55.1484 9.26287 55.4486 9.15802 55.634 8.96191C55.7127 8.87716 55.6664 8.73265 55.5285 8.73483Z" fill="#F4DAEB"/>
<path d="M60.7561 6.58243C60.4078 6.60416 60.0576 6.76822 59.7397 6.88774C59.406 7.01323 59.076 7.14199 58.7478 7.27835C58.4208 7.41416 58.0944 7.55106 57.7692 7.68959C57.416 7.84007 57.0988 8.01772 56.7651 8.19808C56.6486 8.2611 56.723 8.44145 56.8609 8.40017C57.2214 8.2926 57.5722 8.19537 57.9205 8.05575C58.25 7.92374 58.5782 7.79009 58.9064 7.65536C59.234 7.52063 59.5579 7.38156 59.8801 7.23651C60.1936 7.09418 60.5774 6.95891 60.8257 6.73128C60.8812 6.68022 60.844 6.57646 60.7561 6.58243Z" fill="#F4DAEB"/>
<path d="M56.1391 5.94899C55.6645 6.09458 55.2497 6.464 54.8714 6.74649C54.4475 7.06375 54.021 7.37939 53.6013 7.701C53.1932 8.01337 52.7838 8.32356 52.3806 8.64137C51.9547 8.9771 51.5545 9.33403 51.1403 9.68062C51.0482 9.75777 51.1732 9.91042 51.2782 9.8398C51.7077 9.55242 52.1487 9.28078 52.5685 8.98308C53.0022 8.67505 53.4305 8.36105 53.8593 8.04705C54.276 7.74282 54.6872 7.43262 55.0996 7.12405C55.4974 6.82635 56.0147 6.51398 56.2703 6.10165C56.3179 6.02668 56.2398 5.91802 56.1391 5.94899Z" fill="#F4DAEB"/>
<path d="M58.5343 4.02531C58.4013 4.03726 58.2963 4.1019 58.1896 4.16873C58.0816 4.23663 57.9736 4.30345 57.8717 4.37842C57.6832 4.51641 57.5033 4.6631 57.3202 4.80652C57.2501 4.86138 57.2519 4.96351 57.3056 5.0249C57.3568 5.08357 57.4728 5.11835 57.5466 5.06782C57.7473 4.92984 57.9523 4.79511 58.1481 4.65169C58.2396 4.58432 58.3244 4.51207 58.4098 4.43873C58.505 4.35724 58.6093 4.27412 58.6484 4.1584C58.6691 4.0981 58.6111 4.01825 58.5343 4.02531Z" fill="#F4DAEB"/>
<path d="M8.29446 1.18899C8.83376 1.54156 9.31083 1.96857 9.79095 2.38199C10.2839 2.80682 10.7731 3.23436 11.2575 3.66625C12.2044 4.51047 13.153 5.35415 14.0968 6.20109C16.0063 7.91507 17.9231 9.62361 19.8246 11.3441L21.3986 12.768C21.9239 13.2433 22.5547 13.7067 22.9366 14.2842C23.0311 14.4271 22.842 14.5977 22.6809 14.5118C22.1093 14.2082 21.6554 13.7263 21.1869 13.3102C20.7013 12.8794 20.2157 12.448 19.7301 12.0172C18.7808 11.1746 17.8371 10.3271 16.8921 9.48182C14.9795 7.77056 13.0664 6.0593 11.1599 4.3426C10.6341 3.86888 10.1094 3.39407 9.59207 2.91275C9.06619 2.42382 8.51409 1.9414 8.06691 1.39163C7.97052 1.27428 8.16208 1.10261 8.29446 1.18899Z" fill="#F4DAEB"/>
<path d="M18.253 4.96842C18.2701 4.91356 18.3378 4.8777 18.4007 4.894C18.5404 4.93094 18.613 5.04502 18.6899 5.14879C18.7698 5.25635 18.8411 5.36827 18.9107 5.48072C19.0644 5.73062 19.2182 5.98052 19.3719 6.23042C19.6757 6.72424 19.9429 7.23055 20.2315 7.73089C20.3163 7.87757 20.0771 8.00469 19.9814 7.86073C19.6592 7.37777 19.3207 6.90785 19.0132 6.41675C18.8625 6.17609 18.7118 5.93489 18.5605 5.69422C18.4849 5.57362 18.4111 5.45193 18.347 5.32644C18.2884 5.21344 18.2128 5.095 18.253 4.96842Z" fill="#F4DAEB"/>
<path d="M17.4777 7.45599C17.4893 7.36255 17.5643 7.31203 17.6681 7.3267C17.8316 7.35006 17.9383 7.48533 18.0329 7.59615C18.15 7.7336 18.2653 7.87267 18.3818 8.01066C18.6069 8.27903 18.8327 8.54739 19.0578 8.81576C19.2762 9.07598 19.5031 9.33132 19.7136 9.59643C19.9363 9.87729 20.1333 10.1734 20.3535 10.4559C20.4322 10.5569 20.2504 10.6835 20.1608 10.5884C19.9204 10.3325 19.6623 10.0913 19.4214 9.83546C19.1798 9.57904 18.9571 9.30741 18.7259 9.04339C18.5014 8.78697 18.2775 8.53056 18.053 8.27414C17.9347 8.13941 17.8163 8.00469 17.6986 7.86941C17.5967 7.75153 17.4582 7.61354 17.4777 7.45599Z" fill="#F4DAEB"/>
<path d="M15.9562 5.5182C15.9977 5.5383 16.0355 5.55622 16.0678 5.58719C16.0989 5.61707 16.13 5.64695 16.1612 5.67737C16.2264 5.74039 16.282 5.80938 16.3393 5.87783C16.4467 6.0055 16.554 6.13317 16.6614 6.26083C16.6992 6.30592 16.6748 6.37763 16.6285 6.40859C16.5821 6.43956 16.4997 6.44499 16.4595 6.39936C16.3485 6.27386 16.2374 6.14891 16.127 6.02342C16.0697 5.95823 16.0093 5.89467 15.9598 5.82459C15.9354 5.78982 15.911 5.7556 15.886 5.72083C15.8586 5.68226 15.8476 5.64423 15.8354 5.60023C15.8189 5.5383 15.8933 5.48723 15.9562 5.5182Z" fill="#F4DAEB"/>
<path d="M9.72443 10.8193C10.487 10.8888 11.2185 11.1816 11.9371 11.406C12.6814 11.6385 13.4263 11.8705 14.1706 12.103C15.6597 12.568 17.1495 13.0303 18.6356 13.5041C19.0437 13.6339 19.4513 13.7643 19.8594 13.8941C20.0784 13.9637 20.2962 14.0354 20.514 14.1071C20.7019 14.169 20.8989 14.2255 21.0399 14.357C21.1356 14.4461 21.0575 14.5651 20.9368 14.5792C20.5939 14.6194 20.1876 14.4309 19.8679 14.3336C19.4872 14.2179 19.1072 14.1017 18.7271 13.9854C17.9956 13.7621 17.2648 13.5383 16.5345 13.3107C15.06 12.8511 13.5855 12.3915 12.111 11.9313C11.6876 11.7993 11.2642 11.6673 10.8408 11.5353C10.4303 11.4071 10.0173 11.2762 9.65 11.0654C9.53592 11.0013 9.56764 10.8046 9.72443 10.8193Z" fill="#F4DAEB"/>
<path d="M6.42948 9.81588C6.51428 9.8224 6.58504 9.83598 6.66435 9.86314C6.73756 9.88868 6.81077 9.91475 6.88336 9.94082C7.03893 9.99678 7.1951 10.0506 7.34884 10.1098C7.64289 10.2222 7.93633 10.3347 8.23038 10.4471C8.39876 10.5118 8.27735 10.7731 8.1041 10.7133C7.80578 10.6107 7.50746 10.508 7.20853 10.4053C7.0615 10.3548 6.91691 10.2994 6.77111 10.2456C6.69424 10.2173 6.61737 10.1891 6.54112 10.1603C6.45754 10.1283 6.39348 10.0946 6.32272 10.0424C6.22694 9.97125 6.30441 9.8061 6.42948 9.81588Z" fill="#F4DAEB"/>
<path d="M12.2379 9.9001C12.5173 9.9039 12.7796 10.0337 13.0322 10.1326C13.3164 10.244 13.5977 10.3624 13.8771 10.4825C14.4359 10.7221 14.9953 10.9616 15.5542 11.2017C16.6718 11.6809 17.7748 12.1802 18.8729 12.6941C19.0583 12.781 18.8955 13.0092 18.7118 12.9391C17.5826 12.5061 16.4619 12.0617 15.3504 11.594C14.8032 11.3636 14.2559 11.1338 13.7081 10.9035C13.4275 10.7856 13.1487 10.6645 12.8717 10.5411C12.6179 10.4281 12.3178 10.3238 12.1323 10.1272C12.0536 10.043 12.1 9.89847 12.2379 9.9001Z" fill="#F4DAEB"/>
<path d="M7.01023 7.7477C7.35858 7.76943 7.70875 7.93349 8.0266 8.05301C8.3603 8.1785 8.69034 8.30725 9.01856 8.44361C9.34555 8.57942 9.67193 8.71633 9.9971 8.85486C10.3503 9.00534 10.6676 9.18299 11.0013 9.36335C11.1178 9.42637 11.0434 9.60673 10.9055 9.56544C10.5449 9.45733 10.1941 9.36063 9.8458 9.22101C9.51637 9.089 9.18815 8.95536 8.85994 8.82063C8.53234 8.6859 8.20839 8.54737 7.88628 8.40123C7.57271 8.2589 7.18898 8.12363 6.94068 7.89601C6.88578 7.84603 6.92238 7.74227 7.01023 7.7477Z" fill="#F4DAEB"/>
<path d="M11.6272 7.11428C12.1018 7.25988 12.5167 7.62929 12.8949 7.91178C13.3189 8.22904 13.7453 8.54468 14.1651 8.86628C14.5732 9.17866 14.9825 9.4894 15.3858 9.80666C15.8116 10.1419 16.2118 10.4993 16.626 10.8454C16.7182 10.9225 16.5931 11.0752 16.4882 11.0045C16.0587 10.7172 15.6176 10.4455 15.1979 10.1478C14.7641 9.83981 14.3359 9.5258 13.907 9.21234C13.4903 8.90758 13.0791 8.59792 12.6667 8.28935C12.269 7.99164 11.7517 7.67927 11.496 7.26693C11.4491 7.19251 11.5265 7.08386 11.6272 7.11428Z" fill="#F4DAEB"/>
<path d="M9.2321 5.19059C9.36509 5.20309 9.47002 5.26719 9.57678 5.33401C9.68476 5.40191 9.79274 5.46873 9.89463 5.5437C10.0831 5.68169 10.2631 5.82837 10.4461 5.97179C10.5163 6.02666 10.5144 6.12879 10.4608 6.19018C10.4095 6.24885 10.2936 6.28362 10.2198 6.2331C10.0191 6.09511 9.8141 5.96039 9.61827 5.81697C9.52676 5.7496 9.44196 5.67735 9.35655 5.60401C9.26138 5.52252 9.15706 5.4394 9.11801 5.32369C9.09788 5.26393 9.15584 5.18353 9.2321 5.19059Z" fill="#F4DAEB"/>
<path d="M64.3256 24.0177C64.1041 23.0301 63.8528 21.9968 63.3123 21.1037C63.2397 20.9836 63.0567 21.0711 63.0798 21.1912C63.2519 22.0718 63.5661 22.9269 63.7662 23.8037C63.965 24.6729 64.098 25.5508 64.1749 26.4352C64.3292 28.209 64.2487 29.9995 63.9089 31.7537C63.8125 32.2503 63.7021 32.7446 63.5715 33.2346C63.4447 33.71 63.2836 34.1929 63.2293 34.6802C63.2128 34.8296 63.4605 34.8742 63.5368 34.7547C63.7796 34.3749 63.9266 33.9295 64.0504 33.509C64.1828 33.0586 64.3006 32.6039 64.3939 32.1459C64.5757 31.2572 64.6971 30.3575 64.7551 29.4557C64.8716 27.6347 64.727 25.8056 64.3256 24.0177Z" fill="#F4DAEB"/>
<path d="M65.9838 25.7453C65.9783 25.5704 65.7001 25.5758 65.683 25.7453C65.6317 26.2445 65.5872 26.7394 65.5677 27.2414C65.5579 27.4908 65.5482 27.7401 65.5384 27.9895C65.5292 28.2231 65.4969 28.492 65.5713 28.7185C65.6183 28.8619 65.8312 28.8489 65.8843 28.7185C65.974 28.4969 65.9593 28.2231 65.9673 27.9895C65.9758 27.7401 65.9838 27.4908 65.9917 27.2414C66.0075 26.7405 65.9984 26.2456 65.9838 25.7453Z" fill="#F4DAEB"/>
<path d="M6.26229 45.4188C6.02864 44.8402 5.6931 44.2818 5.40394 43.7228C5.11294 43.1599 4.83414 42.5917 4.57974 42.0147C4.06851 40.8554 3.64086 39.6679 3.29861 38.4602C2.6129 36.0422 2.26639 33.5459 2.27798 31.0518C2.28469 29.6573 2.38169 28.2481 2.56959 26.8633C2.5885 26.7259 2.32617 26.6938 2.29689 26.8302C1.76796 29.3107 1.69171 31.8347 1.96868 34.3467C2.24564 36.8571 2.88682 39.336 3.87024 41.7018C4.14233 42.3559 4.43699 43.0035 4.76398 43.6375C5.09707 44.2828 5.45335 44.9739 5.94201 45.5389C6.0506 45.6654 6.33611 45.6024 6.26229 45.4188Z" fill="#F4DAEB"/>
<path d="M0.553972 29.6644C0.618638 29.1651 0.754682 28.6735 0.787015 28.1709C0.794946 28.0498 0.582035 27.9933 0.522859 28.1074C0.284325 28.5686 0.200137 29.0738 0.124489 29.5731C0.0482312 30.0805 0.0055251 30.5912 0.000644608 31.1024C-0.00911638 32.0982 0.0884945 33.1629 0.53262 34.0865C0.576544 34.1777 0.750411 34.1316 0.74248 34.0359C0.659511 33.0548 0.469783 32.0905 0.464903 31.1024C0.462463 30.6221 0.492355 30.1419 0.553972 29.6644Z" fill="#F4DAEB"/>
<path d="M1.65818 37.8909C1.56972 37.6285 1.48675 37.365 1.42758 37.0955C1.30435 36.5365 1.23602 35.965 1.25676 35.3951C1.26347 35.2115 0.967592 35.2224 0.94441 35.3951C0.863882 35.9884 0.868152 36.5822 0.999925 37.17C1.06459 37.4574 1.14756 37.7431 1.2653 38.0174C1.37816 38.2793 1.48859 38.5797 1.71492 38.7818C1.78813 38.847 1.95406 38.8041 1.93942 38.6992C1.90038 38.4205 1.74847 38.1592 1.65818 37.8909Z" fill="#F4DAEB"/>
<path d="M50.676 60.2812C50.4296 60.6354 50.2911 61.0391 50.0989 61.4172C49.9049 61.7985 49.689 62.1701 49.4559 62.5336C48.9996 63.2436 48.4682 63.9151 47.8691 64.5355C46.6563 65.7915 45.1824 66.8481 43.5407 67.6277C42.6049 68.0721 41.6056 68.3942 40.6186 68.7332C40.441 68.7941 40.5106 69.0087 40.696 68.9842C41.6569 68.8571 42.547 68.5453 43.4181 68.1688C44.2838 67.7945 45.1117 67.3441 45.8779 66.8253C47.4201 65.7812 48.7421 64.4806 49.7402 63.0008C50.0178 62.5895 50.2673 62.1636 50.4887 61.7257C50.7096 61.2895 50.9487 60.8391 50.9969 60.3578C51.0134 60.1992 50.7602 60.1606 50.676 60.2812Z" fill="#F4DAEB"/>
<path d="M52.2195 57.6339C52.1969 57.5992 52.1408 57.5747 52.0957 57.5894C51.9383 57.6394 51.8638 57.8404 51.8108 57.9691C51.7534 58.1087 51.6955 58.2484 51.6381 58.388C51.5192 58.6775 51.4106 58.9682 51.3075 59.2626C51.2568 59.4055 51.5167 59.5098 51.585 59.3669C51.7223 59.0812 51.8553 58.7954 51.9773 58.5042C52.0359 58.3646 52.0944 58.2255 52.1524 58.0859C52.2049 57.961 52.3 57.7594 52.2195 57.6339Z" fill="#F4DAEB"/>
<path d="M49.7768 64.423C49.5816 64.4692 49.4791 64.6403 49.365 64.7767C49.2418 64.9245 49.1149 65.0695 48.985 65.2129C48.7196 65.5052 48.442 65.7893 48.1529 66.0631C47.871 66.3304 47.5782 66.589 47.275 66.8373C46.9657 67.091 46.6667 67.3566 46.3471 67.6006C46.2037 67.7097 46.3959 67.9357 46.5508 67.8358C46.8986 67.6109 47.2463 67.3925 47.566 67.1355C47.8795 66.8835 48.1821 66.6211 48.4737 66.3489C48.7654 66.0767 49.0454 65.7953 49.3132 65.5047C49.4437 65.3634 49.5706 65.22 49.6957 65.075C49.8195 64.931 50.0111 64.7653 49.9959 64.5708C49.9873 64.4719 49.8909 64.3959 49.7768 64.423Z" fill="#F4DAEB"/>
<path d="M51.5515 62.4103C51.5326 62.3684 51.4917 62.3282 51.4362 62.332C51.3727 62.3358 51.3203 62.3451 51.2751 62.3891C51.2416 62.4217 51.2141 62.4613 51.1848 62.4966C51.1379 62.5531 51.0952 62.6124 51.0537 62.6721C50.9689 62.7938 50.9012 62.9237 50.8304 63.0519C50.7974 63.1116 50.8072 63.1812 50.8688 63.223C50.9213 63.2594 51.0189 63.2648 51.0647 63.2127C51.1684 63.0937 51.2739 62.9763 51.366 62.8503C51.4093 62.7916 51.4502 62.7313 51.4868 62.6694C51.5057 62.6373 51.5253 62.6053 51.5436 62.5727C51.5734 62.5178 51.5765 62.4668 51.5515 62.4103Z" fill="#F4DAEB"/>
</svg>
