<svg width="119" height="91" viewBox="0 0 119 91" fill="none" xmlns="http://www.w3.org/2000/svg">
<path d="M66.229 79.2098C64.1076 80.4443 41.3901 86.6142 38.2789 86.2957C37.2442 86.1093 32.2497 79.0444 21.3373 59.774C13.9127 46.6619 6.3853 32.5298 5.4313 30.1572C5.32586 29.8938 5.35987 29.6118 5.53588 29.2948C6.35384 27.825 10.8781 24.5373 31.9963 19.0253C32.0405 19.0137 32.0788 19.0036 32.1187 18.9935C32.3764 20.245 32.7207 21.6489 33.134 23.1715C32.6025 23.2725 32.0779 23.4217 31.5542 23.5522C31.0023 23.6897 30.4514 23.8311 29.9012 23.974C28.8146 24.256 27.7313 24.5466 26.6498 24.8441C24.4578 25.447 22.2743 26.0755 20.1027 26.7366C19.499 26.9207 18.8953 27.1072 18.2942 27.2991C17.9991 27.3931 17.7041 27.4894 17.4108 27.5888C17.0987 27.6945 16.7756 27.7862 16.4797 27.926C16.353 27.9858 16.3998 28.1824 16.5537 28.1552C16.8215 28.1078 17.0774 28.0223 17.3368 27.947C17.6148 27.8662 17.8937 27.7862 18.1709 27.7023C18.7142 27.5383 19.2584 27.3744 19.8017 27.2105C20.8782 26.885 21.9563 26.5649 23.037 26.2503C25.2222 25.614 27.4176 25.0081 29.6189 24.4207C30.2303 24.2576 30.8433 24.0975 31.4555 23.9367C32.0397 23.7829 32.6374 23.6516 33.2139 23.4722C38.0995 41.2432 52.2922 74.8143 53.0626 76.6322L53.1748 76.8971L53.4767 76.8303C53.5302 76.8179 56.5691 76.142 60.908 75.132C61.1223 75.449 61.073 75.8475 60.8851 76.1746C60.6428 76.5956 60.1581 76.8404 59.6922 77.0105C59.1352 77.2141 58.5511 77.3578 57.9797 77.5217C57.3361 77.7058 56.6915 77.8899 56.0479 78.074C53.4937 78.8043 50.9386 79.5338 48.3887 80.2773C46.9491 80.6975 45.4909 81.0844 44.0803 81.5824C43.963 81.6236 44.0183 81.8069 44.1441 81.779C45.5113 81.4775 46.8514 81.072 48.1956 80.6976C49.5297 80.3254 50.8612 79.9487 52.1936 79.5719C53.5464 79.1889 54.8992 78.8059 56.252 78.4205C56.9177 78.231 57.5826 78.0414 58.2484 77.8519C58.8461 77.6817 59.4668 77.538 60.0391 77.3018C60.5832 77.0765 61.084 76.737 61.3247 76.2228C61.499 75.8491 61.5219 75.3985 61.3162 75.038C62.4275 74.7785 63.6161 74.4989 64.8584 74.2044C64.8822 74.2751 65.9518 78.1191 66.229 79.2098Z" fill="#AE82A3"/>
<path d="M79.1846 69.8749C79.1863 69.8943 79.188 69.9239 79.1905 69.9573C71.3298 72.0455 61.2932 74.4227 53.6153 76.1319C46.7145 59.8338 35.3123 31.1003 32.77 18.8203C32.8023 18.8109 32.8245 18.804 32.8389 18.7993L32.6944 18.452C32.2054 15.9792 32.1009 14.2227 32.5013 13.4412C32.583 13.2819 32.6791 13.1856 32.7955 13.1483C33.122 13.0574 45.5692 9.60032 58.1234 6.4633C81.6963 0.573813 84.4801 1.09974 84.7615 1.38718C85.8703 4.14509 92.3867 63.6941 91.806 65.7419C91.4736 66.4528 86.3881 68.036 79.5825 69.8532L79.1846 69.8749Z" fill="#DC9FC6"/>
<path d="M92.7124 32.1514C92.7175 32.2322 92.8629 32.247 92.8875 32.1693C92.9802 31.8741 93.0304 31.5696 93.129 31.2743C93.2293 30.9768 93.3314 30.6816 93.4623 30.3942C93.7225 29.8239 94.0702 29.2902 94.4954 28.8093C95.3227 27.8747 96.4382 27.1849 97.6805 26.7949C98.0257 26.6869 98.3794 26.6046 98.7382 26.5471C98.9117 26.5191 99.086 26.4927 99.2612 26.4733C99.4525 26.4523 99.6489 26.4507 99.8368 26.4127C99.8427 26.4111 99.847 26.4088 99.8529 26.4065C99.847 26.4119 99.841 26.4165 99.8359 26.422L99.8342 26.4243C99.2042 26.6349 98.6115 26.9845 98.0878 27.355C97.4875 27.78 96.951 28.2818 96.4944 28.8357C95.5786 29.9467 94.9681 31.2743 94.7641 32.6533C94.5575 34.0486 94.7913 35.4796 95.4604 36.749C96.1347 38.0277 97.2026 39.1387 98.4908 39.9311C99.9337 40.8183 101.678 41.3458 103.427 41.2805C103.399 41.3085 103.372 41.3372 103.345 41.3652C103.314 41.3442 103.275 41.3325 103.231 41.3395C102.992 41.3776 102.779 41.4568 102.547 41.5299C102.319 41.6021 102.087 41.6619 101.851 41.7124C101.372 41.8142 100.881 41.8733 100.389 41.8904C99.4082 41.9238 98.4338 41.7676 97.4926 41.526C97.331 41.4848 97.2392 41.6814 97.3948 41.7497C98.3258 42.1576 99.3725 42.2997 100.4 42.2733C100.911 42.2601 101.42 42.2019 101.918 42.097C102.227 42.0325 102.565 41.9618 102.872 41.8468C102.795 41.923 102.72 42.0007 102.638 42.0729C102.309 42.3658 101.959 42.6369 101.586 42.8824C100.836 43.3773 99.9898 43.758 99.1021 43.9972C97.2477 44.4975 95.2445 44.3336 93.4887 43.6049C92.9887 43.3975 92.5126 43.1442 92.0679 42.849C91.6206 42.5523 91.2244 42.2081 90.8129 41.8733C90.7584 41.8103 90.7023 41.749 90.653 41.6821C90.5901 41.5975 90.5246 41.5167 90.4498 41.4429C90.1769 38.845 89.8954 36.2316 89.6174 33.7083C89.517 32.7924 89.415 31.8687 89.3113 30.9426C89.4898 30.621 89.6412 30.2877 89.8257 29.9684C90.017 29.6359 90.2381 29.3166 90.4821 29.0136C90.9778 28.3968 91.5713 27.8483 92.2413 27.3884C93.6536 26.4197 95.3992 25.8968 97.1644 25.889C97.6652 25.8867 98.1669 25.9248 98.66 26.0017C98.9253 26.0429 99.1863 26.1011 99.4465 26.1602C99.2237 26.1656 98.9959 26.1928 98.7875 26.22C98.4585 26.2627 98.1337 26.335 97.8148 26.4212C97.1559 26.5999 96.5309 26.8633 95.951 27.2012C94.7726 27.8872 93.8407 28.8901 93.2599 30.0484C93.0933 30.3809 92.9521 30.7266 92.8569 31.0825C92.7668 31.4235 92.6886 31.7995 92.7124 32.1514Z" fill="#E86AC7"/>
<path d="M112.486 69.3653C111.673 69.8951 104.922 71.3657 96.6908 72.8045C87.3302 74.4406 81.7039 75.0745 80.8435 74.8671C80.4251 74.0957 80.1454 71.7627 80.0264 70.4102C81.0229 70.1429 81.9378 69.8928 82.7804 69.6566C82.9751 70.2377 82.8297 70.867 83.0516 71.4458C83.163 71.7363 83.3798 71.974 83.6859 72.1061C83.9801 72.2335 84.3151 72.2133 84.5456 71.995C84.6544 71.8917 84.4911 71.7651 84.3755 71.8C84.1561 71.8661 83.9062 71.8218 83.7208 71.6998C83.4853 71.5452 83.3875 71.2873 83.3416 71.0356C83.2531 70.5531 83.3407 70.014 83.1163 69.5626C92.1767 67.0114 92.3885 66.2726 92.4913 65.9098C92.777 64.9029 91.7414 53.7478 90.5196 42.09C90.5485 42.1257 90.5757 42.1622 90.6063 42.1972C90.7024 42.3075 90.8095 42.4077 90.9234 42.5017C91.0442 42.6004 91.1666 42.689 91.3214 42.7371C91.3282 42.7395 91.335 42.7395 91.3409 42.7402C91.84 43.1481 92.4225 43.4852 92.9964 43.761C93.9019 44.1961 94.8959 44.482 95.9111 44.5946C97.8872 44.8137 99.8904 44.3453 101.546 43.347C101.998 43.0743 102.425 42.7612 102.805 42.4077C103.184 42.055 103.555 41.6744 103.791 41.2261C103.848 41.1181 103.705 41.0536 103.615 41.1026C103.623 40.9977 103.563 40.8866 103.43 40.8889C101.934 40.9107 100.47 40.5681 99.177 39.8767C97.8931 39.1899 96.7793 38.2095 96.0378 37.0271C95.2981 35.8478 94.9444 34.5022 95.0506 33.145C95.1544 31.8236 95.6501 30.5347 96.4468 29.4293C96.9 28.8008 97.4476 28.2282 98.0776 27.7434C98.3922 27.5011 98.7272 27.2789 99.0792 27.0854C99.3887 26.9153 99.7118 26.7739 100.035 26.6294C100.073 26.6278 100.111 26.6232 100.15 26.6193C100.227 26.6115 100.303 26.5929 100.378 26.5781C100.452 26.5634 100.509 26.5191 100.528 26.4515C100.537 26.4212 100.536 26.3925 100.526 26.3629C100.516 26.3303 100.494 26.293 100.461 26.2744C100.407 26.2441 100.351 26.2138 100.297 26.1835C100.292 26.1609 100.278 26.1407 100.253 26.1283C99.8428 25.917 99.4066 25.809 98.9474 25.7251C98.4747 25.6381 97.9934 25.5892 97.5113 25.576C96.5684 25.5503 95.6263 25.6614 94.7216 25.9077C93.0151 26.3723 91.5033 27.3364 90.4082 28.6166C90.1063 28.9701 89.8385 29.3461 89.6047 29.74C89.4729 29.9614 89.3521 30.1883 89.2543 30.4221C88.2859 21.7623 87.2316 12.9214 86.4493 7.23628L86.5284 7.59285C86.5998 7.57964 93.7132 6.2745 100.845 5.41372C113.928 3.83511 115.315 5.14569 115.428 5.58618C115.836 7.16556 115.606 21.3964 114.905 37.9842C114.038 58.5108 113.068 68.5146 112.486 69.3653Z" fill="#AE82A3"/>
<path d="M23.2648 54.0616C23.0336 53.4316 22.7173 52.8202 22.4137 52.2166C22.1093 51.6098 21.8041 51.0039 21.4997 50.3971C20.89 49.1844 20.2804 47.971 19.6682 46.7598C18.4387 44.3274 17.2067 41.895 15.9721 39.4642C15.6277 38.7852 15.2825 38.107 14.9381 37.428C14.5887 36.7389 14.2052 36.0653 13.8328 35.3871C13.7903 35.3102 13.661 35.3615 13.6976 35.4415C14.8208 37.9058 16.0528 40.3265 17.2594 42.7581C18.4702 45.1983 19.6877 47.6361 20.9096 50.0716C21.2505 50.7522 21.5924 51.4319 21.9333 52.1125C22.2777 52.7992 22.6118 53.5046 23.0336 54.1549C23.1169 54.2807 23.3167 54.2038 23.2648 54.0616Z" fill="#1E1E1E"/>
<path d="M37.7398 78.3662C37.461 77.7315 37.1106 77.1193 36.7646 76.5141L35.7366 74.7156C35.0462 73.5076 34.3541 72.3011 33.6602 71.0946C32.2743 68.6817 30.8875 66.2679 29.4948 63.858C28.71 62.4993 27.926 61.1421 27.0945 59.8066C27.0434 59.7243 26.898 59.7786 26.9448 59.8672C28.2321 62.3338 29.6402 64.7491 31.0202 67.1737C32.401 69.5999 33.7742 72.03 35.1593 74.4538C35.5427 75.125 35.9262 75.7955 36.3097 76.4667C36.6974 77.1457 37.0826 77.8348 37.5426 78.4757C37.6174 78.5798 37.7875 78.4741 37.7398 78.3662Z" fill="#1E1E1E"/>
<path d="M81.3706 13.4932C81.2601 12.8243 81.147 12.1562 81.0322 11.4873C80.9174 10.8192 80.8035 10.1511 80.6853 9.483C80.5841 8.91044 80.5442 8.26019 80.2049 7.75366C79.9439 7.36367 79.4422 7.0879 78.9618 7.18967C78.9508 7.18967 78.9414 7.18655 78.9304 7.18888C76.2971 7.59208 73.6723 8.04266 71.0586 8.53986C68.4448 9.03783 65.8413 9.58242 63.2505 10.1744C60.6717 10.7633 58.1038 11.3957 55.5539 12.0809C52.9988 12.7676 50.4582 13.4987 47.9346 14.2755C45.405 15.0547 42.8933 15.8813 40.4063 16.7662C40.1852 16.8447 39.9676 16.9309 39.7516 17.0187C39.7465 17.0117 39.7414 17.0039 39.7337 16.9969C39.4583 16.7646 39.0501 16.9068 38.8435 17.1492C38.5493 17.4941 38.6998 17.968 38.8248 18.3433C39.142 19.2996 39.4693 20.2528 39.7941 21.2068C40.4369 23.0954 41.078 24.9848 41.7217 26.8726C42.0822 27.9291 42.4453 28.9872 42.9129 30.008C42.9461 30.0803 43.077 30.0476 43.0591 29.9684C42.8517 29.0672 42.5634 28.1886 42.2718 27.3076C41.9802 26.429 41.6783 25.5527 41.379 24.6763C40.7813 22.9229 40.1827 21.1695 39.5849 19.4169C39.4191 18.9298 39.2168 18.4443 39.0841 17.9486C39.0289 17.7427 38.9779 17.4801 39.1403 17.3015C39.2193 17.2145 39.3341 17.1562 39.4532 17.1515C39.3911 17.2176 39.4685 17.3302 39.5773 17.2999C40.8467 16.9425 42.0881 16.4881 43.338 16.0787C44.5896 15.6692 45.8463 15.2715 47.1056 14.8823C49.6309 14.1031 52.1723 13.3682 54.73 12.6814C57.2799 11.9962 59.8426 11.3506 62.419 10.7532C64.9953 10.1558 67.5843 9.60418 70.1845 9.09921C72.7846 8.59424 75.3958 8.13668 78.0155 7.72571C78.3428 7.67444 78.671 7.62393 78.9984 7.57421C79.0766 7.56256 79.1234 7.5206 79.1489 7.46933C79.5383 7.49963 79.8614 7.82748 80.0017 8.15377C80.1029 8.38916 80.1471 8.64164 80.1896 8.89024C80.2415 9.19633 80.2925 9.50164 80.3444 9.80773C80.551 11.0352 80.7686 12.2611 80.9897 13.4862C81.1155 14.1823 81.2235 14.8885 81.4251 15.5698C81.4633 15.6995 81.658 15.6724 81.6504 15.5372C81.6121 14.8528 81.4829 14.1706 81.3706 13.4932Z" fill="#1E1E1E"/>
<path d="M88.2179 56.5321C88.1771 55.8997 88.166 55.2402 88.024 54.6187C87.9883 54.4617 87.6975 54.447 87.6967 54.6256C87.6941 55.171 87.7791 55.7179 87.8191 56.2617C87.8599 56.8226 87.8897 57.3843 87.9084 57.946C87.9458 59.0639 87.9407 60.185 87.8948 61.3029C87.8693 61.9275 87.8361 62.5521 87.7953 63.1759C87.7553 63.0811 87.6439 63.0042 87.5079 63.0462C84.7641 63.8969 82.0245 64.76 79.2773 65.6036C76.542 66.4435 73.8007 67.27 71.0509 68.0718C68.2858 68.8782 65.5106 69.6519 62.7208 70.3822C61.3493 70.7411 59.9753 71.1249 58.586 71.424C57.9593 71.5584 57.2655 71.6594 56.6533 71.4186C56.155 71.222 55.8158 70.818 55.5811 70.3838C55.3235 69.9068 55.167 69.3917 54.9978 68.8844C54.7852 68.2474 54.5727 67.6111 54.3584 66.9748C53.9265 65.693 53.5047 64.4081 53.0549 63.1317C52.9419 62.8108 52.816 62.4954 52.6834 62.1807C52.6366 62.0696 52.4325 62.1225 52.4623 62.2406C52.7939 63.5698 53.2675 64.8711 53.696 66.1762C53.912 66.8342 54.1271 67.493 54.3457 68.1503C54.5421 68.7422 54.7215 69.3412 54.9468 69.9246C55.1262 70.3892 55.3558 70.8584 55.7197 71.229C56.121 71.6376 56.6618 71.8769 57.2621 71.9181C57.9329 71.9639 58.5945 71.8031 59.2364 71.6454C59.9498 71.4698 60.6615 71.2912 61.3723 71.1094C64.2122 70.3838 67.0368 69.61 69.852 68.809C72.6622 68.0104 75.4613 67.1784 78.2536 66.3269C81.0569 65.4724 83.8534 64.6015 86.6491 63.7283C86.9935 63.6211 87.337 63.5131 87.6814 63.4051C87.7672 63.3779 87.8029 63.3212 87.8072 63.2598C87.8608 63.3647 88.0606 63.3663 88.0776 63.2233C88.3437 61.0046 88.3624 58.7609 88.2179 56.5321Z" fill="#1E1E1E"/>
<path d="M109.039 8.3441C108.327 8.36508 107.613 8.43734 106.903 8.49249C106.203 8.54765 105.503 8.60592 104.803 8.66651C103.393 8.79004 101.984 8.92597 100.577 9.07591C97.7621 9.37423 94.9529 9.72149 92.1546 10.1309C91.3647 10.2467 90.5748 10.3663 89.7857 10.4906C88.9967 10.6149 88.2043 10.733 87.4288 10.9163C87.2792 10.9521 87.3089 11.1502 87.4671 11.1354C88.8743 11.0041 90.2704 10.74 91.6674 10.5419C93.0678 10.343 94.4699 10.155 95.8737 9.97865C98.6813 9.62595 101.497 9.32451 104.318 9.07591C105.114 9.00599 105.912 8.93995 106.71 8.8778C107.506 8.81643 108.308 8.78149 109.102 8.69603C109.356 8.66884 109.283 8.33711 109.039 8.3441Z" fill="#1E1E1E"/>
<path d="M109.913 62.1652C110.037 61.017 110.137 59.8664 110.204 58.7136C110.242 58.0625 110.271 57.4107 110.292 56.7582C110.302 56.4272 110.31 56.0963 110.316 55.7645C110.32 55.6037 110.322 55.4429 110.32 55.2821C110.317 55.1135 110.287 54.955 110.27 54.788C110.255 54.6303 109.985 54.6396 109.968 54.7942C109.952 54.934 109.918 55.07 109.913 55.2106C109.907 55.3512 109.904 55.4911 109.901 55.6317C109.896 55.9129 109.89 56.1934 109.882 56.4746C109.866 57.0363 109.844 57.598 109.815 58.1596C109.758 59.2721 109.68 60.3846 109.577 61.4948C109.526 62.0378 109.476 62.5824 109.402 63.1239C109.333 63.6265 109.228 64.1307 108.984 64.5898C108.608 65.2976 107.908 65.7847 107.14 66.1063C106.236 66.4846 105.241 66.6975 104.269 66.87C104.123 66.8956 104.157 67.0984 104.306 67.0797C106.022 66.863 108.026 66.5367 109.084 65.1321C109.737 64.2651 109.805 63.179 109.913 62.1652Z" fill="#1E1E1E"/>
<path d="M111.785 19.211C111.815 17.2354 111.844 15.2606 111.868 13.285C111.875 12.7404 111.882 12.1966 111.888 11.652C111.894 11.0997 111.917 10.5388 111.854 9.98952C111.843 9.88619 111.673 9.89552 111.659 9.9934C111.585 10.4906 111.588 10.9979 111.576 11.499C111.564 11.9822 111.555 12.4662 111.545 12.9494C111.525 13.9368 111.503 14.9235 111.485 15.9109C111.45 17.8857 111.409 19.8605 111.383 21.8353C111.369 22.9315 111.362 24.0354 111.419 25.1308C111.424 25.2233 111.588 25.2178 111.596 25.1269C111.765 23.1622 111.756 21.1804 111.785 19.211Z" fill="#1E1E1E"/>
<path d="M83.753 35.5533C83.2718 35.4749 82.7931 35.4593 82.305 35.4422C81.8195 35.4259 81.334 35.4096 80.8494 35.3925C79.8784 35.3576 78.9082 35.325 77.9372 35.2947C76.0062 35.2333 74.0761 35.1665 72.1443 35.1129C71.8373 35.1043 71.5313 35.0958 71.2243 35.0872C71.6648 35.0289 72.1052 34.9707 72.5448 34.9054C73.0473 34.8316 73.5489 34.7547 74.0506 34.6763C74.5259 34.6025 75.0624 34.5652 75.5003 34.3756C75.5811 34.3406 75.5666 34.2226 75.4731 34.2148C74.9902 34.1721 74.474 34.3026 73.9987 34.3803C73.4979 34.4619 72.9971 34.5458 72.4972 34.6312C71.8603 34.7407 71.2252 34.8604 70.59 34.9785C72.8483 34.2101 75.0922 33.4076 77.3377 32.6113C78.1217 32.3332 78.9431 32.0815 79.6734 31.6969C79.7602 31.6519 79.7347 31.5082 79.6199 31.5307C78.892 31.6775 78.1906 31.9486 77.4968 32.1949C76.7885 32.4458 76.0802 32.6968 75.3711 32.9477C73.9749 33.4418 72.5813 33.9421 71.1877 34.4424C70.6436 34.6382 70.1028 34.8386 69.5629 35.0414C69.6955 34.9365 69.8265 34.8293 69.9557 34.7236C70.2814 34.4564 70.6062 34.1876 70.9352 33.9242C71.2566 33.6679 71.578 33.4123 71.9003 33.1559C72.2208 32.9011 72.5983 32.6618 72.8449 32.3417C72.8772 32.2998 72.8288 32.2345 72.7735 32.2602C72.4019 32.4334 72.0992 32.7286 71.7863 32.9765C71.4479 33.2445 71.1087 33.5133 70.7686 33.7805C70.437 34.0416 70.0994 34.2948 69.7661 34.5535C69.6896 34.6126 69.613 34.6716 69.5357 34.7314C69.6904 34.4844 69.8452 34.2373 70.0008 33.9903C70.4072 33.3416 70.8119 32.6929 71.2158 32.0434C72.0142 30.7624 72.8126 29.4813 73.6102 28.201C74.0693 27.4638 74.5285 26.7273 74.9876 25.99C75.059 25.8758 74.9748 25.7554 74.872 25.7236C74.8932 25.6987 74.9153 25.6746 74.9357 25.6498C74.9697 25.6101 74.906 25.5503 74.8652 25.5868C73.753 26.582 72.7114 27.6354 71.6784 28.699C70.6368 29.7711 69.5918 30.8401 68.5536 31.9145C68.2866 32.1903 68.0205 32.4668 67.7535 32.7426C68.0766 32.2998 68.3946 31.8546 68.7066 31.4048C68.9192 31.0987 69.1275 30.7903 69.3401 30.4842C69.4464 30.3312 69.5552 30.1797 69.6564 30.0236C69.7414 29.8931 69.8766 29.7353 69.8911 29.5815C69.8953 29.5396 69.8435 29.4937 69.7967 29.5186C69.6547 29.5947 69.5714 29.7439 69.4804 29.8666C69.3699 30.0166 69.2661 30.1712 69.1607 30.325C68.9439 30.6404 68.7228 30.9535 68.506 31.2681C68.2254 31.676 67.9508 32.0861 67.6795 32.4987C67.7118 32.4319 67.7442 32.3643 67.7773 32.2982C68.0452 31.7568 68.313 31.2161 68.5808 30.6754C69.1114 29.6025 69.6428 28.5296 70.17 27.4552C70.4684 26.8461 70.7652 26.2441 70.9786 25.6063C70.9998 25.5433 70.9038 25.4812 70.8604 25.5457C70.1972 26.5354 69.7227 27.6354 69.2032 28.6936C68.676 29.768 68.148 30.8424 67.6209 31.9168C67.5222 32.1172 67.4193 32.3177 67.3182 32.5189C67.4517 32.1164 67.5826 31.7133 67.705 31.3069C67.8079 30.9667 67.8997 30.6233 68.0018 30.2822C68.1013 29.949 68.2407 29.6025 68.2492 29.2537C68.2509 29.197 68.1591 29.1449 68.1208 29.2071C67.9346 29.5085 67.8572 29.8612 67.7552 30.1921C67.6481 30.5409 67.5316 30.8874 67.4253 31.2362C67.3751 31.4009 67.3301 31.5664 67.2825 31.7311C67.2782 28.4084 67.3598 25.0842 67.5588 21.7662C67.6124 20.8673 67.6795 19.97 67.7186 19.0712C67.7518 18.9096 67.7816 18.748 67.7977 18.5856C67.8028 18.5375 67.7773 18.501 67.7416 18.48C67.7416 18.4714 67.7425 18.4629 67.7425 18.4543C67.7459 18.3308 67.5477 18.306 67.5299 18.4326C67.518 18.5157 67.5086 18.5988 67.4976 18.682C67.3326 19.103 67.2306 19.5482 67.1115 19.9801C66.9806 20.454 66.8565 20.9302 66.7298 21.4049C66.4713 22.3744 66.2137 23.3448 65.9569 24.3151C65.4476 26.2355 64.9383 28.156 64.4289 30.0764C64.2887 30.6054 64.1475 31.1345 64.0089 31.6635C63.9375 31.9378 63.8652 32.2128 63.7946 32.487C63.7326 32.7279 63.6629 32.9702 63.6433 33.2173C63.5931 33.2321 63.543 33.2437 63.4928 33.2608C63.4877 33.2623 63.4843 33.2655 63.48 33.2678C63.4333 33.215 63.3644 33.1932 63.2921 33.1963C63.287 33.1769 63.2768 33.1567 63.2615 33.1373C63.2904 33.1497 63.3236 33.1474 63.3534 33.1373C63.3593 33.2406 63.5302 33.2499 63.554 33.1404C63.645 32.7263 63.7317 32.3161 63.804 31.8982C63.8746 31.4926 63.946 31.0879 64.0123 30.6823C64.0786 30.2768 64.1467 29.8713 64.2155 29.4658C64.2487 29.2684 64.2759 29.0696 64.3074 28.8715C64.3388 28.6757 64.4128 28.4481 64.3839 28.2515C64.3703 28.1575 64.2334 28.1544 64.1926 28.2321C64.1033 28.403 64.099 28.6306 64.065 28.8171C64.0268 29.0245 63.9843 29.2311 63.9485 29.4386C63.878 29.8441 63.8074 30.2488 63.7351 30.6544C63.6629 31.0591 63.5957 31.4647 63.5277 31.8702C63.4783 32.1607 63.4384 32.4513 63.4001 32.7418C63.3959 32.7317 63.3908 32.7216 63.3865 32.7115C63.1382 30.8004 62.8372 28.8955 62.5371 26.9899C62.4929 26.7102 62.447 26.4305 62.3934 26.1516C62.3407 25.8743 62.3033 25.5954 62.197 25.3297C62.1655 25.252 62.0286 25.273 62.0227 25.3545C62.0048 25.5977 62.0422 25.8339 62.072 26.0755C62.1026 26.3264 62.1366 26.5773 62.1732 26.8275C62.2463 27.3278 62.3279 27.8281 62.4053 28.3276C62.5618 29.3376 62.7276 30.3467 62.8908 31.3559C62.9129 31.4942 62.9384 31.6309 62.9631 31.7684C62.6034 30.969 62.2386 30.1727 61.8458 29.3857C61.7872 29.2677 61.6001 29.3469 61.6469 29.4665C62.0967 30.6303 62.6009 31.7739 63.0983 32.9205C63.1178 32.9664 63.1518 32.992 63.1901 33.0052C63.1935 33.0231 63.1969 33.0409 63.2003 33.0596C63.202 33.0666 63.2054 33.0705 63.2071 33.0767C60.9071 30.76 58.5536 28.4869 56.2213 26.1982C55.8905 25.8735 55.5572 25.5503 55.2239 25.2263C54.8991 24.9102 54.5811 24.5823 54.2214 24.298C54.122 24.2195 53.9978 24.3291 54.0276 24.4262C53.9944 24.4503 53.9732 24.4868 53.9842 24.5287C54.0888 24.9304 54.2776 25.3103 54.4553 25.6886C54.633 26.0669 54.8132 26.4437 54.9977 26.8197C55.371 27.5795 55.7536 28.3354 56.1456 29.0874C56.9211 30.5728 57.7263 32.0473 58.5876 33.4931C58.8282 33.8971 59.0714 34.2987 59.318 34.6996C59.4158 34.8588 59.5161 35.0165 59.6164 35.1742C59.6054 35.1649 59.5943 35.1548 59.5841 35.1455C59.4719 35.0391 59.3579 34.9342 59.2448 34.8293C59.0051 34.6071 58.7661 34.3826 58.5281 34.1589C58.2968 33.9406 58.0664 33.7215 57.83 33.5078C57.7212 33.4092 57.6132 33.3082 57.5009 33.2126C57.387 33.1155 57.262 32.9858 57.109 32.9446C57.0767 32.9361 57.0333 32.957 57.0426 32.9928C57.0758 33.1186 57.1821 33.222 57.2705 33.3191C57.3794 33.4387 57.4941 33.5537 57.6081 33.6694C57.8359 33.9017 58.0706 34.1278 58.3027 34.3562C58.5289 34.5776 58.7542 34.7998 58.9787 35.0235C59.079 35.123 59.1785 35.2224 59.2797 35.3211C58.7508 35.0795 58.2058 34.8611 57.6727 34.6351C56.8777 34.2987 56.0801 33.9678 55.2792 33.643C53.6977 33.0005 52.1017 32.3891 50.4939 31.8049C50.0313 31.6371 49.5688 31.4709 49.1045 31.3069C48.8826 31.2285 48.6615 31.1485 48.4371 31.0755C48.2066 31.0001 47.966 30.8952 47.7203 30.8874C47.6148 30.8843 47.5621 30.9978 47.6455 31.0615C47.8053 31.1842 48.0026 31.2401 48.193 31.3139C48.392 31.3908 48.5935 31.4631 48.795 31.5361C49.1972 31.6814 49.5985 31.8282 49.9999 31.9766C50.8119 32.2765 51.6196 32.5857 52.4282 32.8933C54.0352 33.5047 55.6329 34.1379 57.2187 34.7943C57.6523 34.9738 58.0842 35.1548 58.5162 35.3374C58.5366 35.3459 58.5561 35.3545 58.5765 35.363C58.409 35.3599 58.2424 35.3552 58.0749 35.3552C57.8011 35.3552 57.5265 35.3591 57.2527 35.3661C56.9576 35.3739 56.6787 35.4065 56.3879 35.4438C56.2868 35.457 56.2868 35.6054 56.3922 35.6108C56.6719 35.6272 56.9466 35.6481 57.228 35.6512C57.5086 35.6543 57.7892 35.6621 58.0689 35.673C58.3495 35.6839 58.6292 35.6986 58.909 35.718C59.1131 35.732 59.3435 35.7724 59.5586 35.7709C59.5841 35.781 59.6096 35.7919 59.636 35.802C57.7807 36.2238 55.9373 36.6853 54.0744 37.0784C52.106 37.494 50.1274 37.8708 48.1395 38.1994C47.5749 38.2926 47.0086 38.3827 46.4423 38.4682C45.8897 38.5521 45.3149 38.601 44.7792 38.7541C44.7333 38.7673 44.7103 38.8038 44.7061 38.8442C44.5768 38.8799 44.5794 39.0804 44.7392 39.1114C46.7875 39.5115 48.8715 39.7788 50.9462 40.0367C53.0013 40.2915 55.0615 40.5075 57.126 40.683C58.273 40.7809 59.4217 40.8656 60.5713 40.9394C60.4845 40.9464 60.3987 40.9651 60.3085 40.9814C60.141 41.0109 59.9735 41.0396 59.806 41.0668C59.4812 41.1204 59.1564 41.1694 58.8299 41.2144C58.1684 41.3046 57.5035 41.3846 56.8394 41.4607C56.6966 41.477 56.7374 41.6611 56.8734 41.6572C57.5477 41.6378 58.2118 41.5858 58.8801 41.5042C59.1394 41.4724 59.397 41.4358 59.6547 41.3978C59.3885 41.526 59.1233 41.6557 58.8563 41.78C58.1488 42.111 57.4389 42.4372 56.7263 42.7596C55.3208 43.3959 53.912 44.026 52.4929 44.6366C51.6919 44.9815 50.8612 45.3055 50.1112 45.7358C50.0194 45.7887 50.1155 45.8943 50.2014 45.871C50.9615 45.6652 51.6859 45.3404 52.407 45.0398C53.1297 44.7376 53.8465 44.4229 54.5633 44.1075C55.9773 43.486 57.3785 42.8412 58.7704 42.1801C59.3596 41.9004 59.9633 41.6285 60.5432 41.3263C60.4386 41.4304 60.334 41.5353 60.2286 41.6402C59.9999 41.8678 59.7797 42.1024 59.5526 42.3316C59.3324 42.5538 59.1114 42.776 58.8911 42.9981C58.6633 43.2273 58.4617 43.4728 58.239 43.7059C58.1676 43.7805 58.3002 43.8993 58.3767 43.8278C58.5995 43.6189 58.8393 43.4293 59.0578 43.2172C59.2899 42.9919 59.5229 42.7659 59.7559 42.5406C59.937 42.365 60.1206 42.1925 60.3026 42.0185C60.1028 42.306 59.9038 42.5942 59.7065 42.8832C59.2517 43.5489 58.8036 44.2194 58.3631 44.8929C57.4729 46.2525 56.6031 47.6236 55.7655 49.0111C55.5275 49.4058 55.2817 49.7981 55.059 50.2005C54.9527 50.3924 54.8472 50.5851 54.7418 50.7778C54.6313 50.9805 54.5046 51.1833 54.4366 51.4016C54.4298 51.4086 54.4221 51.4156 54.4162 51.4226C54.3286 51.5135 54.4825 51.6463 54.582 51.5694C55.2792 51.0295 55.9203 50.4251 56.5639 49.8323C57.1982 49.2481 57.8257 48.6584 58.4507 48.0665C59.7176 46.8662 60.9615 45.6473 62.1842 44.4097C62.2642 44.3289 62.3432 44.2458 62.4232 44.165C62.2897 44.3623 62.1579 44.5612 62.0278 44.7616C61.839 45.0522 61.6528 45.3435 61.4675 45.6364C61.3739 45.7848 61.2804 45.934 61.1928 46.0854C61.1103 46.2268 61.0032 46.3822 60.9896 46.5438C60.9836 46.6176 61.0729 46.6611 61.1375 46.6184C61.2727 46.529 61.3586 46.3768 61.4453 46.2486C61.5482 46.0963 61.6443 45.9409 61.7421 45.7863C61.9326 45.4849 62.1247 45.185 62.3186 44.8859C62.5711 44.4967 62.8253 44.1098 63.0694 43.7167C62.9707 44.0011 62.8755 44.2862 62.776 44.5674C62.5422 45.2285 62.3135 45.892 62.083 46.5539C61.6188 47.8878 61.1392 49.2193 60.6997 50.561C60.5789 50.9285 60.4684 51.2991 60.3553 51.6688C60.2422 52.0379 60.0841 52.4193 60.0373 52.8008C60.0296 52.8621 60.1164 52.8738 60.1453 52.8256C60.3289 52.5211 60.4318 52.1676 60.5602 51.8413C60.6903 51.5104 60.823 51.1794 60.9479 50.8469C61.1945 50.1897 61.4198 49.5254 61.6528 48.8643C62.123 47.532 62.5924 46.1989 63.0515 44.8634C63.1816 44.4851 63.3244 44.1052 63.4545 43.7222C63.412 44.0462 63.3721 44.3709 63.3329 44.6972C63.293 45.0374 63.2556 45.3785 63.2173 45.7195C63.1986 45.8897 63.1782 46.0598 63.162 46.2307C63.1476 46.3869 63.1263 46.5508 63.1833 46.7015C63.2046 46.7582 63.3074 46.7706 63.3423 46.7178C63.4256 46.5896 63.4452 46.4389 63.4656 46.2921C63.4894 46.1219 63.5072 45.9518 63.5268 45.7817C63.5676 45.4313 63.6084 45.0802 63.6467 44.7298C63.6841 44.388 63.7198 44.0469 63.7521 43.7051C63.7734 43.8488 63.7946 43.9925 63.8159 44.1355C63.8975 44.6871 63.9868 45.2371 64.0752 45.7871C64.2546 46.8973 64.434 48.0074 64.6169 49.1176C64.9833 51.3472 65.3506 53.5768 65.718 55.8065C65.8846 56.8172 66.0206 57.8403 66.2494 58.8425C66.2332 59.0383 66.2256 59.2356 66.2519 59.4283C66.2613 59.4974 66.3633 59.5114 66.4033 59.4601C66.4109 59.4873 66.4177 59.5153 66.4254 59.5432C66.4594 59.6621 66.6363 59.6357 66.6303 59.5137C66.6175 59.2597 66.5946 59.0056 66.5674 58.7524C66.5716 58.7213 66.5759 58.6895 66.5793 58.6584C66.615 58.3709 66.6473 58.0827 66.6788 57.7953C66.7417 57.2297 66.7961 56.6626 66.8463 56.0955C66.9466 54.9713 67.0214 53.8457 67.0784 52.72C67.1923 50.4577 67.2314 48.1915 67.1847 45.927C67.1677 45.0895 67.1345 44.2528 67.0954 43.4161C67.1609 43.6818 67.2255 43.9475 67.2927 44.2124C67.3743 44.5371 67.4517 44.8626 67.5384 45.1866C67.6209 45.4958 67.6846 45.8625 67.8598 46.1398C67.8998 46.2028 68.0196 46.2028 68.0264 46.1165C68.052 45.7988 67.9397 45.4476 67.8674 45.1384C67.7892 44.8028 67.7008 44.4688 67.6175 44.1339C67.5367 43.8092 67.4534 43.4845 67.37 43.1597C67.3505 43.0828 67.3309 43.0059 67.3114 42.929C67.5316 43.2864 67.7595 43.6398 67.9822 43.9933C68.3776 44.6226 68.7789 45.2495 69.1786 45.8765C69.9727 47.1226 70.766 48.3687 71.5602 49.6148C72.0049 50.3124 72.4266 51.0303 72.9606 51.6751C73.0413 51.7722 73.2097 51.6758 73.1578 51.5655C72.8432 50.8997 72.4249 50.2814 72.0253 49.6567C71.6248 49.0298 71.2243 48.4029 70.8238 47.7751C70.0288 46.5298 69.2389 45.2806 68.4363 44.0392C68.1956 43.667 67.9593 43.2895 67.7161 42.9158C67.7561 42.9508 67.7969 42.9857 67.836 43.0214C68.0792 43.2413 68.3206 43.4627 68.5613 43.6849C68.7951 43.9009 69.0264 44.1192 69.2559 44.339C69.4685 44.5434 69.6921 44.8013 69.9787 44.917C70.0458 44.9442 70.1019 44.8766 70.0798 44.8207C69.9753 44.5511 69.7066 44.332 69.494 44.13C69.2576 43.904 69.0178 43.6802 68.7764 43.4588C68.6182 43.3135 68.4575 43.1714 68.2968 43.0284C68.4193 43.1022 68.5417 43.1768 68.6641 43.2506C69.4013 43.6958 70.1385 44.1394 70.8765 44.5838C72.3705 45.4834 73.8738 46.3706 75.3728 47.2624C75.7988 47.5157 76.2247 47.7689 76.6507 48.0214C77.0665 48.2677 77.4789 48.5613 77.9278 48.7532C78.0809 48.8185 78.1923 48.6849 78.1719 48.5637C78.3334 48.587 78.5026 48.4215 78.3632 48.2887C75.8523 45.8881 73.5472 43.3097 71.47 40.5844C71.1274 40.1354 70.7949 39.6793 70.4599 39.2256C70.5415 39.2932 70.6232 39.3608 70.7039 39.4284C70.9633 39.6467 71.2269 39.8619 71.4887 40.0779C71.7506 40.2938 72.0091 40.5137 72.2752 40.725C72.4079 40.8307 72.5414 40.9355 72.6766 41.0381C72.7982 41.1298 72.9214 41.2447 73.0745 41.289C73.1434 41.3092 73.2148 41.2509 73.1842 41.1857C73.1213 41.0513 72.9869 40.9534 72.8747 40.8516C72.7565 40.7444 72.6341 40.6396 72.5125 40.5347C72.2565 40.3133 71.9904 40.1004 71.7285 39.8844C71.4666 39.6685 71.2064 39.4509 70.9429 39.2365C70.8987 39.2008 70.8544 39.1635 70.8102 39.127C71.1614 39.2746 71.5134 39.4206 71.8663 39.5651C72.5975 39.8658 73.333 40.1563 74.0702 40.4438C75.5445 41.0179 77.0274 41.5772 78.523 42.104C78.9473 42.2531 79.3724 42.4015 79.7993 42.5452C80.2159 42.6858 80.6325 42.8358 81.0696 42.9104C81.1691 42.9274 81.2354 42.7845 81.1444 42.7363C80.8069 42.5576 80.4446 42.431 80.0807 42.3013C79.7075 42.1677 79.3342 42.034 78.9618 41.9004C78.2161 41.6324 77.4704 41.3628 76.7273 41.0878C75.2614 40.5456 73.8074 39.9784 72.3569 39.4012C71.9394 39.2357 71.5236 39.0687 71.1078 38.9001C70.891 38.8116 70.6716 38.7152 70.4489 38.6274C70.5815 38.6173 70.7116 38.601 70.8264 38.594C71.1299 38.5746 71.4343 38.5606 71.7379 38.5435C72.0414 38.5264 72.345 38.5179 72.6485 38.4977C72.9435 38.4783 73.2888 38.4938 73.5694 38.4053C73.634 38.3851 73.6306 38.2879 73.5668 38.2685C73.2854 38.1854 72.9342 38.2118 72.6417 38.2087C72.3441 38.2056 72.0465 38.218 71.7498 38.2281C71.4862 38.2374 71.2226 38.2546 70.959 38.2716C74.1203 37.522 77.3088 36.8593 80.5271 36.3458C81.5313 36.185 82.538 36.0381 83.5473 35.9037C83.6536 35.8897 83.7046 35.8198 83.7131 35.7445C83.7267 35.7429 83.7411 35.7429 83.7547 35.7421C83.8831 35.7344 83.867 35.5712 83.753 35.5533ZM67.8011 33.1318C68.0588 32.8685 68.3172 32.6051 68.5757 32.3417C69.0995 31.808 69.6198 31.272 70.1419 30.7367C71.1852 29.6662 72.2378 28.6034 73.2624 27.5181C73.6476 27.1103 74.0217 26.6954 74.3907 26.2767C72.8764 28.7122 71.357 31.1461 69.8494 33.5863C69.6207 33.9553 69.3928 34.3251 69.1649 34.6949C69.0825 34.8285 69.0059 34.9637 68.9286 35.0989C68.4907 34.5201 67.9015 34.04 67.2289 33.6927C67.4313 33.5179 67.6158 33.3206 67.8011 33.1318ZM64.0829 32.6789C64.1535 32.4311 64.2189 32.1825 64.2861 31.9347C64.417 31.4553 64.5454 30.9752 64.6738 30.4951C64.9332 29.5256 65.1933 28.5553 65.4527 27.5857C65.9671 25.6661 66.4823 23.7464 66.9942 21.826C67.0903 21.4655 67.1864 21.1058 67.2825 20.7453C67.1889 21.9355 67.1354 23.1296 67.0741 24.319C66.9738 26.2643 66.9092 28.2103 66.8896 30.1572C66.8794 31.1516 66.8811 32.1452 66.8896 33.1396C66.8735 33.1986 66.8573 33.2569 66.842 33.3159C66.831 33.3563 66.8565 33.3874 66.8913 33.403C66.8913 33.4123 66.8913 33.4208 66.8913 33.4294C66.8786 33.4605 66.8667 33.4923 66.8539 33.5234C66.0317 33.173 65.1151 33.0099 64.2104 33.0992C64.116 33.1085 64.0268 33.1264 63.9366 33.1443C63.9962 32.9928 64.0387 32.8359 64.0829 32.6789ZM59.7006 34.6755C59.4906 34.3228 59.2823 33.9685 59.0765 33.6135C58.6548 32.8863 58.2356 32.1576 57.8266 31.4243C57.0095 29.9567 56.2298 28.4721 55.4884 26.972C55.2817 26.5533 55.0777 26.1337 54.8745 25.7127C54.7588 25.4726 54.6474 25.2295 54.5258 24.991C54.6551 25.1215 54.786 25.2504 54.9153 25.3802C55.1976 25.663 55.4799 25.9473 55.763 26.2285C56.3454 26.8073 56.9287 27.3861 57.512 27.9641C58.6633 29.1069 59.8154 30.2481 60.97 31.3877C61.6188 32.0287 62.2642 32.6727 62.9206 33.3074C61.7616 33.7067 60.7872 34.5155 60.1954 35.5122C60.1419 35.4174 60.0841 35.3242 60.0279 35.2302C59.9183 35.0461 59.8103 34.8604 59.7006 34.6755ZM48.2398 39.3305C47.3105 39.2015 46.382 39.0648 45.4526 38.9382C45.74 38.9032 46.0257 38.8551 46.3097 38.8131C46.8139 38.7385 47.3164 38.6601 47.8198 38.5793C48.8248 38.4177 49.8281 38.2437 50.8289 38.0588C52.8083 37.6921 54.7801 37.2811 56.734 36.8119C57.8155 36.5516 58.8979 36.2883 59.9608 35.9713C59.7457 36.4452 59.6088 36.9478 59.5816 37.4621C59.5212 38.5933 59.9497 39.7166 60.7073 40.603C60.6946 40.5999 60.6844 40.5945 60.669 40.5929C56.5095 40.3257 52.3619 39.9046 48.2398 39.3305ZM56.5274 49.4206C56.0572 49.8611 55.5759 50.2946 55.11 50.7405C55.1627 50.6519 55.2146 50.5641 55.269 50.4802C55.4884 50.1384 55.6941 49.7904 55.9058 49.4447C56.3276 48.754 56.7544 48.0665 57.1863 47.3805C58.0536 46.0023 58.9473 44.6373 59.8579 43.2825C60.1164 42.8979 60.3766 42.5142 60.6393 42.1312C60.8536 41.8188 61.0959 41.5073 61.2872 41.1795C61.6809 41.5128 62.129 41.7924 62.6204 41.9967C62.9639 42.1397 63.3253 42.2407 63.6943 42.3044C61.3841 44.7414 58.9923 47.1148 56.5274 49.4206ZM63.4086 41.8926C61.5525 41.4211 60.1521 39.83 59.9752 38.086C59.7967 36.3178 60.9896 34.569 62.7259 33.8163C62.9444 33.7215 63.1705 33.6438 63.4027 33.5809C63.4766 33.5607 63.5158 33.4939 63.526 33.4247C63.5328 33.4255 63.5396 33.427 63.5472 33.4263C63.6008 33.4216 63.6544 33.4177 63.7079 33.4138C63.736 33.4232 63.7649 33.4216 63.7921 33.4076C64.6687 33.3439 65.5283 33.3836 66.3642 33.6772C66.5104 33.7285 66.6524 33.7875 66.7918 33.8512C66.8148 33.8761 66.848 33.8916 66.8803 33.8924C67.529 34.1993 68.1055 34.6312 68.5409 35.1704C68.5664 35.1898 68.5885 35.2123 68.6046 35.2411C68.608 35.2473 68.6114 35.2543 68.6148 35.2613C68.6539 35.3141 68.6914 35.3677 68.7279 35.422C68.7271 35.4306 68.7279 35.4392 68.7296 35.4477C68.7271 35.4516 68.7254 35.4555 68.7237 35.4586C68.7789 35.5471 68.8265 35.6396 68.8674 35.7344C68.8776 35.7204 68.8869 35.7064 68.8971 35.6916C69.7168 37.132 69.5646 39.0058 68.506 40.3117C67.3734 41.7093 65.2384 42.358 63.4086 41.8926ZM66.8029 48.9404C66.785 51.1872 66.683 53.4308 66.5223 55.6721C66.4815 56.2493 66.4322 56.8257 66.382 57.403C66.3148 56.9928 66.2451 56.5826 66.1779 56.1724C65.996 55.0622 65.814 53.9521 65.6321 52.8427C65.2665 50.6131 64.9017 48.3827 64.5301 46.1538C64.4272 45.5339 64.3278 44.9139 64.2155 44.2955C64.1169 43.7494 64.0293 43.1986 63.8933 42.6579C63.9885 42.5592 64.0846 42.4629 64.179 42.3642C65.0241 42.4318 65.8906 42.3083 66.6779 42.0131C66.6813 42.0162 66.6856 42.0185 66.6898 42.0216C66.6524 42.0574 66.6286 42.1063 66.632 42.1669C66.7655 44.4221 66.8208 46.6813 66.8029 48.9404ZM70.9794 40.4904C71.4955 41.1849 72.027 41.8694 72.5728 42.5445C73.6527 43.8791 74.7937 45.1734 75.9858 46.4265C76.5666 47.0363 77.1626 47.6338 77.768 48.2234C77.5129 48.0649 77.24 47.9212 76.9866 47.7705C76.6159 47.5506 76.2452 47.3308 75.8744 47.1117C75.1228 46.6681 74.3712 46.2245 73.6195 45.7801C72.1341 44.903 70.647 44.0298 69.1556 43.1621C68.7271 42.9127 68.2977 42.6633 67.8691 42.4139C67.5698 42.2399 67.2722 42.0519 66.9568 41.9004C67.4593 41.6806 67.9236 41.3885 68.3189 41.0295C69.034 40.3801 69.4932 39.5356 69.6845 38.6414C70.0815 39.2769 70.5288 39.8852 70.9794 40.4904ZM72.8109 37.5142C71.8306 37.7473 70.8612 38.0059 69.8911 38.274C69.8443 38.2872 69.8214 38.3206 69.8146 38.3579C69.7916 38.3284 69.7695 38.2988 69.7465 38.2693C69.8596 37.3852 69.7151 36.4716 69.2882 35.6637C69.2508 35.5937 69.2092 35.5262 69.1675 35.4586C69.2687 35.4252 69.369 35.3902 69.4693 35.3568C69.5195 35.3599 69.5697 35.3638 69.6198 35.3661C69.8622 35.377 70.1054 35.3832 70.3477 35.3918C70.8332 35.4089 71.3178 35.4259 71.8033 35.443C72.7744 35.4772 73.7454 35.5067 74.7155 35.5378C76.6465 35.5992 78.5774 35.6683 80.5084 35.7173C80.9854 35.7297 81.4633 35.7437 81.9403 35.7577C78.8716 36.2183 75.8217 36.7987 72.8109 37.5142Z" fill="#1E1E1E"/>
<path d="M78.0512 13.5655C78.0214 13.4078 77.9908 13.2493 77.961 13.0916C77.9024 12.7855 77.8446 12.4794 77.7859 12.1733C77.7272 11.8672 77.6668 11.5612 77.6073 11.2551C77.547 10.9474 77.5087 10.6273 77.3931 10.3321C77.3412 10.1985 77.0972 10.2226 77.0734 10.357C76.7953 10.4075 76.5334 10.5341 76.2784 10.6429C75.9952 10.7633 75.7112 10.8837 75.4289 11.0057L73.8474 11.6917C73.8202 11.6924 73.7956 11.7018 73.7786 11.7212L73.7343 11.7406C73.6162 11.7919 73.6136 11.91 73.6697 11.9869C73.6272 12.171 73.623 12.3745 73.6 12.5478C73.5609 12.8476 73.5294 13.1483 73.498 13.4482L73.3126 15.1907C73.2505 15.7718 73.191 16.3529 73.1306 16.934L73.038 17.836C73.0235 17.9766 73.0091 18.1164 72.9946 18.257C72.9835 18.3619 72.9674 18.473 72.9708 18.581L72.9699 18.5825C72.9478 18.6198 72.958 18.6556 72.9827 18.6812C72.9853 18.6944 72.9853 18.7076 72.9887 18.7208C73.0252 18.8591 73.2259 18.8871 73.2931 18.7519C73.3126 18.7123 73.3262 18.6711 73.3373 18.6284C74.1646 17.9774 74.9341 17.2704 75.6925 16.5518C76.0862 16.1789 76.4756 15.8013 76.8582 15.4191C77.0563 15.2202 77.2536 15.0206 77.4483 14.8201C77.6413 14.6213 77.8573 14.427 78.0103 14.201C78.0257 14.1792 78.0308 14.1559 78.0316 14.1334C78.0665 14.1062 78.0945 14.0705 78.1039 14.0308C78.1413 13.8809 78.0792 13.7131 78.0512 13.5655ZM75.5684 11.2939C75.8498 11.1696 76.1296 11.0422 76.4101 10.9156C76.6346 10.8146 76.8752 10.7175 77.0793 10.5807C77.1023 10.8262 77.1592 11.0702 77.2034 11.3118C77.2613 11.628 77.3191 11.9449 77.3786 12.2611C77.4381 12.5773 77.4976 12.8935 77.5572 13.2097C77.5869 13.3674 77.6167 13.5259 77.6464 13.6843C77.6507 13.7053 77.6541 13.7255 77.6575 13.7457C77.5861 13.7294 77.5146 13.7146 77.4466 13.7007C77.2825 13.6665 77.1167 13.6409 76.9501 13.6222C76.7894 13.6036 76.6261 13.5888 76.4637 13.5896C76.3634 13.5903 76.1959 13.5771 76.0811 13.6214C76.0037 13.5484 75.9068 13.4932 75.8175 13.4326C75.7214 13.3666 75.6262 13.299 75.5327 13.2291C75.3507 13.0939 75.1747 12.9517 75.0072 12.8026C74.6977 12.5276 74.3976 12.2378 74.1212 11.9341C74.6042 11.7212 75.0863 11.5075 75.5684 11.2939ZM73.4299 17.8243L73.5175 16.9736C73.577 16.3925 73.6366 15.8114 73.6935 15.2296L73.8661 13.4855C73.8959 13.1848 73.9265 12.8842 73.9495 12.5827C73.9588 12.4577 73.9673 12.3334 73.975 12.2083C74.2045 12.5105 74.4528 12.794 74.7419 13.0543C74.9111 13.2073 75.0863 13.3557 75.2682 13.4963C75.3601 13.567 75.4536 13.637 75.5488 13.7045C75.6211 13.7558 75.6951 13.8141 75.775 13.8599C75.7665 13.8762 75.758 13.8918 75.7495 13.9089C75.6925 14.0137 75.6355 14.1186 75.5786 14.2235C75.4638 14.4325 75.3482 14.6415 75.2308 14.8497C74.991 15.2746 74.7462 15.6965 74.4945 16.116C74.1484 16.6909 73.7845 17.2549 73.4299 17.8243ZM77.2102 14.5855C77.0155 14.7867 76.8191 14.9872 76.621 15.1861C76.2401 15.5698 75.8549 15.9497 75.4638 16.325C74.8712 16.8944 74.2632 17.4499 73.6612 18.01C74.0617 17.439 74.4299 16.8486 74.7921 16.2566C75.0421 15.8472 75.2869 15.4354 75.5259 15.0206C75.6449 14.8131 75.7631 14.605 75.8787 14.396C75.9595 14.2499 76.0879 14.0805 76.1423 13.9112C76.2409 13.9314 76.3583 13.9275 76.4382 13.9337C76.5946 13.9462 76.7503 13.957 76.905 13.9772C77.0598 13.9974 77.2145 14.0238 77.3667 14.0565C77.4653 14.0775 77.564 14.1039 77.6617 14.128C77.5044 14.2732 77.359 14.4325 77.2102 14.5855Z" fill="#1E1E1E"/>
<path d="M58.3394 66.1677C58.3734 66.3254 58.4082 66.4823 58.4422 66.64C58.5086 66.9445 58.5749 67.2499 58.6412 67.5544C58.7075 67.8589 58.7764 68.1635 58.8444 68.468C58.9124 68.7741 58.9601 69.0934 59.0825 69.3863C59.1378 69.5183 59.3809 69.4896 59.4022 69.3544C59.6794 69.2977 59.9379 69.1656 60.1895 69.0514C60.4693 68.9248 60.7499 68.7982 61.0296 68.67L62.5924 67.9498C62.6196 67.9483 62.6443 67.9389 62.6604 67.9187L62.7038 67.8985C62.8211 67.8449 62.8203 67.7268 62.7625 67.6507C62.8007 67.465 62.799 67.2623 62.8177 67.0883C62.8492 66.7876 62.8721 66.487 62.896 66.1855L63.0354 64.4391C63.0822 63.8572 63.1272 63.2746 63.1714 62.6927L63.2403 61.7892C63.2514 61.6486 63.2616 61.508 63.2726 61.3673C63.2803 61.2617 63.2947 61.1506 63.2888 61.0434L63.2896 61.0418C63.3109 61.0038 63.2998 60.9688 63.2743 60.9432C63.2718 60.93 63.2709 60.9168 63.2675 60.9036C63.2267 60.7661 63.026 60.742 62.9623 60.8795C62.9436 60.9191 62.9308 60.961 62.9215 61.0038C62.1112 61.6727 61.3604 62.3967 60.6215 63.1316C60.2372 63.5131 59.8579 63.8984 59.4855 64.29C59.2925 64.4927 59.1012 64.697 58.9107 64.9021C58.7228 65.1049 58.512 65.3038 58.3649 65.5337C58.3504 65.5563 58.3462 65.5796 58.3453 65.6021C58.3113 65.6301 58.2849 65.6666 58.2756 65.7062C58.2407 65.8546 58.3079 66.0208 58.3394 66.1677ZM60.8817 68.3841C60.6036 68.5146 60.3273 68.6482 60.0492 68.7803C59.8273 68.886 59.5893 68.9885 59.3886 69.1291C59.3588 68.8844 59.2959 68.642 59.2449 68.4004C59.1786 68.085 59.1131 67.7703 59.0451 67.4549C58.9771 67.1403 58.909 66.8257 58.8419 66.5103C58.8079 66.3526 58.7738 66.1956 58.7398 66.0379C58.7356 66.0177 58.7313 65.9975 58.7271 65.9766C58.7985 65.9913 58.8708 66.0045 58.9388 66.017C59.1037 66.0472 59.2704 66.069 59.4379 66.0845C59.5986 66.0993 59.7627 66.1109 59.9243 66.1063C60.0246 66.104 60.1929 66.1125 60.306 66.0667C60.3851 66.1381 60.4837 66.191 60.5739 66.25C60.6716 66.3137 60.7686 66.3797 60.8638 66.4473C61.0483 66.5786 61.2286 66.7169 61.4003 66.8622C61.7175 67.1302 62.0244 67.413 62.3084 67.7113C61.834 67.9366 61.3578 68.1603 60.8817 68.3841ZM62.8483 61.8094L62.7829 62.6624C62.7386 63.2451 62.6944 63.8269 62.6519 64.4096L62.5252 66.1568C62.5031 66.4582 62.4802 66.7596 62.4657 67.0611C62.4598 67.1861 62.4538 67.3112 62.4504 67.4363C62.2132 67.1395 61.9573 66.8614 61.6622 66.6066C61.4888 66.4574 61.3102 66.3129 61.124 66.1762C61.0305 66.1071 60.9344 66.0403 60.8383 65.9742C60.7643 65.9245 60.6886 65.8678 60.6079 65.8235C60.6155 65.8072 60.624 65.7909 60.6325 65.7746C60.6861 65.6681 60.7405 65.5625 60.7949 65.456C60.9046 65.2447 61.0152 65.0334 61.1265 64.8221C61.3544 64.3917 61.5891 63.9644 61.8297 63.5403C62.1596 62.9584 62.5091 62.3866 62.8483 61.8094ZM59.1539 65.1298C59.3435 64.9247 59.5348 64.7203 59.727 64.5168C60.0986 64.1253 60.4727 63.7368 60.8545 63.353C61.4318 62.7712 62.0253 62.2025 62.612 61.6292C62.2259 62.2087 61.8739 62.8069 61.527 63.4066C61.2872 63.8207 61.0534 64.2379 60.8255 64.6582C60.7116 64.868 60.5994 65.0785 60.4888 65.2906C60.4115 65.4382 60.2882 65.6106 60.238 65.7808C60.1385 65.7621 60.0212 65.7691 59.9413 65.7645C59.7848 65.7551 59.6292 65.7481 59.4728 65.7311C59.3172 65.714 59.1624 65.6907 59.0094 65.6619C58.9099 65.6433 58.8113 65.6192 58.7126 65.5966C58.8682 65.449 59.0094 65.2867 59.1539 65.1298Z" fill="#1E1E1E"/>
<path d="M66.4594 66.8187C66.5597 66.8769 66.6609 66.9352 66.7612 66.9935C66.956 67.1069 67.1515 67.2196 67.3462 67.333C67.5409 67.4464 67.7374 67.5575 67.9329 67.6701C68.1293 67.7828 68.3232 67.911 68.5383 67.9933C68.6352 68.0306 68.7339 67.9079 68.6709 67.8348C68.7704 67.6841 68.8206 67.5062 68.8767 67.3392C68.9396 67.1543 69.0034 66.9694 69.0646 66.7837L69.4098 65.7451C69.4217 65.7318 69.4277 65.7163 69.4251 65.7L69.4345 65.6712C69.46 65.5936 69.3971 65.5384 69.3291 65.5291C69.2474 65.425 69.1378 65.3302 69.0527 65.2409C68.9056 65.0863 68.7551 64.9348 68.6046 64.7825L67.7314 63.9015C67.4406 63.6079 67.1481 63.315 66.8565 63.0221L66.4033 62.5676C66.3327 62.4969 66.2621 62.4262 66.1916 62.3555C66.1388 62.3027 66.0853 62.2445 66.0249 62.1963V62.1955C66.0147 62.1683 65.99 62.1567 65.9645 62.1559C65.956 62.1512 65.9484 62.145 65.9399 62.1404C65.8472 62.0945 65.7401 62.173 65.7834 62.2654C65.7962 62.2926 65.8123 62.3175 65.831 62.3423C65.8115 63.0198 65.8489 63.6957 65.8974 64.3715C65.9229 64.7227 65.9518 65.0738 65.9875 65.4242C66.0062 65.606 66.0258 65.787 66.047 65.9688C66.0683 66.1482 66.0759 66.3363 66.1312 66.5095C66.1363 66.5266 66.1465 66.539 66.1584 66.5507C66.1575 66.5794 66.1644 66.6082 66.1814 66.6307C66.2451 66.7162 66.3659 66.7643 66.4594 66.8187ZM68.8419 66.7161C68.7815 66.9026 68.7237 67.089 68.665 67.2755C68.6182 67.4247 68.5613 67.5793 68.5434 67.7354C68.398 67.6344 68.2382 67.5489 68.0843 67.4588C67.8836 67.3407 67.6838 67.2227 67.4831 67.1054C67.2825 66.9881 67.0809 66.8715 66.8803 66.7542C66.7799 66.696 66.6796 66.6369 66.5784 66.5786C66.5657 66.5709 66.5521 66.5631 66.5393 66.5553C66.581 66.5305 66.6218 66.5041 66.6601 66.4792C66.7536 66.4194 66.8437 66.3549 66.9304 66.2873C67.0138 66.2221 67.0962 66.1537 67.1702 66.0791C67.2153 66.0333 67.2995 65.9618 67.3275 65.8896C67.4032 65.8872 67.4772 65.8678 67.552 65.8554C67.6319 65.8414 67.7127 65.8289 67.7935 65.8173C67.9508 65.7955 68.1089 65.78 68.2679 65.7707C68.5604 65.7536 68.8563 65.7489 69.1497 65.7606C69.0476 66.0791 68.9447 66.3976 68.8419 66.7161ZM66.229 62.7533L66.6567 63.1821C66.9491 63.475 67.2416 63.7671 67.535 64.0592L68.415 64.9348C68.5664 65.0855 68.7177 65.237 68.8733 65.3853C68.9379 65.4467 69.0017 65.5081 69.068 65.5679C68.7976 65.5353 68.5281 65.5197 68.2526 65.533C68.0911 65.5407 67.9295 65.5532 67.7688 65.5726C67.688 65.5827 67.6073 65.5936 67.5265 65.6068C67.4653 65.6169 67.3989 65.6239 67.3377 65.6394C67.3326 65.6285 67.3275 65.6169 67.3224 65.6052C67.2901 65.5314 67.2586 65.4568 67.228 65.383C67.1651 65.2346 67.1039 65.0863 67.0427 64.9371C66.9185 64.6333 66.7987 64.328 66.683 64.0212C66.524 63.6009 66.3795 63.1759 66.229 62.7533ZM66.2825 65.9672C66.2604 65.7862 66.2409 65.6044 66.2213 65.4226C66.1848 65.0723 66.1516 64.7227 66.1235 64.3715C66.081 63.8394 66.0538 63.3072 66.0198 62.7751C66.1507 63.2194 66.3072 63.6584 66.4671 64.095C66.5776 64.3964 66.6924 64.6971 66.8114 64.9962C66.8709 65.1453 66.9313 65.2945 66.9934 65.4428C67.0367 65.5469 67.0716 65.6829 67.1396 65.7854C67.0835 65.8212 67.0325 65.8771 66.9917 65.9113C66.9134 65.9773 66.8361 66.0434 66.7544 66.1055C66.6728 66.1677 66.5878 66.2259 66.5002 66.2811C66.4432 66.3168 66.3846 66.3502 66.3259 66.3836C66.3208 66.2446 66.2995 66.1048 66.2825 65.9672Z" fill="#1E1E1E"/>
<path d="M71.5347 12.8477C71.442 12.7793 71.3485 12.7117 71.2558 12.6433C71.0755 12.5113 70.8953 12.38 70.715 12.2479C70.5348 12.1158 70.3536 11.9853 70.1725 11.8548C69.9906 11.7227 69.8137 11.5767 69.6097 11.4734C69.5178 11.4267 69.4056 11.5386 69.4592 11.6179C69.3427 11.7577 69.2713 11.9302 69.1956 12.0902C69.1106 12.2681 69.0255 12.4452 68.9422 12.6239L68.4754 13.6222C68.4618 13.6339 68.4542 13.6486 68.455 13.6657L68.4422 13.6937C68.4074 13.7683 68.4635 13.8296 68.5307 13.8459C68.5995 13.957 68.6973 14.0627 68.7713 14.1598C68.8988 14.3284 69.0306 14.4939 69.1624 14.6601L69.926 15.6227C70.1802 15.9435 70.4361 16.2636 70.6912 16.5836L71.0883 17.0801C71.1495 17.1578 71.2116 17.2347 71.2736 17.3116C71.3204 17.3699 71.3663 17.4328 71.4207 17.4864C71.4275 17.5144 71.4505 17.5291 71.476 17.5322C71.4837 17.5377 71.4905 17.5446 71.499 17.5493C71.5857 17.6045 71.7013 17.5369 71.669 17.4405C71.6597 17.4126 71.6461 17.3854 71.6308 17.3597C71.7311 16.6885 71.7745 16.0134 71.8068 15.336C71.8238 14.9848 71.8357 14.6329 71.8416 14.281C71.845 14.0984 71.8467 13.9159 71.8467 13.7341C71.8476 13.5538 71.8612 13.3666 71.828 13.1879C71.8246 13.1708 71.8161 13.1568 71.8051 13.1444C71.8093 13.1165 71.8059 13.0869 71.7915 13.0629C71.7353 12.9712 71.6214 12.9114 71.5347 12.8477ZM69.1539 12.7125C69.2355 12.5338 69.3155 12.3536 69.3962 12.1741C69.4609 12.0304 69.5348 11.8828 69.5723 11.729C69.7049 11.8439 69.8537 11.9449 69.9957 12.0498C70.181 12.1865 70.3656 12.324 70.5518 12.4608C70.738 12.5975 70.9233 12.7335 71.1095 12.8702C71.2022 12.9385 71.2958 13.0061 71.3884 13.0745C71.4003 13.083 71.4122 13.0924 71.4241 13.1009C71.3799 13.1219 71.3366 13.1436 71.2949 13.1646C71.1946 13.2143 71.0976 13.2703 71.0041 13.3285C70.9131 13.3853 70.823 13.4443 70.7414 13.5119C70.6904 13.5531 70.5994 13.616 70.5628 13.6851C70.4872 13.6797 70.4115 13.6913 70.3358 13.6968C70.2542 13.703 70.1725 13.7077 70.0909 13.71C69.9319 13.7154 69.7729 13.7162 69.6139 13.7092C69.3214 13.6968 69.0255 13.6727 68.7356 13.6315C68.8742 13.3254 69.0136 13.0193 69.1539 12.7125ZM71.2796 16.9123L70.9055 16.4438C70.6496 16.1237 70.3936 15.8037 70.1368 15.4844L69.3665 14.5265C69.2338 14.361 69.1012 14.1955 68.9643 14.0332C68.9073 13.9656 68.8512 13.8988 68.7926 13.832C69.0578 13.891 69.324 13.9337 69.5986 13.9477C69.7602 13.9563 69.9226 13.9594 70.0841 13.9563C70.1657 13.9547 70.2474 13.9516 70.329 13.9469C70.3911 13.9431 70.4574 13.9423 70.5203 13.933C70.5237 13.9446 70.5271 13.9563 70.5314 13.9679C70.5543 14.0448 70.5764 14.1217 70.5994 14.1979C70.6436 14.3517 70.6878 14.5055 70.7303 14.6593C70.8179 14.974 70.9004 15.2894 70.9786 15.6056C71.0874 16.0398 71.1801 16.4764 71.2796 16.9123ZM71.6087 13.7115C71.6087 13.8941 71.6069 14.0767 71.6044 14.2585C71.5993 14.6104 71.5908 14.9615 71.5763 15.3135C71.5551 15.8464 71.5194 16.3786 71.4888 16.9107C71.4114 16.4555 71.3085 16.0041 71.2014 15.5543C71.1274 15.2436 71.0492 14.9336 70.9667 14.6244C70.925 14.4698 70.8825 14.3159 70.8392 14.1621C70.8085 14.0549 70.7898 13.9159 70.7346 13.8071C70.7949 13.7768 70.8528 13.7263 70.8961 13.6968C70.9812 13.6393 71.0662 13.5803 71.1555 13.5274C71.2439 13.4738 71.3357 13.4241 71.4292 13.3783C71.4896 13.348 71.5525 13.3216 71.6146 13.2936C71.6044 13.4327 71.6087 13.5733 71.6087 13.7115Z" fill="#1E1E1E"/>
<path d="M114.783 59.6271C115.194 54.2077 115.614 46.6821 115.966 38.4371C116.588 23.8598 116.983 7.33103 116.488 5.41293C116.209 4.33307 114.302 3.0823 101.019 4.68577C94.0856 5.52324 87.1712 6.77868 86.6712 6.87035C86.2367 3.73955 85.8915 1.63578 85.6993 1.15878C85.4409 0.516301 84.9043 -0.819925 58.6488 5.72602C45.8217 8.92442 32.963 12.5004 32.8346 12.5361L32.8253 12.5392C32.5183 12.634 32.2777 12.8469 32.1111 13.1724C31.6808 14.0114 31.7641 15.8083 32.2284 18.2826C32.1646 18.299 32.0991 18.3168 32.0294 18.3347C20.7999 21.2674 7.00682 25.4944 5.0665 28.9833C4.78761 29.4836 4.74 29.9699 4.92366 30.4267C5.89126 32.8343 13.4723 47.0752 20.9402 60.2634C35.9806 86.8255 37.83 87.0151 38.4379 87.0773C41.9512 87.4369 66.1193 80.7566 67.1881 79.6791C67.3412 79.5252 67.3327 79.3706 67.3148 79.2922C67.1396 78.5433 65.9459 74.2503 65.8948 74.0677L65.5046 74.1586C67.8539 73.5992 70.3749 72.9894 72.8943 72.3609C75.4068 71.7347 77.5971 71.1715 79.5111 70.6634C79.6284 71.9647 79.9201 74.5097 80.4659 75.3565C80.5875 75.5445 80.8196 75.6036 80.9837 75.6316C81.022 75.6378 81.0637 75.6432 81.1096 75.6479C84.6595 76.0114 111.457 71.2966 113.285 69.9635C113.548 69.7708 114.04 69.4119 114.783 59.6271ZM66.49 79.2619C64.3678 80.4971 41.6417 86.6725 38.5289 86.3532C37.4933 86.1667 32.4979 79.0964 21.5821 59.8128C14.155 46.6914 6.62589 32.5492 5.67189 30.175C5.56646 29.9117 5.60047 29.6297 5.77732 29.3119C6.59528 27.8413 11.1221 24.5505 32.2488 19.0339C32.293 19.0222 32.3304 19.0121 32.3712 19.002C32.6289 20.2544 32.9732 21.6589 33.3873 23.1832C32.8559 23.2842 32.3304 23.4341 31.8075 23.5638C31.2557 23.7014 30.7047 23.8427 30.1537 23.9857C29.0671 24.2677 27.983 24.5582 26.9014 24.8566C24.7086 25.4602 22.5243 26.0887 20.3518 26.7506C19.7473 26.9347 19.1444 27.1212 18.5424 27.3138C18.2474 27.4086 17.9523 27.5041 17.659 27.6036C17.347 27.7092 17.023 27.8009 16.728 27.9408C16.6013 28.0006 16.648 28.1971 16.8019 28.1699C17.0698 28.1225 17.3257 28.0363 17.5859 27.961C17.8639 27.8802 18.1428 27.7994 18.42 27.7162C18.9642 27.5523 19.5083 27.3884 20.0517 27.2237C21.1281 26.8982 22.2071 26.5781 23.2878 26.2627C25.4738 25.6257 27.6701 25.0189 29.8723 24.4308C30.4845 24.2677 31.0975 24.1077 31.7097 23.9461C32.2947 23.7922 32.8925 23.6602 33.4689 23.4815C38.3563 41.2657 52.5524 74.8601 53.3236 76.6796L53.4358 76.9445L53.7377 76.8776C53.7912 76.8652 56.8318 76.1886 61.1716 75.1778C61.3859 75.4948 61.3365 75.8941 61.1486 76.2212C60.9063 76.6423 60.4208 76.8878 59.9549 77.0579C59.3979 77.2614 58.8129 77.4059 58.2416 77.5691C57.5971 77.7532 56.9534 77.9373 56.3089 78.1222C53.7538 78.8532 51.1979 79.5835 48.6471 80.3278C47.2068 80.748 45.7477 81.1357 44.3371 81.6337C44.2197 81.6756 44.275 81.8582 44.4009 81.8302C45.7681 81.5288 47.109 81.1225 48.4541 80.7473C49.7882 80.3751 51.1214 79.9984 52.4538 79.62C53.8074 79.2363 55.1602 78.8533 56.513 78.4679C57.1787 78.2784 57.8445 78.0888 58.5102 77.8992C59.1088 77.7291 59.7295 77.5854 60.3018 77.3484C60.8468 77.1231 61.3476 76.7836 61.5874 76.2686C61.7617 75.8941 61.7846 75.4443 61.5789 75.0831C62.691 74.8236 63.8797 74.5439 65.1228 74.2487C65.1432 74.3233 66.2137 78.1704 66.49 79.2619ZM79.4516 69.9192C79.4524 69.9394 79.455 69.9681 79.4575 70.0015C71.5942 72.0913 61.5525 74.4709 53.872 76.1816C46.9695 59.8719 35.564 31.1182 33.0208 18.8288C33.0532 18.8195 33.0753 18.8125 33.0906 18.807L32.946 18.459C32.4571 15.9846 32.3525 14.2266 32.753 13.4451C32.8346 13.285 32.9307 13.1895 33.0472 13.1522C33.3737 13.0613 45.8259 9.60107 58.3853 6.46172C81.9675 0.566789 84.7522 1.0935 85.0336 1.38017C86.1432 4.1404 92.6588 63.7322 92.0781 65.7815C91.7456 66.4932 86.6585 68.078 79.8495 69.8959L79.4516 69.9192ZM92.9862 32.1677C92.9913 32.2485 93.1367 32.2633 93.1613 32.1856C93.254 31.8904 93.3042 31.5851 93.4036 31.2898C93.5031 30.9923 93.606 30.6971 93.7378 30.4089C93.998 29.8379 94.3457 29.3042 94.7717 28.8233C95.5991 27.8879 96.7154 27.1981 97.9585 26.8073C98.3037 26.6985 98.6575 26.6169 99.0163 26.5587C99.1897 26.5307 99.364 26.5043 99.5392 26.4849C99.7305 26.4639 99.9269 26.4624 100.115 26.4243C100.121 26.4235 100.125 26.4204 100.131 26.4181C100.125 26.4235 100.119 26.4282 100.114 26.4336L100.112 26.4359C99.4822 26.6465 98.8887 26.9961 98.365 27.3674C97.7647 27.7924 97.2282 28.295 96.7716 28.8497C95.8558 29.9614 95.2445 31.2899 95.0404 32.6704C94.8338 34.0664 95.0676 35.4982 95.7368 36.7692C96.4111 38.0487 97.4798 39.1604 98.7689 39.9528C100.212 40.8407 101.957 41.3682 103.706 41.303C103.679 41.331 103.652 41.3597 103.625 41.3877C103.594 41.3667 103.555 41.3551 103.51 41.362C103.27 41.4001 103.057 41.4794 102.826 41.5524C102.598 41.6246 102.365 41.6852 102.13 41.7349C101.65 41.8367 101.16 41.8958 100.668 41.9128C99.6863 41.9462 98.711 41.7901 97.7698 41.5485C97.6082 41.5073 97.5164 41.7039 97.672 41.7722C98.6039 42.1809 99.6506 42.3223 100.678 42.2958C101.189 42.2826 101.698 42.2236 102.196 42.1187C102.505 42.0542 102.843 41.9836 103.151 41.8678C103.074 41.9439 102.999 42.0216 102.917 42.0946C102.587 42.3875 102.237 42.6586 101.865 42.9049C101.114 43.3998 100.269 43.7812 99.3802 44.0205C97.5249 44.5216 95.5208 44.3569 93.765 43.6282C93.2642 43.4208 92.7881 43.1675 92.3434 42.8723C91.8961 42.5755 91.499 42.2306 91.0875 41.8957C91.0331 41.8328 90.977 41.7714 90.9277 41.7046C90.8647 41.6192 90.7993 41.5392 90.7244 41.4654C90.4507 38.8659 90.1692 36.2502 89.892 33.7246C89.7917 32.8079 89.6897 31.8834 89.5859 30.9574C89.7645 30.6357 89.9158 30.3017 90.1003 29.9824C90.2917 29.6491 90.5136 29.3306 90.7568 29.0276C91.2525 28.41 91.8459 27.8607 92.5168 27.4008C93.93 26.4313 95.6756 25.9077 97.4416 25.9007C97.9424 25.8983 98.4441 25.9364 98.9381 26.0133C99.2033 26.0545 99.4644 26.1128 99.7254 26.1718C99.5026 26.1765 99.2748 26.2044 99.0656 26.2316C98.7365 26.2744 98.4109 26.3466 98.0929 26.4336C97.4331 26.6131 96.809 26.8764 96.2282 27.2136C95.0498 27.8996 94.117 28.9041 93.5354 30.0632C93.3688 30.3957 93.2276 30.7422 93.1324 31.098C93.0406 31.439 92.9624 31.8158 92.9862 32.1677ZM112.765 69.4088C111.951 69.9386 105.199 71.4108 96.9637 72.8511C87.5997 74.4888 81.9709 75.1227 81.1104 74.9153C80.6921 74.1431 80.4124 71.8085 80.2933 70.4552C81.2907 70.188 82.2056 69.937 83.0482 69.7017C83.2429 70.2828 83.0975 70.9128 83.3194 71.4924C83.4308 71.7829 83.6476 72.0206 83.9537 72.1535C84.2479 72.2809 84.5829 72.2607 84.8134 72.0424C84.9222 71.9383 84.7589 71.8124 84.6433 71.8474C84.4239 71.9134 84.174 71.8691 83.9886 71.7464C83.7531 71.5918 83.6553 71.3339 83.6094 71.0814C83.521 70.5989 83.6085 70.059 83.3841 69.6077C92.4479 67.0541 92.6597 66.3145 92.7625 65.9525C93.0482 64.9449 92.0135 53.7819 90.7916 42.1148C90.8197 42.1506 90.8477 42.1871 90.8783 42.222C90.9744 42.3324 91.0816 42.4326 91.1955 42.5266C91.3154 42.6252 91.4387 42.7138 91.5934 42.762C91.6002 42.7643 91.607 42.7643 91.613 42.7651C92.1121 43.1729 92.6954 43.5109 93.2685 43.7859C94.1748 44.2209 95.168 44.5068 96.1849 44.6195C98.1609 44.8386 100.166 44.3701 101.822 43.371C102.275 43.0984 102.701 42.7845 103.082 42.431C103.461 42.0783 103.832 41.6976 104.069 41.2486C104.126 41.1406 103.982 41.0761 103.891 41.1251C103.899 41.0202 103.839 40.9091 103.706 40.9107C102.209 40.9324 100.746 40.5898 99.4516 39.8976C98.1669 39.2101 97.053 38.2297 96.3116 37.0457C95.5718 35.8657 95.2173 34.5193 95.3244 33.1606C95.4281 31.8383 95.9247 30.5479 96.7214 29.4424C97.1746 28.8132 97.7222 28.2406 98.3531 27.7551C98.6677 27.5127 99.0027 27.2905 99.3555 27.0963C99.665 26.9262 99.989 26.7848 100.312 26.6395C100.35 26.6379 100.389 26.6333 100.427 26.6294C100.504 26.6216 100.58 26.603 100.656 26.5882C100.73 26.5735 100.787 26.5292 100.805 26.4616C100.814 26.4313 100.813 26.4025 100.804 26.373C100.793 26.3404 100.77 26.3023 100.738 26.2844C100.684 26.2541 100.628 26.2238 100.574 26.1936C100.569 26.171 100.555 26.1508 100.53 26.1384C100.12 25.9271 99.6837 25.8191 99.2237 25.7352C98.7501 25.6482 98.2697 25.5993 97.7868 25.586C96.843 25.5604 95.9009 25.6715 94.9962 25.9178C93.2889 26.3823 91.7762 27.348 90.6811 28.6283C90.3792 28.9818 90.1114 29.3586 89.8776 29.7524C89.7458 29.9738 89.625 30.2007 89.5273 30.4353C88.5588 21.7693 87.5045 12.9214 86.7222 7.23238L86.8013 7.58895C86.8727 7.57575 93.9886 6.26905 101.124 5.4075C114.212 3.82734 115.599 5.13949 115.713 5.5792C116.12 7.16014 115.89 21.401 115.188 38.0005C114.319 58.5457 113.348 68.5565 112.765 69.4088Z" fill="#1E1E1E"/>
<path d="M101.412 44.6241C101.201 44.6995 101.017 44.8953 100.833 45.0165C100.634 45.1485 100.426 45.2697 100.21 45.3793C99.7824 45.5952 99.3283 45.7669 98.8599 45.8936C97.9246 46.1468 96.9 46.2245 95.9358 46.0878C95.8057 46.0691 95.7887 46.2463 95.9137 46.2703C96.9365 46.4692 97.9739 46.4451 98.9814 46.1849C99.4746 46.0575 99.9516 45.8788 100.4 45.652C100.626 45.537 100.847 45.4103 101.057 45.2728C101.253 45.1447 101.504 45.0056 101.619 44.8075C101.687 44.6894 101.526 44.583 101.412 44.6241Z" fill="#1E1E1E"/>
<path d="M100.747 46.2626C100.64 46.247 100.529 46.3092 100.433 46.3465C100.347 46.3799 100.261 46.4141 100.175 46.4475C100.089 46.4809 100.001 46.5112 99.9176 46.5493C99.8283 46.5897 99.7543 46.6479 99.6701 46.6937C99.6276 46.717 99.5996 46.7559 99.6157 46.8025C99.6293 46.8421 99.6769 46.8779 99.7263 46.867C99.8181 46.846 99.9116 46.8367 100.003 46.8126C100.101 46.787 100.197 46.7458 100.293 46.7108C100.383 46.6782 100.473 46.6456 100.563 46.613C100.662 46.5772 100.781 46.5508 100.845 46.47C100.911 46.3877 100.853 46.2773 100.747 46.2626Z" fill="#1E1E1E"/>
<path d="M99.961 24.7828C99.5418 24.5909 99.086 24.5 98.6243 24.4355C98.1516 24.3687 97.6729 24.3392 97.195 24.3454C96.7291 24.3516 96.2648 24.392 95.8065 24.4666C95.3423 24.5427 94.8942 24.6857 94.4554 24.8387C94.3101 24.8892 94.4095 25.0757 94.5515 25.036C95.4086 24.7975 96.3465 24.6857 97.2409 24.6864C97.6899 24.6864 98.1388 24.7191 98.5818 24.7835C99.0231 24.848 99.455 24.9514 99.8963 25.0174C100.054 25.0415 100.088 24.8418 99.961 24.7828Z" fill="#1E1E1E"/>
<path d="M98.439 23.793C98.4084 23.7767 98.3744 23.7565 98.3395 23.7464C98.3038 23.7363 98.2672 23.7363 98.2298 23.734C98.166 23.7301 98.1031 23.7293 98.0393 23.7285C97.9118 23.727 97.7843 23.7262 97.6567 23.7254C97.5981 23.7246 97.5368 23.7565 97.5326 23.8156C97.5283 23.8715 97.5692 23.922 97.6312 23.929C97.7571 23.943 97.8829 23.9577 98.0087 23.9717C98.0717 23.9787 98.1346 23.9849 98.1984 23.9888C98.2341 23.9911 98.2732 23.9966 98.3089 23.9927C98.3446 23.9888 98.3837 23.9732 98.4177 23.96C98.4857 23.9336 98.5095 23.8303 98.439 23.793Z" fill="#1E1E1E"/>
<path d="M96.4408 34.9125C96.4026 34.7664 96.3626 34.6219 96.3311 34.4743C96.2699 34.1845 96.2368 33.8901 96.2299 33.5949C96.2163 33.0068 96.3481 32.4474 96.4374 31.8694C96.451 31.7793 96.3209 31.7638 96.2801 31.8329C95.9681 32.3635 95.8915 33.0192 95.9034 33.6143C95.9094 33.9103 95.9417 34.2047 96.0012 34.4953C96.0318 34.646 96.0684 34.7975 96.1186 34.9443C96.167 35.0841 96.2087 35.2418 96.3269 35.3467C96.3881 35.4011 96.5003 35.3871 96.5114 35.2978C96.5275 35.1642 96.4748 35.0414 96.4408 34.9125Z" fill="#1E1E1E"/>
<path d="M96.9884 33.4333C96.9782 33.3991 96.9689 33.3649 96.9612 33.3299C96.9459 33.2554 96.9331 33.1792 96.9289 33.1039C96.9204 32.957 96.9331 32.8094 96.9808 32.6688C97.0114 32.5772 96.8711 32.5235 96.8286 32.6129C96.7529 32.7714 96.7087 32.9462 96.7138 33.1194C96.7163 33.201 96.7257 33.2818 96.7486 33.361C96.7622 33.4061 96.7767 33.4503 96.7946 33.4939C96.8124 33.5381 96.8464 33.5708 96.8838 33.6011C96.9238 33.6329 96.9952 33.6034 96.9978 33.556C97.002 33.5133 97.0012 33.4737 96.9884 33.4333Z" fill="#1E1E1E"/>
<path d="M107.026 53.9016C107.012 53.8589 106.972 53.8356 106.928 53.8224C106.952 53.7835 106.96 53.7353 106.943 53.6911C106.884 53.5481 106.717 53.4627 106.591 53.3694C106.46 53.2716 106.328 53.1721 106.197 53.0727C105.919 52.8613 105.642 52.6485 105.366 52.4341C104.825 52.0122 104.306 51.5663 103.738 51.174L103.736 51.1732C103.713 51.087 103.598 51.0209 103.514 51.0955C103.243 51.3387 103.054 51.6657 102.854 51.9586C102.646 52.2647 102.44 52.5724 102.243 52.8839C101.882 53.4541 101.525 54.0275 101.238 54.6319C101.238 54.6319 101.236 54.6319 101.235 54.6319C101.117 54.6342 101.079 54.7484 101.162 54.8113C101.159 54.8455 101.17 54.8774 101.196 54.8999C101.189 54.9139 101.183 54.9286 101.183 54.9465C101.18 55.1858 101.258 55.3979 101.342 55.6224C101.43 55.8609 101.522 56.0986 101.616 56.3363C101.799 56.8017 101.991 57.2647 102.196 57.7223C102.606 58.6382 103.048 59.5433 103.54 60.4242C103.816 60.9207 104.115 61.3922 104.443 61.8615C104.467 61.8964 104.504 61.9065 104.54 61.9019C104.563 61.9104 104.589 61.9166 104.616 61.9151C104.769 61.9096 104.919 61.898 105.071 61.8832C105.143 61.8762 105.216 61.8692 105.289 61.8615C105.376 61.8521 105.462 61.8475 105.546 61.8211C105.603 61.8032 105.635 61.7488 105.644 61.6991C105.649 61.6727 105.643 61.6447 105.631 61.6206C105.623 61.6051 105.608 61.5934 105.596 61.581C105.891 60.6223 106.07 59.6287 106.264 58.6491C106.463 57.643 106.648 56.6346 106.816 55.6232C106.863 55.3357 106.91 55.0483 106.955 54.7608C106.979 54.6124 107.002 54.4633 107.025 54.3141C107.048 54.1688 107.073 54.0438 107.026 53.9016ZM102.55 53.0571C102.746 52.7557 102.943 52.4551 103.146 52.1575C103.312 51.9144 103.511 51.6689 103.653 51.4078C104.101 51.8732 104.609 52.2826 105.118 52.6928C105.381 52.9056 105.648 53.1146 105.918 53.3197C106.057 53.4254 106.197 53.5303 106.337 53.6344C106.352 53.646 106.368 53.6576 106.383 53.6693C106.341 53.6949 106.298 53.7221 106.256 53.747C106.135 53.8192 106.015 53.893 105.896 53.9684C105.651 54.123 105.41 54.2823 105.173 54.4462C104.746 54.7414 104.319 55.0452 103.938 55.3893C103.848 55.3194 103.725 55.286 103.616 55.2471C103.501 55.206 103.386 55.1656 103.269 55.1267C103.053 55.0545 102.837 54.9861 102.618 54.9216C102.272 54.8199 101.902 54.694 101.533 54.6497C101.884 54.1261 102.206 53.5854 102.55 53.0571ZM103.298 59.1136C102.859 58.2195 102.455 57.3105 102.083 56.3915C101.98 56.1374 101.881 55.8826 101.784 55.627C101.696 55.3932 101.62 55.1578 101.474 54.9504C101.808 55.0685 102.169 55.1407 102.504 55.2456C102.721 55.3132 102.937 55.3854 103.151 55.4616C103.258 55.4996 103.365 55.5385 103.471 55.5789C103.555 55.6107 103.639 55.6503 103.728 55.6721C103.878 56.6929 104.096 57.7044 104.259 58.7237C104.34 59.2263 104.413 59.7297 104.479 60.2339C104.512 60.4856 104.543 60.7389 104.572 60.9914C104.587 61.1273 104.603 61.2633 104.617 61.4C104.626 61.4839 104.63 61.5709 104.647 61.6533C104.63 61.6564 104.613 61.6587 104.596 61.6626C104.169 60.8111 103.718 59.969 103.298 59.1136ZM106.568 54.6C106.533 54.8486 106.495 55.0964 106.458 55.3442C106.381 55.85 106.3 56.3557 106.217 56.8615C106.053 57.8722 105.876 58.8806 105.689 59.8882C105.587 60.4359 105.478 60.982 105.409 61.5344C105.353 61.539 105.298 61.546 105.244 61.5546C105.171 61.5655 105.099 61.5763 105.026 61.5864C105.029 61.3907 104.975 61.1794 104.952 60.996C104.92 60.7435 104.887 60.4918 104.851 60.2401C104.779 59.7266 104.7 59.2146 104.612 58.7027C104.436 57.6819 104.251 56.6603 103.944 55.6643C103.972 55.6651 103.999 55.6612 104.024 55.6457C104.49 55.3419 104.928 55.0048 105.395 54.7018C105.625 54.5526 105.859 54.4066 106.096 54.2659C106.211 54.1976 106.327 54.13 106.443 54.0624C106.53 54.0119 106.628 53.9661 106.713 53.9078C106.597 54.109 106.601 54.3801 106.568 54.6Z" fill="#1E1E1E"/>
<path d="M100.316 16.9083C100.304 16.9511 100.325 16.9899 100.355 17.0218C100.313 17.0435 100.278 17.0808 100.269 17.1274C100.239 17.2774 100.333 17.4296 100.388 17.5687C100.446 17.7155 100.502 17.8616 100.558 18.0084C100.677 18.3207 100.793 18.6338 100.908 18.9469C101.134 19.5637 101.326 20.1899 101.591 20.7935L101.592 20.7951C101.563 20.8797 101.625 20.9908 101.738 20.966C102.108 20.886 102.455 20.6948 102.791 20.5379C103.142 20.374 103.492 20.2077 103.837 20.0337C104.468 19.716 105.098 19.3936 105.686 19.0106L105.688 19.0121C105.79 19.0657 105.887 18.9857 105.852 18.8925C105.875 18.8645 105.883 18.8319 105.874 18.8008C105.888 18.793 105.902 18.7829 105.912 18.7674C106.049 18.5631 106.102 18.3456 106.158 18.1133C106.216 17.867 106.272 17.62 106.327 17.3729C106.432 16.8874 106.529 16.4011 106.613 15.9116C106.779 14.9343 106.911 13.95 106.988 12.9634C107.032 12.4079 107.042 11.8625 107.027 11.3063C107.026 11.2651 106.999 11.2395 106.966 11.2263C106.951 11.2076 106.932 11.1905 106.908 11.1789C106.775 11.1113 106.64 11.0507 106.5 10.9917C106.434 10.9637 106.369 10.9357 106.302 10.9078C106.222 10.8744 106.145 10.8378 106.059 10.8215C106 10.8107 105.943 10.8417 105.906 10.8798C105.886 10.9 105.876 10.9272 105.873 10.9536C105.871 10.9707 105.876 10.987 105.881 11.0041C105.086 11.6862 104.371 12.4522 103.652 13.1996C102.913 13.9671 102.185 14.744 101.47 15.531C101.267 15.7547 101.065 15.9792 100.863 16.2037C100.759 16.3203 100.655 16.4368 100.551 16.5533C100.449 16.6691 100.356 16.7646 100.316 16.9083ZM103.673 19.7424C103.335 19.9079 102.996 20.0726 102.655 20.2318C102.376 20.3623 102.066 20.4781 101.798 20.635C101.677 20.0252 101.473 19.4347 101.269 18.8435C101.163 18.5374 101.053 18.2329 100.938 17.9292C100.878 17.773 100.818 17.6176 100.757 17.4615C100.75 17.4444 100.744 17.4265 100.737 17.4094C100.788 17.4071 100.839 17.4048 100.889 17.4032C101.034 17.3985 101.179 17.3916 101.323 17.3838C101.62 17.3667 101.917 17.3442 102.212 17.3154C102.744 17.2642 103.281 17.2059 103.802 17.0901C103.841 17.1927 103.927 17.2781 103.998 17.3636C104.073 17.4537 104.149 17.5423 104.227 17.6309C104.37 17.7948 104.518 17.9556 104.669 18.1141C104.908 18.3642 105.154 18.6462 105.444 18.8583C104.847 19.1411 104.267 19.4526 103.673 19.7424ZM106.454 14.2017C106.325 15.1752 106.158 16.1439 105.957 17.1064C105.902 17.3721 105.843 17.6378 105.782 17.9027C105.726 18.1451 105.657 18.3821 105.665 18.6284C105.446 18.3697 105.177 18.1381 104.949 17.8895C104.802 17.7287 104.658 17.5656 104.518 17.3993C104.448 17.3162 104.378 17.2323 104.31 17.1484C104.256 17.0816 104.206 17.0078 104.143 16.9472C104.591 16.0017 104.975 15.033 105.411 14.0829C105.626 13.6144 105.847 13.1483 106.076 12.6852C106.19 12.4537 106.306 12.223 106.425 11.9931C106.488 11.8695 106.552 11.7452 106.617 11.6225C106.657 11.5464 106.703 11.4702 106.734 11.391C106.75 11.3956 106.766 11.4019 106.783 11.4073C106.666 12.338 106.577 13.2718 106.454 14.2017ZM101.103 16.5261C101.274 16.3303 101.446 16.1353 101.618 15.9404C101.97 15.5434 102.326 15.1487 102.681 14.7541C103.392 13.9656 104.114 13.1856 104.843 12.411C105.239 11.9899 105.642 11.5736 106.013 11.1338C106.063 11.1564 106.114 11.1758 106.166 11.1944C106.234 11.2193 106.302 11.2442 106.37 11.2698C106.257 11.436 106.184 11.6419 106.101 11.8105C105.986 12.0412 105.872 12.2735 105.761 12.5058C105.533 12.9797 105.311 13.4559 105.097 13.9352C104.671 14.8924 104.252 15.8549 103.953 16.8524C103.93 16.8384 103.904 16.8291 103.875 16.8314C103.304 16.8718 102.738 16.9534 102.167 16.993C101.885 17.0124 101.603 17.0264 101.32 17.0358C101.182 17.0404 101.045 17.0427 100.907 17.0458C100.804 17.0482 100.694 17.0412 100.589 17.0513C100.801 16.9332 100.951 16.6994 101.103 16.5261Z" fill="#1E1E1E"/>
<path d="M42.4614 62.2685C41.9615 62.2553 41.4624 62.253 40.9667 62.1769C40.4905 62.1039 40.0271 61.978 39.5799 61.8118C38.6973 61.4831 37.8963 60.9952 37.1821 60.4204C37.1685 60.4025 37.1506 60.3877 37.1277 60.3776C37.1115 60.3644 37.0954 60.352 37.0801 60.3396C37.4253 60.1073 37.722 59.8066 37.9814 59.4982C38.2875 59.1339 38.5442 58.7299 38.7526 58.3119C39.1675 57.4791 39.3843 56.5616 39.3826 55.6465C39.3818 55.3893 39.369 55.1306 39.3299 54.8758C39.2933 54.6342 39.2695 54.3234 39.1173 54.1183C39.0901 54.0818 39.0493 54.0655 39.0068 54.0624C38.9906 54.0345 38.9549 54.0166 38.9192 54.0306C38.7007 54.1168 38.523 54.325 38.3606 54.4796C38.1812 54.6497 38.0222 54.8362 37.8734 55.0288C37.5758 55.4134 37.3284 55.8306 37.1268 56.2633C36.7187 57.1389 36.4883 58.0874 36.473 59.0391C36.4687 59.2986 36.4747 59.5619 36.5027 59.8222C35.2163 58.58 34.3226 57.0596 33.6662 55.4569C33.6339 55.3777 33.605 55.2977 33.5736 55.2184C33.7258 55.0685 33.8533 54.8937 33.974 54.7259C34.1313 54.5076 34.2759 54.2823 34.4111 54.0515C34.6874 53.5792 34.9093 53.082 35.0785 52.5701C35.4178 51.543 35.5538 50.4694 35.4688 49.3988C35.4297 48.9055 35.3515 48.3967 35.1517 47.9344C35.2052 47.8195 35.1304 47.7076 35.0258 47.678C35.0199 47.6679 35.0156 47.6578 35.0097 47.6477C34.9603 47.5638 34.8269 47.5988 34.8362 47.6944C34.8371 47.7053 34.8388 47.7169 34.8405 47.7278C34.8345 47.734 34.8268 47.7363 34.8209 47.7433C34.485 48.1349 34.2232 48.601 33.9902 49.0492C33.753 49.506 33.5557 49.9799 33.4009 50.4647C33.088 51.4436 32.9435 52.4558 32.9724 53.4751C32.9733 53.4984 32.975 53.5217 32.9758 53.5443C32.5226 52.1575 32.1409 50.7506 31.6698 49.3693C31.0457 47.5398 30.2269 45.7669 28.9464 44.2342C27.8002 42.8622 26.2179 41.6029 24.3413 41.1904C24.1015 41.1376 23.8626 41.0979 23.6177 41.0739C23.5081 41.063 23.4545 41.2261 23.5684 41.2525C24.5105 41.4732 25.4186 41.8134 26.2298 42.3075C27.0452 42.8039 27.7569 43.4293 28.3733 44.1231C29.1028 44.9442 29.6853 45.8462 30.1708 46.794C30.0755 46.7411 29.9778 46.693 29.8825 46.6464C29.6487 46.5314 29.4089 46.4265 29.164 46.3333C28.6573 46.1398 28.1259 45.9977 27.5877 45.899C27.0469 45.8004 26.4985 45.7545 25.9475 45.7615C25.683 45.7646 25.4178 45.7763 25.1559 45.8097C24.8974 45.8431 24.6075 45.8711 24.3821 46C24.3226 46.0342 24.3277 46.0963 24.3626 46.1399C24.2775 46.1492 24.2206 46.2502 24.2801 46.3209C24.4391 46.5073 24.6797 46.6541 24.8957 46.7815C25.1227 46.9167 25.3582 47.0395 25.6006 47.149C26.0912 47.3696 26.6081 47.5359 27.1396 47.6532C28.2024 47.8878 29.3222 47.9111 30.391 47.6967C30.4692 47.6812 30.5168 47.6361 30.5423 47.5833C30.7745 48.1015 30.987 48.6274 31.1741 49.1627C31.8849 51.2004 32.3645 53.3003 33.1442 55.3186C33.7096 56.783 34.4587 58.1799 35.5045 59.3926C35.4977 59.3894 35.4909 59.3863 35.4841 59.3832C34.9952 59.1859 34.4825 59.0414 33.9596 58.942C33.4358 58.8425 32.9035 58.799 32.3687 58.8076C31.8492 58.8153 31.2532 58.8542 30.7906 59.0896C30.6937 59.0841 30.5908 59.161 30.6529 59.2574C31.1197 59.99 31.9164 60.5369 32.7607 60.8686C33.6518 61.219 34.6576 61.3153 35.6116 61.1654C35.8761 61.1234 36.1371 61.0621 36.3913 60.9844C36.5648 60.9316 36.774 60.8717 36.9491 60.7832C38.2815 61.8397 39.9166 62.608 41.7055 62.6671C41.9657 62.6756 42.2132 62.664 42.4691 62.622C42.68 62.5894 42.691 62.2748 42.4614 62.2685ZM30.3238 47.3044C30.3119 47.3067 30.3 47.3083 30.2881 47.3106C30.2711 47.2896 30.2498 47.2702 30.2175 47.257C29.8876 47.1234 29.5458 47.0224 29.1955 46.9439C28.8426 46.8647 28.4957 46.8336 28.1344 46.8227C27.9822 46.8181 27.9541 47.0193 28.108 47.0395C28.6352 47.1086 29.1607 47.2345 29.6632 47.4038C28.8554 47.4916 28.0374 47.4574 27.2399 47.2958C26.7425 47.1949 26.2561 47.0426 25.7936 46.8476C25.5606 46.7497 25.331 46.6425 25.11 46.5228C24.9178 46.4187 24.7273 46.2929 24.5275 46.1973C24.7537 46.2168 24.9935 46.1732 25.2179 46.1616C25.4654 46.1492 25.712 46.1375 25.9594 46.1391C26.4797 46.1422 27.0027 46.1903 27.5137 46.2789C28.0179 46.3667 28.5093 46.5011 28.9863 46.6743C29.2244 46.7606 29.4574 46.8569 29.6853 46.9633C29.9157 47.0713 30.1419 47.2189 30.3952 47.278C30.4003 47.2787 30.4054 47.2787 30.4105 47.2795C30.4148 47.2888 30.4182 47.2982 30.4225 47.3075C30.3935 47.2989 30.3612 47.2966 30.3238 47.3044ZM33.4375 54.774C33.4511 54.694 33.4622 54.6132 33.4783 54.5418C33.5234 54.3413 33.5736 54.1417 33.6297 53.9435C33.6841 53.7517 33.7436 53.5606 33.8074 53.3702C33.8737 53.1745 33.9647 52.9802 33.9919 52.7759C34.0012 52.7044 33.8899 52.6594 33.8448 52.7231C33.7215 52.8956 33.662 53.0983 33.5948 53.2933C33.5268 53.4899 33.4656 53.688 33.4095 53.8884C33.3933 53.9451 33.3814 54.0026 33.3661 54.0593C33.3542 53.9249 33.3406 53.7913 33.3346 53.6561C33.3142 53.1659 33.3406 52.6741 33.4052 52.1878C33.5336 51.2237 33.8167 50.2821 34.2555 49.3973C34.4468 49.012 34.6781 48.6561 34.9153 48.2988C34.9637 48.6018 35.0182 48.9048 35.0513 49.2108C35.1066 49.7275 35.1057 50.2472 35.0564 50.7646C34.9595 51.7854 34.6576 52.7775 34.1798 53.7043C34.0446 53.9661 33.895 54.2225 33.7283 54.4687C33.639 54.6008 33.5404 54.7298 33.4452 54.8603C33.4443 54.8315 33.4409 54.8028 33.4375 54.774ZM36.9976 57.8637C37.194 56.9726 37.569 56.1289 38.0834 55.352C38.2237 55.1392 38.3801 54.9372 38.534 54.7321C38.6131 54.6264 38.6964 54.5246 38.7798 54.4221C38.7942 54.4042 38.8104 54.3864 38.8257 54.3685C38.8478 54.527 38.9056 54.6901 38.9311 54.8424C38.9668 55.0591 38.9923 55.2775 39.0034 55.4958C39.0246 55.9261 38.9855 56.3589 38.8996 56.7823C38.727 57.6384 38.3478 58.4634 37.7943 59.1727C37.6132 59.405 37.4108 59.6171 37.2025 59.8253C37.3028 59.5969 37.4015 59.3677 37.4925 59.1346C37.5571 58.9676 37.6208 58.7998 37.6795 58.6312C37.7365 58.4681 37.8258 58.2902 37.8309 58.1177C37.8334 58.0517 37.745 58.0136 37.6965 58.0695C37.5843 58.2008 37.5307 58.3779 37.4627 58.531C37.387 58.7011 37.3156 58.8728 37.2459 59.0461C37.1107 59.3817 36.9916 59.7212 36.8752 60.063C36.853 59.7833 36.8309 59.5037 36.836 59.2224C36.8454 58.7656 36.8998 58.3104 36.9976 57.8637ZM36.1975 60.6472C35.9322 60.7264 35.6584 60.7816 35.3821 60.8166C34.803 60.8904 34.2104 60.8663 33.6416 60.7428C32.5923 60.5144 31.7497 59.9527 31.0185 59.2558C31.4513 59.2543 31.8892 59.1937 32.322 59.189C32.8364 59.1836 33.3533 59.2294 33.8575 59.3203C34.3626 59.4112 34.8558 59.5549 35.3277 59.7422C35.564 59.8362 35.7962 59.9395 36.0206 60.056C36.1014 60.098 36.1847 60.1461 36.2689 60.1935C36.3182 60.2401 36.3641 60.2898 36.4152 60.3357C36.4747 60.3893 36.5359 60.4421 36.5971 60.4949C36.4645 60.5485 36.331 60.6076 36.1975 60.6472Z" fill="#1E1E1E"/>
<path d="M36.1456 60.3605C36.0793 60.3256 36.0325 60.2991 35.9534 60.289C35.8956 60.2821 35.8369 60.2797 35.7783 60.2774C35.6516 60.272 35.524 60.2665 35.3973 60.2634C35.1422 60.2572 34.8872 60.2603 34.6321 60.2619C34.4926 60.2627 34.4612 60.4483 34.6074 60.4638C34.86 60.491 35.1108 60.5198 35.3642 60.54C35.4909 60.5501 35.6176 60.5579 35.7442 60.5656C35.8029 60.5687 35.8616 60.5726 35.9203 60.5718C36.0019 60.5711 36.052 60.5563 36.1269 60.526C36.1915 60.4988 36.2161 60.3978 36.1456 60.3605Z" fill="#1E1E1E"/>
<path d="M44.9977 73.0352C44.9977 73.0088 44.9909 72.9855 44.9816 72.9645C44.9841 72.9195 44.9697 72.8729 44.9407 72.8317C44.7069 72.4984 44.4859 72.1581 44.2835 71.8085C44.099 71.4892 43.9255 71.1661 43.7359 70.8507C43.8396 70.7062 43.6126 70.5065 43.4655 70.6339C43.2666 70.8064 43.0863 70.9991 42.8984 71.1816C42.7037 71.372 42.5081 71.5615 42.3151 71.7526L41.7531 72.3089C41.5686 72.4922 41.3475 72.6724 41.2242 72.8977C41.2106 72.9226 41.214 72.9482 41.2225 72.9731C41.1698 72.963 41.1154 72.9568 41.0576 72.9599C40.9683 72.9645 40.9589 73.0718 41.0151 73.116C41.0763 73.1642 41.1392 73.2116 41.2004 73.2598C41.1936 73.3934 41.203 73.5293 41.2089 73.6614C41.2208 73.9022 41.2319 74.1438 41.2438 74.3847C41.2676 74.8772 41.2948 75.369 41.3228 75.8607C41.3781 76.8334 41.4674 77.8029 41.5388 78.774C41.5448 78.8509 41.6613 78.8634 41.7072 78.816C41.7148 78.8183 41.7216 78.8222 41.7301 78.8245C41.7828 78.8385 41.8347 78.8517 41.8883 78.8602C41.9869 78.8765 42.0847 78.8929 42.1833 78.9092C42.282 78.9247 42.3806 78.9379 42.4792 78.9519L42.6161 78.9713C42.6782 78.9799 42.7428 78.9962 42.8049 78.9814C42.8797 78.9636 42.9375 78.9247 42.9571 78.8525V78.8494C43.4426 77.9365 43.7946 76.9592 44.127 75.992C44.2937 75.5073 44.4501 75.0194 44.5972 74.5292C44.6712 74.2845 44.7426 74.0382 44.8107 73.7919C44.8438 73.673 44.8761 73.5534 44.9084 73.4346C44.9433 73.3071 44.9977 73.1681 44.9977 73.0352ZM41.4767 73.008C41.6698 72.8845 41.8279 72.7121 41.9886 72.5575C42.185 72.3687 42.3814 72.1791 42.5778 71.9903C42.7683 71.807 42.9571 71.6229 43.1458 71.438C43.2657 71.3207 43.389 71.2041 43.5097 71.0861C43.7274 71.6796 44.0624 72.242 44.4255 72.7742C44.3133 72.8185 44.2044 72.8799 44.1007 72.9288C43.9196 73.0143 43.7393 73.0989 43.5582 73.1844C43.2453 73.3312 42.8992 73.5526 42.5447 73.5985C42.1085 73.6544 41.8398 73.2838 41.4997 73.0834C41.4921 73.0578 41.487 73.0321 41.4767 73.008ZM41.7225 78.5231C41.7046 77.6398 41.6987 76.7565 41.6647 75.8731C41.646 75.3907 41.6272 74.9075 41.6043 74.4243C41.5924 74.1835 41.5813 73.9418 41.5694 73.701C41.5669 73.649 41.5652 73.5954 41.5635 73.5418C41.617 73.5829 41.6698 73.6257 41.7242 73.6668C41.9665 73.8486 42.2437 73.9683 42.56 73.9457C42.4597 74.6573 42.3712 75.3697 42.2675 76.0814C42.2114 76.4675 42.1553 76.8536 42.0923 77.2397C42.0269 77.6444 41.9376 78.0476 41.884 78.4539C41.8806 78.4811 41.8849 78.5037 41.8934 78.5239C41.8594 78.5215 41.8254 78.5184 41.7914 78.5184C41.7684 78.5177 41.7454 78.52 41.7225 78.5231ZM44.5505 73.3406C44.519 73.4586 44.4867 73.5767 44.4544 73.6948C44.3864 73.9411 44.3166 74.1874 44.2435 74.4328C44.099 74.9238 43.9442 75.4125 43.7801 75.898C43.4706 76.8163 43.1067 77.7198 42.7989 78.6381C42.7181 78.6148 42.6297 78.6101 42.5464 78.5992C42.4435 78.5852 42.3415 78.5705 42.2386 78.5588C42.2114 78.5557 42.185 78.5526 42.1578 78.5495C42.174 78.5316 42.1876 78.5114 42.1935 78.4842C42.2871 78.095 42.3381 77.6941 42.401 77.3003C42.4639 76.9048 42.5234 76.5086 42.5727 76.1117C42.6637 75.3791 42.7343 74.6496 42.7598 73.9139C43.0761 73.8393 43.3694 73.6591 43.6509 73.5216C43.849 73.4245 44.048 73.3273 44.2461 73.2302C44.3651 73.172 44.4978 73.1191 44.6125 73.0484C44.6151 73.0523 44.6185 73.057 44.621 73.0609C44.5913 73.1518 44.5743 73.2504 44.5505 73.3406Z" fill="#1E1E1E"/>
<path d="M17.0162 29.8099C16.9881 29.8037 16.9618 29.8045 16.9371 29.8076C16.8904 29.7944 16.8368 29.7967 16.7866 29.8131C16.3776 29.9428 15.9636 30.0601 15.5444 30.158C15.1618 30.2473 14.7774 30.3258 14.3965 30.4206C14.2673 30.2947 14.0011 30.4493 14.1032 30.6101C14.2401 30.8269 14.4025 31.0327 14.5538 31.2417C14.7103 31.4593 14.8667 31.6768 15.0249 31.8935L15.4857 32.5228C15.6371 32.7302 15.7782 32.9679 15.9891 33.1303C16.012 33.1482 16.0401 33.1513 16.069 33.1489C16.046 33.1932 16.0265 33.2399 16.0163 33.2919C16.0001 33.3719 16.1124 33.4053 16.1727 33.3657C16.2382 33.323 16.3037 33.2779 16.3691 33.2344C16.5094 33.2717 16.6565 33.2958 16.7985 33.3206C17.0579 33.3665 17.3172 33.4131 17.5765 33.4589C18.1054 33.5529 18.636 33.6438 19.1657 33.7339C20.2141 33.9126 21.2659 34.0594 22.3168 34.2234C22.4001 34.2366 22.4409 34.1356 22.401 34.0843C22.4061 34.0781 22.4103 34.0727 22.4154 34.0657C22.4426 34.0222 22.469 33.9794 22.4911 33.9336C22.5319 33.8505 22.5719 33.7666 22.6118 33.6827C22.6518 33.5988 22.6884 33.5141 22.7266 33.4302L22.7793 33.3136C22.8031 33.2608 22.8354 33.2064 22.8337 33.1489C22.832 33.0782 22.804 33.0184 22.7326 32.9835L22.7292 32.9819C21.8721 32.3371 20.9138 31.7956 19.9624 31.2743C19.4854 31.0133 19.0033 30.7601 18.5161 30.5146C18.2729 30.3918 18.028 30.2706 17.7814 30.1525C17.6624 30.0958 17.5434 30.0383 17.4235 29.9824C17.2925 29.9218 17.1582 29.841 17.0162 29.8099ZM16.1642 32.9314C16.0784 32.731 15.9313 32.55 15.8046 32.3713C15.649 32.1522 15.4942 31.9339 15.3386 31.7148C15.1881 31.5028 15.0359 31.2922 14.8837 31.0809C14.7868 30.9465 14.6916 30.8098 14.5938 30.6754C15.2757 30.621 15.9525 30.454 16.6038 30.2566C16.6251 30.367 16.6642 30.4773 16.6922 30.5814C16.7407 30.7624 16.7892 30.9426 16.8376 31.1236C16.921 31.4359 17.0749 31.7956 17.0409 32.1211C16.9983 32.522 16.5409 32.6735 16.2484 32.9283C16.2212 32.9291 16.1923 32.9283 16.1642 32.9314ZM22.0906 34.0027C21.1468 33.8116 20.2056 33.6104 19.2575 33.4348C18.7397 33.3385 18.221 33.2422 17.7024 33.1497C17.443 33.1039 17.1837 33.0573 16.9244 33.0114C16.8683 33.0013 16.8113 32.9905 16.7535 32.9788C16.8104 32.9407 16.8683 32.9042 16.9235 32.8654C17.1744 32.6921 17.3657 32.4746 17.4158 32.1879C18.1496 32.4435 18.8876 32.6883 19.6197 32.947C20.0177 33.0876 20.4156 33.2274 20.811 33.3727C21.2259 33.5249 21.6349 33.699 22.054 33.8419C22.0821 33.8512 22.1076 33.8528 22.1306 33.8497C22.1204 33.8792 22.1093 33.9087 22.1008 33.939C22.0957 33.9608 22.0923 33.981 22.0906 34.0027ZM17.2373 30.2792C17.3555 30.3343 17.4736 30.391 17.591 30.447C17.8376 30.5651 18.0824 30.6847 18.3273 30.8067C18.8162 31.0498 19.3 31.3016 19.7787 31.561C20.6834 32.0512 21.5592 32.5857 22.4647 33.0736C22.4214 33.1396 22.395 33.2173 22.3644 33.2888C22.3261 33.3766 22.2862 33.4644 22.2488 33.5529C22.2394 33.5762 22.2301 33.5995 22.2199 33.6228C22.2045 33.6042 22.1858 33.5879 22.1586 33.5755C21.7667 33.4014 21.3517 33.2624 20.9479 33.114C20.5414 32.9656 20.1341 32.8203 19.7235 32.6836C18.965 32.4319 18.2057 32.1981 17.4286 32.0031C17.4226 31.7048 17.3002 31.4018 17.2194 31.1197C17.1624 30.9209 17.1055 30.7212 17.0485 30.5223C17.0145 30.4027 16.989 30.273 16.9405 30.1541C16.9456 30.1526 16.9507 30.151 16.9558 30.1494C17.046 30.1984 17.1471 30.2364 17.2373 30.2792Z" fill="#1E1E1E"/>
<path d="M118.822 7.20051C118.794 6.91462 118.76 6.62952 118.714 6.34518C118.624 5.79515 118.495 5.25678 118.305 4.72773C117.939 3.71002 117.313 2.73814 116.323 2.1314C115.063 1.35919 113.489 1.30015 112.021 1.24732C110.391 1.18828 108.758 1.20538 107.13 1.30559C105.268 1.4198 103.432 1.66451 101.603 2.00167C101.341 2.04984 101.401 2.41653 101.668 2.37769C104.767 1.92788 107.938 1.73288 111.074 1.81445C111.827 1.83387 112.582 1.86106 113.332 1.92787C114.032 1.99002 114.732 2.09877 115.376 2.36524C116.418 2.79485 117.097 3.64552 117.506 4.59487C117.739 5.13712 117.891 5.70736 118.016 6.27759C118.077 6.55882 118.131 6.84239 118.18 7.12594C118.231 7.42815 118.237 7.73189 118.402 8.00069C118.483 8.13198 118.728 8.16539 118.789 7.99448C118.888 7.72412 118.851 7.48096 118.822 7.20051Z" fill="#DC9FC6"/>
<path d="M118.996 2.37926C118.888 2.02656 118.699 1.72358 118.428 1.45478C118.155 1.18442 117.839 0.94359 117.506 0.737718C116.818 0.311214 116.091 0.058749 115.261 0.000483388C115.058 -0.0135004 114.954 0.280142 115.169 0.332969C115.859 0.503105 116.573 0.786662 117.164 1.15645C117.771 1.53635 118.232 2.05609 118.775 2.50124C118.862 2.57193 119.028 2.48414 118.996 2.37926Z" fill="#DC9FC6"/>
<path d="M8.17677 42.7037C7.92934 41.9874 7.59178 41.3007 7.26698 40.6108C6.95578 39.9489 6.65139 39.2847 6.33594 38.6251C5.70504 37.3052 5.09029 35.9791 4.49 34.6475C4.1771 33.9538 3.8693 33.2585 3.5649 32.5624C3.29367 31.9417 3.01648 31.3171 2.86343 30.6622C2.71719 30.0399 2.68232 29.385 2.90765 28.7744C3.11086 28.2236 3.48413 27.7326 3.94328 27.3332C5.10645 26.3233 6.71346 25.8999 8.18953 25.419C8.37744 25.3577 8.28561 25.0741 8.09004 25.1114C6.63268 25.3926 5.17277 25.7585 3.97304 26.6045C2.86513 27.3861 2.10584 28.5234 2.13645 29.8278C2.17046 31.2658 2.93655 32.6502 3.51729 33.9584C4.14649 35.3762 4.79355 36.7878 5.45676 38.1932C5.83428 38.9926 6.2254 39.785 6.62843 40.5743C7.0238 41.3481 7.40983 42.1296 7.90639 42.8537C8.01012 43.0059 8.22609 42.8482 8.17677 42.7037Z" fill="#DC9FC6"/>
<path d="M2.72142 35.3242C2.59813 34.8713 2.36601 34.4409 2.16364 34.0136C1.95703 33.5778 1.74956 33.1419 1.5421 32.7061C1.12036 31.8205 0.685874 30.9395 0.257337 30.057C0.187615 29.9125 -0.0555603 30.0104 0.0116111 30.1564C0.423992 31.0459 0.83127 31.9378 1.2496 32.8242C1.45537 33.2608 1.66198 33.6974 1.86945 34.1332C2.07266 34.5605 2.25717 35.008 2.53436 35.4003C2.59133 35.4803 2.74693 35.4159 2.72142 35.3242Z" fill="#DC9FC6"/>
<path d="M115.658 69.0413C115.712 68.4789 115.717 67.9141 115.756 67.3516C115.777 67.0572 115.805 66.7628 115.854 66.4707C115.903 66.1832 116.019 65.8973 116.031 65.6076C116.039 65.418 115.753 65.2704 115.619 65.4592C115.346 65.8484 115.308 66.4031 115.261 66.8544C115.211 67.3276 115.199 67.8022 115.176 68.2769C115.137 69.0981 115.061 69.9293 114.706 70.6945C114.346 71.473 113.717 71.9989 112.843 72.2716C112.384 72.4145 111.903 72.4938 111.429 72.5847C110.891 72.688 110.353 72.7905 109.815 72.8939C108.589 73.1285 107.375 73.3903 106.159 73.6583C105.966 73.701 106.006 73.9714 106.208 73.9403C107.357 73.7632 108.504 73.5868 109.646 73.3779C110.701 73.186 111.786 73.0438 112.82 72.7696C113.704 72.5349 114.453 72.0921 114.928 71.3572C115.381 70.6572 115.58 69.8454 115.658 69.0413Z" fill="#DC9FC6"/>
<path d="M116.274 71.8031C116.235 71.7185 116.112 71.6719 116.02 71.7138C115.818 71.8063 115.737 72.0284 115.64 72.2025C115.543 72.3765 115.426 72.542 115.297 72.6981C115.04 73.012 114.73 73.2839 114.382 73.5123C114.035 73.7407 113.648 73.9178 113.241 74.0405C112.827 74.1656 112.38 74.1656 111.973 74.2954C111.827 74.3412 111.84 74.5509 111.979 74.596C112.422 74.7389 112.968 74.6115 113.401 74.4888C113.862 74.3591 114.296 74.1578 114.693 73.9061C115.087 73.6552 115.443 73.3452 115.735 72.9956C115.878 72.8247 116.003 72.6429 116.116 72.4534C116.227 72.2654 116.374 72.0183 116.274 71.8031Z" fill="#DC9FC6"/>
<path d="M43.5557 89.0715C42.4248 88.9192 41.3186 89.1958 40.2405 89.4817C39.2074 89.7559 38.1156 90.048 37.0332 89.8608C36.0112 89.6844 35.3429 88.9791 34.8481 88.1921C34.2699 87.2738 33.7665 86.3144 33.2198 85.3798C32.5608 84.2541 31.8917 83.1331 31.2284 82.0089C31.1009 81.7922 30.7191 81.9398 30.8416 82.1659C31.9469 84.2129 33.0013 86.2926 34.1984 88.2969C34.6925 89.1235 35.3166 89.9191 36.3046 90.2842C37.3385 90.6664 38.511 90.5382 39.5645 90.299C40.8484 90.0068 42.1315 89.5143 43.4791 89.6961C43.9179 89.7559 43.9936 89.1305 43.5557 89.0715Z" fill="#DC9FC6"/>
<path d="M33.8634 89.1834C33.849 88.7545 33.4816 88.3412 33.2504 87.9823C32.9851 87.5713 32.7207 87.1596 32.4554 86.7486C31.9401 85.9485 31.4163 85.1553 30.8781 84.3683C30.7599 84.1958 30.4368 84.3737 30.5431 84.554C31.0303 85.3798 31.532 86.1963 32.043 87.0097C32.2947 87.4105 32.5463 87.8114 32.798 88.2123C33.0267 88.5759 33.241 89.0785 33.6457 89.303C33.7546 89.3644 33.8677 89.2952 33.8634 89.1834Z" fill="#DC9FC6"/>
<path d="M72.1613 0.449508C70.987 0.59323 69.8205 0.895442 68.6658 1.13705C67.5035 1.38021 66.342 1.62648 65.1831 1.88052C62.8959 2.38238 60.6138 2.90289 58.3367 3.44205C53.7589 4.52656 49.2057 5.69575 44.6763 6.93952C42.1136 7.64337 39.5764 8.40939 37.0426 9.19559C36.8453 9.25696 36.9796 9.51487 37.1718 9.46204C41.7216 8.22137 46.2825 7.00401 50.8603 5.85269C55.4101 4.70835 59.9795 3.62539 64.5692 2.62245C65.8557 2.34122 67.1438 2.06386 68.4328 1.79273C69.0697 1.65911 69.7065 1.52626 70.3442 1.39497C71.0075 1.25902 71.6766 1.14171 72.3262 0.959925C72.6527 0.868254 72.4793 0.410664 72.1613 0.449508Z" fill="#DC9FC6"/>
<path d="M54.9595 2.8648C54.6194 2.75915 54.1347 2.97745 53.8074 3.06601C53.4324 3.16701 53.0583 3.27189 52.685 3.37754C52.3024 3.48475 51.9206 3.59196 51.538 3.69917C51.1401 3.81104 50.6988 3.9097 50.3315 4.09071C50.1784 4.16607 50.2405 4.37193 50.4174 4.35717C50.8323 4.32299 51.2608 4.18239 51.6588 4.07518L52.8092 3.7652C53.1841 3.6642 53.56 3.56322 53.9332 3.45912C54.2572 3.36823 54.7971 3.30528 55.0148 3.04814C55.0658 2.9891 55.0394 2.88966 54.9595 2.8648Z" fill="#DC9FC6"/>
<path d="M76.0233 73.1572C74.923 73.4788 73.8228 73.8005 72.7225 74.1221C71.6231 74.4437 70.5467 74.8119 69.4575 75.16C69.2594 75.2237 69.3571 75.5399 69.5629 75.4863C70.6802 75.1988 71.8 74.9339 72.9087 74.6185C74.0285 74.3 75.1483 73.9815 76.2681 73.663C76.6397 73.5581 76.3931 73.0485 76.0233 73.1572Z" fill="#DC9FC6"/>
</svg>
